<svg xmlns="http://www.w3.org/2000/svg" xmlns:xlink="http://www.w3.org/1999/xlink" version="1.1" x="0px" y="0px" viewBox="0 0 100 125" style="enable-background:new 0 0 100 100;" xml:space="preserve"><g><path d="M80.1,25.3c1,0.1,3-2.1,3.7-3.4c1.1,1.1,3.4,2.7,4.3,2.4c1.1-0.3,1.7-6-0.8-6.2c-1.8-0.1-3.2,1.7-3.7,2.6   c-0.8-0.8-2.4-2.2-4.1-1.7C77.2,19.8,79,25.2,80.1,25.3z"/><path d="M96.6,21.1c-3.4-10.6-10.6-13.9-13.8-7.9c0,0-2.7-7.2-10-6.3c-7.2,0.9-10.2,9.1-10.9,14.9c-0.7,5.9-7.2,8.6-8.4,15.2   c0,0,4.1-4.8,7.7-6.6c3.6-1.8,9.9-13.8,14.7-10.2c0,0,0.5-1.6,2.7-2.7c0,0,2.5-0.7,3.8,0.2l0.9,0.9c0,0,1.1-2.9,4.8-2.3   c0,0,2.5,0,2.9,6.1c0,0,9.5,5.2,3.2,14.5c0,0,4.1,2.3,4.5,7.7C98.8,44.7,100,31.8,96.6,21.1z"/><path d="M54.4,76.8c0,0,0.5-8.4,2.3-10.9c1.8-2.5,1.8-5.7,1.8-5.7s1.4,3.8-0.9,7.7c-2.3,3.8,0,8.8,0,8.8s1.4-4.8,2.5-6.8   c1.1-2,2.7-5.4,2.7-5.4s-2,8.2-2.7,10.6c0,0,3.6-1.6,8.2-1.1s8.2-2,8.2-2s-5.4-5.2-5.7-18.6c0,0-3.7-13-0.8-23.5   c0.4-1.5,1.2-2.9,2.1-4.1l2.8-3.4c0,0-1.8-1.4-3.4,0.2c-1.5,1.5-3.7,6.1-10,9.6c-1.2,0.7-2.2,1.4-3.1,2.4c-1.7,1.8-4.3,4.7-4.7,6.8   c-0.7,3.2-1.1,6.6-0.2,12.7C54.2,60.3,47.6,67.1,54.4,76.8z"/><path d="M94.5,64.6c0,0,1.4,10.9-5.9,14.5L85.2,78c0,0-0.4,0.4-1.4,0c-1.6-0.7-6.3-3.4-6.3-3.4s-3.8,1.6-5.4,1.8   c-1.6,0.2-8.2-0.2-11.5,1.8c-3.4,2-7.9,0-7.9,0s-4.3-6.6-3.4-12.7c0.9-6.1,2.9-9.7,1.1-15.9l-14.7,0.5c0,0-2.5,5.9-3.6,7.5   c-1,1.4-1.5,2.8-2.3,5.3c-0.3,0.8-0.7,1.6-1.2,2.3l-1.2,1.7l-1.8,2.3l-2.7-0.9c0,0-9.5-2-10.2-9.7c-0.7-7.7,5.2-6,0-13.9   c0,0-6.7,3.9-7,11.9c-0.2,7.9-1.4,17.2-1.6,19.9C3.7,79.1,4.6,89.1,1,88.6c0,0,1.8,4.1,7,0.2c0,0-1.4,4.3-3.8,4.3   c0,0,6.6,0.5,9.3-0.7c2.7-1.1,6.3,0,11.1-1.1c4.8-1.1,6.3-2.9,6.3-2.9s0.9,2.7-0.7,4.3c0,0,6.1-1.8,7-3.2c0.9-1.4,4.3,2.7,7.5,2.7   c0,0,7.2,0.9,13.4-0.2c6.1-1.1,8.6,1.1,12.5,0.7c3.8-0.5,7.2-0.2,11.3-0.5c0,0-2.3-2.3-3.8-4.8c-1.3-2.1,0.4-5,0.4-7.5   c0.3,1.8,0.8,4.8,1.6,6.1c1.1,1.8,2.7,4.1,4.5,3.4c1.8-0.7,4.3-5.2,4.8-6.3c0,0-0.5,5.4-1.6,7.9c0,0,5.4,0.9,7-1.4   c1.6-2.3,4.5-9.7,2.9-16.3C96.1,66.9,94.5,64.6,94.5,64.6z"/><path d="M14.4,43.3c0.9,0.5,3.8,5.2,2.3,7.5s-2.7,8.4-1.1,10.2c0,0,1.8,3.6,6.6,4.8c0,0-2.5-3.6-2.5-7c0,0,3.2,6.8,5.7,7   c0,0,0.2-4.1,0.5-5.9l1.6,3.4c0,0,0.7-4.5,2.5-6.8s5-7.5,4.3-13.1c-0.7-5.7-7.9-10.6-12.2-10.6c-2.9,0-5.8,3.3-7.3,5.3   c-0.9,1.2-1.2,2.8-0.8,4.3C13.9,42.8,14.1,43.2,14.4,43.3z"/><path d="M76.8,24.3c-2.8,2.1-4.7,5.2-5.2,8.6c-1.4,8.9,1.2,18.5,1.2,18.5S73,42,78.2,38.3c5.2-3.6,13.4-2.3,13.4-2.3   c2.3-1.1,2.9-3.8,2.9-3.8c0.9-4.1-3.6-7.7-3.6-7.7l-0.2,1.4c-0.2,3.6-6.6-0.9-6.6-0.9s-1.6,2.3-3.6,3.2   C78.4,29,76.9,24.3,76.8,24.3L76.8,24.3z M90.6,31.6c0.9,0,1.6,0.5,1.6,1.2c0,0.7-0.7,1.2-1.6,1.2c-0.9,0-1.6-0.5-1.6-1.2   C89,32.1,89.7,31.6,90.6,31.6z M79.7,32.9c0,0.7-0.7,1.2-1.6,1.2c-0.9,0-1.6-0.5-1.6-1.2c0-0.7,0.7-1.2,1.6-1.2   C79,31.7,79.7,32.3,79.7,32.9z"/><ellipse cx="86.7" cy="39.5" rx="2.4" ry="1.8"/><path d="M95,62.8c0-2.9,2-8.4,2-8.4c0.9-6.3-0.1-10.4-1.1-12.8c-0.8-1.9-2.5-3.2-4.5-3.6c-0.5-0.1-1-0.2-1.5-0.3   c0.4,0.5,0.6,1.1,0.6,1.7c0,1.5-1.3,2.7-3,3v2.7h2.1c0.3,0,0.6,0.3,0.6,0.6s-0.3,0.6-0.6,0.6h-5.2c-0.3,0-0.6-0.3-0.6-0.6   s0.3-0.6,0.6-0.6h1.9v-2.7c-1.8-0.2-3.2-1.5-3.2-3c0-0.4,0.1-0.8,0.2-1.1c-3.7,1.3-5.9,4-6.8,6.1c-1.6,3.6-2.7,10.4-2.7,10.4   c-0.9,11.8,9.5,20.4,9.5,20.4l-2.5-6.6l6.1,7.7c0.7-4.3-2.7-7.9-2.7-7.9c-5.7-6.3-4.8-12-4.8-12s1.1,5.7,5,8.8   c3.8,3.2,5,10.6,5,10.6s3.8-4.3,3.4-12.2c-0.5-7.9,0.5-11.5,0.5-11.5C93.2,59.4,95,62.8,95,62.8z"/></g><text x="0" y="115" fill="#000000" font-size="5px" font-weight="bold" font-family="'Helvetica Neue', Helvetica, Arial-Unicode, Arial, Sans-serif">Created by parkjisun</text><text x="0" y="120" fill="#000000" font-size="5px" font-weight="bold" font-family="'Helvetica Neue', Helvetica, Arial-Unicode, Arial, Sans-serif">from the Noun Project</text></svg>