<svg xmlns="http://www.w3.org/2000/svg" xmlns:xlink="http://www.w3.org/1999/xlink" data-name="Layer 1" viewBox="0 0 100 125" x="0px" y="0px"><defs><style>.cls-1{fill:none;}.cls-2{clip-path:url(#a);}</style><clipPath id="a"><rect class="cls-1" y="113.74" width="100" height="100" transform="matrix(0.99, 0.17, -0.17, 0.99, 28.08, -6.06)"/></clipPath></defs><title>GreenDayICONS</title><path d="M41.5,55.34s-4.7,2-7.73-.59c0,0-1.78,0-.5,1.6s5.86,1.94,7.77.37S41.5,55.34,41.5,55.34Z"/><path d="M55.22,77.61,51.53,77a5.35,5.35,0,0,0-2.82.44c-1.16.64-3.76-.85-5.7-.48s-4.17.63-4.17.63L43,75.83s2.42-.72,3.76,0c.88.47,2-.65,4.38-.1A11,11,0,0,1,55.22,77.61Z"/><circle cx="58.94" cy="52.9" r="0.71"/><circle cx="37.51" cy="52.75" r="0.71"/><path d="M70.41,53.46a9.55,9.55,0,0,0,7.35,5.71S73.84,47.74,76,45c0,0,7.27-1.88,8.67,1.47,0,0-.58-4-5.75-4.64,0,0,4.2,1.26,6.78-1.42,0,0-7.64-6.22-6.78-10.34,0,0,3.19,2.51,5.27.89,0,0-9.5-4.56-8.25-7.8a10,10,0,0,1,7.59,3.92S77.31,8.61,55.81,9.56c0,0-18-10.93-29.22-3.8,0,0,4.73-.84,6.77,1.64,0,0-10.56,2.31-10.94,5.53,0,0,3.33-2.23,5-1.45,0,0-5.47,7.11-12.61,9.51a10.71,10.71,0,0,0,6.68.31S18.19,29.12,13,31.84c0,0,2.92,1.15,4.2.39A16.47,16.47,0,0,1,8.46,43s5.41,1,6.9-.05c0,0,1.31,5.8-1.85,6.09,0,0,4.84-.48,5.4-1.87,0,0-1.32,6.83-6.94,8,0,0,7,4.14,12.46-.92l1-14.19s5.06-1.28,6.56-5.29c0,0-1.22,3.57,4.6,9.81,0,0-3.74-12.94-2.56-17a3.15,3.15,0,0,1,3.66,3.57s.69,10.46,8,13.83c0,0-5.62-8.5,3.31-14.7,0,0-2,11.64,1.77,15.07,0,0-.73-8,4.16-14.39,0,0,4.36.58,3.07,4.3,0,0,2-3.76,3.78-3.63,0,0,.54,9.28,4,12.33,0,0-3-7.41-1.63-11.1C64.2,32.82,72.87,33.42,70.41,53.46Z"/><path d="M43.3,51.27a2.5,2.5,0,0,0-1.45-2.65c-1.73-.69-4.13-.9-6.45-2.75s-6.76.79-7.35,4.25C28.05,50.12,32.07,45.15,43.3,51.27Z"/><path d="M54.67,55s4.35,2.71,7.73.57c0,0,1.76.28.26,1.66s-6.08,1-7.73-.8S54.67,55,54.67,55Z"/><path d="M38.84,77.57S41.4,80.94,47.26,81h.15a11.89,11.89,0,0,0,7.81-3.43s-4.42,2.65-8,2.87H46.9c-3.5,0-8.06-2.92-8.06-2.92Z"/><path d="M52.19,51.45a2.51,2.51,0,0,1,1.55-2.59c1.76-.62,4.17-.73,6.55-2.5s6.73,1.06,7.18,4.55C67.47,50.91,63.65,45.78,52.19,51.45Z"/><path d="M73.24,56.24s-.48,8-4.91,9.55C68.33,65.79,73.7,67,73.24,56.24Z"/><path d="M32.82,54.14s4.13-5.44,8.86,0C41.68,54.14,37.7,49.61,32.82,54.14Z"/><path d="M39.07,52.34s.75,2.48-1.65,2.65a2.17,2.17,0,0,1-2.09-2.65s-1,3.1,2.09,3.12C40.19,55.47,39.07,52.34,39.07,52.34Z"/><path d="M62.78,54.52s-3.88-5.63-8.85-.41C53.93,54.11,58.12,49.77,62.78,54.52Z"/><path d="M57,52.45s-.86,2.44,1.53,2.73a2.17,2.17,0,0,0,2.2-2.56s.85,3.15-2.22,3C55.72,55.53,57,52.45,57,52.45Z"/><path d="M48,70.49a2.49,2.49,0,0,1-1.65-1.43s-.74-1.32-1.54-1.59-1.75,0,.44,2.28c0,0-1-1.6-.9-1.92a3,3,0,0,1,1,1C46,69.6,46.88,70.6,48,70.49Z"/><path d="M48,70.49a2.49,2.49,0,0,0,1.65-1.43s.74-1.32,1.54-1.59,1.75,0-.43,2.28c0,0,1-1.6.89-1.92a3,3,0,0,0-1,1C50,69.62,49.13,70.6,48,70.49Z"/><path d="M24.67,50.86s.33,10,1.88,15.79,2.3,9.28,4.35,11.66S40.37,91,48,90.37c0,0,3.06.36,7.56-3.57s8.82-7.2,10.55-12.63S70.58,55.33,70.74,50l.46,2.91s-2,12.77-3.2,17.59-3.09,9.07-6.69,12.11-8,8.52-13.31,8.58-7.4-2-11.53-5.45c0,0-4.94-5.07-6.22-6.95a19.48,19.48,0,0,1-3.1-6.8,77.29,77.29,0,0,1-3.23-19.24Z"/><path d="M32.82,54.14a4.78,4.78,0,0,1,8.86,0C38.58,51.07,35.63,51.22,32.82,54.14Z"/><path d="M53.92,54.14a4.76,4.76,0,0,1,8.86.38C59.79,51.34,56.84,51.32,53.92,54.14Z"/><path d="M21,55.46s.49,8,4.92,9.55C25.88,65,20.51,66.24,21,55.46Z"/><path d="M45.26,53.79a10.88,10.88,0,0,1-.47,8.62S45.6,56.57,45.26,53.79Z"/><text x="0" y="115" fill="#000000" font-size="5px" font-weight="bold" font-family="'Helvetica Neue', Helvetica, Arial-Unicode, Arial, Sans-serif">Created by Daniel Giangrandi</text><text x="0" y="120" fill="#000000" font-size="5px" font-weight="bold" font-family="'Helvetica Neue', Helvetica, Arial-Unicode, Arial, Sans-serif">from the Noun Project</text></svg>