<svg xmlns="http://www.w3.org/2000/svg" xmlns:xlink="http://www.w3.org/1999/xlink" version="1.1" x="0px" y="0px" viewBox="0 0 100 125" enable-background="new 0 0 100 100" xml:space="preserve"><g><path d="M27.376,51.892c-4.991,0-8.901-10.36-8.901-23.586c0-13.225,3.91-23.585,8.901-23.585s8.901,10.36,8.901,23.585   C36.278,41.531,32.368,51.892,27.376,51.892z M27.376,5.986c-3.688,0-7.636,8.968-7.636,22.319c0,13.352,3.948,22.321,7.636,22.321   s7.636-8.969,7.636-22.321C35.012,14.954,31.064,5.986,27.376,5.986z"/></g><ellipse cx="27.376" cy="28.305" rx="2.137" ry="5.932"/><g><path d="M71.601,52H27c-0.276,0-0.5-0.224-0.5-0.5S26.724,51,27,51h44.601c4.224,0,7.792-10.388,7.792-22.684   C79.393,16.219,75.846,6,71.647,6H27c-0.276,0-0.5-0.224-0.5-0.5S26.724,5,27,5h44.647c4.903,0,8.745,10.242,8.745,23.316   C80.393,41.375,76.448,52,71.601,52z"/></g><g><path d="M74.5,96h-45c-0.276,0-0.5-0.224-0.5-0.5V72.91c0-1.778-1.31-14.743-3.458-17.187c-2.368-2.692-5.357-13.843-5.483-14.316   c-0.071-0.267,0.087-0.541,0.354-0.612c0.269-0.072,0.541,0.087,0.612,0.354c0.031,0.114,3.055,11.396,5.269,13.914   C28.812,57.928,30,71.33,30,72.91V95h44V72.91c0-2.098-1.204-14.742-3.341-17.173c-0.744-0.846-1.258-2.09-2.034-4.048   c-0.102-0.257,0.024-0.548,0.28-0.649c0.256-0.104,0.547,0.023,0.649,0.28c0.739,1.865,1.232,3.049,1.855,3.757   C73.896,57.906,75,71.251,75,72.91V95.5C75,95.776,74.776,96,74.5,96z"/></g><g><path d="M37,61h-7c-0.276,0-0.5-0.224-0.5-0.5S29.724,60,30,60h7c0.276,0,0.5,0.224,0.5,0.5S37.276,61,37,61z"/></g><g><path d="M49,61h-8c-0.276,0-0.5-0.224-0.5-0.5S40.724,60,41,60h8c0.276,0,0.5,0.224,0.5,0.5S49.276,61,49,61z"/></g><g><path d="M60,61h-7c-0.276,0-0.5-0.224-0.5-0.5S52.724,60,53,60h7c0.276,0,0.5,0.224,0.5,0.5S60.276,61,60,61z"/></g><g><path d="M71,61h-7c-0.276,0-0.5-0.224-0.5-0.5S63.724,60,64,60h7c0.276,0,0.5,0.224,0.5,0.5S71.276,61,71,61z"/></g><text x="0" y="115" fill="#000000" font-size="5px" font-weight="bold" font-family="'Helvetica Neue', Helvetica, Arial-Unicode, Arial, Sans-serif">Created by Santiago Arias</text><text x="0" y="120" fill="#000000" font-size="5px" font-weight="bold" font-family="'Helvetica Neue', Helvetica, Arial-Unicode, Arial, Sans-serif">from the Noun Project</text></svg>