<svg xmlns="http://www.w3.org/2000/svg" xmlns:xlink="http://www.w3.org/1999/xlink" version="1.1" x="0px" y="0px" viewBox="0 0 100 125" enable-background="new 0 0 100 100" xml:space="preserve"><path d="M50.766,51.391c-0.009,0.005-0.015,0.013-0.023,0.018c-0.009,0.006-0.019,0.006-0.027,0.012l-0.861,0.566  c-0.009,0.006-0.013,0.015-0.021,0.021s-0.018,0.007-0.025,0.014l-0.75,0.627c-0.008,0.007-0.012,0.017-0.02,0.024  s-0.02,0.011-0.027,0.02l-0.615,0.665c-0.009,0.009-0.011,0.021-0.019,0.03c-0.007,0.009-0.018,0.014-0.024,0.023l-0.48,0.688  c-0.011,0.016-0.013,0.033-0.021,0.049c-0.008,0.016-0.021,0.025-0.028,0.042l-0.308,0.727c-0.007,0.016-0.005,0.032-0.01,0.048  c-0.006,0.018-0.017,0.031-0.021,0.05l-0.069,0.351l-0.086,0.355c-0.003,0.012,0.001,0.023-0.001,0.035  c-0.002,0.01-0.009,0.018-0.01,0.028l-0.062,0.566c-0.001,0.01,0.003,0.018,0.003,0.027c-0.001,0.009-0.006,0.017-0.006,0.026v0.123  c0,0.008,0.004,0.014,0.004,0.021c0.001,0.007-0.003,0.013-0.002,0.02l0.098,1.205c0.001,0.015,0.009,0.027,0.012,0.042  c0.002,0.015-0.002,0.028,0.002,0.043l0.333,1.292c0.003,0.011,0.014,0.016,0.017,0.025c0.008,0.022,0.007,0.046,0.018,0.067  l0.603,1.243c0.005,0.01,0.016,0.014,0.021,0.022c0.009,0.016,0.011,0.034,0.021,0.049l0.628,0.886  c0.001,0.001,0.001,0.001,0.002,0.002l0.207,0.293c0.006,0.009,0.016,0.012,0.022,0.02c0.009,0.012,0.013,0.025,0.022,0.036  l1.07,1.132c0.009,0.009,0.021,0.012,0.029,0.021c0.009,0.008,0.013,0.019,0.022,0.026l1.279,1.021  c0.005,0.004,0.012,0.002,0.017,0.006c0.01,0.007,0.015,0.018,0.025,0.024l1.477,0.947c0.007,0.004,0.015,0.002,0.021,0.006  c0.011,0.006,0.017,0.017,0.027,0.021l1.674,0.824c0.003,0.001,0.005,0.001,0.008,0.002c0.004,0.002,0.006,0.005,0.01,0.007  l2.325,1.033c0.011,0.005,0.021,0.003,0.031,0.007c0.012,0.004,0.021,0.013,0.032,0.017l2.634,0.764  c0.013,0.004,0.025,0.003,0.038,0.005c0.007,0.002,0.013,0.007,0.02,0.008l2.867,0.479c0.015,0.003,0.028,0.003,0.043,0.004  c0.003,0,0.006,0.002,0.009,0.002l3.002,0.185c0.002,0,0.004,0,0.006,0c0.001,0,0.002,0.001,0.003,0.001l0.849,0.037  c0.005,0,0.01,0,0.015,0l0.861,0.012c0.002,0,0.005,0,0.007,0c0.007,0,0.015,0,0.021,0l0.837-0.036c0.001,0,0.002-0.001,0.003-0.001  c0.004,0,0.007,0,0.011,0l0.861-0.062c0.002,0,0.003-0.001,0.005-0.002c0.009,0,0.017,0,0.025-0.001l0.85-0.111  c0.001,0,0.001-0.001,0.002-0.001s0.003,0,0.004,0l0.849-0.123c0.003,0,0.004-0.002,0.007-0.002  c0.005-0.001,0.011-0.001,0.016-0.002l0.837-0.16c0.002,0,0.004-0.002,0.007-0.003c0.004-0.001,0.007,0,0.011-0.001l0.812-0.185  c0.004-0.001,0.007-0.004,0.012-0.005c0.006-0.002,0.013-0.001,0.019-0.003l0.788-0.233c0.003-0.001,0.005-0.003,0.008-0.004  c0.004-0.001,0.008-0.001,0.012-0.002l0.763-0.259c0.003-0.001,0.005-0.004,0.008-0.005c0.002-0.001,0.005,0,0.007-0.001  l0.751-0.282c0.005-0.002,0.009-0.006,0.014-0.008c0.005-0.003,0.011-0.002,0.016-0.004l0.713-0.32  c0.026-0.012,0.045-0.033,0.068-0.049c0.01-0.007,0.021-0.004,0.031-0.011l0.529-0.406c0.003-0.003,0.005-0.006,0.008-0.009  s0.008-0.004,0.012-0.007l0.171-0.146c0.001,0,0.001,0,0.001,0l0.319-0.271c0.006-0.005,0.008-0.012,0.014-0.018  c0.005-0.004,0.012-0.006,0.017-0.011l0.455-0.455c0.006-0.006,0.007-0.013,0.013-0.019c0.005-0.006,0.013-0.008,0.018-0.014  l0.382-0.456c0.004-0.005,0.005-0.011,0.009-0.017c0.003-0.003,0.007-0.004,0.01-0.008l0.345-0.467  c0.007-0.01,0.009-0.021,0.015-0.031c0.004-0.007,0.012-0.009,0.016-0.016l0.271-0.468c0.004-0.007,0.004-0.016,0.008-0.023  c0.003-0.005,0.009-0.007,0.012-0.013l0.233-0.492c0.007-0.014,0.005-0.028,0.011-0.042c0.002-0.007,0.011-0.01,0.013-0.018  l0.16-0.492c0.002-0.007,0-0.015,0.003-0.021c0.002-0.008,0.007-0.015,0.009-0.022l0.111-0.492c0.002-0.008-0.001-0.015,0.001-0.021  c0.001-0.01,0.007-0.017,0.008-0.026l0.062-0.492c0.002-0.013-0.004-0.024-0.003-0.037s0.007-0.024,0.007-0.038l-0.013-0.492  c0-0.01-0.005-0.018-0.006-0.028c0-0.007,0.003-0.014,0.002-0.021l-0.062-0.492c-0.001-0.005-0.004-0.008-0.004-0.013  c-0.001-0.004,0.001-0.008,0-0.012l-0.12-0.681c0-0.001,0-0.002,0-0.003l-0.003-0.017c0-0.001-0.001-0.002-0.001-0.003  s0-0.002,0-0.004l-0.12-0.638l-0.062-0.393c-0.004-0.026-0.019-0.048-0.026-0.072s-0.009-0.05-0.021-0.074l-0.824-1.649  c-0.01-0.021-0.027-0.033-0.04-0.052s-0.018-0.039-0.033-0.057l-1.342-1.514c-0.012-0.014-0.028-0.019-0.041-0.03  c-0.012-0.012-0.018-0.026-0.031-0.036l-1.784-1.354c-0.004-0.003-0.008-0.003-0.012-0.006s-0.006-0.008-0.011-0.011l-1.427-0.959  c-0.009-0.006-0.019-0.006-0.027-0.011c-0.007-0.005-0.012-0.013-0.02-0.017l-1.637-0.861c-0.007-0.004-0.015-0.003-0.021-0.006  c-0.007-0.004-0.012-0.011-0.02-0.014l-1.784-0.738c-0.008-0.003-0.016-0.002-0.022-0.005c-0.007-0.002-0.012-0.008-0.019-0.01  l-1.944-0.615c-0.006-0.002-0.012,0-0.018-0.002c-0.007-0.002-0.013-0.007-0.02-0.009l-2.067-0.479  c-0.006-0.002-0.012,0-0.018-0.001s-0.011-0.005-0.017-0.007l-2.153-0.344c-0.007-0.002-0.013,0.001-0.019,0  c-0.007,0-0.012-0.004-0.018-0.005l-2.251-0.196c-0.008-0.001-0.016,0.003-0.023,0.002c-0.007,0-0.012-0.004-0.019-0.004  l-2.264-0.062c-0.005,0-0.01,0-0.014,0c-0.006,0-0.013,0-0.02,0.001l-0.973,0.037c-0.003,0-0.006,0.002-0.01,0.002  c-0.003,0-0.007-0.002-0.01-0.002l-1.255,0.098c-0.006,0.001-0.012,0.005-0.018,0.006c-0.006,0-0.011-0.002-0.017-0.002  l-1.243,0.186c-0.005,0-0.01,0.004-0.015,0.005s-0.011-0.001-0.016,0l-1.218,0.259c-0.008,0.002-0.014,0.007-0.021,0.009  c-0.008,0.002-0.016,0-0.023,0.003l-1.156,0.356c-0.008,0.002-0.013,0.008-0.021,0.011s-0.016,0.002-0.023,0.005l-1.071,0.443  c-0.006,0.002-0.009,0.008-0.015,0.01c-0.006,0.003-0.012,0.002-0.018,0.005L50.766,51.391z M74.097,66.24l-0.761,0.258  l-0.757,0.225l-0.78,0.177l-0.82,0.157l-0.833,0.121c-0.001,0-0.001,0-0.001,0l-0.837,0.109l-0.83,0.06l-0.83,0.036l-0.824-0.012  h-0.001l-0.849-0.037c-0.001,0-0.001,0-0.002,0l-2.965-0.182l-2.81-0.47l-2.577-0.748l-2.293-1.019c0,0,0,0-0.001,0l-1.629-0.803  l-1.434-0.919l-1.228-0.98l-1.026-1.086l-0.186-0.262c0-0.001,0-0.002-0.001-0.003l-0.604-0.853l-0.562-1.16l-0.311-1.206  l-0.07-0.866l0.917-0.622l1.146-0.579l1.246-0.498l1.329-0.432l1.395-0.312l1.46-0.229l1.469-0.12l1.126-0.061l2.65,0.05  l2.616,0.194l2.508,0.374l2.383,0.548l2.236,0.677l2.041,0.841l1.844,0.964l1.632,1.104l1.833,1.392l0.086,0.487l0.058,0.462  l0.011,0.433l-0.054,0.433l-0.1,0.438l-0.144,0.442l-0.215,0.452l-0.241,0.417l-0.316,0.428l-0.367,0.439l-0.417,0.417l-0.307,0.26  c0,0,0,0.001-0.001,0.001l0,0l-0.165,0.141l-0.471,0.361l-0.65,0.293L74.097,66.24C74.098,66.24,74.098,66.24,74.097,66.24z   M76.874,57.875c-0.004-0.003-0.009-0.004-0.014-0.007c-0.003-0.002-0.005-0.006-0.009-0.009l-1.674-1.132  c-0.008-0.006-0.018-0.006-0.026-0.011s-0.014-0.014-0.022-0.019l-1.883-0.984c-0.008-0.004-0.016-0.003-0.023-0.007  c-0.006-0.003-0.011-0.009-0.018-0.012l-2.092-0.861c-0.008-0.003-0.016-0.002-0.023-0.005c-0.009-0.003-0.014-0.009-0.022-0.012  l-2.276-0.689c-0.006-0.002-0.011,0-0.017-0.002c-0.006-0.001-0.01-0.006-0.016-0.007l-2.411-0.554  c-0.007-0.002-0.014,0.001-0.021,0c-0.006-0.002-0.011-0.006-0.018-0.007l-2.56-0.382c-0.006-0.001-0.011,0.002-0.017,0.001  c-0.008-0.001-0.014-0.005-0.021-0.006l-2.633-0.196c-0.005,0-0.01,0.002-0.015,0.002s-0.009-0.003-0.013-0.003l-2.683-0.05  c-0.004,0-0.007,0-0.01,0c-0.005,0-0.009,0.003-0.014,0.003c-0.004,0-0.008-0.002-0.013-0.002l-1.157,0.062  c-0.003,0-0.005,0.002-0.008,0.002c-0.002,0-0.004-0.001-0.007-0.001l-1.501,0.123c-0.006,0.001-0.011,0.004-0.017,0.005  c-0.007,0.001-0.014-0.002-0.021-0.001l-1.488,0.234c-0.006,0.001-0.01,0.005-0.016,0.006c-0.005,0.001-0.01-0.001-0.016,0  l-1.428,0.319c-0.009,0.002-0.015,0.008-0.022,0.01s-0.015,0.001-0.022,0.003l-1.366,0.443c-0.006,0.002-0.01,0.007-0.016,0.009  c-0.005,0.002-0.011,0.001-0.016,0.003l-1.292,0.517c-0.007,0.003-0.011,0.009-0.018,0.012s-0.016,0.002-0.022,0.006l-1.193,0.604  c-0.01,0.005-0.016,0.014-0.024,0.02c-0.01,0.006-0.021,0.006-0.031,0.013l-0.066,0.045l0.163-0.243l0.581-0.638l0.723-0.586  l0.852-0.559l0.977-0.502l1.066-0.433l1.154-0.36l1.189-0.26l1.252-0.18l1.283-0.085c0.001,0,0.001,0,0.002-0.001l0.973-0.048  l2.328,0.062l2.258,0.193L65.6,52.07l2.073,0.495l1.975,0.618l1.812,0.744l1.624,0.865l1.448,0.958l1.782,1.34l0.914,1.054  L76.874,57.875z M57.937,50.505l0.136-0.005l-0.204,0.01l0.062-0.005C57.933,50.505,57.935,50.505,57.937,50.505z"/><path d="M85.195,61.911l-0.375-2.529c-0.016-0.103-0.046-0.201-0.091-0.293l-0.501-1.021c-0.018-0.08-0.045-0.157-0.081-0.23  l-0.518-1.033l-0.029-0.066c-0.007-0.018-0.015-0.033-0.023-0.05l-0.603-1.182c-0.037-0.073-0.083-0.142-0.137-0.203l-1.846-2.116  c-0.045-0.052-0.096-0.099-0.15-0.14l-2.486-1.883c-0.016-0.012-0.031-0.023-0.048-0.034l-2.005-1.341  c-0.029-0.02-0.06-0.038-0.091-0.055l-2.276-1.194c-0.027-0.015-0.056-0.027-0.084-0.039l-2.511-1.033  c-0.025-0.011-0.052-0.021-0.077-0.028l-2.707-0.861c-0.026-0.008-0.053-0.016-0.079-0.021l-2.879-0.664  c-0.021-0.005-0.043-0.009-0.064-0.012l-3.027-0.492c-0.024-0.005-0.049-0.008-0.073-0.01l-3.113-0.271  c-0.02-0.002-0.04-0.003-0.06-0.004l-3.187-0.086c-0.01,0-0.019,0-0.027,0c-0.015,0-0.03,0-0.045,0.001l-1.136,0.052l-0.785-0.34  l-1.685-0.807l0.424-0.309l1.647-1.273l1.527-1.263c0.104-0.087,0.191-0.194,0.253-0.316l0.025-0.05  c0.012-0.021,0.021-0.044,0.031-0.066l0.036-0.086c0.019-0.045,0.034-0.092,0.047-0.139l0.025-0.099  c0.01-0.037,0.017-0.075,0.022-0.114l0.004-0.032l0.012-0.047c0.012-0.046,0.02-0.094,0.024-0.142l2.494-25.045l0.221-0.182  c0.109-0.09,0.198-0.2,0.261-0.326l0.062-0.123c0.025-0.051,0.047-0.104,0.062-0.158l0.037-0.123l0.037-0.123l0.037-0.123  c0.02-0.063,0.032-0.129,0.038-0.194l0.012-0.123c0.003-0.031,0.005-0.063,0.005-0.095V13.25v-0.123v-1.242v-0.123v-0.123  c0-0.029-0.001-0.058-0.004-0.086l-0.012-0.136c-0.006-0.069-0.019-0.137-0.039-0.202l-0.037-0.123l-0.037-0.123l-0.037-0.123  c-0.016-0.055-0.037-0.108-0.062-0.159l-0.062-0.123c-0.01-0.021-0.021-0.04-0.033-0.06l-0.405-0.689  c-0.01-0.018-0.021-0.034-0.032-0.051l-0.456-0.677c-0.015-0.022-0.03-0.043-0.046-0.063L57.95,8.358  c-0.014-0.017-0.027-0.033-0.042-0.049l-0.579-0.64c-0.018-0.02-0.035-0.038-0.055-0.057l-0.651-0.615l-0.326-0.313  c-0.014-0.013-0.028-0.026-0.043-0.038l-0.688-0.59c-0.014-0.012-0.027-0.023-0.042-0.035l-0.738-0.566  c-0.018-0.014-0.035-0.025-0.054-0.039l-0.812-0.541L53.054,4.34c-0.016-0.01-0.03-0.018-0.046-0.026L52.11,3.821l-0.952-0.482  c-0.017-0.009-0.033-0.017-0.051-0.023l-0.96-0.42l-0.197-0.1c-0.035-0.018-0.07-0.032-0.106-0.046l-0.271-0.099l-0.312-0.101  c-0.034-0.01-0.07-0.02-0.105-0.026l-0.308-0.062c-0.025-0.006-0.051-0.01-0.076-0.012l-0.308-0.037  c-0.04-0.006-0.08-0.008-0.12-0.008h-0.308h-0.308c-0.04,0-0.08,0.002-0.12,0.008l-0.308,0.037  c-0.028,0.003-0.057,0.008-0.084,0.014l-0.295,0.061c-0.029,0.007-0.058,0.014-0.086,0.022l-0.283,0.086  c-0.022,0.007-0.045,0.015-0.067,0.022l-0.258,0.1c-0.019,0.007-0.037,0.014-0.055,0.022L45.927,2.89  c-0.061,0.027-0.118,0.062-0.173,0.1l-2.117,1.525l-2.16,1.489l-2.212,1.467l-2.262,1.441l-2.301,1.42l-2.365,1.377l-2.404,1.375  L27.493,14.4l-2.521,1.311l-2.538,1.287l-2.58,1.246l-2.621,1.225c-0.032,0.016-0.064,0.033-0.096,0.052l-0.222,0.135  c-0.058,0.034-0.111,0.075-0.16,0.121l-0.16,0.148c-0.029,0.027-0.058,0.057-0.083,0.087l-0.135,0.16l-0.484,0.626  c-0.018,0.022-0.033,0.046-0.049,0.069l-0.111,0.172c-0.057,0.088-0.1,0.186-0.126,0.286l-0.049,0.185  c-0.011,0.041-0.019,0.082-0.024,0.125l-0.024,0.184c-0.006,0.044-0.009,0.088-0.009,0.132v1.488c0,0.044,0.003,0.088,0.009,0.132  l0.024,0.184c0.006,0.043,0.014,0.084,0.024,0.125l0.049,0.185c0.026,0.101,0.069,0.198,0.126,0.286l0.111,0.172  c0.023,0.037,0.05,0.072,0.078,0.105l0.134,0.158c0.026,0.031,0.055,0.061,0.084,0.088l0.147,0.137l2.937,23.801  c0.008,0.065,0.022,0.131,0.044,0.193l0.037,0.111c0.015,0.045,0.032,0.088,0.054,0.131l0.062,0.123  c0.048,0.095,0.109,0.182,0.184,0.256l0.098,0.1l0.106,0.104c0.049,0.049,0.104,0.093,0.161,0.13l0.141,0.09l0.634,0.481  c0.018,0.013,0.035,0.025,0.053,0.037l0.689,0.456l0.767,0.457l0.765,0.438c0.023,0.014,0.048,0.026,0.072,0.038l0.812,0.381  l0.858,0.379l0.91,0.36l0.957,0.324l0.141,0.046l7.09,8.988l1.964,6.528l0.353,2.89l-6.208,3.594  c-0.019,0.011-0.036,0.021-0.054,0.033l-0.185,0.123c-0.034,0.022-0.066,0.047-0.097,0.073l-0.173,0.148  c-0.078,0.066-0.145,0.146-0.198,0.232l-0.099,0.159c-0.031,0.05-0.059,0.103-0.08,0.157l-0.073,0.185  c-0.012,0.03-0.022,0.062-0.031,0.093l-0.05,0.173c-0.025,0.09-0.039,0.183-0.039,0.276v2.731c0,0.022,0.001,0.046,0.002,0.068  l0.013,0.185c0.005,0.059,0.014,0.115,0.027,0.172l0.049,0.197c0.016,0.064,0.038,0.126,0.066,0.186l0.087,0.185  c0.021,0.045,0.045,0.088,0.072,0.129l0.123,0.185c0.03,0.045,0.063,0.087,0.101,0.127l0.172,0.185  c0.045,0.048,0.095,0.092,0.148,0.131l0.222,0.159l0.248,0.167c0.019,0.012,0.037,0.023,0.057,0.035l26.897,15.54  c0.017,0.01,0.034,0.019,0.052,0.027l0.271,0.136c0.021,0.011,0.042,0.021,0.064,0.03l0.296,0.123  c0.034,0.014,0.068,0.026,0.104,0.036l0.295,0.086l0.361,0.094c0.045,0.012,0.09,0.021,0.136,0.025l0.32,0.037l0.32,0.037  c0.025,0.003,0.052,0.005,0.077,0.006l0.332,0.013c0.013,0.001,0.025,0.001,0.038,0.001c0.026,0,0.053-0.001,0.079-0.003  l0.319-0.025c0.026-0.002,0.052-0.005,0.077-0.01l0.309-0.049c0.021-0.003,0.043-0.007,0.063-0.012l0.271-0.062  c0.032-0.008,0.064-0.017,0.096-0.027l0.258-0.086c0.059-0.02,0.115-0.044,0.169-0.074l0.222-0.123l16.231-9.359  c0.029-0.017,0.057-0.034,0.083-0.053l0.172-0.123c0.034-0.024,0.066-0.052,0.098-0.08l0.173-0.16  c0.054-0.05,0.103-0.105,0.144-0.166l0.11-0.16c0.026-0.038,0.051-0.078,0.071-0.12l0.086-0.172  c0.041-0.083,0.071-0.171,0.088-0.263l0.037-0.197c0.012-0.061,0.018-0.122,0.018-0.185v-2.719c0-0.021-0.001-0.043-0.002-0.064  l-0.013-0.197c-0.004-0.064-0.015-0.129-0.031-0.191l-0.049-0.185c-0.02-0.075-0.049-0.147-0.085-0.216l-0.099-0.185  c-0.016-0.028-0.032-0.056-0.05-0.083l-0.123-0.185c-0.023-0.035-0.049-0.068-0.077-0.101l-0.16-0.185  c-0.042-0.049-0.089-0.094-0.141-0.134l-0.221-0.172c-0.036-0.028-0.073-0.054-0.113-0.076l-0.234-0.136l-4.499-2.604l0.748-0.583  l6.359-4.325l0.831-0.613c0.021-0.016,0.04-0.031,0.059-0.047l0.715-0.615c0.016-0.015,0.031-0.028,0.047-0.043l0.664-0.651  c0.015-0.015,0.029-0.029,0.043-0.044l0.59-0.652c0.024-0.027,0.048-0.057,0.069-0.087l0.505-0.701  c0.013-0.018,0.025-0.035,0.037-0.055l0.43-0.689c0.016-0.024,0.03-0.05,0.044-0.076l0.356-0.701  c0.019-0.036,0.034-0.074,0.049-0.112l0.259-0.714c0.011-0.029,0.02-0.06,0.027-0.091l0.185-0.714  c0.012-0.043,0.02-0.086,0.025-0.131l0.086-0.714c0.003-0.028,0.005-0.057,0.006-0.085l0.024-0.713l0.001-3.308  c0-0.034-0.002-0.068-0.005-0.103L85.195,61.911z M80.147,72.475l-0.744,0.55l-0.965,0.437l-1.05,0.423l-1.12,0.365c0,0,0,0-0.001,0  l-1.121,0.322c-0.001,0-0.001,0-0.001,0l-1.181,0.296c0,0-0.001,0-0.001,0.001l-1.163,0.239l-1.188,0.191c-0.001,0-0.002,0-0.003,0  l-1.228,0.16l-1.225,0.108l-1.193,0.06H66.76l-1.218-0.049c-0.001,0-0.002,0.001-0.003,0.001l-4.291-0.207l-4.062-0.645  l-3.704-1.042l-3.269-1.445l-2.337-1.15l-2.042-1.285l-1.749-1.438l-1.438-1.545l-1.105-1.654l-0.112-0.232v-0.001l-0.658-1.46  l-0.42-1.772l-0.001-0.031l0.304,0.672c0.004,0.009,0.014,0.012,0.018,0.021c0.009,0.017,0.011,0.036,0.021,0.052l1.144,1.711  c0.007,0.01,0.019,0.014,0.025,0.022c0.01,0.013,0.014,0.028,0.024,0.04l1.489,1.6c0.009,0.009,0.02,0.012,0.028,0.021  c0.009,0.008,0.013,0.019,0.022,0.026l1.797,1.464c0.009,0.007,0.019,0.009,0.027,0.016c0.007,0.005,0.011,0.013,0.019,0.018  l2.092,1.341c0.007,0.004,0.015,0.002,0.021,0.006c0.01,0.006,0.017,0.017,0.027,0.021l2.374,1.169  c0.004,0.002,0.008,0.001,0.011,0.003c0.004,0.002,0.007,0.005,0.011,0.007l3.311,1.44c0.01,0.004,0.021,0.003,0.03,0.007  c0.012,0.004,0.02,0.013,0.031,0.016l3.765,1.082c0.013,0.004,0.025,0.003,0.038,0.006c0.008,0.001,0.015,0.007,0.022,0.008  l4.11,0.641c0.016,0.002,0.031,0.003,0.046,0.004c0.002,0,0.004,0.001,0.006,0.001l4.331,0.221c0.002,0,0.004,0,0.007,0  c0.001,0,0.002,0.001,0.003,0.001l1.218,0.037c0.006,0,0.011,0,0.016,0c0.002,0,0.003,0,0.005,0l1.23-0.012c0.003,0,0.007,0,0.01,0  l1.23-0.037c0.001,0,0.002-0.001,0.004-0.001c0.009,0,0.018,0,0.026-0.001l1.243-0.111c0.001,0,0.002-0.001,0.003-0.001  c0.006,0,0.011,0,0.017-0.001l1.23-0.159c0.002,0,0.004-0.002,0.006-0.002c0.004-0.001,0.007,0,0.01-0.001l1.218-0.197  c0.002,0,0.004-0.002,0.007-0.003c0.004,0,0.009,0,0.014-0.001l1.194-0.246c0.002,0,0.003-0.002,0.005-0.002  c0.005-0.001,0.01-0.001,0.016-0.002l1.181-0.295c0.003-0.001,0.005-0.003,0.007-0.003c0.004-0.001,0.007-0.001,0.011-0.002  l1.157-0.333c0.004-0.001,0.006-0.004,0.01-0.005s0.007-0.001,0.011-0.002l1.132-0.381c0.003-0.001,0.006-0.004,0.009-0.005  c0.005-0.002,0.01-0.001,0.015-0.003l1.07-0.419c0.004-0.002,0.007-0.005,0.011-0.007c0.005-0.002,0.009-0.001,0.013-0.003  l1.033-0.467c0.023-0.011,0.039-0.03,0.061-0.044c0.01-0.006,0.021-0.003,0.03-0.01l0.8-0.591c0.005-0.004,0.007-0.01,0.012-0.014  c0.006-0.004,0.013-0.005,0.018-0.01l0.714-0.615c0.005-0.004,0.007-0.011,0.012-0.015c0.005-0.005,0.011-0.006,0.016-0.011  l0.665-0.665c0.004-0.004,0.005-0.009,0.009-0.013c0.003-0.004,0.008-0.005,0.012-0.009l0.59-0.664  c0.006-0.007,0.007-0.015,0.013-0.021c0.004-0.005,0.01-0.007,0.014-0.012l0.505-0.677c0.005-0.007,0.006-0.015,0.011-0.021  c0.003-0.006,0.01-0.007,0.013-0.013l0.396-0.634l-0.003,0.079l-0.077,0.648l-0.174,0.67l-0.237,0.654l-0.333,0.655l-0.411,0.659  l-0.476,0.66l-0.562,0.622l-0.645,0.631L80.147,72.475z M76.859,83.092c0.001,0.001,0.001,0.002,0.002,0.002l0.204,0.118  l0.155,0.121l0.11,0.127l0.089,0.133l0.061,0.115l0.021,0.08l0.009,0.133v2.656l-0.016,0.081l-0.038,0.076l-0.06,0.088l-0.113,0.104  l-0.116,0.084l-16.203,9.343c-0.001,0-0.001,0.001-0.001,0.001l-0.172,0.096l-0.197,0.065l-0.216,0.049l-0.29,0.046l-0.256,0.021  l-0.289-0.011l-0.302-0.035l-0.287-0.033l-0.287-0.074L58.404,96.4l-0.253-0.104l-0.256-0.129L31.038,80.65l-0.193-0.13  l-0.001-0.001l-0.182-0.13l-0.111-0.12l-0.08-0.12l-0.049-0.104l-0.026-0.107l-0.009-0.127V77.35  c0.003-0.029,0.014-0.056,0.012-0.086l-0.007-0.109l0.019-0.065l0.049-0.122l0.034-0.055l0.091-0.078l0.144-0.097l6.112-3.538  l0.254,2.114c0.003,0.026,0.016,0.048,0.022,0.072c0.006,0.021,0.006,0.045,0.015,0.065c0.002,0.008,0,0.017,0.002,0.025  c0.006,0.02,0.024,0.028,0.032,0.047c0.004,0.021,0.012,0.04,0.019,0.06c0.004,0.014,0.003,0.028,0.009,0.041  c0.005,0.012,0.019,0.018,0.024,0.028c0.013,0.024,0.018,0.052,0.035,0.074l0.074,0.099c0.01,0.013,0.024,0.018,0.034,0.028  c0.015,0.016,0.021,0.035,0.038,0.049l0.086,0.074c0.012,0.01,0.025,0.014,0.037,0.021c0.01,0.008,0.015,0.018,0.025,0.024  l0.099,0.062c0.006,0.003,0.012,0.002,0.018,0.005c0.009,0.005,0.015,0.014,0.023,0.019l0.123,0.062  c0.007,0.003,0.014,0.002,0.021,0.005c0.008,0.004,0.014,0.011,0.021,0.014l0.561,0.219l1.538,0.697l1.442,0.764l1.353,0.809  l1.251,0.866l0.132,0.107v0.206c0,0.008,0.004,0.015,0.005,0.021c0,0.008-0.004,0.015-0.003,0.022l0.086,0.973  c0.001,0.017,0.01,0.029,0.013,0.046c0.003,0.014-0.001,0.026,0.003,0.04l0.259,0.959c0.002,0.009,0.012,0.013,0.015,0.021  c0.007,0.021,0.006,0.041,0.015,0.061l0.431,0.923c0.005,0.01,0.016,0.014,0.021,0.023c0.009,0.018,0.011,0.036,0.022,0.053  l0.615,0.874c0.007,0.01,0.018,0.013,0.025,0.021c0.009,0.012,0.013,0.025,0.022,0.036l0.787,0.824  c0.008,0.008,0.019,0.011,0.026,0.018c0.007,0.007,0.011,0.017,0.019,0.023l0.948,0.775c0.009,0.007,0.02,0.01,0.029,0.017  c0.008,0.006,0.012,0.015,0.021,0.02l1.095,0.689c0.006,0.004,0.013,0.002,0.019,0.006c0.009,0.005,0.015,0.014,0.024,0.019  l1.23,0.615c0.004,0.002,0.009,0.001,0.014,0.003c0.004,0.002,0.007,0.006,0.011,0.008l1.723,0.75  c0.009,0.004,0.02,0.003,0.028,0.006c0.01,0.004,0.017,0.012,0.027,0.015l1.932,0.579c0.014,0.004,0.026,0.003,0.04,0.006  c0.007,0.002,0.013,0.007,0.021,0.008l2.129,0.357c0.015,0.003,0.029,0.003,0.044,0.004c0.003,0,0.006,0.002,0.009,0.002  l2.215,0.135c0.006,0.001,0.012,0,0.018,0.001c0.001,0,0.001,0,0.002,0l0.615,0.013h0.001l0.628,0.013c0.003,0,0.007,0,0.01,0  c0.006,0,0.013,0,0.02,0l0.64-0.025c0.002,0,0.003-0.001,0.005-0.001c0.005-0.001,0.01,0,0.015-0.001l0.617-0.048  c0.007-0.001,0.013-0.001,0.02-0.001l0.628-0.062c0.004,0,0.007-0.003,0.012-0.004c0.009-0.001,0.018,0,0.026-0.002l0.628-0.11  c0.001,0,0.001-0.001,0.002-0.001s0.001,0,0.002,0l0.603-0.111c0.003-0.001,0.006-0.003,0.009-0.004c0.007-0.001,0.013,0,0.02-0.002  l0.603-0.147c0.003-0.001,0.005-0.003,0.008-0.004c0.005-0.001,0.011,0,0.016-0.002l0.579-0.172  c0.002-0.001,0.003-0.002,0.005-0.003c0.003-0.001,0.005,0,0.008-0.001l0.565-0.185c0.001,0,0.002-0.002,0.004-0.002  c0.002-0.001,0.003,0,0.005-0.001l0.566-0.197c0.008-0.003,0.013-0.009,0.021-0.012c0.007-0.003,0.015-0.002,0.021-0.005  l0.517-0.233c0.016-0.007,0.025-0.021,0.04-0.029c0.021-0.012,0.043-0.019,0.062-0.033l0.394-0.308  c0.004-0.003,0.006-0.008,0.01-0.012c0.005-0.004,0.012-0.005,0.017-0.01l0.357-0.32c0.003-0.003,0.004-0.006,0.007-0.009  c0.002-0.002,0.004-0.002,0.006-0.004l0.332-0.32c0.007-0.007,0.01-0.017,0.017-0.023s0.016-0.01,0.022-0.018l0.283-0.344  c0.004-0.004,0.004-0.01,0.008-0.014c0.002-0.003,0.006-0.005,0.009-0.008l0.246-0.333c0.006-0.008,0.007-0.017,0.012-0.024  c0.004-0.006,0.01-0.008,0.014-0.014l0.86-1.425l0,0l2.155-3.528l1.039-0.808L76.859,83.092z M20.501,19.598  c0.001,0,0.002-0.002,0.003-0.002c0.001-0.001,0.002,0,0.003-0.001l2.597-1.255c0.002-0.001,0.003-0.002,0.004-0.004  c0.002,0,0.004,0,0.005,0l2.547-1.293c0.001,0,0.001,0,0.002-0.001s0.001,0,0.002-0.001l2.535-1.316  c0.002-0.002,0.003-0.003,0.004-0.004c0.001,0,0.002,0,0.003,0l2.461-1.328c0.002-0.002,0.003-0.004,0.005-0.005  s0.004-0.001,0.006-0.001l2.411-1.379c0.001-0.001,0.001-0.002,0.002-0.002c0,0,0.001,0,0.002,0l2.388-1.391  c0.003-0.001,0.004-0.004,0.006-0.005s0.004-0.001,0.005-0.001l2.313-1.428c0.001-0.002,0.002-0.003,0.003-0.004  c0.001,0,0.002,0,0.003,0l2.276-1.453c0.002,0,0.002-0.002,0.004-0.003c0.001-0.001,0.003-0.001,0.004-0.001l2.227-1.477  c0.002-0.002,0.002-0.003,0.004-0.004c0.001-0.001,0.003,0,0.004-0.002l2.178-1.5c0.002-0.002,0.003-0.004,0.005-0.006  c0.001,0,0.002,0,0.003,0l2.076-1.496l0.19-0.086l0.221-0.085l0.252-0.076l0.246-0.052l0.261-0.031h0.276h0.276l0.264,0.031  l0.257,0.052l0.24,0.076l0.228,0.083l0.197,0.1c0.004,0.002,0.009,0,0.013,0.002c0.005,0.003,0.007,0.007,0.012,0.009l0.968,0.423  l0.909,0.461l0.878,0.48l0.814,0.504l0.793,0.528L54.6,7.203l0.668,0.572l0.322,0.311c0,0,0.001,0,0.002,0.001  c0,0.001,0,0.001,0.001,0.002l0.637,0.601l0.558,0.616l0.503,0.634l0.443,0.658l0.381,0.647l0.038,0.075l0.024,0.081l0.037,0.123  l0.022,0.073l0.005,0.062v0.103v0.096l-0.005,0.056l-0.022,0.073l-0.037,0.123l-0.022,0.074l-1.736,1.432l0,0l-1.87,1.444  c-0.001,0.001-0.001,0.001-0.001,0.001l-1.969,1.427l-2.032,1.376l-2.115,1.345l0,0l-2.188,1.314l-2.265,1.261  c0,0,0,0.001-0.001,0.001l-2.312,1.218c-0.001,0-0.001,0-0.001,0l-2.424,1.18c0,0,0,0.001-0.001,0.001l-2.453,1.136L34.26,26.41  l-2.538,1.023l-0.16,0.025l-0.196,0.023l0,0l-0.207,0.023l-0.175,0.01h-0.21c-0.006,0-0.01,0.003-0.016,0.003  c-0.005,0-0.01-0.002-0.015-0.002l-0.182,0.011l-0.19-0.011c-0.005,0-0.009,0.002-0.014,0.002s-0.01-0.003-0.015-0.003H30.15  l-0.201-0.011l-0.189-0.022l-0.207-0.023l-0.19-0.033l-1.194-0.232l-1.153-0.254l-1.106-0.301l0,0l-1.096-0.329l-1.062-0.374  l-1.034-0.401l-0.973-0.421l-0.954-0.459l-0.885-0.489l-0.846-0.508l-0.798-0.544l-0.746-0.565  c-0.007-0.005-0.015-0.006-0.022-0.011c-0.007-0.005-0.011-0.013-0.019-0.018l-0.179-0.109l-0.104-0.097l-0.103-0.131l-0.055-0.078  l-0.017-0.064l-0.012-0.09l0.012-0.09l0.021-0.077l0.051-0.078l0.441-0.574l0.109-0.129l0.099-0.091l0.153-0.094L20.501,19.598z   M56.426,15.098l-1.878,1.451c-0.001,0-0.001,0-0.001,0l-1.968,1.428l-2.033,1.375l-2.115,1.345l0,0l-2.188,1.315l-2.265,1.26  c0,0,0,0.001-0.001,0.001l-2.313,1.218c-0.001,0-0.001,0-0.001,0l-2.423,1.194l-2.454,1.124l-2.526,1.09l-2.54,1.023l-0.159,0.027  l-0.189,0.021H31.37l-0.211,0.023l-0.195,0.012c0,0,0,0-0.001,0l-0.201,0.012h-0.198h-0.207l-0.193-0.012c-0.001,0-0.001,0-0.001,0  c-0.001,0-0.001,0-0.001,0l-0.204-0.012l-0.197-0.023h-0.001c-0.001,0-0.001,0-0.002,0l-0.208-0.023l-0.188-0.033l-1.186-0.229  l-0.001-0.001l-1.164-0.258l-1.107-0.288l-1.09-0.34l-1.063-0.375l-1.034-0.4l-0.973-0.42l-0.954-0.459l-0.897-0.498l0,0  l-0.826-0.496l-0.802-0.547l-0.723-0.545c-0.012-0.01-0.026-0.016-0.039-0.023c-0.011-0.008-0.017-0.019-0.027-0.025L17.297,23.9  l-0.113-0.105l-0.1-0.117l-0.047-0.072l-0.021-0.077l-0.012-0.09l0.003-0.021l0.667,0.505c0.002,0.002,0.006,0.001,0.008,0.003  c0.005,0.003,0.007,0.008,0.012,0.012l0.812,0.554c0.004,0.003,0.008,0.001,0.011,0.003c0.006,0.004,0.009,0.01,0.014,0.013  l0.861,0.518c0.003,0.001,0.005,0.001,0.008,0.002c0.003,0.002,0.005,0.005,0.008,0.007l0.911,0.504  c0.004,0.002,0.008,0.001,0.012,0.003c0.006,0.003,0.009,0.008,0.014,0.011l0.972,0.467c0.003,0.002,0.007,0.002,0.01,0.003  s0.005,0.005,0.009,0.006l0.997,0.431c0.003,0.002,0.006,0,0.009,0.002c0.004,0.002,0.006,0.004,0.009,0.006l1.046,0.406  c0.003,0,0.006,0,0.008,0.001c0.003,0.001,0.004,0.003,0.007,0.004l1.082,0.381c0.004,0.001,0.009,0.001,0.013,0.002  s0.006,0.005,0.01,0.005l1.107,0.334c0.003,0,0.006,0,0.008,0.001c0.002,0,0.003,0.001,0.005,0.002l1.133,0.308  c0.005,0.002,0.01,0.001,0.015,0.002c0.003,0.001,0.006,0.003,0.009,0.004l1.169,0.258c0.003,0,0.005,0,0.008,0.001  c0.002,0,0.003,0.001,0.004,0.001l1.205,0.234c0.003,0.001,0.005,0.001,0.008,0.001c0.001,0.001,0.002,0.001,0.003,0.001l0.21,0.037  c0.007,0,0.014,0,0.021,0.002c0.003,0,0.005,0.001,0.007,0.002l0.221,0.025l0.21,0.023c0.009,0.002,0.018,0.002,0.025,0.002  c0.002,0,0.004,0.002,0.006,0.002l0.221,0.012c0.009,0,0.018,0,0.026,0h0.198l0.204,0.012c0.01,0,0.02,0.001,0.028,0.001  c0.01,0,0.02-0.001,0.03-0.001l0.193-0.012h0.207c0.009,0,0.019,0,0.028-0.001l0.21-0.012c0.001,0,0.002-0.001,0.003-0.001  c0.008,0,0.016,0,0.023-0.001l0.221-0.024h0.001c0.001,0,0.003,0,0.004,0l0.21-0.025c0.002-0.001,0.003-0.002,0.005-0.002  c0.006-0.001,0.011,0,0.017-0.002l0.221-0.035c0.019-0.004,0.033-0.015,0.051-0.02s0.037-0.004,0.055-0.011l2.597-1.046  c0.002-0.001,0.004-0.003,0.006-0.004c0.002,0,0.004,0,0.006-0.001l2.535-1.096c0.002-0.001,0.004-0.003,0.006-0.004  s0.004-0.001,0.006-0.001l2.473-1.145c0.002-0.001,0.002-0.002,0.004-0.004c0.002,0,0.003,0,0.005,0l2.424-1.182  c0.003-0.001,0.005-0.004,0.008-0.006c0.002,0,0.004,0,0.006-0.001l2.338-1.23c0.002-0.001,0.003-0.003,0.005-0.004  s0.004-0.001,0.006-0.001l2.276-1.268c0.003-0.002,0.005-0.005,0.007-0.007c0.003-0.001,0.006-0.001,0.008-0.002l2.19-1.316  c0.002-0.001,0.004-0.004,0.006-0.005c0.002-0.002,0.003-0.001,0.005-0.002l2.129-1.354c0.003-0.002,0.004-0.004,0.007-0.006  c0.001-0.002,0.003-0.001,0.005-0.002l2.055-1.391c0.003-0.002,0.004-0.005,0.007-0.008c0.002-0.001,0.005,0,0.007-0.002  l1.969-1.428c0.003-0.002,0.004-0.005,0.007-0.008c0.002,0,0.004,0,0.005-0.001l1.896-1.464c0.002-0.002,0.003-0.004,0.005-0.005  c0.002-0.003,0.005-0.003,0.008-0.005l1.177-0.971l-0.018,0.059l-0.037,0.123l-0.022,0.073l-0.456,0.374  c-0.001,0-0.001,0.002-0.002,0.002L56.426,15.098z M37.899,29.271l-0.017,0.052c-0.001,0-0.001,0-0.001,0l-0.025,0.07l-0.032,0.045  l-0.048,0.048l-0.034,0.022c-0.008,0-0.017-0.001-0.024-0.001c-0.001,0-0.002,0-0.004,0c-0.046,0.002-0.09,0.012-0.133,0.027  c-0.021,0.006-0.042,0.007-0.062,0.015c-0.032,0.014-0.06,0.039-0.089,0.06c-0.023,0.017-0.05,0.026-0.071,0.048  c-0.001,0.001-0.001,0.002-0.002,0.004c-0.002,0.002-0.004,0.002-0.006,0.004l-0.257,0.268l-0.264,0.229v0.001l-0.266,0.222  l-0.286,0.195l-0.271,0.169l-0.248,0.14l-0.271,0.107l-0.271,0.103l-0.212,0.058l-0.196,0.025l-0.132-0.011l-0.572-0.333  l0.083-0.018c0.008-0.002,0.015-0.008,0.022-0.01c0.01-0.003,0.02-0.002,0.029-0.006l0.295-0.098  c0.008-0.003,0.013-0.01,0.021-0.012c0.007-0.003,0.015-0.002,0.021-0.005l0.308-0.135c0.007-0.003,0.012-0.01,0.019-0.013  c0.007-0.004,0.014-0.002,0.02-0.006l0.296-0.16c0.008-0.004,0.012-0.012,0.02-0.016c0.005-0.003,0.011-0.002,0.016-0.005  l0.283-0.185c0.005-0.003,0.007-0.008,0.011-0.011c0.002-0.001,0.006-0.001,0.008-0.003l0.308-0.221  c0.002-0.002,0.002-0.004,0.004-0.005s0.003-0.001,0.005-0.001l0.295-0.223c0.011-0.008,0.016-0.02,0.024-0.027  s0.021-0.01,0.028-0.019l0.271-0.271l0.123-0.123c0.01-0.01,0.014-0.023,0.022-0.033c0.025-0.029,0.046-0.062,0.064-0.098  c0.011-0.021,0.021-0.043,0.029-0.066c0.004-0.013,0.013-0.023,0.016-0.036l0.02-0.079l0.043-0.127c0,0,0,0,0-0.001l0.017-0.046  l0.032-0.041l0.041-0.046L37.899,29.271z M18.506,25.98c0.004,0.002,0.009,0.002,0.013,0.004c0.005,0.004,0.008,0.009,0.013,0.012  l0.861,0.517c0.002,0.001,0.004,0.001,0.007,0.002c0.003,0.002,0.005,0.005,0.008,0.007l0.911,0.505  c0.004,0.002,0.008,0.001,0.012,0.003c0.006,0.003,0.009,0.008,0.014,0.01l0.972,0.469c0.003,0.001,0.007,0,0.01,0.002  s0.005,0.004,0.009,0.006l0.997,0.431c0.003,0.001,0.006,0.001,0.009,0.002c0.004,0.001,0.006,0.004,0.009,0.005l1.046,0.406  c0.003,0,0.006,0,0.008,0.001c0.003,0.001,0.004,0.003,0.007,0.004l1.082,0.382c0.003,0.001,0.007,0,0.01,0.002  c0.003,0,0.005,0.003,0.008,0.004l1.107,0.345c0.005,0.001,0.009,0.001,0.014,0.002c0.003,0.001,0.006,0.003,0.009,0.005  l1.133,0.295c0.004,0,0.007,0,0.011,0.001c0.003,0.001,0.004,0.003,0.007,0.003l1.169,0.259c0.004,0.001,0.007,0.001,0.011,0.001  c0.001,0,0.002,0.001,0.003,0.002l1.205,0.232c0.002,0.001,0.004,0,0.006,0.001c0,0,0.001,0.001,0.002,0.001l0.21,0.037  c0.008,0.002,0.016,0.001,0.023,0.002c0.003,0,0.006,0.002,0.009,0.003l0.221,0.024c0.001,0,0.002,0,0.002,0l0.205,0.023  c0.009,0.002,0.018,0.002,0.025,0.002c0.002,0,0.003,0.001,0.004,0.001l0.218,0.013c0.001,0,0.001,0,0.001,0l0.21,0.013  c0.011,0.001,0.021,0.001,0.03,0.001h0.221h0.21c0.009,0,0.019,0,0.028-0.001l0.218-0.013c0.002,0,0.003,0,0.005,0l0.21-0.013  c0.001,0,0.002-0.001,0.003-0.001c0.007,0,0.015,0,0.021-0.001l0.221-0.024h0.001c0.001,0,0.001,0,0.002,0l0.21-0.025  c0.002,0,0.004-0.001,0.006-0.002c0.006,0,0.013,0,0.02-0.001l0.221-0.037c0.018-0.003,0.031-0.014,0.049-0.019  c0.019-0.005,0.037-0.004,0.055-0.011l2.597-1.046c0.002-0.001,0.004-0.003,0.006-0.004c0.002,0,0.004,0,0.006-0.001l1.332-0.575  c-0.012,0.016-0.017,0.033-0.025,0.049c-0.014,0.024-0.033,0.043-0.043,0.07l-0.049,0.135c-0.001,0.001,0,0.003-0.001,0.004  c-0.001,0.002-0.002,0.004-0.003,0.006l-0.05,0.147c0,0.001,0,0.001,0,0.001l-0.027,0.027l-0.243,0.243l-0.27,0.202  c0,0.001-0.001,0.002-0.001,0.002l-0.282,0.203l-0.263,0.171l-0.265,0.144l-0.264,0.115l-0.243,0.082l-0.259,0.056l-0.257,0.048  c-0.015,0.002-0.025,0.012-0.04,0.016c-0.012,0.002-0.022-0.002-0.034,0.001c-0.04,0.01-0.071,0.032-0.106,0.05  c-0.016,0.006-0.032,0.005-0.047,0.012c-0.022,0.012-0.036,0.03-0.057,0.043c-0.014,0.008-0.029,0.01-0.043,0.02  c-0.012,0.008-0.019,0.021-0.029,0.029c-0.012,0.008-0.024,0.01-0.035,0.018c-0.053,0.039-0.094,0.087-0.126,0.14  c-0.005,0.005-0.011,0.007-0.015,0.013c-0.02,0.026-0.026,0.057-0.04,0.086c-0.009,0.014-0.022,0.023-0.03,0.038  c-0.015,0.03-0.017,0.062-0.025,0.093c-0.006,0.011-0.018,0.019-0.023,0.03c-0.017,0.034-0.02,0.069-0.028,0.104  c-0.006,0.016-0.018,0.029-0.021,0.045c-0.013,0.049-0.009,0.096-0.007,0.143c-0.002,0.015-0.009,0.028-0.009,0.043  c0,0.048,0.015,0.092,0.027,0.135c0.003,0.015,0.004,0.029,0.009,0.043c0.002,0.006,0.002,0.013,0.004,0.019  c0.001,0.001,0,0.003,0.001,0.005c0.004,0.01,0.014,0.015,0.018,0.023c0.031,0.076,0.081,0.141,0.147,0.194  c0.013,0.011,0.022,0.022,0.036,0.032c0.008,0.005,0.012,0.013,0.02,0.018l1.292,0.75c0.003,0.002,0.006,0.002,0.008,0.003  c0.061,0.034,0.128,0.058,0.202,0.063l0.295,0.025c0.013,0,0.026,0.001,0.04,0.001l0,0c0,0,0,0,0.001,0h0.001h0.001  c0.021-0.001,0.042-0.001,0.063-0.005l0.283-0.037c0.008,0,0.014-0.006,0.021-0.007c0.015-0.003,0.029-0.002,0.044-0.006  l0.271-0.073c0.008-0.002,0.013-0.008,0.02-0.01c0.009-0.003,0.018-0.002,0.026-0.005l0.295-0.111  c0.002-0.001,0.003-0.002,0.004-0.003c0.002,0,0.003,0,0.005,0l0.308-0.123c0.013-0.006,0.021-0.016,0.032-0.021  c0.009-0.004,0.019-0.002,0.027-0.008l0.283-0.158c0.004-0.003,0.007-0.008,0.011-0.01c0.003-0.002,0.006-0.001,0.009-0.002  l0.296-0.186c0.004-0.002,0.006-0.006,0.009-0.008s0.006-0.001,0.009-0.003l0.308-0.21c0.007-0.005,0.01-0.012,0.017-0.018  c0.007-0.004,0.015-0.006,0.021-0.012l0.295-0.246c0.001-0.001,0.002-0.002,0.003-0.004c0.001-0.001,0.003-0.001,0.005-0.002  l0.283-0.246c0.006-0.006,0.008-0.014,0.014-0.019s0.014-0.007,0.02-0.013l0.139-0.145l0,0c0.04-0.005,0.074-0.023,0.11-0.036  c0.018-0.007,0.036-0.005,0.054-0.013l0.099-0.049c0.013-0.006,0.021-0.018,0.032-0.025c0.008-0.004,0.017-0.002,0.023-0.007  l0.111-0.074c0.015-0.01,0.022-0.024,0.035-0.035s0.029-0.015,0.041-0.027l0.11-0.11c0.011-0.012,0.016-0.025,0.025-0.037  c0.007-0.01,0.019-0.013,0.025-0.022l0.099-0.136c0.021-0.029,0.029-0.062,0.043-0.094c0.006-0.013,0.019-0.018,0.023-0.031  l0.049-0.135c0.001-0.003,0-0.005,0.001-0.008c0,0,0.002-0.001,0.002-0.002l0.05-0.147c0.004-0.011,0.001-0.021,0.004-0.032  c0.004-0.014,0.012-0.024,0.015-0.039l0.024-0.135c0.007-0.036-0.001-0.07-0.002-0.106c-0.001-0.026,0.005-0.052,0-0.079  l-0.002-0.012c0,0-0.001-0.001-0.001-0.002l-0.021-0.109c-0.005-0.023-0.019-0.042-0.026-0.064  c-0.007-0.021-0.007-0.043-0.018-0.064l-0.05-0.099c-0.02-0.038-0.05-0.067-0.077-0.098c-0.009-0.015-0.013-0.03-0.023-0.044  c-0.001-0.001-0.002-0.004-0.003-0.006c-0.025-0.031-0.058-0.05-0.088-0.074c-0.02-0.015-0.033-0.035-0.055-0.047l-0.008-0.005  c-0.001-0.001-0.002-0.001-0.003-0.002l-1.294-0.745c-0.019-0.011-0.04-0.012-0.06-0.02c0.001,0,0.001-0.001,0.002-0.002  c0.002,0,0.003,0,0.005,0l2.473-1.133c0.002,0,0.004-0.003,0.006-0.004s0.005,0,0.007-0.002l2.424-1.193  c0.003-0.002,0.004-0.004,0.007-0.006c0.001,0,0.003,0,0.005-0.001l2.338-1.23c0.002-0.001,0.003-0.003,0.005-0.004  s0.004-0.001,0.006-0.001l2.276-1.268c0.003-0.001,0.005-0.004,0.007-0.006c0.003-0.002,0.006,0,0.008-0.002l2.19-1.317  c0.002-0.001,0.004-0.004,0.006-0.005c0.002-0.002,0.003-0.001,0.005-0.002l2.129-1.354c0.003-0.002,0.004-0.004,0.007-0.006  c0.001-0.002,0.003-0.001,0.005-0.002l2.055-1.39c0.003-0.002,0.004-0.005,0.007-0.007c0.002-0.002,0.005-0.001,0.007-0.002  l1.969-1.428c0.003-0.002,0.004-0.006,0.007-0.008c0.002-0.002,0.004-0.001,0.005-0.002l1.896-1.464  c0.002-0.002,0.003-0.005,0.005-0.006c0.003-0.002,0.006-0.003,0.008-0.005l0.344-0.283l-2.411,24.209l-0.017,0.067  c-0.006,0.022,0,0.044-0.003,0.065c-0.002,0.006-0.006,0.01-0.008,0.016L54.947,40l-1.401,1.158l-1.613,1.248l-1.663,1.211  l-0.887,0.595c-0.001,0.001-0.001,0.001-0.002,0.001c-0.001,0.001-0.002,0.001-0.003,0.002l-0.85,0.583l-1.807,1.155l-1.88,1.11l0,0  l-1.922,1.083c-0.001,0-0.001,0-0.001,0L40.93,49.19l-2.059,1.005c0,0,0,0-0.001,0.001l-2.102,0.978l-1.943,0.825l-0.19,0.071  c-0.002,0.001-0.004,0.003-0.007,0.004s-0.007,0.001-0.01,0.002l-2.102,0.864l-0.146,0.012c-0.006,0-0.011,0.004-0.018,0.005  s-0.013-0.002-0.02-0.001l-0.136,0.021l-0.14,0.01H31.93h-0.172h-0.148h-0.156l-0.102-0.008l-0.164-0.023  c-0.006-0.001-0.01,0.002-0.016,0.001c-0.005,0-0.01-0.004-0.015-0.004l-0.114-0.009l-0.112-0.028c-0.006-0.001-0.011,0-0.017-0.001  s-0.01-0.005-0.016-0.006l-0.405-0.073c-0.001,0-0.003,0-0.004,0s-0.002-0.001-0.003-0.001l-0.572-0.096l-0.966-0.229l-0.946-0.243  l-0.482-0.151l-0.001-0.001l-0.416-0.135l-0.898-0.304l-0.851-0.336l-0.82-0.361l-0.786-0.369l-0.735-0.422c0,0-0.001,0-0.002-0.001  l-0.712-0.423l-0.652-0.432l-0.66-0.5c-0.005-0.004-0.012-0.005-0.018-0.009c-0.005-0.004-0.008-0.01-0.014-0.014l-0.129-0.082  l-0.06-0.06l-0.039-0.04l-0.01-0.019l-0.012-0.034l-2.841-23.031L18.506,25.98z M53.469,46.1c0.003,0.002,0.006,0.001,0.01,0.002  c0.003,0.002,0.005,0.004,0.008,0.006l0.996,0.431c0.002,0.001,0.003,0.001,0.005,0.001c0.06,0.025,0.125,0.04,0.193,0.04  c0.007,0,0.015,0,0.022-0.001l1.346-0.061l3.161,0.086l3.072,0.268l2.996,0.487l2.843,0.655l2.667,0.85l2.47,1.016l2.227,1.168  l1.987,1.329l2.422,1.833l1.773,2.034l0.57,1.119l0.041,0.092c0.001,0.003,0.005,0.004,0.006,0.007  c0.002,0.005,0.002,0.01,0.004,0.015l0.481,0.96v0.003c0,0.004,0.003,0.006,0.003,0.01c0.001,0.004-0.001,0.008,0,0.013l0.418,2.317  l0.092,0.648l0.011,0.615l-0.067,0.63l-0.147,0.648l-0.202,0.63l-0.314,0.64l-0.357,0.635l-0.462,0.628l-0.489,0.591l-0.623,0.6  c0,0,0,0.001-0.001,0.001l-0.641,0.57l-0.694,0.524l-0.938,0.417l-1,0.368h-0.001l-1.057,0.364l-1.091,0.315l-1.11,0.263  l-1.146,0.231l-1.153,0.156h-0.001l-1.161,0.145l-1.189,0.086l-1.184,0.049l-1.145-0.013c-0.001,0-0.001,0-0.001,0l-1.193-0.049  c-0.001,0-0.001,0-0.002,0l-4.156-0.243l-3.943-0.668l-3.639-1.055l-3.195-1.416l-2.312-1.132l-2.009-1.299l-1.748-1.413  l-1.433-1.503l-1.133-1.606l-0.787-1.656l-0.467-1.717l-0.117-1.753l0.081-0.731c0.002-0.018-0.005-0.033-0.005-0.051  c0.001-0.036-0.002-0.07-0.009-0.104c-0.007-0.03-0.016-0.059-0.027-0.087c-0.013-0.03-0.026-0.059-0.045-0.086  c-0.019-0.028-0.04-0.052-0.063-0.075c-0.013-0.014-0.021-0.03-0.035-0.042l-0.738-0.59c-0.005-0.004-0.012-0.005-0.017-0.009  s-0.008-0.009-0.013-0.013l-1.758-1.211l1.896-1.091l0.397-0.008l1.542,0.88h0.001c0,0,0,0,0.001,0.001l0.243,0.149  c0.081,0.051,0.172,0.074,0.262,0.074c0.167,0,0.331-0.085,0.426-0.238c0.053-0.086,0.067-0.182,0.064-0.275l6.266-3.611l0,0  l0.003-0.002V47.89l0.685-0.391l0.149,0.038c0.041,0.01,0.082,0.015,0.122,0.015c0.1,0,0.192-0.038,0.275-0.094  c0.026-0.019,0.043-0.042,0.065-0.065c0.031-0.03,0.069-0.051,0.092-0.091c0.019-0.032,0.023-0.067,0.034-0.101  c0.003-0.012,0.015-0.016,0.018-0.027c0.003-0.01,0-0.02,0.001-0.029c0.007-0.035,0.007-0.07,0.006-0.105  c-0.001-0.03,0-0.061-0.006-0.09c-0.007-0.031-0.021-0.06-0.033-0.09c-0.013-0.029-0.023-0.058-0.041-0.084  c-0.017-0.025-0.039-0.047-0.062-0.068c-0.024-0.025-0.047-0.049-0.076-0.068c-0.009-0.006-0.014-0.015-0.023-0.02l-1.479-0.854  l0.974-0.556c0.002-0.001,0.003-0.003,0.004-0.004c0.001,0,0.002,0,0.003-0.001l0.644-0.381L53.469,46.1z M53.482,70.39  l-3.264-1.421l-2.341-1.152l-2.045-1.311l-1.746-1.422l-1.439-1.547l-1.103-1.649l-0.771-1.706l-0.023-0.095l0.72,1.515  c0.005,0.01,0.016,0.014,0.021,0.023c0.01,0.017,0.012,0.036,0.023,0.052l1.182,1.661c0.006,0.009,0.017,0.012,0.023,0.02  c0.008,0.011,0.011,0.022,0.02,0.032l1.477,1.574c0.008,0.009,0.02,0.012,0.028,0.02c0.009,0.009,0.014,0.021,0.023,0.028  l1.796,1.44c0.008,0.006,0.018,0.008,0.025,0.014c0.007,0.005,0.01,0.013,0.018,0.018l2.056,1.316  c0.006,0.004,0.014,0.002,0.021,0.006c0.01,0.006,0.017,0.016,0.027,0.021l2.338,1.156c0.004,0.002,0.007,0.001,0.011,0.002  c0.003,0.002,0.005,0.005,0.009,0.007l3.248,1.439c0.01,0.004,0.021,0.003,0.03,0.007c0.012,0.004,0.02,0.013,0.032,0.017  l3.594,1.043l-0.285-0.044L53.482,70.39z M46.896,74.82c0.008,0.009,0.02,0.012,0.028,0.02c0.008,0.008,0.012,0.019,0.021,0.025  l1.292,1.059c0.008,0.007,0.018,0.009,0.025,0.015s0.013,0.014,0.021,0.02l1.513,0.972c0.007,0.004,0.015,0.002,0.021,0.006  c0.01,0.006,0.016,0.016,0.026,0.021l1.698,0.849c0.004,0.002,0.009,0.001,0.014,0.003c0.005,0.003,0.008,0.008,0.014,0.01  l2.388,1.021c0.01,0.004,0.021,0.003,0.031,0.007c0.01,0.003,0.017,0.011,0.027,0.014l2.707,0.775  c0.013,0.004,0.026,0.003,0.039,0.006c0.007,0.001,0.013,0.006,0.02,0.007l2.978,0.479c0.016,0.003,0.032,0.003,0.049,0.004  c0.003,0,0.005,0.002,0.007,0.002l3.1,0.148c0.001,0,0.002,0.001,0.004,0.001l0.874,0.036c0.007,0,0.014,0,0.021,0h0.897  c0.009,0,0.019,0,0.027-0.001l0.887-0.049c0.001,0,0.001,0,0.002,0c0.004-0.001,0.008-0.001,0.012-0.001l0.897-0.074  c0.001,0,0.002-0.001,0.003-0.001c0.006,0,0.012,0,0.019-0.001l0.874-0.11c0.001,0,0.002-0.001,0.003-0.001  c0.004-0.001,0.008,0,0.012-0.001l0.874-0.136c0.003-0.001,0.005-0.003,0.008-0.003c0.007-0.001,0.013-0.001,0.019-0.002  l0.873-0.185c0.003-0.001,0.004-0.002,0.007-0.003c0.005-0.001,0.011-0.001,0.016-0.002l0.85-0.221  c0.003-0.001,0.005-0.003,0.008-0.004c0.002-0.001,0.005,0,0.008-0.001l0.226-0.066l-0.671,0.521l0,0l-0.016,0.012  c-0.007,0.005-0.009,0.013-0.016,0.018s-0.015,0.007-0.021,0.012c-0.003,0.002-0.006,0.002-0.008,0.004  c-0.033,0.025-0.054,0.059-0.079,0.09c-0.015,0.018-0.034,0.029-0.046,0.05l-0.005,0.008c-0.001,0.001-0.001,0.002-0.002,0.003  l-2.129,3.528l-0.017,0.027v0.001l-0.001,0.001l-0.849,1.406l-0.224,0.303l-0.263,0.318l-0.293,0.282  c0,0.001-0.001,0.001-0.001,0.001l-0.35,0.313l-0.324,0.254l-0.446,0.201l-0.541,0.188l-0.555,0.181l-0.569,0.169l-0.57,0.14  l-0.58,0.107h-0.001l-0.601,0.105l-0.617,0.061c-0.001,0-0.002,0.001-0.003,0.001l-0.593,0.046c-0.001,0-0.001,0-0.002,0  l-0.63,0.025l-0.607-0.013l0,0l-0.61-0.013l-2.172-0.132l-2.078-0.349l-1.877-0.563l-1.665-0.725l-1.208-0.604l-1.048-0.659  l-0.896-0.733l-0.741-0.775l-0.569-0.811l-0.396-0.846l-0.234-0.869l-0.077-0.879l0.043-0.354c0.001-0.004-0.001-0.009-0.001-0.013  c0.001-0.005,0.004-0.01,0.004-0.015l0.024-0.369c0.007-0.103-0.025-0.194-0.073-0.277v-3.828c0-0.002-0.001-0.005-0.001-0.007  c0-0.003,0.001-0.005,0.001-0.008l-0.071-2.453l0.719,1.072c0.006,0.01,0.018,0.013,0.024,0.021c0.01,0.014,0.014,0.029,0.025,0.042  L46.896,74.82z M37.002,56.362c-0.005-0.004-0.012-0.004-0.017-0.007c-0.006-0.004-0.008-0.01-0.014-0.013l-2.646-1.575  c-0.004-0.002-0.009-0.002-0.013-0.005c-0.003-0.002-0.005-0.005-0.009-0.007l-1.576-0.836c0.021-0.003,0.035-0.015,0.054-0.02  c0.021-0.006,0.043-0.004,0.063-0.013l2.11-0.868l1.482,0.896l2.433,1.688l0.494,0.387l-0.079,0.523  c-0.002,0.013,0.003,0.024,0.002,0.037c-0.001,0.014-0.008,0.024-0.008,0.038v1.365L37.002,56.362z M43.384,49.033  c0.003-0.002,0.005-0.005,0.007-0.006c0.002-0.002,0.004-0.001,0.006-0.002l1.944-1.096c0.002-0.001,0.003-0.003,0.004-0.004  c0.002,0,0.004,0,0.005-0.001l1.895-1.119c0.003-0.002,0.005-0.005,0.008-0.007c0.002-0.002,0.006-0.001,0.008-0.002l0.313-0.201  v0.21c0,0.022,0.01,0.04,0.013,0.062c0.004,0.034,0.009,0.066,0.02,0.1c0.011,0.031,0.026,0.059,0.043,0.088  c0.016,0.025,0.03,0.051,0.051,0.074c0.023,0.027,0.051,0.049,0.079,0.07c0.017,0.012,0.027,0.029,0.046,0.04l0.379,0.218  l-5.767,3.324l-1.146-0.653l0.088-0.043c0.003-0.001,0.004-0.003,0.006-0.005c0.003-0.001,0.005,0,0.007-0.002L43.384,49.033z   M71.821,71.259l-0.026,0.004l-0.082,0.009L71.821,71.259z M36.918,52.196v0.786c0,0.016,0.008,0.029,0.009,0.045  c0.001,0.005,0,0.01,0,0.015l-0.826-0.499L36.918,52.196z M28.705,53.479c0.002,0,0.003,0,0.005,0.001  c0.001,0,0.002,0.001,0.003,0.001l0.984,0.234c0.008,0.002,0.016,0.001,0.023,0.003c0.004,0.001,0.007,0.003,0.011,0.004  l0.529,0.088l0.761,0.336l2.798,1.484l2.625,1.562l2.419,1.689l0.417,0.333v0.67c0,0.003,0.002,0.006,0.002,0.009  c0,0.004-0.002,0.007-0.002,0.011l0.073,1.883c0.001,0.019,0.01,0.033,0.012,0.051c0.003,0.016-0.002,0.03,0.002,0.045l0.443,1.87  c0.004,0.018,0.015,0.032,0.021,0.049c0.004,0.014,0.003,0.027,0.009,0.041l0.055,0.122l-1.394-0.743  c-0.006-0.003-0.013-0.003-0.02-0.006c-0.005-0.002-0.008-0.008-0.014-0.01l-2.166-0.96c-0.002-0.001-0.005-0.001-0.007-0.002  c-0.003-0.001-0.004-0.003-0.007-0.004l-0.778-0.316c0-0.001-0.001-0.001-0.001-0.001l-0.133-0.057l-0.07-0.047l-0.077-0.07  l-0.077-0.093v-0.001l-6.45-8.178L28.705,53.479z M35.906,63.164l2.135,0.946l2.021,1.076l0,0l0.528,0.308l0.069,0.145  c0.003,0.007,0.011,0.01,0.015,0.017c0.006,0.011,0.007,0.024,0.014,0.035l0.005,0.008c0.001,0.001,0.001,0.002,0.001,0.002  l0.008,0.012l3.308,5.19l0.119,4.12v3.395l-0.827-0.572c-0.005-0.003-0.011-0.004-0.016-0.007s-0.007-0.008-0.012-0.011  l-1.379-0.824c-0.004-0.002-0.008-0.002-0.013-0.004c-0.004-0.003-0.006-0.007-0.01-0.009l-1.464-0.775  c-0.005-0.003-0.011-0.002-0.016-0.005c-0.005-0.002-0.008-0.007-0.013-0.009l-1.575-0.714c-0.004-0.002-0.008-0.001-0.012-0.003  c-0.005-0.002-0.008-0.006-0.013-0.008l-0.543-0.212l-0.086-0.043l-0.042-0.025l-0.016-0.015l-0.007-0.008l-0.006-0.023  l-0.332-2.759c0-0.002,0.001-0.003,0.001-0.005c0-0.006-0.003-0.011-0.004-0.017l-0.005-0.043l0,0c0-0.002,0-0.004-0.001-0.005  l-0.441-3.626c-0.002-0.015-0.011-0.026-0.014-0.041c-0.003-0.014,0-0.027-0.004-0.042l-1.676-5.572L35.906,63.164z M73.008,77.377  c-0.001,0.001-0.002,0.001-0.002,0.001l-0.111,0.07l-0.701,0.322l-0.762,0.297l-0.78,0.253l-0.812,0.239h-0.001l-0.847,0.22  l-0.84,0.178l-0.857,0.133l-0.859,0.108l-0.872,0.072l-0.863,0.048h-0.867l-0.874-0.036c-0.001,0-0.003,0.001-0.004,0.001  l-3.066-0.147l-2.917-0.47l-2.648-0.759l-2.348-1.004l-1.658-0.829l-1.473-0.945l-1.236-1.014l-1.026-1.096l-0.793-1.184v-0.001  l-0.861-1.354l-0.171-0.269l0.466,0.383c0.01,0.008,0.021,0.011,0.031,0.018c0.008,0.005,0.012,0.014,0.02,0.019l2.092,1.316  c0.007,0.004,0.015,0.002,0.021,0.006c0.01,0.006,0.016,0.015,0.025,0.02l2.374,1.169c0.003,0.001,0.006,0.001,0.009,0.002  c0.004,0.002,0.006,0.005,0.01,0.007l3.311,1.464c0.011,0.005,0.021,0.003,0.032,0.007c0.013,0.005,0.021,0.014,0.034,0.018  l3.765,1.059c0.013,0.004,0.024,0.003,0.037,0.005c0.008,0.002,0.013,0.007,0.021,0.008l4.11,0.652  c0.017,0.002,0.032,0.003,0.049,0.004c0.002,0,0.003,0.001,0.005,0.001l4.331,0.209c0.001,0,0.003,0.001,0.004,0.001l1.218,0.049  c0.007,0,0.014,0,0.021,0h1.23c0.008,0,0.017,0,0.025-0.001l1.23-0.062h0.001c0.006-0.001,0.012-0.001,0.018-0.001l1.243-0.11  c0.001,0,0.002-0.001,0.003-0.001c0.006,0,0.012,0,0.018-0.001l1.23-0.16c0.002,0,0.004-0.002,0.007-0.002  c0.002-0.001,0.005-0.001,0.008-0.001l1.218-0.196c0.002,0,0.004-0.002,0.006-0.002c0.006-0.001,0.011-0.001,0.016-0.002  l1.194-0.246c0.002,0,0.003-0.002,0.005-0.002c0.005-0.001,0.011-0.001,0.016-0.002l1.181-0.296  c0.003-0.001,0.005-0.003,0.008-0.004s0.006,0,0.009-0.001l0.533-0.153L73.008,77.377z"/><text x="0" y="115" fill="#000000" font-size="5px" font-weight="bold" font-family="'Helvetica Neue', Helvetica, Arial-Unicode, Arial, Sans-serif">Created by Lluisa Iborra</text><text x="0" y="120" fill="#000000" font-size="5px" font-weight="bold" font-family="'Helvetica Neue', Helvetica, Arial-Unicode, Arial, Sans-serif">from the Noun Project</text></svg>