<svg xmlns:dc="http://purl.org/dc/elements/1.1/" xmlns:cc="http://creativecommons.org/ns#" xmlns:rdf="http://www.w3.org/1999/02/22-rdf-syntax-ns#" xmlns:svg="http://www.w3.org/2000/svg" xmlns="http://www.w3.org/2000/svg" xmlns:sodipodi="http://sodipodi.sourceforge.net/DTD/sodipodi-0.dtd" xmlns:inkscape="http://www.inkscape.org/namespaces/inkscape" version="1.1" x="0px" y="0px" viewBox="0 0 100 125"><g transform="translate(0,-952.36218)"><path d="m 28.786966,952.36369 c -1.84587,0.2621 -2.9895,1.6462 -4.03091,2.5619 -0.36975,-1.5304 -1.17283,-2.5131 -2.74977,-2.5307 -2.40771,0.1269 -3.40742,1.8454 -4.37463,3.6243 -1.46008,-1.0117 -2.80521,-0.54 -3.968419,0.6561 -0.9572,1.2863 -1.19423,2.8404 -1.37488,4.2805 -1.63689,0.4666 -3.0574603,1.64831 -3.4684603,3.18691 -0.32987,1.3194 0.0364,2.4882 0.5937,3.6244 -1.72463,1.2195 -3.30398,2.6788 -4.81209,4.1867 -0.57016,0.5517 -0.76069,1.4601 -0.46027,2.1943 0.30042,0.7343 1.073,1.2487 1.8664,1.2426 2.25109,0 3.33202,0.216 4.3433803,0.4687 -0.6441203,1.665 -1.3436303,3.4858 -1.3436303,5.5302 0.13307,5.1277 3.7537103,7.1449 7.9680793,7.7174 -0.0355,1.8262 -0.54323,3.5635 -1.43738,5.749 -1.12133,2.7406 -2.531039,6.1133 -2.531039,10.5292 0,6.2262 3.245499,13.2765 8.405539,18.9654 2.40476,2.651 5.27637,4.9861 8.46804,6.7488 l -1.49988,1.8746 c -3.70986,-1.6451 -7.35815,-2.6517 -10.87408,-3.5306 -0.90454,-0.2373 -1.94464,0.2583 -2.32994,1.1104 -0.38529,0.852 -0.0706,1.9602 0.70508,2.4826 2.11169,1.4078 4.17342,2.8872 6.18698,4.5618 -2.17536,0.8112 -4.12376,1.7178 -6.18698,3.0931 -0.83098,0.4974 -1.19387,1.6502 -0.79769,2.5339 0.39618,0.8837 1.49826,1.3798 2.42255,1.0905 3.95087,-0.9877 6.68375,-1.8519 10.18664,-1.906 1.97579,0.5342 3.98365,2.4525 7.90558,6.3739 0.55528,0.5488 1.44752,0.7241 2.1692,0.4262 0.72167,-0.298 1.23039,-1.0515 1.23677,-1.8322 0,-2.6358 -1.12285,-4.9313 -2.4373,-7.0925 0.73265,-0.2059 1.31711,-0.8641 1.4348,-1.616 0.11769,-0.7518 -0.23766,-1.5571 -0.87234,-1.977 l -1.40614,-0.9374 1.15616,-1.9684 c 1.65731,0.3689 3.36598,0.5937 5.12456,0.5937 4.03272,0 8.42816,-0.2881 12.78018,-1.031 l -0.62495,6.1862 c -4.37245,0.2202 -8.1661,1.0337 -11.65527,1.906 -0.93348,0.2397 -1.60789,1.2329 -1.48648,2.1889 0.12141,0.956 1.02265,1.749 1.98644,1.7479 2.90545,0 5.55138,0.1308 7.84309,0.4687 -0.56732,0.981 -1.16666,2.1247 -1.74985,3.8743 -0.29535,0.8491 0.0687,1.8794 0.83195,2.3546 0.76324,0.4752 1.84856,0.3471 2.48027,-0.2926 2.66814,-2.6677 3.74831,-3.6769 5.96824,-5.2177 3.42437,0.8936 6.26445,1.7754 8.99925,2.687 0.84488,0.2706 1.8514,-0.1029 2.31517,-0.8591 0.46378,-0.7562 0.34026,-1.8226 -0.2841,-2.4528 -1.44543,-1.4454 -3.34489,-2.7315 -5.37454,-3.843 0.0426,-0.028 0.05,-0.033 0.0937,-0.063 0.70313,-0.4763 1.03963,-1.4323 0.78987,-2.2438 -0.24977,-0.8117 -1.06551,-1.4132 -1.91478,-1.4118 l -1.7811,0 0.6562,-6.7175 c 1.47297,-0.4618 2.92044,-0.9832 4.31214,-1.5934 7.12382,-3.1242 12.98841,-8.6206 14.53002,-17.0282 3.19199,-0.7856 6.73214,-1.0558 9.342958,-2.7807 0.38017,-0.3244 0.93742,-0.9166 0.93742,-1.8747 0,-0.8012 -0.35161,-1.4126 -0.74993,-1.9059 1.68566,-1.1208 3.17708,-2.322 4.53086,-3.6556 0.77426,-0.7121 1.04637,-1.6838 1.21865,-2.437 0,-0.9166 -0.53663,-1.7402 -0.99991,-2.1559 -0.33752,-0.3029 -0.63663,-0.4089 -0.93743,-0.5625 1.07414,-1.2111 1.91953,-2.9037 1.93734,-4.2804 -1e-4,-1.047 -0.95275,-1.9995 -1.99983,-1.9996 l -0.93742,0 c 0.61754,-1.1241 0.95237,-2.4135 1.1874,-3.5619 0.0932,-0.8157 0.11335,-1.9175 -0.84368,-2.8744 -1.02206,-0.8089 -2.09443,-0.5211 -3.18723,-0.25 0.40703,-1.1916 0.7592,-2.5036 0.96867,-3.6556 0.11765,-0.8718 0.33296,-1.9792 -0.78119,-3.0932 -0.37212,-0.3599 -0.88841,-0.5664 -1.40613,-0.5624 -1.13089,0 -1.800038,0.3627 -2.437288,0.7499 -0.31155,-1.9853 -0.32519,-4.1214 -1.21865,-5.749 -0.57895,-1.0262 -1.92692,-1.9996 -3.34347,-1.9996 -1.15268,0 -1.91312,0.514 -2.56228,1.0623 -2.33228,2.2261 -4.09661,5.317 -5.53079,7.7799 -2.35313,4.05 -4.79462,8.5736 -6.90566,11.904 -4.43479,-0.9637 -10.2363,-2.3991 -15.96741,-1.8121 -2.80153,-4.5357 -5.59485,-8.365 -8.34304,-12.0291 -1.9767,-4.7882 -4.91771,-8.7238 -8.56178,-12.4978 0.84403,-2.4228 1.88428,-6.03601 0.28122,-7.84221 -1.18115,-0.8979 -2.64303,-0.4935 -3.90592,-0.25 1.17237,-2.0591 0.15135,-4.4125 -1.71856,-4.3425 z m 1.99983,14.62231 c 3.7828,3.8128 6.52497,7.4999 8.37429,12.1228 0.062,0.1664 0.14634,0.3245 0.24998,0.4686 1.89641,2.5284 3.76236,5.072 5.62453,7.8111 -1.16956,0.1797 -2.00646,0.9004 -2.03108,2.2496 l 0.5937,4.8429 -2.9685,-0.9998 c -1.20789,-0.3974 -2.64856,0.6658 -2.62478,1.9371 l 0,0.9061 -6.18698,-2.7808 c -1.21661,-0.5407 -2.82291,0.5123 -2.81226,1.8435 l 0,0.9998 -4.81209,-3.6244 c -1.1543,-0.8545 -3.11,0.066 -3.18723,1.4998 l -0.71869,-0.5937 c 0.56808,-1.6807 0.93986,-3.4834 0.81243,-5.4677 2.45753,-2.4483 3.48764,-5.9414 2.43729,-9.0921 -0.90213,-2.7063 -3.33862,-4.9099 -6.93691,-6.0302 0.23694,-0.4863 0.40621,-1.0259 0.40621,-1.6872 -5.2e-4,-0.3135 -0.0761,-0.6268 -0.21873,-0.906 0,0 -0.5223,-1.0319 -1.56237,-2.1246 2.92035,-2.4705 5.504,-3.8315 7.68685,-3.9993 2.86635,-0.2055 6.03012,1.035 7.87434,2.6245 z m -7.78059,0.4062 c -1.65671,0 -2.99975,1.1191 -2.99975,2.4995 0,1.3805 1.34304,2.4995 2.99975,2.4995 1.65671,0 2.99974,-1.119 2.99974,-2.4995 0,-1.3804 -1.34303,-2.4995 -2.99974,-2.4995 z m -0.99992,1.9996 c 0.55223,0 0.99992,0.4476 0.99992,0.9998 0,0.5522 -0.44769,0.9998 -0.99992,0.9998 -0.55223,0 -0.99991,-0.4476 -0.99991,-0.9998 0,-0.5522 0.44768,-0.9998 0.99991,-0.9998 z m 59.9012,5.249 c 0.85865,2.3291 0.50892,5.2435 1.1874,7.3737 0.35916,1.0938 1.78755,1.681 2.81226,1.156 0.28476,-0.1422 0.48575,-0.2828 0.74994,-0.4373 -0.5127,1.6261 -1.21778,3.5266 -1.59362,5.2177 -0.30178,1.4058 1.34907,2.807 2.68728,2.2809 0.639508,-0.256 1.249758,-0.5486 1.874838,-0.8436 -0.43513,1.0739 -0.98285,2.2465 -1.40613,3.0932 -0.615988,1.2123 0.42116,2.9043 1.7811,2.9057 l 0.81243,0 c -0.36855,0.5138 -0.65378,0.9974 -1.21865,1.5622 -0.84922,0.8271 -0.70325,2.4326 0.28123,3.0931 0.53763,0.3585 0.89647,0.4583 1.31239,0.6249 -1.58152,1.5018 -3.592818,2.8811 -5.312048,4.0306 -1.14731,0.9287 -1.02181,2.3134 -0.21874,3.1561 -2.37214,0.6534 -4.97005,1.1441 -7.0619,1.5624 -0.81857,0.1635 -1.49235,0.8901 -1.59362,1.7185 -0.91166,7.7484 -5.71987,12.3329 -12.43645,15.2784 -6.71657,2.9457 -15.23899,3.9681 -22.5606,3.9681 -6.78831,0 -13.06562,-3.6577 -17.65476,-8.7172 -4.58914,-5.0599 -7.34313,-11.5071 -7.34313,-16.279 0,-3.055 0.81664,-5.4341 1.74986,-7.7797 l 3.96841,3.3118 c 0.61631,0.5047 1.54565,0.5875 2.24144,0.1994 0.69578,-0.3879 1.11384,-1.222 1.00829,-2.0115 l 3.84342,2.8745 c 0.58973,0.435 1.42628,0.507 2.08173,0.1793 0.65545,-0.3277 1.0997,-1.0401 1.1055,-1.7728 l 0,-1.9372 6.24948,2.812 c 1.21661,0.5407 2.82291,-0.5123 2.81226,-1.8435 l -0.0312,-1.2809 3.34347,1.1248 c 1.27022,0.4274 2.77841,-0.7934 2.62478,-2.1247 0.12285,-1.7853 0.1831,-4.7541 0.15624,-4.9053 0.55147,0.8639 1.32162,1.2057 2.18731,1.1248 5.32418,-0.8873 12.09812,0.9384 17.24855,1.9684 0.77167,0.1584 1.62294,-0.1898 2.06232,-0.8436 2.44286,-3.664 5.17974,-8.9013 7.68685,-13.2164 1.44605,-2.3603 2.69781,-4.6913 4.56212,-6.6238 z m -44.34001,28.4949 c -4.21839,2.6435 -5.58135,7.7292 -4.90584,11.4041 0.90548,4.3762 4.58175,8.4565 10.56161,9.3109 5.83534,0.301 11.06099,-0.7399 15.68618,-2.1246 2.45871,-0.7541 4.63759,-1.6366 6.31197,-2.7495 1.70621,-1.1996 3.16938,-3.1205 2.71852,-5.0929 -0.72326,-2.0197 -2.28271,-2.7728 -4.09341,-3.2182 -3.53863,-0.4451 -6.83212,0.231 -10.24913,0.3127 -1.43339,0.029 -2.48659,-0.2932 -2.46854,-0.2812 -0.81723,-0.5448 -2.78604,-3.067 -4.90584,-5.1866 -1.0599,-1.0598 -2.21658,-2.0568 -3.68719,-2.6557 -1.73953,-0.5911 -3.38676,-0.5686 -4.96833,0.281 z" style="text-indent:0;text-transform:none;direction:ltr;block-progression:tb;baseline-shift:baseline;color:#000000;enable-background:accumulate;" fill="#000000" fill-opacity="1" stroke="none" marker="none" visibility="visible" display="inline" overflow="visible"/></g><text x="0" y="115" fill="#000000" font-size="5px" font-weight="bold" font-family="'Helvetica Neue', Helvetica, Arial-Unicode, Arial, Sans-serif">Created by sandra</text><text x="0" y="120" fill="#000000" font-size="5px" font-weight="bold" font-family="'Helvetica Neue', Helvetica, Arial-Unicode, Arial, Sans-serif">from the Noun Project</text></svg>