<svg xmlns="http://www.w3.org/2000/svg" xmlns:xlink="http://www.w3.org/1999/xlink" version="1.2" baseProfile="tiny" x="0px" y="0px" viewBox="0 0 100 125" xml:space="preserve"><g><path d="M98,57.2H65c-0.7,0-1.2,0.6-1.2,1.2c0,7.9-6.5,24.8-13.8,24.8S36.2,66.4,36.2,58.5c0-0.7-0.6-1.2-1.2-1.2H2   c-0.7,0-1.2,0.6-1.2,1.2s0.6,1.2,1.2,1.2h31.8c0.3,4.4,2,10.4,4.5,15.4C41.7,82,45.8,85.8,50,85.8s8.3-3.8,11.7-10.6   c2.5-5,4.2-11,4.5-15.4H98c0.7,0,1.2-0.6,1.2-1.2S98.7,57.2,98,57.2z"/><path d="M33,22.8h12.8v4.3c-4.2,1.7-7,5.8-7,10.4c0,0.8,0.1,20.8,10.2,37.9c0.2,0.4,0.6,0.6,1.1,0.6s0.9-0.2,1.1-0.6   c10.1-17.1,10.2-37,10.2-37.9c0-4.6-2.8-8.7-7-10.4v-4.3H67c2.3,0,4.2-1.9,4.2-4.2s-1.9-4.2-4.2-4.2H33c-2.3,0-4.2,1.9-4.2,4.2   S30.7,22.8,33,22.8z"/></g><text x="0" y="115" fill="#000000" font-size="5px" font-weight="bold" font-family="'Helvetica Neue', Helvetica, Arial-Unicode, Arial, Sans-serif">Created by Juraj Sedlák</text><text x="0" y="120" fill="#000000" font-size="5px" font-weight="bold" font-family="'Helvetica Neue', Helvetica, Arial-Unicode, Arial, Sans-serif">from the Noun Project</text></svg>