<svg xmlns="http://www.w3.org/2000/svg" xmlns:xlink="http://www.w3.org/1999/xlink" xmlns:xodm="http://www.corel.com/coreldraw/odm/2003" xml:space="preserve" version="1.1" style="shape-rendering:geometricPrecision;text-rendering:geometricPrecision;image-rendering:optimizeQuality;" viewBox="0 0 39373.07 49135.8125" x="0px" y="0px" fill-rule="evenodd" clip-rule="evenodd"><defs><style type="text/css">
   
    .fil0 {fill:black;fill-rule:nonzero}
   
  </style></defs><g><path class="fil0" d="M36963.95 33269.58c-824.48,658.23 -1457.91,137.48 -2284.02,-541.66 -418.36,-343.93 -892.33,-752.04 -1412.81,-913.49 -309.89,-96.13 -645.65,-107.08 -1014.39,31.67 -787.61,296.38 -1656.39,1503.89 -1979.89,2295.87 -357.69,875.69 -224.32,1558.12 692.65,1932.66 1126.44,460.12 2502.85,400.49 3658.23,62.99 482.7,-141 941.11,-333.97 1348.69,-569.28 513.67,-296.57 1012.01,-757.31 1441,-1256.83 457.25,-532.39 1102.15,-1433.38 1279.51,-2103.41 40.45,-152.81 55.57,-314.65 -39.04,-419.4 -126.87,-140.46 -132.5,-44.73 -179.11,67.1 -423.95,1017.12 -1073.62,1933.42 -1874.52,2648.81 -824.14,736.15 -1808.49,1260.21 -2872.26,1463.7 -126.94,24.28 -163.85,-168.73 -36.91,-193.01 1028.16,-196.68 1980.42,-703.96 2778.45,-1416.8 767.46,-685.52 1392.23,-1560.61 1805.11,-2532.26 45.52,-107.14 90.08,-177.5 -59.18,-70.97 -274.56,195.94 -487.55,627.24 -692.91,910.75 -158.63,219.02 -347.33,434.87 -558.6,603.54zm1847.36 -33181.7c276.12,-271.57 689.05,148.26 412.92,419.84 -380.12,372.28 -759.91,744.92 -1139.39,1117.85 -156.68,153.96 -232.43,154.37 -55.81,334.03l561.62 565.21c329.76,331.85 282.46,656.26 -0.99,961.02 -99.92,107.43 -586.52,627.08 -1077.01,1120.21 -272.69,274.15 -546.1,539.43 -754.11,719.91 -175.55,152.31 -406.67,177 -599.94,47.16 -1819.88,1761.56 -3644.13,3536.53 -5503.12,5345.3 -1528.5,1487.21 -3080.5,2997.3 -4672.88,4541.57 -92.54,90.02 -229.42,-50.69 -136.87,-140.72 1592.38,-1544.27 3144.38,-3054.35 4672.88,-4541.57 1858.47,-1808.27 3682.22,-3582.75 5501.6,-5343.83 -141.48,-213.39 -102.09,-470.43 73.78,-654.08 70.98,-74.12 -86.77,-209.17 -159.64,-135.41 -253.44,256.57 -400.79,166.28 -578.7,37.13 -74.87,-54.35 -135.69,-30.94 -204.76,37.35 -531.58,525.69 -932.41,922.62 -1462.37,1447.8 -165.49,169.06 -195.18,50.39 -430.84,288.16 -2588.41,2611.5 -5245.73,5153.93 -7885.68,7713.31 -185.09,180.04 -458.84,-101.39 -273.75,-281.43 2644.27,-2563.57 5245.65,-5103.82 7865.01,-7692.85 168.54,-166.59 146.7,-278.01 291.22,-426.08 934.55,-926.13 1816.2,-1798.56 2748.77,-2718.74 934.42,-922 1870.2,-1842.64 2808.05,-2761.15zm-1353.6 2154.49c-347.39,341.95 -694.56,684.13 -1041.53,1026.5 -272.63,269 -484.59,498.7 -766.59,756.98 -124.61,114.13 1.48,133.68 120.93,50 411.45,-288.2 1002.63,362.4 606.44,776.14 -118.99,124.26 9.76,276.92 124.75,177.15 198.98,-172.65 465.32,-431.23 732.57,-699.91 481.59,-484.19 967.75,-1003.43 1067.79,-1110.98 144.05,-154.87 161.62,-264.25 10.21,-416.61 -209.84,-211.16 -353.94,-354.98 -563.16,-566.74 -171.09,-174.02 -82.26,-198.39 -291.42,7.49zm-21811.73 22659.53c94.06,-88.5 228.63,54.52 134.57,143.02 -2412.89,2279.69 -4796.3,4499.31 -7184.16,6674.71 -2345.59,2136.88 -4699.44,4234.65 -7094.93,6309.44 1.56,9.47 2.97,18.94 4.2,28.44 26.16,201.99 -21.88,393.33 -209.73,555.41 -7.93,6.84 -65.75,57.76 -125.61,110.48 -146.34,128.89 -308.18,271.42 -475.83,390.17 -153.93,109.02 -303.13,131.19 -420.6,97.75 -68.83,-19.59 -127.1,-58.2 -171.56,-111.05 -43.1,-51.23 -70.85,-114.05 -80.16,-183.93 -16.69,-125.32 27.79,-275.8 157.16,-410.94 114.87,-120 44.08,-264.12 -27.05,-408.92 -142.28,-289.63 -285.3,-580.76 105.63,-922.99l0.13 0.15c2127.67,-1945.18 4367.73,-4018.88 6671.96,-6172.03 2457.72,-2296.57 4963.52,-4660.8 7463.61,-7037.37 187.12,-178.02 457.79,106.5 270.67,284.51 -2507.78,2383.88 -5015.14,4749.63 -7466.69,7040.44 -1825.98,1706.26 -3635.2,3383.91 -5406.82,5011.33 -8.37,44.33 -31.96,86 -69.87,116.48 -242.82,196.22 -398.98,390.1 -463.19,583.4 -59.15,178.07 -38.88,364.69 65.36,562.03 44.18,83.64 86.62,169.67 120.04,257.54 2365.2,-2049.71 4695.14,-4126.73 7021.04,-6245.67 2390.56,-2177.85 4772.78,-4396.31 7181.85,-6672.4zm-14814.34 12278.11c-104.25,95.42 -208.35,190.65 -312.3,285.69l-3.07 3.07c-164.72,144.2 -88.07,300.24 -11.81,455.47 131.69,268.07 262.74,534.87 -42.15,853.37 -14.71,15.37 -25.99,29.31 -34.18,41.65 11.54,-6.26 24.95,-14.7 40.3,-25.57 137.54,-97.42 297.43,-238.23 442,-365.56 28.15,-24.8 55.56,-48.93 128.69,-112.02 69.76,-60.18 87.43,-132.5 77.47,-209.38 -13.96,-107.85 -74.78,-235.74 -141.09,-361.29 -101.15,-191.48 -148.45,-379.69 -143.83,-565.43zm2055.79 -31343.75c-93.19,82.62 -162.28,176.95 -194.52,275.12 -50.83,154.73 1.81,289.48 104.81,405.67 172.44,194.49 356.9,276.03 541.65,280.18 279.77,6.28 1088.69,-275.91 793.33,-689.94 -143.97,-201.8 -441.8,-372.39 -675.39,-436.43 -248.13,-68.04 -380.74,-2.27 -569.88,165.42zm-186.29 -824.32l406.1 254.98c136.66,-31.09 294.09,-18 453.11,25.6 147.99,40.58 301.01,108.17 438.91,189.8 126.46,74.85 72.82,69.96 206.52,3.79 193.71,-95.85 452.94,-196.23 632.36,-277 235.67,-106.2 397.15,252.13 161.48,358.33l-482.82 217.34c-134.09,60.36 -104.22,29.95 -36.22,136.3 109.7,171.63 37.2,131.02 223.64,251.5 124.49,80.44 246.5,164.73 363.5,248.78 175.42,126.02 335.15,248.14 475.04,356.14 294.25,227.15 600.39,62.8 907.26,-101.95 121.07,-65 242.22,-130.04 365.06,-180.72 224.96,-92.82 233.43,-28.62 17.58,-221.49l-393.91 -351.96c-150.15,-134.16 -213.78,-316.82 -189.09,-514.29 -457.92,-446.65 -970.59,-868.75 -1571.87,-1165.92 -627.48,-310.11 -1356.71,-485.83 -2230.09,-412.85 -467.65,39.07 -801.94,-351.76 -498.4,-534.71 248.81,-150.31 339.35,-434.37 338.4,-713.45 -1.07,-316.94 -127.56,-692.89 -362.11,-916.39 -223.43,-212.92 -422.49,-296.5 -629.34,-321.58 -702.69,-70.32 -1059.06,667.8 -875.11,1383.09 130.76,508.46 276.83,966.15 661.04,1326.53 207.5,194.63 153.3,114.98 398.47,143.47 265.16,30.8 548.68,160.43 765.65,309.92l699.25 -314.76c235.67,-106.2 397.15,252.13 161.48,358.33l-542.34 244.13c54.33,66.85 101.66,140.12 136.47,219.02zm2581.44 -3095.63c312.06,-222.61 655.78,-373.3 1001.65,-365.54 304.23,6.83 600.37,132.5 865.55,431.58 204.49,230.64 291.8,518.6 192.78,820.04l-2.11 6.32c264.35,-158.89 546.39,-258.99 829.88,-252.63 304.23,6.83 600.37,132.5 865.55,431.58 433,488.39 211.09,1088.89 -296.93,1429.53 -229.06,153.61 -284.76,46.58 6.16,286.91l7937.75 6557.31c1768.98,-768.51 3344.11,-652.35 4682.54,-1.34 1617.76,786.88 2878.88,2355.67 3711,4080.3 135.24,280.31 570.33,482.63 844.05,589.22 659.45,256.81 1096.68,751.59 404.02,1262.4 -425.62,313.89 -368.31,565.57 -14.46,934.75 176.58,184.22 665.31,693.54 1265.37,1245.69 594.6,547.13 1295.95,1133.91 1899.17,1476.07 564.53,320.22 988.04,473.45 1302.45,517.2 297.75,41.43 680.8,-24.37 716.21,-385.3 19.17,-195.33 67.51,-361.61 472.33,-368.59 249.01,-4.3 571.45,97.23 634.69,369.23 77.18,332.02 314.44,627.81 621.54,885.03 322.96,270.5 721.21,496.66 1098.49,678.89 1760.27,850.19 3426.95,2362.83 4335.72,4149.19 730.34,1435.62 974.38,3048.06 394.15,4640.63 -124.04,340.45 -41.45,152.8 37.71,451.87 44.51,168.13 29.43,353.35 -15.06,521.42 -190.3,718.9 -851,1659.82 -1335.97,2229.4 150.02,451.35 74.2,941.38 -257.72,1290.48 -236.91,249.17 -553.56,373.86 -885.63,396.28 -311.28,21.01 -220.57,-78.19 -430.62,166.91 -1117.39,1303.95 -2650.18,2311.39 -4286.37,2718.13 -3195.73,794.43 -5759.69,-860.42 -7237.99,-3623.37 -634.76,-1186.35 -1055.82,-2030.19 -1896.83,-3131.37 -149.97,-196.36 -350.83,-358.62 -595.29,-415.78 -585.93,-137 -862.91,-708.29 -344.41,-1185.35 209.63,-192.86 411.89,-410.06 613.14,-613.04 286.07,-288.54 364.82,-312.13 304.71,-756.45 -52.19,-385.85 -229.11,-778.2 -389.47,-1130.79 -481.43,-1058.57 -1226.91,-1966.1 -2142.94,-2678.61 -576.43,-448.35 -1598.46,-931.67 -2271.05,-418.64 -675.82,515.49 -1042.36,454.3 -1253.6,-406.9 -177.45,-723.43 -743.5,-1013.06 -1412.53,-1355.38 -1447.44,-740.63 -2669.2,-1711.07 -3312.2,-3257.79 -464.6,-1117.59 -501.2,-2340.78 -44.59,-3521.31 202.88,-524.59 637.74,-1180.47 963.6,-1719.91 168.48,-278.91 136.98,-148.65 -48.52,-385.77 -414.85,-530.31 -178.09,-929.85 77.81,-1361.69 269.57,-454.91 567.52,-957.69 -404.63,-1826.35l-4795.18 -4284.52c-390.78,-349.15 -606.94,-252.71 -1050.37,-14.66 -419.12,225.01 -837.24,449.48 -1333.26,66.58 -140.28,-108.29 -299.08,-229.76 -464.28,-348.44 -214.09,-153.8 -274.11,-213.72 -359.45,-82.84 -222.56,299.65 -784.88,540.64 -1147.45,532.51 -291.08,-6.54 -574.3,-126.63 -827.69,-412.44 -139.19,-156.99 -228.67,-350.53 -223.94,-563.41 7.78,-350.77 221.87,-360.26 -182.38,-162.37 -215.13,105.32 -439.31,167.39 -664.4,162.33 -602.17,-13.51 -1268.56,-611.6 -1058.33,-1251.62 57.06,-173.72 171.28,-333.5 322.23,-467.33 205.38,-182.09 184.99,-78.38 -14.8,-312.6 -126.66,-148.47 -231.26,-306.59 -317.64,-470.59 -156.81,-297.74 -252.93,-613.8 -311.73,-925.8 -188.06,-997.88 117.97,-1538.28 1022.93,-1912.46l933.98 -386.17 -0.11 -0.27c453.24,-188.61 884.72,-59.91 1218.6,220.41 324.78,272.68 561.75,699.95 615.53,1121.1 44.1,345.33 -34.62,678.4 -279.86,908.66 412.64,9.94 886.15,89.73 1370.72,228.51 286.08,81.93 329.49,166.11 175.65,-49.57 -260.16,-364.71 -186.86,-743.32 172.18,-999.45zm1348.74 1604.13c-17.94,8.22 -36.42,15.48 -55.38,21.79 -145.52,48.46 -192.84,0.75 -17.76,99.77 85.54,48.38 169.54,98.39 251.66,149.94 257.54,161.7 148.12,121.81 73.85,-80.71 -21.39,-58.34 -35.07,-117.89 -40.01,-178.16 -15.67,-191.31 19.22,-118.78 -212.36,-12.63zm-354.79 -1577.5c-251.15,-5.63 -516.67,115.14 -766.35,293.25 -322.8,230.26 -90.53,497.16 142.39,670.14 144.78,107.53 325.85,199.79 496.43,246.56 343.27,94.11 715.37,-153.93 819.84,-472 54.87,-167.04 -1.52,-313.1 -112.81,-438.63 -184.21,-207.77 -381.6,-294.89 -579.5,-299.32zm1886.1 1005.31c-251.15,-5.63 -516.67,115.14 -766.35,293.25 -322.8,230.27 -90.53,497.16 142.39,670.14 144.78,107.53 325.85,199.79 496.43,246.56 264.05,72.4 411.37,0.46 611.42,-176.91 243.05,-215.49 320.21,-480.39 95.61,-733.72 -184.21,-207.77 -381.6,-294.89 -579.5,-299.32zm-6721.69 2873.09c251.15,5.63 516.67,-115.14 766.35,-293.25 317.44,-226.45 101.46,-489.04 -142.39,-670.14 -372.4,-276.57 -730.3,-404.41 -1107.85,-69.65 -99.75,88.44 -173.78,189.6 -208.43,295.09 -125.54,382.2 361.56,730.54 692.32,737.96zm30277.73 20512.09l-305.08 -388.31c-162.02,156.97 -326.04,311.8 -492.55,464l306.7 400.63c92.98,-33 204.52,-13.78 286.2,58.37 114.18,100.87 126.8,266.97 28.17,371.01 -98.63,104.03 -271.15,106.6 -385.33,5.74 -114.14,-100.83 -126.79,-266.85 -28.28,-370.89l-294.98 -385.31c-163.42,147.74 -338.52,301.51 -527.9,461.88l316.31 413.19c94.06,-35.76 208.41,-17.24 291.72,56.34 114.18,100.87 126.8,266.97 28.17,371.01 -98.63,104.03 -271.15,106.6 -385.33,5.74 -112.62,-99.49 -126.43,-262.44 -32.14,-366.7l-308.96 -403.58c-159.05,133.24 -341.14,271.44 -439.6,457.13 -196.54,370.63 275.4,557.64 556.67,629.34 2190.07,558.31 3936.52,2240.19 5531.81,3776.5 287.48,276.85 570.05,548.97 843.3,803.42 185.16,172.41 143.28,172.68 324.07,-37.65 22.95,-26.7 45.43,-53.81 67.46,-81.27 167.15,-208.37 136.24,-158.71 -55.71,-349.92 -356.98,-355.62 -689.68,-681.7 -999.21,-985.09 -2071.26,-2030.13 -3119.69,-3057.75 -3672.85,-5294.69 -102.73,-415.42 -299.56,-649.68 -648.64,-302.81 -72.54,72.07 -147.07,145.7 -224.07,220.91l315.03 400.97c95.66,-40.44 214.65,-23.13 300.59,52.79 114.18,100.87 126.8,266.97 28.17,371.01 -98.63,104.03 -271.15,106.6 -385.33,5.74 -110.06,-97.22 -125.73,-255.05 -38.4,-359.49zm-549 -698.76l-2249.76 -2863.5 -444 444 2205.35 2880.76c165.09,-151.31 327.73,-305.27 488.41,-461.26zm-2525.76 -3144.21l-1325.96 -1116.51c91.77,216.79 -41.16,431.2 -265.21,462.8 -113.86,16.03 -153.26,-34.57 -16.19,83.67l1168.96 1008.46 438.41 -438.41zm-1662.64 -1400l-280.94 -236.56c-66.63,-56.1 -93.03,-81.97 -101.31,41.83 -11.69,174.34 233.13,276.98 380.24,268.56 108.07,-6.18 127.69,31.99 2.01,-73.83zm-647.19 -544.97l-1124.49 -946.86c-147.02,106.87 -297.86,231.33 -444.02,362.61l1350.3 1164.91c183.79,158.56 114.21,119.91 92.78,-64.95 -21.05,-181.5 11.51,-374.11 125.43,-515.71zm-1433.16 -1206.78l-17421.84 -14669.92c-51.03,23.91 -102.7,51.24 -154.11,81.2 -37.55,21.89 -74.7,45.1 -111.15,69.36l17251.94 14883.25c141.56,-128.83 288.79,-252.95 435.15,-363.9zm-17299.77 -14720.81l17397 14649c97.99,-70.43 194.92,-134.04 288.8,-188.24 112.73,-65.08 116.79,-105.63 17.07,-185.69l-2.31 -1.54 -17300.09 -14291.46c-21.72,-14.35 -47.8,-23.83 -77.25,-29.06 -90.53,-16.08 -202.73,3.39 -323.22,46.99zm17707.89 14910.78l1107.98 932.96c342.79,-282.59 822.74,-109.19 1144.89,118.8 565.06,399.91 1122.87,890.28 1640.82,1351.21l187.37 -187.37c183.07,-183.07 461.44,95.29 278.36,278.36l-172.6 172.6c445.45,404.75 874.56,814.17 1203.27,1154.62 278.7,288.66 539.58,360.59 723.34,313.94 347.55,-88.23 304.17,-432.72 -84.06,-536.75 -133.08,-35.65 -257.94,-108.18 -324.46,-233.41 -129.88,-244.56 45.39,-557.76 326.64,-555.71 348.88,2.54 600.51,378.17 677.01,681.9 110.86,440.11 -16.74,902.74 -499.79,1025.36 -303.09,76.94 -707.99,-15.42 -1101.66,-423.14 -327.62,-339.32 -755.24,-747.16 -1197.98,-1149.14l-214.24 214.24 2250.69 2864.69c65.7,-64.31 129.31,-127.17 191.25,-188.71 580.63,-576.93 1130.27,-226.78 1306.86,487.37 526.38,2128.6 1548.15,3130.09 3566.74,5108.6 297.8,291.88 617.01,604.76 959.76,945.82 211.98,210.94 138.4,189.13 314.54,-51.52 133.89,-182.96 261.7,-323.52 394.09,-418 159.2,-113.61 318.23,-163.84 488.78,-144.47 203.38,23.09 146.28,80.23 232.08,-168.19 502.39,-1454.56 268.22,-2930.08 -403.37,-4250.22 -869.67,-1709.5 -2467.31,-3158.35 -4155.79,-3973.87 -402.26,-194.3 -828.89,-437.1 -1179.99,-731.18 -332.2,-278.24 -598.1,-603.26 -719.13,-979.15 -53.4,-165.83 -72.85,-187.91 -278.74,-184.37 -138.1,2.38 -88.75,76.57 -139.86,214.66 -176.64,477.19 -634.81,602.09 -1108.66,536.16 -359.4,-50 -830.48,-217.78 -1442.4,-564.87 -634.84,-360.1 -1360.03,-965.76 -1971.46,-1528.36 -605.96,-557.58 -1102.77,-1075.32 -1282.29,-1262.61 -524.07,-546.77 -559.02,-1063.4 65.21,-1523.76 401.71,-296.24 12.47,-452.72 -313.29,-579.58 -387.48,-150.9 -866.72,-391.67 -1056.28,-784.53 -797.74,-1653.39 -1998.17,-3153.19 -3527.99,-3897.3 -1193.69,-580.61 -2594.72,-700.45 -4169.78,-69.81l8527.48 7044.48 -0.16 0.2c326.39,263.72 275.56,631.26 -68.43,829.87 -56.9,32.85 -115.35,69.81 -174.76,110.15zm1502.24 1264.95l1916.06 1613.41 197.56 -197.56c-501.17,-445.47 -1042.54,-922.35 -1589.07,-1309.15 -201.33,-142.49 -367.92,-196.62 -493.31,-193.82 -145.57,3.24 -110.16,20.67 -31.24,87.13zm3782.58 5381.98l-2201.99 -2876.38 -499.28 499.28 2173.74 2839.47c190.58,-161.59 365.39,-315.41 527.53,-462.37zm-2471.85 -3163.24c-383.64,-330.97 -767.24,-661.9 -1150.66,-992.67 -307.48,-265.27 -614.85,-530.44 -922.03,-795.44l-1371.32 -1183.04c-165.74,153.8 -321.86,312.57 -456.07,460.59l3401.9 3008.75 498.19 -498.19zm-3743.26 -3229.31l-17264.17 -14893.8c-101.77,75.74 -195.21,158.28 -272.87,240.93l17086.29 15111.67c134.27,-148.55 288.19,-306.19 450.74,-458.8zm5597.39 6930.97l-2167.61 -2831.46 -1306.15 1306.15c-183.07,183.07 -461.44,-95.29 -278.36,-278.36l1316.45 -1316.45 -3396.78 -3004.22c-78.43,89.82 -147.27,174.15 -203.45,249.09 -244.85,326.65 -491.64,314.8 -762.73,38.77l-8361.64 -7471.16c-248.53,-222.07 -184.14,-254.83 -413.22,-21.2 -375.87,383.33 -679.29,783.84 -913.62,1193.87 -518.87,907.89 -698.63,1863.07 -576.51,2781.16 80.14,602.5 290.5,1190.58 620.56,1740.39 675.17,1124.69 1653.98,1837.99 2808.76,2428.85 755.76,386.7 1395.19,713.87 1615.54,1612.21 137.67,561.23 178.7,534.14 633.83,186.98 835.99,-637.67 2017.48,-150.27 2750.87,420.17 966.15,751.48 1909.07,1867.78 2417.3,2985.26 245.96,540.8 446.34,1166.84 419.26,1738.53 -51.94,1096.34 -722.11,1241.74 -986.53,1446.22 -210.11,162.49 18.07,317.27 192.91,358.16 333.17,77.93 613.07,291.65 818.28,560.35 716.52,938.18 1010.43,1552.88 1502,2569.41 1605.48,3319.94 5298.07,5297.31 8811.46,3373.22 86.37,-47.3 170.57,-96.79 252.44,-148.33 442.67,-278.76 400.65,-244.85 -36.28,-117.22 -1244.79,363.61 -2701.59,418.83 -3915.06,-76.83 -1117.6,-456.48 -1349.48,-1362.36 -907.96,-2443.24 367.3,-899.14 1301.89,-2176.17 2204.43,-2515.79 460.72,-173.37 880.52,-159.59 1268.13,-39.35 581.74,180.45 1081.56,603.44 1546.61,985.76 520.76,428.13 949.44,780.42 1377.75,725.03 281.53,-36.41 190.75,-116.74 35.2,-261.8 -270.09,-251.87 -477.59,-453.41 -749.95,-715.69 -1559.06,-1501.42 -3265.85,-3145.11 -5356.49,-3678.07 -548.17,-139.74 -1146.6,-553.98 -807.34,-1193.75 131.56,-248.12 338.37,-410.92 547.91,-586.66zm-6126.28 -6384.22l-17085.36 -15110.85c-89.13,111.65 -200.54,288.54 -64.32,410.24 419.47,374.8 838.93,749.64 1258.4,1124.38 2343.69,2094.1 4687.42,4188.22 7031.1,6282.31l8389.57 7496.11c166.26,167.11 188.76,132.02 317.17,-18.8 48.07,-56.46 97.7,-119.52 153.44,-183.39zm-82.84 3041.78c-97.53,69.72 -172.58,198.8 -175.58,391.34 -7.25,464.81 368.31,1226.66 1636.3,2322.88 476.02,411.54 966.14,901.2 1300.51,1437.08 338.58,542.63 358.45,983.44 221.08,1303.56 -233.23,543.48 -927.49,741.2 -1443.23,481.66 -207.26,-104.31 -286.65,-259.2 -286.68,-405.35 -0.05,-216.17 180.32,-394.36 395.78,-395.52 147.44,-0.8 304.04,78.09 408.37,285.55 148.15,294.56 475.58,86.8 564.37,-120.12 91.49,-213.2 65.89,-526.59 -193.4,-942.15 -314.72,-504.4 -775.78,-960.72 -1223.61,-1347.89 -1374.16,-1188 -1780.37,-2065.12 -1771.64,-2624.31 9.83,-629.94 523.8,-975.66 1120.11,-822.37 285.5,73.41 491.05,322.31 496.27,619.52 9.98,568.35 -715.23,528.19 -678.83,14.22 18.73,-264.87 -184.65,-330.45 -369.8,-198.09zm12771.13 12462.36c244.69,-10.7 481.9,-93.12 656.41,-276.67 100.84,-106.05 167.12,-232.89 199.71,-369.36 86.01,-360.15 30.13,-296.56 -158.74,-111.74 -226.11,221.26 -464.24,425.65 -709.23,600.96 -182.99,130.94 -328.44,171.68 11.85,156.81zm-18422.61 -11721.76l-297.7 493.85c-212.57,352.63 -177.95,224.27 105.12,86.03 811.65,-396.39 1851.38,62.71 2505.86,571.76 961.42,747.81 1754.65,1717 2259.82,2827.78 178.02,391.43 362.22,811.2 420.22,1239.98 30.7,227.02 42.39,193.46 257.72,14.39 284.09,-236.24 403.67,-549.69 419.89,-891.84 23.58,-497.81 -160.24,-1063.46 -385.43,-1558.59 -482.97,-1061.96 -1382.53,-2122.14 -2300.42,-2836.09 -576.43,-448.35 -1598.46,-931.67 -2271.05,-418.64 -150.96,115.15 -282.24,199.82 -399.2,254.21 -218.87,101.78 -200.59,37.97 -314.83,217.15zm-799.06 563.87l380.7 -631.55c116.11,-201.88 108.7,-197.98 9.63,-409.01 -50.54,-107.66 -91.62,-241.72 -130.83,-401.57 -177.45,-723.43 -743.5,-1013.06 -1412.54,-1355.39 -1192.98,-610.41 -2193.99,-1339.46 -2912.09,-2485.7 -389.05,-621 -636.11,-1291.7 -727.92,-1981.89 -30.02,-225.65 -43.39,-453.2 -39.69,-681.6 7.39,-456.1 106.27,-582.84 -175.04,-96.13 -469.68,1120.05 -450.04,2287.96 -7.76,3351.85 604.17,1453.32 1768.48,2363.95 3127.65,3059.4 755.76,386.69 1395.19,713.88 1615.54,1612.21 101.08,412.09 74.01,348.42 272.35,19.37zm17387.9 12448.39c-3712.43,2033.09 -7649.37,-24.49 -9352.8,-3547 -480.95,-994.58 -760.09,-1584.71 -1460.47,-2501.75 -149.96,-196.37 -350.84,-358.61 -595.29,-415.78 -509.45,-119.14 -382.98,-464.08 -602.39,-242.77 -205.26,207.03 -411.64,428.65 -625.44,625.35 -244.18,224.66 -113.63,447.55 167.56,513.29 333.17,77.91 613.07,291.66 818.28,560.35 859.78,1125.76 1288.7,1989.75 1939.57,3200.46 1395.33,2595.57 3777.08,4160.06 6789.26,3411.25 1060.41,-263.61 2076.15,-793.93 2953.06,-1498.96 709.68,-570.58 575.55,-436.79 -31.33,-104.44zm-20626.69 -24377.64l-241.04 -215.37c-376.48,-336.39 -221.17,-261.7 -286.89,85.02 -50.65,267.25 -190.59,503.54 -325.12,730.57 -154.44,260.61 -299.07,504.77 -179.99,784.11 132.01,309.68 150.52,162.39 273.54,-26.69 214.58,-329.81 471.95,-652.24 773.66,-963.61 237.07,-244.67 248.4,-159.44 -14.15,-394.03zm-7015.57 -8296.82c-616.55,-492.74 -1445.65,-880.27 -2235.01,-1106.34 -875.23,-250.66 -1684.11,-304.53 -2066.62,-80.2 -321.9,203.06 -315.37,158.06 35.03,155.08 786.56,-6.71 1462.23,176.99 2056.05,470.47 598.7,295.89 1110.11,702.02 1566.77,1135.59 163.13,-222.76 410.67,-428.92 643.78,-574.59zm-5119.89 -3277.44c85.45,58.29 170.39,127.02 254.02,206.72 314.39,299.59 482.15,773.46 483.61,1200.9 1.1,326.79 -105.1,336.31 244.32,115.89l304.19 -191.89c196.64,-133.58 258.97,-372.14 226.45,-626.8 -41.36,-323.9 -229.04,-659.31 -478.65,-868.89 -228.69,-192.01 -518.71,-282.46 -815.67,-158.89l-0.77 0 -200.71 82.99c-336.04,138.94 -267.48,68.96 -16.78,239.96z"/></g><text x="0" y="39323.65" fill="#000000" font-size="5px" font-weight="bold" font-family="'Helvetica Neue', Helvetica, Arial-Unicode, Arial, Sans-serif">Created by Oleksandr Panasovskyi</text><text x="0" y="39328.65" fill="#000000" font-size="5px" font-weight="bold" font-family="'Helvetica Neue', Helvetica, Arial-Unicode, Arial, Sans-serif">from the Noun Project</text></svg>