<svg xmlns="http://www.w3.org/2000/svg" data-name="Layer 1" viewBox="0 0 64 80" x="0px" y="0px">
    <title>baker</title>
    <path d="M32,59H24.9L23.25,43.37c3.69,2.56,7.5,2.09,11.15-1.37h1.18a1,1,0,0,0,0-2H20.42A10.43,10.43,0,0,0,10,50.42V60a1,1,0,0,0,1,1H32a1,1,0,0,0,0-2ZM24.81,42h6.38A5.6,5.6,0,0,1,24.81,42ZM12,50.42A8.43,8.43,0,0,1,20.42,42h.68l1.79,17H19V54a1,1,0,0,0-2,0v5H12Z"/>
    <path d="M41.85,11.93a5.44,5.44,0,0,0-2.93-4.37,4.49,4.49,0,0,0-3.76-.13A8,8,0,0,0,21.61,6.2,6,6,0,0,0,17,7a5.84,5.84,0,0,0-3,5,6.05,6.05,0,0,0,3.46,5.42L17,19.82a.92.92,0,0,0,0,.33,2.92,2.92,0,0,0-2,2.78v2.14a2.93,2.93,0,0,0,2,2.78,11,11,0,0,0,21.94,0,2.93,2.93,0,0,0,2-2.79V22.93a2.93,2.93,0,0,0-2-2.78,1.08,1.08,0,0,0,0-.31l-.53-3.18A4.93,4.93,0,0,0,41.85,11.93ZM39,25.07A1,1,0,0,1,38,26a1,1,0,0,0-1,1,9,9,0,0,1-18,0,1.07,1.07,0,0,0-1.07-1,1,1,0,0,1-.93-.93V22.93a1,1,0,0,1,.93-.93H18a1,1,0,0,0,1-.91c0-.06,0-.11,0-.17L28,20l9,.91c0,.06,0,.11,0,.17A1,1,0,0,0,38,22h.11a1,1,0,0,1,.93.93ZM37.22,14.88a1,1,0,0,0-.69.39,1,1,0,0,0-.2.77l.47,2.85L28.1,18a.67.67,0,0,0-.2,0l-8.68.88L19.58,17a1,1,0,0,0-.7-1.14A4,4,0,0,1,16,12a3.88,3.88,0,0,1,2-3.3,3.73,3.73,0,0,1,3.5-.39,1,1,0,0,0,1.34-.37A6,6,0,0,1,33.7,9.13a1,1,0,0,0,.62.63,1,1,0,0,0,.88-.1A2.75,2.75,0,0,1,38,9.35,3.41,3.41,0,0,1,39.85,12,2.9,2.9,0,0,1,37.22,14.88Z"/>
    <circle cx="28" cy="52" r="1"/>
    <circle cx="40" cy="55.01" r="1"/>
    <circle cx="42.12" cy="52.88" r="1"/>
    <circle cx="42.12" cy="57.12" r="1"/>
    <circle cx="44.24" cy="55.01" r="1"/>
    <circle cx="28" cy="56" r="1"/>
    <circle cx="28" cy="48" r="1"/>
    <path d="M30,14H26a1,1,0,0,0,0,2h4a1,1,0,0,0,0-2Z"/>
    <path d="M47.35,36.1c-.71-.06-1.39-.1-2-.1-4.31,0-8.67,1.36-8.67,4a2.91,2.91,0,0,0,1.77,2.49v1.41c-3.23.46-5.91,1.72-5.91,3.76a2.91,2.91,0,0,0,1.77,2.49V60a1,1,0,0,0,1,1h11.8a1,1,0,0,0,1-1V53.34h3.14a1,1,0,0,0,1-1v-9.9A2.92,2.92,0,0,0,54,40C54,37.6,50.56,36.43,47.35,36.1ZM36.29,59V50.38h2.85a1,1,0,0,0,0-2H35.33c-.57-.33-.81-.63-.81-.77,0-.5,1.83-1.64,5.23-1.9a1,1,0,0,0,.5,1.14,1.06,1.06,0,0,0,.45.11,1,1,0,0,0,.89-.55,1.57,1.57,0,0,1,.76-.7l.67,0c3.4.34,4.84,1.46,4.84,1.86,0,.17-.31.57-1.19,1a1,1,0,0,0-.58.91v2.84h0V59ZM50.8,40.94a1,1,0,0,0-.57.9v9.5H48.09V50.1a2.91,2.91,0,0,0,1.77-2.49c0-2.35-3.43-3.53-6.64-3.85a19.85,19.85,0,0,0-2-.1h-.76v-1h2.85a1,1,0,0,0,0-2H39.45c-.61-.35-.79-.65-.79-.77,0-.5,1.82-1.63,5.23-1.89a1,1,0,0,0,.5,1.14,1,1,0,0,0,.45.1,1,1,0,0,0,.89-.55,1.51,1.51,0,0,1,.79-.7c.21,0,.41,0,.63.05C50.56,38.44,52,39.56,52,40,52,40.12,51.68,40.52,50.8,40.94Z"/>
</svg>