<svg xmlns="http://www.w3.org/2000/svg" 
  xmlns:xlink="http://www.w3.org/1999/xlink" xml:space="preserve" version="1.1" style="shape-rendering:geometricPrecision;text-rendering:geometricPrecision;image-rendering:optimizeQuality;" viewBox="0 0 217 193.75" x="0px" y="0px" fill-rule="evenodd" clip-rule="evenodd">
  <defs>
    <style type="text/css">
   
    .fil0 {fill:black}
    .fil1 {fill:black;fill-rule:nonzero}
   
    </style>
  </defs>
  <g>
    <path class="fil0" d="M10 18l8 0 0 -4c0,-4 3,-7 7,-7l21 0c4,0 7,3 7,7l0 4 21 0 10 -18 60 0 10 18 53 0c6,0 10,4 10,10l0 106c0,5 -4,10 -10,10l-55 0c-21,15 -50,15 -72,0l-70 0c-6,0 -10,-5 -10,-10l0 -106c0,-6 4,-10 10,-10zm106 21c28,0 52,23 52,51 0,29 -24,52 -52,52 -28,0 -51,-23 -51,-52 0,-28 23,-51 51,-51zm-73 10l0 70c0,10 -16,10 -16,0l0 -70c0,-9 16,-9 16,0zm126 -20l27 0c9,0 9,13 0,13l-27 0c-9,0 -9,-13 0,-13z"/>
    <path class="fil1" d="M116 49c23,0 42,18 42,41 0,23 -19,42 -42,42 -23,0 -41,-19 -41,-42 0,-23 18,-41 41,-41zm0 6c-19,0 -35,16 -35,35 0,19 16,35 35,35 19,0 35,-16 35,-35 0,-19 -16,-35 -35,-35z"/>
    <path class="fil0" d="M116 64c15,0 26,12 26,26 0,15 -11,27 -26,27 -14,0 -26,-12 -26,-27 0,-14 12,-26 26,-26z"/>
  </g>
</svg>