<svg xmlns="http://www.w3.org/2000/svg" 
    xmlns:xlink="http://www.w3.org/1999/xlink" version="1.1" x="0px" y="0px" viewBox="0 0 100 125" enable-background="new 0 0 100 100" xml:space="preserve">
    <g>
        <polygon fill="#000000" points="51.058,42.991 50.101,39.654 50,39.654 49.899,39.654 48.942,42.991 50,42.991  "/>
        <path fill="#000000" d="M76.577,44.529c-0.522-0.174-1.045,0.319-1.045,0.319s0-3.772,0-11.78c0-12.38-6.654-20.272-6.654-20.272   S60.832,5.015,50,5.015s-18.879,7.781-18.879,7.781s-6.654,7.892-6.654,20.272c0,8.008,0,11.78,0,11.78s-0.522-0.493-1.045-0.319   s-0.812,0.928-0.725,1.277c0.087,0.348,0.667,1.683,0.667,1.683S22.9,52.479,23.597,54.8s1.712,4.294,1.712,4.294   s-0.319,2.321,1.335,3.627c0,0,0.145,1.422,0.493,1.77c0,0,0.406,3.772,1.422,7.138c0,0-0.928,1.683,0,2.814   c0.928,1.132,0.319,2.727,1.567,3.627s2.147,0.609,2.147,0.609l8.588,11.171c0,0,1.016,5.136,9.14,5.136s9.14-5.136,9.14-5.136   l8.588-11.171c0,0,0.899,0.29,2.147-0.609s0.638-2.495,1.567-3.627s0-2.814,0-2.814c1.016-3.366,1.422-7.138,1.422-7.138   c0.348-0.348,0.493-1.77,0.493-1.77c1.654-1.306,1.335-3.627,1.335-3.627s1.016-1.973,1.712-4.294s0.232-7.312,0.232-7.312   s0.58-1.335,0.667-1.683S77.1,44.703,76.577,44.529z M69.121,54.161c0,0.58,0.464,1.393-1.973,5.078   c-2.452,3.707-3.917,3.453-6.209,3.25s-4.468-0.464-5.629-2.321c-1.161-1.857-1.277-2.321,0.841-3.047   c2.118-0.725,10.561-3.946,11.229-3.946S69.121,53.581,69.121,54.161z M47.824,33.648H50h2.176l6.383,15.9L53.528,50l-1.207-3.266   H50h-2.321L46.472,50l-5.031-0.452L47.824,33.648z M30.879,54.161c0-0.58,1.074-0.986,1.741-0.986   c0.667,0,9.111,3.221,11.229,3.946c2.118,0.725,2.002,1.19,0.841,3.047c-1.161,1.857-3.337,2.118-5.629,2.321   s-3.757,0.457-6.209-3.25C30.415,55.554,30.879,54.742,30.879,54.161z M68.743,73.833c0,0-1.103,0.58-0.87,1.48l-9.952,13.231   c0,0-2.437-1.248-7.921-1.248s-7.921,1.248-7.921,1.248l-9.952-13.231c0.232-0.899-0.87-1.48-0.87-1.48   c-1.828-4.033-1.712-9.256-1.712-9.256s1.422,2.321,3.163,3.308c1.741,0.986,7.196-0.116,10.329-0.609   c3.134-0.493,3.424-2.93,6.963-2.93s3.83,2.437,6.963,2.93c3.134,0.493,8.588,1.596,10.329,0.609s3.163-3.308,3.163-3.308   S70.571,69.8,68.743,73.833z"/>
    </g>
</svg>