<svg xmlns="http://www.w3.org/2000/svg" 
    xmlns:xlink="http://www.w3.org/1999/xlink" version="1.1" x="0px" y="0px" viewBox="0 0 100 125" enable-background="new 0 0 100 100" xml:space="preserve">
    <g>
        <path fill-rule="evenodd" clip-rule="evenodd" d="M4.85,50.116c2.104-1.518,4.089-2.803,6.078-4.205   c0.467-0.351,0.702-0.587,1.166-0.938c1.174-0.699,1.405-0.934,0.471-1.633c-0.471-0.235-0.583-0.467-1.054-0.703   c-0.232,0.235-0.583,0.351-0.935,0.351c-1.518,0-3.035,0-4.557,0c-0.699,0-1.286-0.583-1.286-1.17c0-0.467,0-0.935,0-1.286   c0-0.699,0.587-1.282,1.286-1.282c1.521,0,3.039,0,4.557,0c0.702,0,1.285,0.583,1.285,1.282c0,0.235,0,0.351,0,0.587   c0.583,0.231,1.171,0.352,1.869,0.583c1.521,0.467,1.406,0.467,2.104-0.935c1.402-3.039,2.456-5.259,3.974-8.53   c1.518-2.923,2.572-3.039,6.078-3.039c13.091-0.235,24.304-0.235,37.278,0c3.622,0,4.677,0.116,6.074,3.039   c0.822,1.869,1.521,3.386,2.34,4.908l4.673-3.857c0.818-0.583,2.104-0.467,2.691,0.467c0.111,0.116,0.111,0.235,0.231,0.351   l10.87-2.456c0.699-0.116,1.286,0.235,1.397,0.934c0.236,0.587-0.231,1.286-0.814,1.406l-11.805,2.568c-0.115,0-0.231,0-0.352,0   l-5.255,4.209l0,0c0.699,1.402,0.583,1.402,2.221,0.935c0.583-0.231,1.166-0.352,1.868-0.583c0-0.236,0-0.352,0-0.587   c0-0.699,0.468-1.282,1.166-1.282c1.521,0,3.039,0,4.561,0c0.699,0,1.286,0.583,1.286,1.282c0,0.351,0,0.818,0,1.286   c0,0.587-0.587,1.17-1.286,1.17c-1.521,0-3.039,0-4.561,0c-0.351,0-0.698-0.116-0.934-0.351c-0.352,0.235-0.583,0.467-1.051,0.703   c-0.935,0.699-0.699,0.935,0.468,1.633c0.467,0.352,0.702,0.587,1.285,0.938c1.989,1.402,3.857,2.688,5.958,4.205   c2.456,1.637,2.341,1.521,2.341,4.557c0,2.104,0,3.857,0,5.963c0,2.336,0.231,1.869-1.286,3.621   c-0.935,1.051-1.757,2.105-2.691,3.039c-1.985,2.221-1.634,2.105-1.634,5.023c0,3.391,0,6.193,0,9.584   c0,1.402-1.17,2.688-2.688,2.688c-2.104,0-4.324,0-6.429,0c-1.518,0-2.684-1.285-2.684-2.688v-6.43H20.041v6.43   c0,1.402-1.286,2.688-2.684,2.688c-2.22,0-4.324,0-6.545,0c-1.521,0-2.688-1.285-2.688-2.688c0-3.391,0-6.193,0-9.584   c0-2.918,0.352-2.803-1.638-5.023c-0.818-0.934-1.753-1.988-2.688-3.039c-1.521-1.752-1.286-1.285-1.286-3.621   c0-2.105,0-3.858,0-5.963C2.513,51.637,2.398,51.752,4.85,50.116L4.85,50.116z M27.756,42.521c0.115-1.05,0.935-1.753,1.988-1.753   c1.051,0,1.869,0.703,1.985,1.753h0.818c0.352-0.583,0.935-0.935,1.753-1.286c1.518-0.583,3.155-1.17,4.788-1.518   c1.286-0.351,2.34-0.587,3.742-0.587c1.05,0,2.104,0,3.154,0c1.17,0,2.104,0.12,3.391,0.467c1.749,0.352,3.622,0.935,5.375,1.637   c0.814,0.352,1.401,0.703,1.753,1.286h8.414l4.441-3.622c-0.935-1.873-1.753-3.622-2.572-5.495   c-0.115-0.231-0.583-1.166-0.935-1.286c-0.352-0.232-2.22-0.232-2.688-0.232c-12.388-0.116-24.775-0.116-37.278,0   c-0.472,0-2.34,0-2.691,0.232c-0.231,0.12-0.699,1.054-0.814,1.286c-1.406,2.923-2.688,5.727-4.09,8.534   c-0.12,0.231-0.12,0.347-0.235,0.583H27.756z M29.745,33.056c1.869,0,3.507,1.518,3.507,3.387c0,1.869-1.638,3.391-3.507,3.391   c-1.873,0-3.391-1.522-3.391-3.391C26.354,34.573,27.872,33.056,29.745,33.056L29.745,33.056z M92.146,23.004l4.089-3.274   c0.352-0.232,0.819-0.232,1.055,0.12c0.352,0.348,0.231,0.819-0.12,1.05l-3.969,3.271c-0.352,0.352-0.823,0.236-1.171-0.116   C91.794,23.703,91.915,23.236,92.146,23.004L92.146,23.004z M88.992,20.317l2.451-4.441c0.236-0.467,0.703-0.587,1.055-0.351   c0.467,0.231,0.583,0.699,0.352,1.05l-2.572,4.561c-0.119,0.347-0.583,0.467-1.054,0.347   C88.875,21.251,88.759,20.784,88.992,20.317L88.992,20.317z M78.472,24.291c2.104,0,3.858,1.753,3.858,3.854   c0,1.989-1.754,3.742-3.858,3.742c-2.101,0-3.737-1.753-3.737-3.742C74.735,26.043,76.372,24.291,78.472,24.291L78.472,24.291z    M38.978,42.752c0.814,0,1.397,0.587,1.397,1.406c0,0.699-0.583,1.402-1.397,1.402c-0.703,0-1.406-0.703-1.406-1.402   C37.572,43.339,38.275,42.752,38.978,42.752L38.978,42.752z M44.584,42.752c0.703,0,1.401,0.587,1.401,1.406   c0,0.699-0.698,1.402-1.401,1.402c-0.818,0-1.401-0.703-1.401-1.402C43.183,43.339,43.766,42.752,44.584,42.752L44.584,42.752z    M50.08,42.752c0.814,0,1.397,0.587,1.397,1.406c0,0.699-0.583,1.402-1.397,1.402c-0.703,0-1.406-0.703-1.406-1.402   C48.673,43.339,49.376,42.752,50.08,42.752L50.08,42.752z M9.642,55.024c1.988,0,3.506,1.521,3.506,3.506   c0,1.869-1.518,3.506-3.506,3.506c-1.869,0-3.507-1.637-3.507-3.506C6.135,56.545,7.773,55.024,9.642,55.024L9.642,55.024z    M19.342,55.024c1.984,0,3.622,1.521,3.622,3.506c0,1.869-1.638,3.506-3.622,3.506c-1.869,0-3.507-1.637-3.507-3.506   C15.835,56.545,17.473,55.024,19.342,55.024L19.342,55.024z M79.407,55.024c-1.984,0-3.506,1.521-3.506,3.506   c0,1.869,1.521,3.506,3.506,3.506c1.989,0,3.507-1.637,3.507-3.506C82.914,56.545,81.396,55.024,79.407,55.024L79.407,55.024z    M69.711,55.024c-1.989,0-3.507,1.521-3.507,3.506c0,1.869,1.518,3.506,3.507,3.506c1.868,0,3.506-1.637,3.506-3.506   C73.217,56.545,71.58,55.024,69.711,55.024L69.711,55.024z M14.434,69.868c1.166,0,1.988,0.818,1.988,1.984   c0,1.17-0.822,1.988-1.988,1.988s-1.989-0.818-1.989-1.988C12.445,70.686,13.268,69.868,14.434,69.868L14.434,69.868z    M22.848,69.165h43.356c0.468,0,0.814,0.352,0.814,0.703v2.221c0,0.352-0.347,0.697-0.814,0.697H22.848   c-0.467,0-0.699-0.346-0.699-0.697v-2.221C22.149,69.516,22.381,69.165,22.848,69.165L22.848,69.165z M29.042,54.325h31.085   c0.352,0,0.703,0.348,0.703,0.814v6.666c0,0.467-0.352,0.814-0.703,0.814H29.042c-0.467,0-0.818-0.348-0.818-0.814v-6.666   C28.223,54.672,28.575,54.325,29.042,54.325L29.042,54.325z M29.393,56.079H59.66v-0.588H29.393V56.079z M59.66,57.711H29.393   v1.521H59.66V57.711z M59.66,60.866H29.393v0.588H59.66V60.866z M74.615,69.868c-1.046,0-1.984,0.818-1.984,1.984   c0,1.17,0.938,1.988,1.984,1.988c1.174,0,2.108-0.818,2.108-1.988C76.723,70.686,75.789,69.868,74.615,69.868L74.615,69.868z    M35.471,46.258c-1.405,0-1.521,0-1.521-1.286c0-0.116,0,0,0-0.231c0-1.05,0.116-1.17,1.17-1.637   c1.402-0.583,2.804-1.05,4.441-1.518c1.166-0.236,1.984-0.467,3.271-0.467c1.05,0,2.104,0,3.154,0c1.17,0,1.753,0.116,2.919,0.352   c1.873,0.347,3.507,0.934,5.028,1.633c1.17,0.467,1.286,0.587,1.286,1.637c0,0.231,0,0.116,0,0.231   c0,1.286-0.236,1.286-1.638,1.286C47.507,46.258,41.545,46.258,35.471,46.258L35.471,46.258z"/>
        <rect x="2.629" y="2.554" fill="none" width="94.776" height="94.892"/>
    </g>
</svg>