<svg xmlns="http://www.w3.org/2000/svg" viewBox="0 0 90.07 57.48"><g id="Layer_2" data-name="Layer 2"><g id="Layer_1-2" data-name="Layer 1"><path d="M89.67,36.73l-.19-.19V3.7A3.7,3.7,0,0,0,85.79,0H4.28A3.7,3.7,0,0,0,.58,3.7V36.54l-.18.19-.4.4v15.1l.49.41.09.08v1.07a3.7,3.7,0,0,0,3.7,3.69H85.79a3.69,3.69,0,0,0,3.69-3.69V52.72l.1-.08.49-.41V37.13Zm-63.09-1.5a8.62,8.62,0,1,1,8.62-8.62A8.62,8.62,0,0,1,26.58,35.23ZM24.69,46.9a20.28,20.28,0,0,0,15.09-4.77H71.36l3.25,14H15.46l2.55-11A20.31,20.31,0,0,0,24.69,46.9Zm64,4.7-.59.49v1.7a2.33,2.33,0,0,1-2.33,2.33H76L72.57,41.3a.69.69,0,0,0-.67-.53H41.23A20.9,20.9,0,0,0,42.79,39H86.67V14.14h-44a20.37,20.37,0,0,0-32.23,0H3.4V39h7a20.47,20.47,0,0,0,6.39,5.52l-2.7,11.64H4.28A2.33,2.33,0,0,1,2,53.79v-1.7l-.59-.49V37.69L2,37.11V3.7A2.33,2.33,0,0,1,4.28,1.36H85.79A2.33,2.33,0,0,1,88.12,3.7V37.11l.59.58Zm-45-36.1H85.31V37.6H43.74a20.37,20.37,0,0,0-.08-22.1ZM9.42,37.6H4.76V15.5H9.5a20.37,20.37,0,0,0-.08,22.1Z"/><path d="M30.13,25.59l-.55-1.15.88-.4a4.67,4.67,0,0,0-2.88-2l-.09,1-1.26-.11.09-1a4.72,4.72,0,0,0-3.21,1.48l.79.56-.74,1-.78-.55a4.62,4.62,0,0,0-.32,3.52l.82-.38.51,1.15-.81.37a4.69,4.69,0,0,0,2.88,2l.08-.86,1.26.12-.08.86a4.67,4.67,0,0,0,3.21-1.47l-.72-.51.71-1.05.74.53A4.68,4.68,0,0,0,31,25.19Z"/><path d="M59.23,29.55l.61-.67.92.87-.6.65a4.62,4.62,0,0,0,3.44.78l-.25-.83,1.2-.37.26.82a4.66,4.66,0,0,0,2.39-2.59l-.86-.2.26-1.24.88.2a4.81,4.81,0,0,0-.19-1.79,4.75,4.75,0,0,0-.86-1.58l-.64.7-.94-.85.65-.7A4.62,4.62,0,0,0,62.06,22l.29.94-1.21.38-.29-.94a4.63,4.63,0,0,0-2.39,2.59l.94.21-.3,1.23-.92-.2a4.65,4.65,0,0,0,1,3.37Z"/><path d="M57.15,53.42a2.54,2.54,0,1,0-2.54-2.54A2.54,2.54,0,0,0,57.15,53.42Zm0-3.72A1.18,1.18,0,1,1,56,50.88,1.17,1.17,0,0,1,57.15,49.7Z"/><path d="M32.68,53.42a2.54,2.54,0,1,0-2.54-2.54A2.54,2.54,0,0,0,32.68,53.42Zm0-3.72a1.18,1.18,0,1,1-1.18,1.18A1.18,1.18,0,0,1,32.68,49.7Z"/><path d="M24,54.88A2.87,2.87,0,1,0,21.12,52,2.88,2.88,0,0,0,24,54.88Zm0-4.38A1.51,1.51,0,1,1,22.48,52,1.52,1.52,0,0,1,24,50.5Z"/><path d="M65.71,54.88A2.87,2.87,0,1,0,62.84,52,2.88,2.88,0,0,0,65.71,54.88Zm0-4.38A1.51,1.51,0,1,1,64.2,52,1.51,1.51,0,0,1,65.71,50.5Z"/><path d="M65.9,36.22a10.07,10.07,0,1,0-12.6-6.61A10.07,10.07,0,0,0,65.9,36.22ZM62.91,18a8.62,8.62,0,1,1-8.62,8.62A8.62,8.62,0,0,1,62.91,18Z"/></g></g></svg>