<svg xmlns="http://www.w3.org/2000/svg" viewBox="0 0 92 100"><g id="Layer_2" data-name="Layer 2"><g id="Layer_1-2" data-name="Layer 1"><path d="M24.79,0c-1.85.26-3,1.65-4,2.56C20.39,1,19.58.05,18,0,15.6.16,14.6,1.88,13.63,3.66c-1.46-1-2.8-.54-4,.65A8.78,8.78,0,0,0,8.29,8.59a4.87,4.87,0,0,0-3.47,3.19,5.16,5.16,0,0,0,.59,3.62A38.1,38.1,0,0,0,.6,19.59a2.06,2.06,0,0,0-.46,2.2A2.06,2.06,0,0,0,2,23a15.59,15.59,0,0,1,4.34.47A15.24,15.24,0,0,0,5,29c.13,5.12,3.75,7.14,8,7.71a15.9,15.9,0,0,1-1.44,5.75A26.48,26.48,0,0,0,9,53c0,6.23,3.24,13.28,8.4,19a33.52,33.52,0,0,0,8.47,6.75l-1.5,1.87a65.94,65.94,0,0,0-10.87-3.53,2,2,0,0,0-1.63,3.59,71.39,71.39,0,0,1,6.19,4.57,28.63,28.63,0,0,0-6.19,3.09A2,2,0,0,0,13.51,92c4-1,6.68-1.85,10.18-1.9,2,.53,4,2.45,7.91,6.37A2,2,0,0,0,35,95a13.72,13.72,0,0,0-2.43-7.1,2,2,0,0,0,.56-3.59l-1.41-.94,1.16-2A23.51,23.51,0,0,0,38,82a77,77,0,0,0,12.78-1l-.62,6.18A59.39,59.39,0,0,0,38.5,89.08,2,2,0,0,0,39,93a56.25,56.25,0,0,1,7.85.46,19.67,19.67,0,0,0-1.75,3.88,2,2,0,0,0,3.31,2.06,37.52,37.52,0,0,1,6-5.22c3.42.9,6.26,1.78,9,2.69a2,2,0,0,0,2-3.31A23.82,23.82,0,0,0,60,89.74l.1-.07A2,2,0,0,0,59,86H57.22l.66-6.72a41.8,41.8,0,0,0,4.31-1.59c7.12-3.13,13-8.62,14.53-17,3.19-.79,6.73-1.06,9.34-2.78A2.44,2.44,0,0,0,87,56a3,3,0,0,0-.75-1.9,30,30,0,0,0,4.53-3.66A4.46,4.46,0,0,0,92,48a3.08,3.08,0,0,0-1-2.15,3.41,3.41,0,0,0-.94-.56A7.34,7.34,0,0,0,92,41a2.07,2.07,0,0,0-2-2h-.94a12.61,12.61,0,0,0,1.19-3.57,3.26,3.26,0,0,0-.84-2.87c-1-.81-2.1-.52-3.19-.25a25.77,25.77,0,0,0,1-3.66,3.16,3.16,0,0,0-.78-3.09A2,2,0,0,0,85,25a4.26,4.26,0,0,0-2.44.75c-.31-2-.32-4.12-1.22-5.75A4.07,4.07,0,0,0,78,18a3.77,3.77,0,0,0-2.56,1.06,35.17,35.17,0,0,0-5.53,7.78c-2.36,4.05-4.8,8.57-6.91,11.91-4.43-1-10.23-2.4-16-1.82-2.81-4.53-5.6-8.36-8.35-12a39.59,39.59,0,0,0-8.56-12.49C31,10,32,6.4,30.41,4.59c-1.18-.89-2.64-.49-3.9-.25,1.17-2.06.15-4.41-1.72-4.34Zm2,14.62a35.71,35.71,0,0,1,8.37,12.13,2.37,2.37,0,0,0,.25.47c1.9,2.52,3.76,5.07,5.63,7.81a2.19,2.19,0,0,0-2,2.25l.6,4.84-3-1A2.1,2.1,0,0,0,34,43.06V44l-6.18-2.78A2.1,2.1,0,0,0,25,43v1L20.19,40.4A2.11,2.11,0,0,0,17,41.9l-.72-.59a14,14,0,0,0,.81-5.47,8.93,8.93,0,0,0,2.44-9.09c-.9-2.71-3.34-4.91-6.94-6A3.73,3.73,0,0,0,13,19a2.07,2.07,0,0,0-.22-.91A9.92,9.92,0,0,0,11.23,16c2.92-2.47,5.5-3.83,7.68-4A11.69,11.69,0,0,1,26.79,14.62ZM19,15a2.78,2.78,0,0,0-3,2.5A2.78,2.78,0,0,0,19,20a2.79,2.79,0,0,0,3-2.5A2.79,2.79,0,0,0,19,15Zm-1,2a1,1,0,1,1-1,1A1,1,0,0,1,18,17Zm59.9,5.25c.86,2.33.51,5.24,1.18,7.37a2.1,2.1,0,0,0,2.82,1.16c.28-.14.48-.28.75-.44-.52,1.63-1.22,3.53-1.6,5.22a2.11,2.11,0,0,0,2.69,2.28c.64-.26,1.25-.55,1.88-.84-.44,1.07-1,2.24-1.41,3.09A2.1,2.1,0,0,0,86,43h.81a10.34,10.34,0,0,1-1.22,1.57,2.09,2.09,0,0,0,.29,3.09,5.21,5.21,0,0,0,1.31.62,40,40,0,0,1-5.31,4,2.07,2.07,0,0,0-.22,3.15c-2.37.65-5,1.15-7.06,1.56A2.07,2.07,0,0,0,73,58.77c-.91,7.75-5.72,12.34-12.43,15.28S45.33,78,38,78c-6.78,0-13.06-3.66-17.65-8.72S13,57.79,13,53a20,20,0,0,1,1.75-7.78l4,3.31A2,2,0,0,0,22,46.74l3.85,2.88A2,2,0,0,0,29,48V46.09l6.24,2.81a2.11,2.11,0,0,0,2.82-1.84l0-1.29,3.34,1.13A2.1,2.1,0,0,0,44,44.77c.13-1.78.19-4.75.16-4.9A2.23,2.23,0,0,0,46.35,41c5.32-.88,12.1.94,17.25,2a2.05,2.05,0,0,0,2.06-.84c2.44-3.67,5.18-8.9,7.69-13.22a36.12,36.12,0,0,1,4.56-6.62ZM33.57,50.77a11.39,11.39,0,0,0-4.91,11.41c.91,4.37,4.58,8.45,10.56,9.31a45.73,45.73,0,0,0,15.69-2.13,24.15,24.15,0,0,0,6.31-2.75c1.71-1.2,3.17-3.12,2.72-5.09-.72-2-2.28-2.77-4.09-3.22-3.54-.44-6.84.23-10.25.32a9.31,9.31,0,0,1-2.47-.29c-.82-.54-2.79-3.06-4.91-5.18a11.33,11.33,0,0,0-3.68-2.66,6,6,0,0,0-5,.28Z"/></g></g></svg>