<svg xmlns="http://www.w3.org/2000/svg" viewBox="0 0 87.86 81.85"><g id="Layer_2" data-name="Layer 2"><g id="Layer_1-2" data-name="Layer 1"><path d="M87.32,41a5.72,5.72,0,0,1-.44-1.17,3.41,3.41,0,0,1,.17-.9A5.5,5.5,0,0,0,87.2,36a3.21,3.21,0,0,0-1.86-2,5.73,5.73,0,0,1-.75-.45c-.58-.43-1.85-1.61-2.88-2.55-.53-.49-1-.94-1.33-1.21a7.41,7.41,0,0,1-.74-.84c-.63-.76-1.25-1.54-2-1.54a1.18,1.18,0,0,0-.92.51A5.37,5.37,0,0,1,74,29.36c-.84-1-1.17-1.11-1.93-.83a4,4,0,0,1-.56.18,9.6,9.6,0,0,0-2.26,1,8.24,8.24,0,0,0,.28-2.15c.64-3.16,1.71-8.16,2.07-9.19l.51-.09a19.93,19.93,0,0,1,3.52-.44,4.91,4.91,0,0,1,1.79.67,4.26,4.26,0,0,0,3,.71A5.87,5.87,0,0,1,82,19a2.9,2.9,0,0,0,2.13-.68c1-1,1.7-2.49,1.19-3.43a2.81,2.81,0,0,1-.24-.81,4.29,4.29,0,0,0-.86-2A4,4,0,0,0,81.86,11a6.55,6.55,0,0,1-1.3-.41C79.39,10,79.2,9.72,79.2,9.24c0-.84-.16-1-1-1.61-.15-.11-.33-.24-.54-.41a2.68,2.68,0,0,1-.5-.51,4.17,4.17,0,0,1-.49-.77,2.37,2.37,0,0,0,1.13-2.79,3.33,3.33,0,0,0-2-2.08.45.45,0,0,0-.55.32.46.46,0,0,0,0,.26l.42,1.15a.41.41,0,0,1,0,.39,1.57,1.57,0,0,1-.82.59l-.71-.31a3.46,3.46,0,0,0-2.57-.15A2.47,2.47,0,0,1,72.11.75a.44.44,0,0,0,0-.63.42.42,0,0,0-.3-.12,3.71,3.71,0,0,0-2.74,1.4,2.51,2.51,0,0,0-.4,2l-.14-.15c-1-1.17-3.16-.87-4.34-.58s-2.39.43-2.4.43a.45.45,0,0,0-.39.49h0a5.27,5.27,0,0,0,3.18,4.35c-.34.37-.85.9-1.43,1.54-.17.18-.35.36-.52.55l-.39.4a67.9,67.9,0,0,1-5.38,5.35,4,4,0,0,1-1.71.64A4.17,4.17,0,0,0,51.73,19c-1.46,3-7.47,8-9.44,8.53-1.4.38-4.23,0-5.92-.19-1.36-.17-1.51-.18-1.71-.05s-.83.7-1.13,1a7.67,7.67,0,0,1-3.15-.51c-2.78-1-4.7,2.07-5.22,3-.32.58-.84,1.79-1.39,3.13h0c-1.67-.13-8.92-.43-13.61,4.27a34.86,34.86,0,0,0-4.49,5.21l-.09.12h0c-1,1-4.07,1.55-5.18,1.67a.45.45,0,0,0-.4.48A.46.46,0,0,0,.2,46a5.3,5.3,0,0,0,1.16.53h0C.71,46.86.3,47,.29,47A.45.45,0,0,0,0,47.6a.42.42,0,0,0,.37.28,9,9,0,0,0,1.14.06c.34,0,.74,0,1.16-.06A4.26,4.26,0,0,1,1,48.74c-.33.12-.49.17-.59.34a.52.52,0,0,0,.07.6,2.06,2.06,0,0,0,1.54.5,6.36,6.36,0,0,0,2.19-.46c2.38-.9,2.88-3.79,3-4.37.17-.27.34-.56.52-.87a12.71,12.71,0,0,1,6.26-6c4.32-2,7.33-1.27,8.33-.92h0l-.74,2,0,0c-1.24,3.18.09,6.39,1.26,9.22a17.69,17.69,0,0,1,1.46,4.61c.42,3.88-2.77,7.93-2.8,8a.53.53,0,0,0-.1.32,35.27,35.27,0,0,0,.91,5.21,3.89,3.89,0,0,1-.75,4.1,2.82,2.82,0,0,0-.91,1.77,1.24,1.24,0,0,1-.18.53,3.22,3.22,0,0,1-1.16.41h-.05c-.38.09-.79.17-1.21.23a.42.42,0,0,0-.27.16c-1.77,2.08.13,6.51.21,6.7a.42.42,0,0,0,.25.24.47.47,0,0,0,.35,0l.53-.26c.06.2.12.47.18.73a.47.47,0,0,0,.2.28.45.45,0,0,0,.34,0c.87-.21,1.17-1.24,1.52-2.42.15-.5.3-1,.51-1.55h0a5,5,0,0,0,1.66,2,3.85,3.85,0,0,0,1.61.61h.06a.44.44,0,0,0,.39-.36s.44-2.24.76-3.45h0v0h0c.08-.29.15-.6.22-.94a5.39,5.39,0,0,1,1.17-2.84c.78-.7.85-2,.93-3.5A15.57,15.57,0,0,1,29,66.67c.53-2.34,2.45-6.87,4.34-7.55.65-.23,1.38-.47,2.09-.7,2.06-.66,3.26-1.07,3.64-1.53a.69.69,0,0,0,.65.3c.54-.08.78-.79,1.12-1.77a9.28,9.28,0,0,1,.33-.88c.18-.41.42-.5,1-.66a5.46,5.46,0,0,0,1-.39c.88-.48,1.5-2.43,1.74-3.34h0c10.59.82,18.37-7.55,19.33-8.64h0a6.65,6.65,0,0,0,2.33-1.21,10.23,10.23,0,0,1,1.47-.91c1.59-.75,3.18-3.2,3.81-4.26a50.39,50.39,0,0,1,4.38,4.51c.6.81.18,1.77-.41,2.54h0a9.48,9.48,0,0,1-.8.87c-1.2,1.12-.13,3-.1,3a5.56,5.56,0,0,0,4.51,3.25,1.44,1.44,0,0,0,.46-.05.78.78,0,0,0,.66-.81,8,8,0,0,0-.14-1,7,7,0,0,1-.14-2.37A8,8,0,0,1,80.49,44,7.33,7.33,0,0,0,81,40a5.64,5.64,0,0,0-1.77-3.23l-.4-.43a29.25,29.25,0,0,1-2.07-2.89.53.53,0,0,1,.48.13,1.21,1.21,0,0,0,1.48.18L79,33.6c.36.25,2,1.87,3.14,2.95l.43.42a2,2,0,0,1,.68,1.48,1.79,1.79,0,0,1-.42,1.19,2.38,2.38,0,0,0-.5,2,.3.3,0,0,0,0,.1c1.19,2.66,3,3.12,4,3.12a3.4,3.4,0,0,0,1-.13.44.44,0,0,0,.3-.42,6.7,6.7,0,0,1,.14-1.34A3.35,3.35,0,0,0,87.32,41ZM67,6.49a.22.22,0,0,1,0,.44h0a2.77,2.77,0,0,1-2.46-2.07L64,4.92a.22.22,0,0,1-.26-.17.24.24,0,0,1,.18-.27c3.17-.6,4.49,1.36,4.54,1.45a.21.21,0,0,1-.06.3.19.19,0,0,1-.12,0,.23.23,0,0,1-.19-.1,3.63,3.63,0,0,0-3.22-1.35A2.32,2.32,0,0,0,67,6.49Zm6.87,2.9a.78.78,0,1,1-.78.78h0a.77.77,0,0,1,.77-.78h0ZM76.44,3.6a1.26,1.26,0,0,0,.11-.91,2.94,2.94,0,0,1,.45.79,1.43,1.43,0,0,1-.67,1.63q-.1-.3-.18-.6a.4.4,0,0,0-.23-.3,1.7,1.7,0,0,0,.52-.61ZM2.58,46a4.42,4.42,0,0,1-.5-.1c.36-.07.76-.16,1.17-.27L2.58,46ZM3.94,48.9a5.65,5.65,0,0,1-1.81.4,2.81,2.81,0,0,0,1.69-1.58,5.59,5.59,0,0,0,2-.81,3.55,3.55,0,0,1-1.91,2Zm9.69-11.21A13.61,13.61,0,0,0,7,44,8.39,8.39,0,0,1,5.64,46,5.33,5.33,0,0,1,2.49,47l.4-.2h0c.49-.26,1-.56,1.56-.91A5.72,5.72,0,0,0,6.4,44a34.81,34.81,0,0,1,4.38-5.09c4.15-4.15,10.65-4.14,12.63-4h0l-.76,1.91h0C21.51,36.33,18.28,35.57,13.63,37.69Zm6.86,41.48A9.49,9.49,0,0,1,20,80.61c-.2-.7-.37-.78-.5-.83a.48.48,0,0,0-.45,0l-.41.21c-.5-1.34-1.18-3.94-.27-5.22l.62-.11a3.7,3.7,0,0,0,2,3h0c-.2.5-.34,1-.48,1.45Zm4.3.3a7.28,7.28,0,0,1-.85-.4,5.36,5.36,0,0,1-1.59-2.2,4.18,4.18,0,0,1,.87-1l.23-.19A2.51,2.51,0,0,0,25.34,77c-.21.86-.43,1.92-.55,2.52Zm10.32-21.9c-.72.23-1.46.47-2.12.71-2.47.88-4.4,6-4.91,8.19a17.39,17.39,0,0,0-.31,2.78c-.06,1.26-.13,2.45-.63,2.89a6.06,6.06,0,0,0-1.45,3.33c0,.21-.08.41-.13.6a1.65,1.65,0,0,1-1.45-1,13.61,13.61,0,0,0,3-8.86c0-3.24,2.38-5.69,4.69-8.06l.95-1a5.63,5.63,0,0,0,.8-1.13h0a3.3,3.3,0,0,0,1.17.09,1.34,1.34,0,0,0-.17,1,.62.62,0,0,0,.61.41h.05a2.64,2.64,0,0,0,1.88-1.6c0-.06.3-.15.49-.21a3.75,3.75,0,0,0,1-.4,6.18,6.18,0,0,0,.12.62l-.28.4a14.67,14.67,0,0,1-3.24,1.25Zm7.51-4.86a4.71,4.71,0,0,1-.81.32,2.06,2.06,0,0,0-1.5,1.14c-.12.27-.24.61-.36,1s-.23.67-.35.95a5.31,5.31,0,0,1-.25-1.72.44.44,0,0,0-.8-.27,2.2,2.2,0,0,1-1.27.76c-.45.14-1,.29-1.09.84a1.77,1.77,0,0,1-.7.76,4.66,4.66,0,0,1,.53-.78A.45.45,0,0,0,36,55a.45.45,0,0,0-.39-.09l-.78.2a2.22,2.22,0,0,1-.89,0h0c.1-.22.19-.44.28-.66,1-2.48,2.07-5.05,9.7-4.41a5.91,5.91,0,0,1-1.26,2.63Zm36.06-4.34a5,5,0,0,1-3.1-2.7s-.76-1.32-.08-2l.47-.47a6.85,6.85,0,0,0,3.24,2.87,11.38,11.38,0,0,0,.2,1.54c0,.29.1.56.12.78a1.74,1.74,0,0,1-.85-.06Zm-.07-11a4.81,4.81,0,0,1,1.55,2.82,6.41,6.41,0,0,1-.51,3.51A10,10,0,0,0,79.26,45c0,.07,0,.13,0,.2a6.72,6.72,0,0,1-2.68-2.66c.88-1.25,1-2.43.27-3.39a58.17,58.17,0,0,0-4.9-5,.44.44,0,0,0-.63,0,.22.22,0,0,0-.07.09s-2,3.55-3.7,4.37a10.62,10.62,0,0,0-1.6,1,5.62,5.62,0,0,1-2.14,1.11,3.1,3.1,0,0,1-1.54-.16,13.67,13.67,0,0,0-4.56-.87.45.45,0,0,0,0,.89,13.08,13.08,0,0,1,4.24.82,4.6,4.6,0,0,0,.89.21h0c-2.16,2.22-9.21,8.56-18.35,7.66h-.05c-8.72-.85-10,2.22-11.09,4.92a7.52,7.52,0,0,1-1.3,2.35c-.3.32-.62.65-.94,1-2.31,2.39-4.94,5.09-4.94,8.69a12.57,12.57,0,0,1-2.85,8.4l0,0,0,0a0,0,0,0,0,0,0c-.19.19-.38.36-.58.53a4.81,4.81,0,0,0-1.18,1.4l0,.07v0h0l-.13.23a2.88,2.88,0,0,1-1.48-2.4,3.21,3.21,0,0,0,1.25-.56,1.76,1.76,0,0,0,.42-1,2,2,0,0,1,.62-1.27c1.24-1.09,1.62-3,1-5a32.25,32.25,0,0,1-.86-4.87c.6-.8,3.3-4.61,2.88-8.48a18.76,18.76,0,0,0-1.53-4.85c-1.16-2.8-2.35-5.69-1.26-8.53a.17.17,0,0,1,0-.05l.24-.65c1.39-1,4.6-2.88,6.49-1.13,2.45,2.28,1.5,4.85,3.78,4.73s5.48-2,5.63-5.45,1.56-4.23,4.08-3,5.64-1.39,6.31-4.5,2.6-5.05,4.53-4.9,2.3.81,3.49,1.78a2.51,2.51,0,0,0,3.55,0l.09-.09c1-1.12-.52-2.23-1.56-4.16s-1.63-3.57,0-4.38.75-2.53,1.71-3.64a6.6,6.6,0,0,0,1.75-3.05h0l.39-.41.38-.4c.13-.15.27-.29.4-.43.39.84,1.17,2.73,1,3.91-.3,1.56,1.13,4.3,2.31,3s.28-4.35,1.58-5.27,1.26-2.4,2.2-.94a4.89,4.89,0,0,0,3.9,2.23c1.37,0,1.92-.37,3.3.11s1.48-.94.07-2.34-2.08-1.59-2-2.82a1.3,1.3,0,0,1,.48-.87h0a4.5,4.5,0,0,0,.65.66l.55.42c.62.47.62.47.62.9,0,1,.65,1.55,1.87,2.12a7,7,0,0,0,1.47.47,3.28,3.28,0,0,1,1.88.87,3.31,3.31,0,0,1,.68,1.6,3.89,3.89,0,0,0,.33,1c.25.45-.25,1.58-1,2.37-.35.35-.79.39-1.53.42a7.08,7.08,0,0,0-1.78.25,3.66,3.66,0,0,1-2.38-.66A5.53,5.53,0,0,0,75.65,17a20.24,20.24,0,0,0-3.72.46l-.64.12c-.46,0-.64,0-2.67,9.91,0,0,0,.06,0,.1,0,.66-.11,2.51-.9,3.11h0a12,12,0,0,1-3.25,1.12c-1.49.07-1.86,2.24-1.9,2.49a.44.44,0,0,0,.38.5H63a.44.44,0,0,0,.44-.38c.06-.35.39-1.7,1.06-1.73a12.87,12.87,0,0,0,3.62-1.21h0l.06,0h0a16.06,16.06,0,0,1,3.5-1.85,4,4,0,0,0,.67-.21c.35-.13.37-.14,1.11.76.56.68,1.38,1.92,2.17,3.13a36.53,36.53,0,0,0,2.56,3.63c.17.16.3.3.43.44Zm4.61-1-.43-.41c-1.61-1.57-2.87-2.79-3.27-3a1.11,1.11,0,0,0-1.1,0c-.37.15-.41.13-.48,0a1.57,1.57,0,0,0-1.67-.34c-.61-.93-1.19-1.8-1.68-2.47a5.64,5.64,0,0,0,2.81-1.6c.08-.1.16-.16.23-.16.32,0,.92.73,1.32,1.22a8.29,8.29,0,0,0,.85.93l1.31,1.2c1.1,1,2.34,2.16,3,2.62a6.25,6.25,0,0,0,.87.52,2.33,2.33,0,0,1,1.42,1.44,4.63,4.63,0,0,1-.16,2.42A3.83,3.83,0,0,0,86,39.92a2.88,2.88,0,0,0,.22.76,4.78,4.78,0,0,1-2.15-1.47,2.86,2.86,0,0,0,.1-.77,3,3,0,0,0-1-2.12Zm3.6,7.58c-.68.11-2.39.08-3.59-2.52a1.49,1.49,0,0,1,.26-1.12l.16-.18a5.38,5.38,0,0,0,3,1.62,3.82,3.82,0,0,1,.32,1,5.5,5.5,0,0,0-.16,1.21Z"/><path d="M54.75,28.84c-1.39-1.05-2.62.9-2.17,1.4,0,0-.5,3.1-2.18,4.11s-2.95,2-1.55,3.3,3.73.11,5.18-.78,3.45-1.12,3.28-3.23A6.51,6.51,0,0,0,54.75,28.84Z"/></g></g></svg>