<svg xmlns="http://www.w3.org/2000/svg" 
    xmlns:xlink="http://www.w3.org/1999/xlink" version="1.1" x="0px" y="0px" viewBox="0 0 60 75" enable-background="new 0 0 60 60" xml:space="preserve">
    <g>
        <g>
            <g>
                <g>
                    <path d="M59.3525848,26.9961109c-0.3910446-3.8877888-1.5396233-7.5904446-3.4122047-10.9983988      c-1.8688049-3.4910755-4.4157944-6.5372658-7.5677757-9.051672c-4.444603-3.5760858-9.7544212-5.7551742-15.3551598-6.301127      C23.6639881-0.273194,14.3889294,3.2934461,8.1345577,10.1971989C2.4714777,16.4482651-0.1860281,24.5506573,0.65132,33.012928      c1.3530753,13.577034,12.151228,24.616993,25.7098446,26.2567406c0.2214985,0.0321159,0.4307175,0.0623398,0.6408806,0.0774536      c1.0139809,0.0991783,2.0364609,0.1501846,3.0400505,0.1501846c2.0822716,0,4.1494293-0.217247,6.1424408-0.6451302      C50.8827591,55.72192,60.8430939,42.0277596,59.3525848,26.9961109z M35.9824028,57.9057312      c-2.8568077,0.6149063-5.8392391,0.780201-8.898653,0.4770012c-0.1988297-0.0141678-0.3853798-0.0415611-0.6404095-0.0783997      C17.5943947,57.235096,9.9639835,51.993763,5.5412226,44.6538582l2.6060867-1.5049095      c0.2314157-0.1331825,0.3107586-0.4288292,0.177104-0.660244c-0.1341267-0.2314186-0.4311895-0.3117027-0.6607165-0.1766319      l-2.6041384,1.503849c-1.0476294-1.8795471-1.8984375-3.879406-2.4999421-5.9817505l2.9278257-0.7851601      c0.2578635-0.0698967,0.4113536-0.3343735,0.341929-0.5931816c-0.0694246-0.2569199-0.3329558-0.4061584-0.592236-0.3419266      L2.327492,36.894104c-0.3231559-1.2971115-0.578481-2.6197243-0.7136704-3.9765778      c-0.0812317-0.8211708-0.119132-1.6375046-0.132828-2.4501743h3.0165544c0.2673092,0,0.4836125-0.2163048,0.4836125-0.483614      c0-0.2673073-0.2163033-0.4836121-0.4836125-0.4836121H1.478278c0.0350075-2.1946735,0.3174295-4.3470783,0.8342782-6.4310017      l2.9321351,0.7853966c0.0420327,0.0103893,0.0840654,0.016058,0.1256256,0.016058      c0.2134695,0,0.4089928-0.1426277,0.4666104-0.3589306c0.0689526-0.257864-0.0840654-0.5223389-0.341929-0.5922375      l-2.9351459-0.7861061c0.593653-2.0834522,1.4278131-4.0893326,2.4906735-5.990839l2.6273389,1.5167179      c0.0760369,0.0443954,0.1591578,0.0651741,0.241334,0.0651741c0.1671867,0,0.3296499-0.0868988,0.4193821-0.241806      c0.1336546-0.2314148,0.0543127-0.5270615-0.177104-0.660244l-2.6253905-1.5155382      c0.9488058-1.5690241,2.0508652-3.0639,3.3153882-4.4597168c0.2096319-0.2314157,0.4289465-0.4518509,0.6454268-0.6755924      l2.1348715,2.1349306c0.0944557,0.0944557,0.2181921,0.1416826,0.3419285,0.1416826      c0.1237373,0,0.2474737-0.0472269,0.3419294-0.1416826c0.1889105-0.1889114,0.1889105-0.4949474,0-0.6838579      l-2.1356392-2.1356392c1.5692015-1.5147123,3.2980318-2.8334293,5.1472349-3.9421005l1.5090446,2.6131115      c0.0897331,0.1549072,0.2521954,0.241806,0.4193821,0.241806c0.0821762,0,0.1652966-0.0207806,0.2413349-0.0651741      c0.2314148-0.1331825,0.3107586-0.4288282,0.177103-0.660244l-1.5095177-2.6138201      c1.8952503-1.0508175,3.90485-1.8832068,5.9898968-2.4815824l0.7826824,2.9200919      c0.0580902,0.2153587,0.2531395,0.3579865,0.46661,0.3579865c0.0415611,0,0.0835934-0.0056672,0.1256256-0.0160575      c0.257864-0.0698972,0.410881-0.3343725,0.3419285-0.5931807l-0.7826214-2.9200919      c2.089592-0.5238738,4.2451839-0.8130257,6.4296436-0.850808v3.032258c0,0.2673087,0.2163048,0.4836121,0.483614,0.4836121      c0.2673073,0,0.4836121-0.2163033,0.4836121-0.4836121V1.4756497c0.8101921,0.0132238,1.6265831,0.0521867,2.4374237,0.13271      c1.3542557,0.1318835,2.690918,0.3627092,4.0013695,0.6885806l-0.792717,2.959291      c-0.0689507,0.2578635,0.0840683,0.5223389,0.3419304,0.592236c0.0420341,0.0103903,0.0840645,0.0160575,0.1256256,0.0160575      c0.2134705,0,0.4089928-0.1426277,0.46661-0.3589311l0.7878761-2.9411082      c2.0813866,0.59566,4.0885086,1.4310009,5.9884796,2.4981122l-1.5161285,2.6268077      c-0.1336555,0.2314157-0.0543137,0.5270615,0.1771049,0.660244c0.0760345,0.0443935,0.1591568,0.0651741,0.241333,0.0651741      c0.1671867,0,0.3296509-0.0868988,0.419384-0.241806l1.516304-2.6270437      c1.0670509,0.648201,2.1015167,1.36134,3.0874557,2.1547661c0.7173882,0.5721645,1.3993568,1.1752625,2.0508652,1.8030376      l-2.13871,2.139535c-0.1889114,0.1889114-0.1889114,0.4949474,0,0.6838579      c0.0944557,0.0944557,0.2181931,0.1416836,0.3419304,0.1416836s0.2474747-0.0472279,0.3419304-0.1416836l2.1361084-2.1369371      c1.5158348,1.5631199,2.8396301,3.2798491,3.9506035,5.143692l-2.6225586,1.5138855      c-0.2314148,0.1331825-0.3107567,0.4288292-0.1771049,0.660244c0.0897331,0.1549072,0.2521973,0.241806,0.419384,0.241806      c0.0821762,0,0.1652985-0.0207787,0.241333-0.0651741l2.6166534-1.5104618      c0.0528374,0.0959911,0.1104546,0.1886749,0.1622276,0.2853737c0.9994011,1.8189774,1.7771797,3.7259159,2.3445053,5.6987381      l-2.9476013,0.7894115c-0.2578659,0.0698967-0.410881,0.3343716-0.3419304,0.5922356      c0.0576172,0.2163029,0.2531395,0.3589306,0.46661,0.3589306c0.0415611,0,0.0835953-0.0056667,0.1256256-0.0160561      l2.9534454-0.7910652c0.3268166,1.3072643,0.5624847,2.6416836,0.6991501,4.0006618      c0.0810547,0.8172779,0.1220245,1.6295948,0.134243,2.4369526h-3.0472527c-0.2673073,0-0.4836121,0.2163029-0.4836121,0.4836121      s0.2163048,0.4836121,0.4836121,0.4836121h3.0430641c-0.0403824,2.2029381-0.3314209,4.3575859-0.85075,6.4328918      l-2.9394569-0.7872849c-0.2555008-0.0623398-0.5232811,0.0850105-0.5922356,0.3428726      c-0.0689507,0.2578621,0.0840645,0.5223389,0.3419304,0.5922356l2.9414635,0.7877579      c-0.60186,2.1002197-1.4389153,4.1098785-2.4851265,5.9960365l-2.6392059-1.5235672      c-0.2318878-0.1360168-0.5275345-0.0547829-0.6607132,0.1766319c-0.1336555,0.2314148-0.0543137,0.5270615,0.1771011,0.660244      l2.644165,1.5264015C50.5153847,51.2744827,43.9730453,56.2047043,35.9824028,57.9057312z"/>
                </g>
            </g>
            <g>
                <g>
                    <path d="M46.614315,27.1453514c-0.0448685-0.2635307-0.289505-0.4401627-0.5582314-0.3957691      c-0.2630615,0.0453377-0.4401627,0.2956448-0.394825,0.5582314c0.0604515,0.354208,0.1086235,0.7112503,0.144989,1.0720711      c0.8028717,8.0938931-4.5603104,15.468977-12.4752121,17.1550083c-1.5948811,0.3419304-3.2587147,0.4316635-4.9622192,0.2644768      c-0.0949268-0.0066109-0.18466-0.0198364-0.3490124-0.0425072c-7.2811031-0.8803253-13.094368-6.8244095-13.8221474-14.1333771      c-0.4741669-4.7917271,1.1925011-9.4786091,4.5725918-12.8591728c3.3800888-3.3796177,8.0646114-5.0533686,12.8591728-4.5716457      c3.0126572,0.2928123,5.8694649,1.4650049,8.2624931,3.3909531l0.1889114,0.153017      c0.2087479,0.1671867,0.5133667,0.1350727,0.6800804-0.0736752c0.1676598-0.2078018,0.1350708-0.5119476-0.072731-0.6800785      l-0.1907997-0.1539631c-2.5394363-2.0430727-5.5738182-3.2879963-8.7734985-3.5997      c-5.0831242-0.4940014-10.0524273,1.2657042-13.6379585,4.8512354s-5.3537388,8.5567245-4.8507633,13.6384315      c0.772646,7.7557411,6.9415359,14.0634804,14.7190018,15.0051994c0.1175976,0.0170021,0.2304707,0.0321159,0.3353176,0.0396729      c0.5813732,0.056675,1.1603851,0.0850105,1.7351475,0.0850105c1.1925011,0,2.3675251-0.1227913,3.5085506-0.3674316      c8.3970947-1.7889862,14.0870934-9.6117935,13.2355766-18.1977997      C46.7304955,27.9000511,46.6785431,27.52034,46.614315,27.1453514z"/>
                </g>
            </g>
            <g>
                <g>
                    <path d="M32.459568,26.208353c-0.6022148-0.3960056-1.2812309-0.6443062-2.0005093-0.7155018      c-1.4492435-0.136961-2.8494873,0.4113541-3.8090382,1.4687843c-0.8715286,0.9596672-1.2729645,2.2032928-1.1456852,3.4957981      c0.2056179,2.0858135,1.8604774,3.7797565,3.9265747,4.0245113l0.1175385,0.0195999      c0.1468182,0.0099182,0.3035564,0.0195999,0.4601746,0.0195999c0.3133564,0,0.6365128-0.0391998,0.9400692-0.0977592      c2.1800308-0.4644852,3.6811066-2.442976,3.5707703-4.6561852c-0.0067291-0.1347179,0.0570297-0.2625866,0.1738586-0.330122      l10.9531212-6.3235607c0.9302063-0.5386333,1.2827644-1.6940594,0.7637291-2.5850105      c-0.5091743-0.8813896-1.6842003-1.1653461-2.6144104-0.6267128l-10.9607925,6.3223782      C32.7170181,26.292181,32.5733261,26.2832088,32.459568,26.208353z M33.4064827,27.0303516l10.8788528-6.2768059      c0.4601784-0.2739201,1.0379486-0.156559,1.2827644,0.2644768c0.2447586,0.4210358,0.0587425,0.9792671-0.411232,1.2534237      l-10.869175,6.2766876l-0.4308357,0.2447567v0.0099182l-0.4406319,0.2545586      c0.0587959,0.1859589,0.0881386,0.3817177,0.1077347,0.5775948c0.0195427,0.1567955,0.0195427,0.3231564,0.0195427,0.4700336      c-0.0489388,1.6157799-1.1945686,3.0158463-2.8004875,3.3587189c-0.2349586,0.0488815-0.4895744,0.0781631-0.7343922,0.0781631      c-0.0311108,0-0.0628719-0.0007095-0.0965805-0.0020065c-1.5673714-0.0631676-2.9625378-1.0894279-3.3404198-2.6118126      c-0.3031425-1.2210751,0.0024204-2.4168816,0.80299-3.310194c0.6756516-0.7343922,1.6254616-1.1653442,2.6242104-1.1653442      c0.1272793,0,0.2448177,0.0098,0.3720951,0.019598c0.4602356,0.0489998,0.9106693,0.186079,1.3219643,0.4113541      c0.1860771,0.0977612,0.3524971,0.215477,0.5189171,0.342638c0.1175346,0.0979977,0.2252159,0.1957588,0.3329544,0.3036747      l0.4308929-0.2448769L33.4064827,27.0303516z"/>
                </g>
            </g>
        </g>
    </g>
</svg>