<svg xmlns="http://www.w3.org/2000/svg" 
    xmlns:xlink="http://www.w3.org/1999/xlink" version="1.1" x="0px" y="0px" viewBox="0 0 142.459 294.78875" style="enable-background:new 0 0 142.459 235.831;" xml:space="preserve">
    <g>
        <path d="M9.34,131.942l12.866,78.299c0.266,5.52,10.463,9.514,17.283,9.186c6.818-0.328,16.586-5.283,16.32-10.803l13.613-66.458   c16.117-3.258,23.294-15.394,25.423-29.151c2.496-16.132-10.433-40.147-14.799-47.683C79.792,51.104,74.348,38.64,55.68,34.78   C13.658,26.093,3.165,92.571,0.286,111.727C-1.183,121.505,3.176,127.869,9.34,131.942z M37.477,49.969   c2.395-3.825,7.486-6.294,13.005-6.294c3.003,0,5.719,0.737,7.857,2.135c6.095,3.985,7.966,12.363,4.17,18.673l-0.011,0.021   l-0.037,0.075c-1.558,2.782-5.599,10.926-5.596,15.139c0.089,12.334,5.384,24.195,16.189,36.246   c4.06,4.498,3.702,11.467-0.797,15.532c-2.027,1.827-4.644,2.834-7.369,2.834h-0.003c-3.11-0.002-6.086-1.324-8.166-3.627   c-15.58-17.155-24.474-35.744-24.396-50.996C32.357,65.596,34.284,54.489,37.477,49.969z"/>
        <circle cx="90.595" cy="22.5" r="22.5"/>
        <polygon points="79.326,225.831 9.66,225.831 9.66,235.831 111.66,235.831 111.66,225.831 106.993,225.831 106.993,220.499    79.326,220.499  "/>
        <polygon points="122.107,166.544 111.332,187.104 120.185,188.077 108.695,206.147 109.538,206.64 125.644,186.565    115.913,184.806 125.903,168.517  "/>
        <polygon points="130.038,203.442 114.005,211.88 114.419,212.595 134.681,204.626 128.275,199.247 142.459,191.485 140.5,188.444    123.945,199.007  "/>
        <polygon points="101.522,188.04 99.37,205.747 100.179,205.813 105.083,184.944 97.137,187.112 98.801,171.282 95.241,171.163    94.515,190.485  "/>
        <path d="M58.205,129.362c1.776,1.967,4.225,2.967,6.683,2.968c2.149,0,4.307-0.766,6.028-2.319c3.688-3.33,3.98-9.022,0.65-12.711   c-13.631-15.201-16.633-27.975-16.702-37.582c-0.002-5.619,5.752-15.941,5.85-16.116c0.038-0.07,0.064-0.117,0.077-0.138   c0.004-0.006,0.006-0.008,0.006-0.01l-0.001-0.001c3.259-5.421,1.681-12.549-3.552-15.971c-5.265-3.438-14.773-1.827-18.108,3.608   v-0.003c-2.291,3.2-4.774,12.485-4.812,28.63C34.255,93.501,41.865,111.368,58.205,129.362z"/>
    </g>
</svg>