<svg xmlns="http://www.w3.org/2000/svg" viewBox="0 0 6564.34 6557.08"><g id="Layer_2" data-name="Layer 2"><g id="Layer_1-2" data-name="Layer 1"><path d="M6162.69,5546.76c-137.46,109.74-243.07,22.92-380.8-90.31-69.75-57.34-148.77-125.38-235.54-152.3-51.67-16-107.65-17.85-169.12,5.28-131.32,49.41-276.16,250.73-330.09,382.77-59.64,146-37.4,259.78,115.48,322.22,187.8,76.71,417.27,66.77,609.9,10.5,80.48-23.51,156.9-55.68,224.86-94.91,85.64-49.45,168.72-126.26,240.24-209.54,76.24-88.76,183.75-239,213.32-350.69,6.75-25.47,9.27-52.45-6.5-69.92-21.16-23.42-22.09-7.46-29.87,11.19-70.68,169.57-179,322.34-312.52,441.61-137.4,122.73-301.51,210.11-478.87,244-21.16,4.05-27.31-28.13-6.15-32.18,171.42-32.79,330.18-117.36,463.23-236.21,127.95-114.29,232.11-260.19,300.95-422.18,7.59-17.86,15-29.59-9.87-11.83-45.77,32.66-81.28,104.57-115.52,151.84-26.45,36.51-57.91,72.5-93.13,100.62Zm308-5532.11c46-45.28,114.88,24.72,68.85,70q-95.07,93.1-190,186.37c-26.12,25.67-38.75,25.73-9.3,55.69l93.63,94.23c55,55.33,47.1,109.41-.16,160.22-16.66,17.91-97.79,104.55-179.56,186.77-45.47,45.7-91.05,89.93-125.73,120-29.27,25.39-67.8,29.51-100,7.86C5725,1189.5,5420.86,1485.43,5110.93,1787c-254.83,248-513.59,499.71-779.07,757.18-15.43,15-38.25-8.45-22.82-23.46,265.49-257.47,524.24-509.23,779.07-757.18C5398,1462.05,5702,1166.21,6005.35,872.6c-23.59-35.58-17-78.43,12.3-109.05,11.83-12.36-14.47-34.87-26.62-22.58-42.25,42.78-66.82,27.72-96.48,6.19-12.48-9.06-22.62-5.16-34.14,6.23C5771.79,841,5705,907.21,5616.6,994.77c-27.59,28.19-32.54,8.4-71.83,48-431.54,435.4-874.57,859.27-1314.71,1286-30.86,30-76.5-16.91-45.64-46.92C4625.28,1854.46,5059,1431,5495.69,999.3c28.1-27.77,24.46-46.35,48.55-71C5700.05,773.86,5847,628.41,6002.52,475q233.68-230.57,468.16-460.34ZM6245,373.85Q6158.13,459.37,6071.36,545c-45.45,44.85-80.79,83.15-127.8,126.21-20.78,19,.24,22.28,20.16,8.33,68.59-48,167.16,60.42,101.1,129.4-19.83,20.72,1.63,46.17,20.8,29.54,33.18-28.79,77.58-71.9,122.14-116.69,80.29-80.73,161.34-167.3,178-185.23,24-25.82,26.95-44,1.7-69.46-35-35.2-59-59.18-93.89-94.48-28.52-29-13.71-33.08-48.58,1.24ZM2608.52,4151.68c15.68-14.75,38.12,9.09,22.44,23.85-402.28,380.07-799.65,750.13-1197.76,1112.82-391.06,356.26-783.49,706-1182.87,1051.92.26,1.58.49,3.15.7,4.74,4.36,33.67-3.65,65.57-35,92.6-1.32,1.14-11,9.63-20.94,18.42-24.4,21.49-51.38,45.25-79.33,65.05-25.67,18.17-50.54,21.87-70.13,16.29a57.63,57.63,0,0,1-28.6-18.51A59.37,59.37,0,0,1,3.7,6488.19c-2.79-20.89,4.63-46,26.2-68.51,19.15-20,7.35-44-4.51-68.17C1.67,6303.22-22.18,6254.68,43,6197.62l0,0c354.73-324.31,728.2-670,1112.36-1029,409.76-382.89,827.53-777.06,1244.34-1173.28,31.2-29.68,76.33,17.75,45.13,47.43-418.1,397.44-836.13,791.87-1244.86,1173.79-304.43,284.47-606.06,564.17-901.43,835.5a32.62,32.62,0,0,1-11.65,19.42c-40.48,32.71-66.52,65-77.22,97.27-9.86,29.68-6.49,60.8,10.89,93.7,7.37,13.94,14.45,28.29,20,42.94,394.33-341.74,782.78-688,1170.56-1041.29,398.55-363.1,795.72-733,1197.37-1112.44Zm-2469.87,2047q-26.07,23.86-52.07,47.63l-.51.51c-27.46,24-14.68,50.06-2,75.94,22,44.69,43.81,89.17-7,142.27a50.77,50.77,0,0,0-5.7,6.95,68.41,68.41,0,0,0,6.72-4.27c22.93-16.24,49.59-39.71,73.69-60.94,4.69-4.14,9.26-8.16,21.45-18.68,11.63-10,14.58-22.09,12.92-34.91-2.33-18-12.47-39.3-23.52-60.23-16.87-31.92-24.75-63.3-24-94.27ZM481.4,973c-15.54,13.77-27.06,29.5-32.43,45.87-8.48,25.8.3,48.26,17.47,67.63,28.75,32.43,59.5,46,90.3,46.71,46.65,1,181.51-46,132.27-115-24-33.65-73.66-62.09-112.6-72.77-41.37-11.34-63.48-.37-95,27.58ZM450.34,835.6,518,878.11c22.79-5.18,49-3,75.55,4.27,24.67,6.76,50.18,18,73.17,31.64,21.09,12.48,12.14,11.66,34.43.63,32.3-16,75.52-32.71,105.43-46.18,39.29-17.7,66.22,42,26.92,59.74l-80.49,36.24c-22.36,10.06-17.38,5-6,22.72,18.29,28.62,6.2,21.85,37.28,41.93,20.76,13.41,41.1,27.47,60.61,41.48,29.24,21,55.87,41.37,79.2,59.38,49.06,37.87,100.1,10.47,151.26-17,20.18-10.84,40.38-21.68,60.86-30.13,37.51-15.48,38.92-4.77,2.93-36.93l-65.67-58.68c-25-22.37-35.64-52.82-31.53-85.74C965.61,827,880.13,756.64,779.89,707.09c-104.62-51.7-226.19-81-371.81-68.83-78,6.52-133.7-58.64-83.09-89.14,41.48-25.06,56.58-72.42,56.42-118.95-.18-52.84-21.27-115.52-60.37-152.78-37.25-35.5-70.44-49.44-104.93-53.62C99,212.05,39.54,335.11,70.21,454.36,92,539.13,116.37,615.44,180.42,675.52,215,708,206,694.69,246.86,699.44c44.2,5.14,91.47,26.75,127.65,51.67l116.58-52.47c39.29-17.71,66.21,42,26.92,59.74l-90.42,40.7a161.78,161.78,0,0,1,22.75,36.51ZM880.72,319.49c52-37.11,109.33-62.24,167-60.94,50.72,1.14,100.09,22.09,144.3,71.95,34.1,38.45,48.65,86.46,32.14,136.72l-.35,1c44.07-26.49,91.1-43.18,138.36-42.12,50.72,1.14,100.09,22.09,144.31,72,72.19,81.42,35.19,181.54-49.51,238.33-38.19,25.61-47.47,7.77,1,47.83L2781.39,1877.52c294.93-128.13,557.54-108.76,780.68-.22,269.72,131.19,480,392.74,618.71,680.27,22.54,46.73,95.08,80.47,140.72,98.24,109.94,42.81,182.84,125.3,67.36,210.47-71,52.33-61.41,94.29-2.41,155.84,29.44,30.71,110.92,115.63,211,207.68,99.13,91.22,216.06,189,316.63,246.09,94.12,53.39,164.73,78.94,217.15,86.23,49.64,6.91,113.5-4.06,119.41-64.24,3.19-32.56,11.25-60.28,78.74-61.45,41.52-.71,95.28,16.21,105.82,61.56,12.87,55.36,52.42,104.67,103.62,147.56,53.85,45.09,120.25,82.8,183.15,113.18,293.47,141.75,571.34,393.94,722.85,691.76,121.77,239.35,162.45,508.18,65.72,773.69-20.68,56.76-6.91,25.48,6.28,75.34,7.43,28,4.91,58.91-2.51,86.93-31.72,119.86-141.88,276.73-222.73,371.69,25,75.25,12.37,156.95-43,215.15-39.5,41.54-92.29,62.33-147.65,66.07-51.9,3.5-36.78-13-71.8,27.83-186.29,217.39-441.84,385.36-714.63,453.17-532.79,132.45-960.26-143.45-1206.73-604.1-105.82-197.79-176-338.47-316.24-522.06-25-32.74-58.49-59.79-99.25-69.32-97.68-22.84-143.86-118.09-57.42-197.63,35-32.15,68.68-68.36,102.23-102.2,47.69-48.11,60.82-52,50.8-126.12-8.7-64.33-38.2-129.74-64.93-188.53-80.27-176.48-204.56-327.79-357.28-446.58-96.1-74.75-266.5-155.33-378.63-69.79-112.67,85.94-173.78,75.74-209-67.84-29.59-120.61-124-168.9-235.5-226-241.32-123.48-445-285.28-552.22-543.15-77.46-186.32-83.56-390.26-7.43-587.08,33.82-87.46,106.32-196.81,160.65-286.74,28.09-46.5,22.84-24.79-8.09-64.32-69.16-88.41-29.69-155,13-227,44.95-75.85,94.62-159.67-67.46-304.49L1281.5,1173.09c-65.15-58.21-101.19-42.13-175.12-2.44-69.87,37.51-139.58,74.94-222.28,11.1-23.39-18-49.86-38.31-77.4-58.09C771,1098,761,1088,746.77,1109.85c-37.11,50-130.86,90.13-191.31,88.78-48.53-1.09-95.74-21.11-138-68.76-23.21-26.18-38.12-58.45-37.34-93.94,1.3-58.48,37-60.06-30.4-27.07-35.87,17.56-73.25,27.91-110.77,27.07-100.4-2.26-211.5-102-176.45-208.68,9.51-29,28.56-55.6,53.72-77.91,34.25-30.36,30.85-13.07-2.46-52.12a426.73,426.73,0,0,1-53-78.45c-26.14-49.64-42.17-102.34-52-154.36C-22.52,298.05,28.5,208,179.38,145.57L335.1,81.18l0,0c75.56-31.45,147.5-10,203.16,36.75,54.15,45.46,93.66,116.69,102.63,186.91,7.35,57.57-5.78,113.1-46.66,151.49C663,458,742,471.25,822.74,494.39c47.69,13.66,54.93,27.69,29.28-8.27-43.37-60.8-31.15-123.92,28.71-166.63Zm224.86,267.44a93.62,93.62,0,0,1-9.23,3.64c-24.26,8.08-32.15.12-3,16.63q21.39,12.1,42,25c42.93,27,24.69,20.31,12.31-13.46A112.6,112.6,0,0,1,1141,589c-2.61-31.9,3.2-19.8-35.41-2.11Zm-59.15-263c-41.87-.94-86.14,19.2-127.76,48.89-53.82,38.39-15.1,82.89,23.73,111.73,24.14,17.93,54.33,33.31,82.77,41.1C1082.4,541.34,1144.44,500,1161.86,447c9.14-27.85-.26-52.2-18.81-73.13-30.71-34.64-63.62-49.16-96.62-49.9Zm314.46,167.61c-41.88-.94-86.14,19.19-127.77,48.89-53.82,38.39-15.09,82.89,23.74,111.72,24.14,17.93,54.32,33.31,82.76,41.11,44,12.07,68.59.08,101.94-29.49,40.52-35.93,53.39-80.09,15.94-122.33-30.71-34.64-63.62-49.16-96.61-49.9Zm-1120.65,479c41.87.94,86.14-19.19,127.76-48.89,52.93-37.75,16.92-81.53-23.74-111.73-62.08-46.11-121.75-67.42-184.7-11.61-16.63,14.75-29,31.61-34.75,49.2-20.93,63.72,60.28,121.8,115.43,123Zm5048,3419.81-50.87-64.74q-40.51,39.26-82.12,77.36l51.14,66.79c15.5-5.5,34.1-2.29,47.71,9.73,19,16.82,21.14,44.51,4.7,61.86s-45.21,17.77-64.24,1-21.14-44.49-4.72-61.84l-49.18-64.24c-27.24,24.63-56.44,50.27-88,77l52.74,68.89c15.68-6,34.74-2.88,48.63,9.39,19,16.82,21.14,44.51,4.7,61.85s-45.21,17.78-64.24,1c-18.78-16.59-21.08-43.75-5.36-61.14l-51.51-67.28c-26.52,22.21-56.88,45.25-73.29,76.21-32.77,61.79,45.91,93,92.8,104.93,365.14,93.08,656.31,373.48,922.28,629.62,47.93,46.16,95,91.53,140.59,133.95,30.87,28.74,23.89,28.79,54-6.28q5.74-6.67,11.25-13.55c27.87-34.74,22.71-26.46-9.29-58.34-59.51-59.29-115-113.65-166.59-164.23C5664,4869.75,5489.22,4698.42,5397,4325.48c-17.13-69.26-49.94-108.32-108.14-50.49q-18.15,18-37.36,36.83l52.52,66.85c15.95-6.74,35.79-3.85,50.12,8.8,19,16.82,21.14,44.51,4.69,61.86s-45.2,17.77-64.24,1c-18.35-16.21-21-42.53-6.4-59.94Zm-91.53-116.5-375.09-477.4-74,74,367.68,480.28Q5156.51,4312.92,5196.66,4273.85Zm-421.1-524.21L4554.49,3563.5c15.3,36.14-6.86,71.89-44.21,77.16-19,2.67-25.56-5.77-2.7,14l194.89,168.13,73.09-73.09Zm-277.2-233.41-46.84-39.44c-11.11-9.35-15.51-13.66-16.89,7-1.95,29.06,38.87,46.18,63.39,44.77C4516,3527.51,4519.31,3533.88,4498.36,3516.23Zm-107.9-90.85L4203,3267.51a939.91,939.91,0,0,0-74,60.46l225.13,194.21c30.64,26.44,19,20,15.47-10.82C4366,3481.1,4371.47,3449,4390.46,3425.38Zm-238.94-201.2L1246.92,778.39c-8.5,4-17.12,8.54-25.69,13.54q-9.39,5.48-18.53,11.56L4079,3284.85c23.6-21.48,48.15-42.17,72.55-60.67ZM1267.28,769.9,4167.73,3212.21c16.34-11.74,32.5-22.35,48.15-31.39,18.79-10.85,19.47-17.61,2.85-31l-.39-.26L1334,766.91a33.94,33.94,0,0,0-12.88-4.84c-15.09-2.68-33.8.56-53.88,7.83Zm2952.28,2486,184.73,155.55c57.15-47.12,137.17-18.21,190.88,19.8,94.2,66.68,187.2,148.43,273.56,225.28l31.23-31.24c30.53-30.52,76.94,15.89,46.41,46.41l-28.77,28.78c74.26,67.48,145.8,135.73,200.61,192.5,46.46,48.12,90,60.11,120.59,52.34,57.95-14.71,50.72-72.15-14-89.49-22.19-6-43-18-54.1-38.92-21.65-40.77,7.57-93,54.46-92.65,58.17.43,100.12,63.05,112.87,113.69,18.49,73.38-2.79,150.51-83.32,170.95-50.53,12.83-118-2.57-183.67-70.55-54.62-56.57-125.92-124.56-199.73-191.58l-35.72,35.72L5210.82,4260q16.43-16.08,31.88-31.46c96.81-96.19,188.44-37.81,217.89,81.25,87.75,354.89,258.11,521.86,594.65,851.72,49.65,48.66,102.87,100.83,160,157.69,35.34,35.17,23.08,31.53,52.44-8.59,22.32-30.51,43.63-53.94,65.71-69.69,26.54-18.94,53.05-27.32,81.49-24.09,33.9,3.85,24.38,13.38,38.69-28,83.76-242.51,44.72-488.51-67.25-708.6-145-285-411.36-526.57-692.86-662.53-67.07-32.4-138.2-72.88-196.73-121.91-55.39-46.38-99.72-100.57-119.9-163.24-8.9-27.65-12.14-31.33-46.47-30.74-23,.4-14.8,12.77-23.32,35.79-29.45,79.56-105.83,100.38-184.83,89.39-59.92-8.34-138.46-36.31-240.48-94.18-105.84-60-226.75-161-328.69-254.81-101-93-183.85-179.28-213.78-210.5-87.38-91.16-93.2-177.29,10.87-254.05,67-49.39,2.08-75.47-52.23-96.62-64.6-25.16-144.5-65.3-176.11-130.8-133-275.66-333.14-525.71-588.19-649.77-199-96.8-432.6-116.78-695.19-11.64L4260.13,3099.09l0,0c54.41,44,45.94,105.25-11.41,138.36-9.49,5.48-19.23,11.64-29.14,18.37ZM4470,3466.75l319.45,269,32.93-32.94c-83.55-74.27-173.81-153.78-264.93-218.26-33.56-23.76-61.34-32.79-82.24-32.32-24.27.54-18.37,3.45-5.21,14.53ZM5100.66,4364l-367.12-479.56-83.24,83.24,362.41,473.41C5044.48,4414.18,5073.62,4388.54,5100.66,4364Zm-412.11-527.38-191.84-165.5L4343,3538.54,4114.36,3341.3c-27.64,25.65-53.67,52.12-76,76.79l567.17,501.63,83.06-83.06Zm-624.09-538.4L1186.15,815.14a349.52,349.52,0,0,0-45.49,40.17L3989.31,3374.75c22.39-24.76,48.05-51,75.15-76.49ZM4997.67,4453.8l-361.39-472.06L4418.52,4199.5c-30.52,30.52-76.93-15.88-46.41-46.41l219.48-219.48-566.32-500.86c-13.07,15-24.55,29-33.92,41.52-40.82,54.46-82,52.49-127.16,6.47L2470.13,2235.13c-41.44-37-30.7-42.48-68.9-3.53-62.66,63.91-113.25,130.68-152.32,199-86.5,151.37-116.47,310.62-96.11,463.68,13.36,100.45,48.43,198.5,103.46,290.16C2368.82,3372,2532,3490.92,2724.54,3589.43c126,64.47,232.61,119,269.34,268.79,23,93.56,29.8,89.05,105.68,31.17,139.37-106.31,336.35-25,458.63,70.05,161.07,125.29,318.28,311.4,403,497.71,41,90.16,74.42,194.54,69.9,289.85-8.66,182.78-120.39,207-164.47,241.11-35,27.09,3,52.9,32.16,59.72,55.54,13,102.21,48.62,136.42,93.42,119.46,156.41,168.46,258.9,250.42,428.38,267.67,553.5,883.3,883.17,1469.06,562.38q21.6-11.82,42.09-24.73c73.8-46.47,66.79-40.82-6.05-19.54-207.54,60.62-450.42,69.83-652.73-12.81-186.33-76.1-225-227.13-151.37-407.34,61.23-149.9,217.05-362.81,367.52-419.43,76.81-28.91,146.8-26.61,211.43-6.56,97,30.08,180.32,100.6,257.85,164.34,86.82,71.38,158.29,130.12,229.7,120.88,46.94-6.07,31.8-19.46,5.87-43.65-45-42-79.63-75.59-125-119.32-259.93-250.32-544.49-524.36-893.05-613.21-91.39-23.3-191.16-92.36-134.6-199,21.94-41.36,56.42-68.5,91.35-97.8ZM3976.29,3389.42,1127.79,870.11c-14.86,18.62-33.44,48.11-10.72,68.4q104.9,93.73,209.8,187.46L2499.1,2173.36,3897.83,3423.13c27.71,27.86,31.47,22,52.87-3.14,8-9.41,16.29-19.92,25.59-30.57Zm-13.81,507.13c-16.26,11.62-28.78,33.14-29.28,65.24-1.21,77.5,61.41,204.51,272.81,387.28,79.36,68.61,161.08,150.25,216.82,239.59,56.45,90.47,59.76,164,36.86,217.33-38.88,90.61-154.63,123.57-240.62,80.3-34.55-17.39-47.79-43.21-47.79-67.58,0-36,30.06-65.75,66-65.94,24.58-.13,50.69,13,68.09,47.61,24.7,49.11,79.29,14.47,94.09-20,15.25-35.54,11-87.79-32.25-157.07-52.47-84.1-129.33-160.18-204-224.73-229.1-198.06-296.82-344.3-295.37-437.53,1.64-105,87.33-162.66,186.75-137.1,47.6,12.24,81.87,53.73,82.74,103.28,1.66,94.76-119.25,88.07-113.18,2.38,3.12-44.16-30.78-55.1-61.65-33ZM6091.7,5974.29c40.79-1.78,80.34-15.52,109.44-46.13a133.76,133.76,0,0,0,33.29-61.58c14.34-60,5-49.44-26.46-18.62-37.7,36.88-77.4,71-118.25,100.19-30.51,21.83-54.76,28.62,2,26.14ZM3020.25,4020l-49.63,82.34c-35.44,58.79-29.67,37.39,17.52,14.34,135.32-66.09,308.67,10.46,417.79,95.32,160.28,124.68,292.53,286.27,376.76,471.46,29.68,65.26,60.39,135.24,70.06,206.73,5.11,37.85,7.06,32.25,43,2.4,47.37-39.39,67.3-91.65,70-148.69,3.93-83-26.72-177.3-64.26-259.85-80.52-177-230.5-353.81-383.53-472.84-96.1-74.75-266.5-155.33-378.63-69.8-25.17,19.2-47.06,33.32-66.56,42.39-36.49,17-33.44,6.33-52.49,36.2ZM2887,4114l63.47-105.29c19.36-33.66,18.12-33,1.61-68.19-8.43-18-15.28-40.3-21.81-67-29.59-120.61-124-168.9-235.51-226-198.89-101.76-365.78-223.31-485.5-414.42-64.87-103.53-106.06-215.35-121.36-330.42a765.91,765.91,0,0,1-6.62-113.64c1.23-76,17.72-97.17-29.18-16-78.31,186.73-75,381.45-1.3,558.82,100.73,242.3,294.85,394.12,521.45,510.07,126,64.47,232.61,119,269.34,268.79,16.86,68.7,12.34,58.09,45.41,3.23ZM5786,6189.45c-618.94,339-1275.32-4.09-1559.31-591.37-80.19-165.81-126.73-264.2-243.5-417.09-25-32.74-58.49-59.79-99.24-69.32-84.94-19.86-63.85-77.37-100.44-40.48-34.22,34.52-68.62,71.47-104.27,104.26-40.71,37.46-18.94,74.62,27.94,85.58,55.54,13,102.21,48.63,136.42,93.42,143.35,187.69,214.86,331.74,323.37,533.59,232.63,432.74,629.72,693.57,1131.92,568.73,176.79-44,346.13-132.37,492.33-249.91,118.32-95.13,96-72.82-5.22-17.41ZM2347.06,2125.17l-40.19-35.91c-62.77-56.08-36.88-43.63-47.83,14.18-8.45,44.55-31.78,83.95-54.21,121.8-25.75,43.45-49.86,84.15-30,130.73,22,51.63,25.09,27.07,45.6-4.45,35.78-55,78.68-108.75,129-160.66,39.52-40.79,41.41-26.58-2.36-65.69ZM1177.41,741.91c-102.79-82.15-241-146.76-372.63-184.45C658.86,515.67,524,506.69,460.23,544.09c-53.66,33.85-52.58,26.35,5.84,25.85,131.14-1.12,243.79,29.51,342.79,78.44,99.82,49.33,185.08,117,261.22,189.33,27.19-37.14,68.46-71.51,107.33-95.8ZM323.81,195.49A336.34,336.34,0,0,1,366.16,230c52.42,49.95,80.39,129,80.63,200.22.18,54.48-17.52,56.07,40.73,19.32l50.72-32C571,395.23,581.42,355.45,576,313c-6.89-54-38.18-109.92-79.8-144.87-38.13-32-86.48-47.09-136-26.49h-.13l-33.46,13.84c-56,23.16-44.59,11.5-2.8,40Z"/><g style="isolation:isolate"><path d="M.44,6555.66l0,0a.05.05,0,0,0,0,0h0l-.07,0a.1.1,0,0,0,0,0l0,.07s0,.05,0,.07,0,.05,0,.08l0,.06a.12.12,0,0,0,0,.05H.32a.15.15,0,0,0,.1,0,.3.3,0,0,0,0-.1H.59l0,.1a.22.22,0,0,1-.05.08l-.08.05H.32a.25.25,0,0,1-.12,0,.31.31,0,0,1-.09-.07.18.18,0,0,1-.06-.09.4.4,0,0,1,0-.25.21.21,0,0,1,.06-.1.31.31,0,0,1,.09-.07l.12,0h.1l.08.05a.15.15,0,0,1,.05.06.16.16,0,0,1,0,.09H.45A.08.08,0,0,0,.44,6555.66Z"/><path d="M.78,6555.67v.08h0a.08.08,0,0,1,0,0l0,0,0,0H.94v.11H.84s0,0,0,0a.05.05,0,0,0,0,0,.13.13,0,0,0,0,.06v.19H.66v-.43Z"/><path d="M1.1,6556a.15.15,0,0,0,.08,0,.07.07,0,0,0,.06,0l0,0h.1a.21.21,0,0,1-.07.11.28.28,0,0,1-.13,0,.15.15,0,0,1-.09,0l-.07,0a.25.25,0,0,1,0-.07.3.3,0,0,1,0-.1.29.29,0,0,1,0-.09.25.25,0,0,1,0-.07l.07-.05h.09a.16.16,0,0,1,.1,0,.12.12,0,0,1,.06.06.2.2,0,0,1,0,.08.28.28,0,0,1,0,.09H1.07A.12.12,0,0,0,1.1,6556Zm.13-.23s0,0-.06,0h0l0,0,0,0v0h.19A.09.09,0,0,0,1.23,6555.77Z"/><path d="M1.47,6555.73l0,0,.07,0h.13l.06,0a.1.1,0,0,1,.05,0,.08.08,0,0,1,0,.06v.28s0,0,0,0H1.73v0l-.06,0H1.52l-.05,0,0,0s0,0,0-.06,0,0,0-.06l0,0,0,0h.16l0,0s0,0,0,0a0,0,0,0,0,0,0H1.59s0,0,0,.05H1.45A.08.08,0,0,1,1.47,6555.73Zm.23.17H1.57s0,0,0,0a0,0,0,0,0,0,0s0,0,0,0a0,0,0,0,0,0,0h.11l0,0s0,0,0,0v-.07Z"/><path d="M2.17,6555.67v.08H2.08v.21s0,0,0,0h.08v.09H2l0,0s0,0,0,0a.07.07,0,0,1,0-.05v-.25H1.89v-.08H2v-.13h.12v.13Z"/><path d="M2.35,6556a.15.15,0,0,0,.08,0,.07.07,0,0,0,.06,0l0,0h.1a.21.21,0,0,1-.07.11.28.28,0,0,1-.13,0,.15.15,0,0,1-.09,0l-.07,0a.25.25,0,0,1,0-.07.3.3,0,0,1,0-.1.29.29,0,0,1,0-.09.25.25,0,0,1,0-.07l.07-.05h.09a.16.16,0,0,1,.1,0,.12.12,0,0,1,.06.06.2.2,0,0,1,0,.08.28.28,0,0,1,0,.09H2.32A.12.12,0,0,0,2.35,6556Zm.13-.23s0,0-.06,0h0l0,0a3512081876.38,3512081876.38,0,0,1,0,.06h.19A.09.09,0,0,0,2.48,6555.77Z"/><path d="M3,6556a.13.13,0,0,1-.06.05.1.1,0,0,1-.07,0l-.09,0-.06-.05a.16.16,0,0,1,0-.07s0-.06,0-.09,0-.06,0-.08a.16.16,0,0,1,0-.07l.06,0a.11.11,0,0,1,.08,0H3a.12.12,0,0,1,0,.05H3v-.22h.12v.6H3V6556Zm0-.21a.08.08,0,0,0,0,0s0,0,0,0H2.86l0,0s0,0,0,0a.11.11,0,0,0,0,.05.07.07,0,0,0,0,.05s0,0,0,0,0,0,0,0H3s0,0,0,0a.08.08,0,0,0,0,0,.43.43,0,0,0,0-.05A.43.43,0,0,1,3,6555.83Z"/><path d="M3.56,6555.5v.22h0l.06-.05h.14l.06,0a.16.16,0,0,1,0,.07.3.3,0,0,1,0,.1.36.36,0,0,1,0,.11.25.25,0,0,1,0,.07l-.06,0H3.61s0,0,0-.06h0v.06H3.44v-.6Zm.19.33a.08.08,0,0,0,0,0,0,0,0,0,0,0,0H3.61s0,0,0,0,0,0,0,0v.11s0,0,0,0l0,0H3.7s0,0,0,0a.08.08,0,0,0,0,0,.13.13,0,0,0,0-.06A.11.11,0,0,0,3.75,6555.83Z"/><path d="M4.11,6556.23l-.09,0H3.94v-.1H4s0,0,0,0,0,0,0,0a0,0,0,0,0,0,0l-.15-.4H4l.1.29h0l.09-.29h.12l-.18.48A.16.16,0,0,1,4.11,6556.23Z"/><path d="M4.62,6555.68a.33.33,0,0,1,.06-.1.31.31,0,0,1,.09-.07l.12,0,.13,0,.09.07.06.1a.4.4,0,0,1,0,.25l-.06.09-.09.07a.27.27,0,0,1-.13,0,.25.25,0,0,1-.12,0,.31.31,0,0,1-.09-.07s0-.06-.06-.09a.4.4,0,0,1,0-.25Zm.12.2,0,.06a.12.12,0,0,0,.05.05H5a.12.12,0,0,0,0-.05l0-.06s0-.05,0-.08,0-.05,0-.07l0-.07a.1.1,0,0,0,0,0l-.08,0-.07,0a.1.1,0,0,0-.05,0l0,.07s0,.05,0,.07S4.74,6555.85,4.74,6555.88Z"/><path d="M5.39,6555.5v.6H5.27v-.6Z"/><path d="M5.61,6556l.07,0s.05,0,.06,0l0,0h.1a.23.23,0,0,1-.08.11.21.21,0,0,1-.12,0s-.07,0-.09,0l-.07,0,0-.07a.31.31,0,0,1,0-.1.28.28,0,0,1,0-.09l0-.07.07-.05h.09a.19.19,0,0,1,.16.08.2.2,0,0,1,0,.08.28.28,0,0,1,0,.09H5.58A.12.12,0,0,0,5.61,6556Zm.13-.23s0,0-.07,0h0l0,0s0,0,0,0v0h.19Z"/><path d="M6.09,6555.5v.32l.15-.15h.14l-.17.16.18.27H6.25l-.12-.19,0,0v.15H6v-.6Z"/><path d="M6.54,6556a0,0,0,0,0,0,0,0,0,0,0,0,0,0h.09s0,0,0,0a0,0,0,0,0,0,0s0,0,0,0l-.1,0h0l0,0s0,0,0,0a.07.07,0,0,1,0-.05.13.13,0,0,1,0-.06l0,0,.06,0h.14l.06,0,0,0a.14.14,0,0,1,0,.06H6.69s0,0,0,0H6.55s0,0,0,0,0,0,0,0,0,0,0,0h.14l0,0,0,0a.07.07,0,0,1,0,.05.15.15,0,0,1,0,.07.12.12,0,0,1,0,.05l-.06,0H6.54l-.06,0a.1.1,0,0,1,0-.05.08.08,0,0,1,0-.07h.11A0,0,0,0,0,6.54,6556Z"/><path d="M6.9,6555.73a.1.1,0,0,1,0,0l.06,0h.14l.06,0a.08.08,0,0,1,0,0,.08.08,0,0,1,0,.06v.28l0,0H7.17v0l-.07,0H7l0,0s0,0,0,0a.19.19,0,0,1,0-.12l0,0,0,0h.15l0,0s0,0,0,0v0H7a.08.08,0,0,0,0,.05H6.88A.14.14,0,0,1,6.9,6555.73Zm.23.17H7s0,0,0,0,0,0,0,0a0,0,0,0,0,0,0,0,0,0,0,0,0,0h.1l0,0a0,0,0,0,0,0,0v-.07Z"/><path d="M7.48,6555.67v.06h0s0,0,.06-.06h.15a.08.08,0,0,1,0,0s0,0,0,.05,0,.05,0,.07v.27H7.65v-.24a.13.13,0,0,0,0-.08.06.06,0,0,0-.06,0,.09.09,0,0,0-.07,0,.2.2,0,0,0,0,.09v.23H7.36v-.43Z"/><path d="M8.16,6556a.08.08,0,0,1-.05.05.11.11,0,0,1-.08,0l-.08,0a.1.1,0,0,1-.06-.05.16.16,0,0,1,0-.07.28.28,0,0,1,0-.09.19.19,0,0,1,0-.08.16.16,0,0,1,0-.07.1.1,0,0,1,.06,0,.11.11,0,0,1,.08,0H8.1s0,0,.06.05h0v-.22h.12v.6H8.16V6556Zm0-.21s0,0,0,0l0,0H8l0,0s0,0,0,0v.1l0,0,0,0h.1l0,0s0,0,0,0v-.1Z"/><path d="M8.48,6555.67v.08h0s0,0,0,0l0,0,0,0h.07v.11H8.55s0,0,0,0a.05.05,0,0,0,0,0s0,0,0,.06v.19H8.37v-.43Z"/><path d="M9.2,6555.5l.1,0,.06,0a.21.21,0,0,1,0,.06.22.22,0,0,1,0,.08.2.2,0,0,1,0,.07.21.21,0,0,1,0,.06l-.06,0-.1,0H9.07v.21H8.93v-.6Zm0,.28h.08s0,0,0,0a.06.06,0,0,0,0,0,.07.07,0,0,0,0-.05l0,0H9.07v.17Z"/><path d="M9.49,6555.73l0,0,.06,0h.14l.06,0a.1.1,0,0,1,0,0s0,0,0,.06v.22s0,0,0,.06,0,0,0,0H9.76v0l-.07,0H9.55l-.05,0,0,0a.19.19,0,0,1,0-.12l0,0,0,0H9.7l0,0a0,0,0,0,0,0,0s0,0,0,0h0s0,0,0,0H9.61a.08.08,0,0,0,0,.05H9.47A.14.14,0,0,1,9.49,6555.73Zm.24.17H9.6l0,0v.05s0,0,0,0h.1s0,0,0,0a0,0,0,0,0,0,0v-.07Z"/><path d="M10.07,6555.67v.06h0a.34.34,0,0,1,.06-.06h.15a.1.1,0,0,1,.05,0,.08.08,0,0,1,0,.05.17.17,0,0,1,0,.07v.27h-.12v-.24s0-.07,0-.08a.09.09,0,0,0-.06,0s-.06,0-.07,0a.12.12,0,0,0,0,.09v.23H10v-.43Z"/><path d="M10.47,6555.73l0,0,.07,0h.13l.06,0a.1.1,0,0,1,.05,0,.08.08,0,0,1,0,.06v.28s0,0,0,0h-.12v0s0,0-.06,0h-.14a.05.05,0,0,1,0,0,.08.08,0,0,1,0,0s0,0,0-.06a.14.14,0,0,1,0-.06.05.05,0,0,1,0,0l0,0h.15l0,0s0,0,0,0a0,0,0,0,0,0,0h-.12s0,0,0,.05h-.11A.08.08,0,0,1,10.47,6555.73Zm.23.17h-.13s0,0,0,0a0,0,0,0,0,0,0s0,0,0,0a0,0,0,0,0,0,0h.11l0,0s0,0,0,0v-.07Z"/><path d="M11,6556a0,0,0,0,0,0,0l0,0h.08a0,0,0,0,0,0,0s0,0,0,0,0,0,0,0l-.09,0H11l0,0,0,0a.07.07,0,0,1,0-.05.13.13,0,0,1,0-.06l.05,0,.06,0h.13l.06,0,0,0s0,0,0,.06h-.12a.05.05,0,0,0,0,0H11v0s0,0,0,0l0,0h.14l0,0,0,0a.43.43,0,0,1,0,.05.14.14,0,0,1,0,.07l0,.05-.07,0H11l-.07,0,0-.05a.14.14,0,0,1,0-.07H11A0,0,0,0,0,11,6556Z"/><path d="M11.38,6555.79a.16.16,0,0,1,0-.07l.07-.05h.19a.18.18,0,0,1,.07.05.16.16,0,0,1,0,.07.29.29,0,0,1,0,.09.3.3,0,0,1,0,.1.16.16,0,0,1,0,.07l-.07,0a.15.15,0,0,1-.09,0,.16.16,0,0,1-.1,0l-.07,0a.16.16,0,0,1,0-.07.3.3,0,0,1,0-.1A.29.29,0,0,1,11.38,6555.79Zm.11.14a.43.43,0,0,0,0,0l0,0h.1l0,0s0,0,0,0v-.1s0,0,0,0l0,0h-.1l0,0s0,0,0,0a.11.11,0,0,0,0,.05A.07.07,0,0,0,11.49,6555.93Z"/><path d="M12,6556.1l-.14-.43H12l.09.29h0l.09-.29h.12l-.15.43Z"/><path d="M12.42,6556a0,0,0,0,0,0,0l0,0h.08a0,0,0,0,0,0,0s0,0,0,0,0,0,0,0l-.09,0h0l-.05,0,0,0a.07.07,0,0,1,0-.05.13.13,0,0,1,0-.06l0,0,.06,0h.13l.06,0,.05,0s0,0,0,.06h-.12a.05.05,0,0,0,0,0h-.12v0s0,0,0,0l0,0h.14l.05,0,0,0a.43.43,0,0,1,0,.05.14.14,0,0,1,0,.07l0,.05-.07,0h-.14l-.07,0,0-.05a.14.14,0,0,1,0-.07h.11A0,0,0,0,0,12.42,6556Z"/><path d="M12.9,6555.5v.32l.15-.15h.14l-.17.16.18.27h-.14l-.12-.19,0,0v.15h-.12v-.6Z"/><path d="M13.4,6556.23l-.09,0h-.07v-.1h.07s0,0,0,0a0,0,0,0,0,0,0v0l-.15-.4h.12l.1.29h0l.1-.29h.12l-.18.48A.12.12,0,0,1,13.4,6556.23Z"/><path d="M13.68,6555.6v-.1h.12v.1Zm.12.07v.43h-.12v-.43Z"/></g><g style="isolation:isolate"><path d="M0,6556.58v-.08H.07v0a.1.1,0,0,1,0-.09.12.12,0,0,1,.1,0H.28v.09H.2s0,0,0,0v0H.27v.08H.19v.35H.07v-.35Z"/><path d="M.44,6556.5v.08h0s0,0,0,0,0,0,0,0l0,0H.6v.11H.5l0,0a.08.08,0,0,0,0,0,.07.07,0,0,0,0,.05v.19H.32v-.43Z"/><path d="M.63,6556.63a.56.56,0,0,1,.05-.08l.07,0,.09,0,.09,0,.07,0a.22.22,0,0,1,.05.08.22.22,0,0,1,0,.09.28.28,0,0,1,0,.09.18.18,0,0,1-.05.07.18.18,0,0,1-.07.05H.75a.18.18,0,0,1-.07-.05l-.05-.07a.28.28,0,0,1,0-.09A.22.22,0,0,1,.63,6556.63Zm.11.14,0,0s0,0,0,0l0,0,.05,0a0,0,0,0,0,0,0,.05.05,0,0,0,0,0s0,0,0-.05a.43.43,0,0,0,0-.05s0,0,0-.05,0,0,0,0H.79l0,0,0,.05v.1Z"/><path d="M1.26,6556.5v.06h0a.12.12,0,0,1,.05-.05l.08,0,.07,0s0,0,.06.05,0,0,.05-.05l.08,0h.06a.05.05,0,0,1,.05,0l0,0a.19.19,0,0,1,0,.08v.28H1.68v-.28a0,0,0,0,0,0,0s0,0,0,0H1.57s0,0,0,0a0,0,0,0,0,0,0,.08.08,0,0,0,0,0v.24H1.41v-.31l0,0h-.1l0,0s0,0,0,.05v.25H1.14v-.43Z"/><path d="M2.36,6556.5v.08H2.28v.21s0,0,0,0,0,0,0,0h0v.09H2.2l0,0a.07.07,0,0,1,0-.05v-.26H2.09v-.08h.07v-.13h.12v.13Z"/><path d="M2.54,6556.34v.22h0l.06-.05.07,0h.08a.08.08,0,0,1,0,0s0,0,0,.06,0,0,0,.07v.26H2.71v-.24a.15.15,0,0,0,0-.08.06.06,0,0,0-.06,0,.09.09,0,0,0-.07,0,.22.22,0,0,0,0,.1v.22H2.42v-.59Z"/><path d="M3,6556.83a.11.11,0,0,0,.08,0l.06,0a.05.05,0,0,0,0,0h.11a.24.24,0,0,1-.08.11.24.24,0,0,1-.12,0H3l-.07-.05a.43.43,0,0,1,0-.07.41.41,0,0,1,0-.18.26.26,0,0,1,.12-.12l.09,0,.09,0,.07.06a.2.2,0,0,1,0,.08.33.33,0,0,1,0,.1H3S3,6556.81,3,6556.83Zm.14-.23-.07,0h0l0,0s0,0,0,0,0,0,0,0h.2Z"/><path d="M3.77,6556.34l.25.4H4v-.4h.12v.59H4l-.25-.39h0v.39H3.64v-.59Z"/><path d="M4.25,6556.63a.2.2,0,0,1,0-.08l.07,0,.09,0,.09,0a.2.2,0,0,1,.08,0,.59.59,0,0,1,0,.08.2.2,0,0,1,0,.09.29.29,0,0,1,0,.09.43.43,0,0,1,0,.07l-.08.05H4.36a.18.18,0,0,1-.07-.05.16.16,0,0,1,0-.07.29.29,0,0,1,0-.09A.2.2,0,0,1,4.25,6556.63Zm.1.14,0,0s0,0,0,0l0,0,0,0s0,0,0,0,0,0,0,0a.09.09,0,0,0,0-.05.07.07,0,0,0,0-.05s0,0,0-.05l0,0H4.4l0,0,0,.05v.1Z"/><path d="M5,6556.93v-.06H5a.09.09,0,0,1-.06.06H4.83l0,0a.14.14,0,0,1,0-.06s0-.05,0-.07v-.27h.12v.25a.19.19,0,0,0,0,.08.08.08,0,0,0,.06,0,.09.09,0,0,0,.07,0,.2.2,0,0,0,0-.09v-.23h.12v.43Z"/><path d="M5.36,6556.5v.06h0l.06-.05.07,0h.08a.1.1,0,0,1,0,0,.08.08,0,0,1,0,.06.15.15,0,0,1,0,.07v.26H5.53v-.24a.17.17,0,0,0,0-.08.06.06,0,0,0-.06,0s-.06,0-.07,0,0,.05,0,.1v.22H5.25v-.43Z"/><path d="M6.25,6556.34h.1s.05,0,.06,0l0,.06a.15.15,0,0,1,0,.07.17.17,0,0,1,0,.07.21.21,0,0,1,0,.06.09.09,0,0,1-.06,0l-.1,0H6.12v.21H6v-.59Zm0,.28h0l0,0a0,0,0,0,0,0,0,.13.13,0,0,0,0-.1l0,0,0,0H6.12v.18Z"/><path d="M6.64,6556.5v.08h0l0,0s0,0,0,0a.05.05,0,0,1,0,0h.07v.11h-.1l0,0s0,0,0,0v.24H6.53v-.43Z"/><path d="M6.84,6556.63a.22.22,0,0,1,0-.08l.07,0,.09,0,.09,0,.07,0a.22.22,0,0,1,0,.08.22.22,0,0,1,0,.09.28.28,0,0,1,0,.09.26.26,0,0,1-.12.12H7a.26.26,0,0,1-.12-.12.28.28,0,0,1,0-.09A.22.22,0,0,1,6.84,6556.63Zm.11.14a.05.05,0,0,0,0,0,0,0,0,0,0,0,0l0,0,0,0s0,0,0,0a.05.05,0,0,0,0,0v-.1s0,0,0-.05l0,0H7s0,0,0,0,0,0,0,.05a.43.43,0,0,0,0,.05S7,6556.75,7,6556.77Z"/><path d="M7.31,6557h0a.1.1,0,0,0,0,0v-.45h.12v.45s0,.05,0,.06a.05.05,0,0,1,0,0l0,0H7.29v-.1S7.3,6557,7.31,6557Zm.05-.55v-.1h.12v.1Z"/><path d="M7.71,6556.83a.08.08,0,0,0,.07,0l.06,0s0,0,0,0H8a.19.19,0,0,1-.08.11.21.21,0,0,1-.12,0H7.69a.26.26,0,0,1-.12-.12.41.41,0,0,1,0-.18l0-.07a.18.18,0,0,1,.07-.05l.09,0,.1,0,.06.06a.2.2,0,0,1,0,.08.31.31,0,0,1,0,.1H7.68A.1.1,0,0,0,7.71,6556.83Zm.13-.23-.06,0h0l0,0,0,0v0h.19Z"/><path d="M8.26,6556.58h0s0,0,0,0a.08.08,0,0,0,0,0s0,0,0,.05,0,0,0,.05,0,0,0,0l0,0,0,0a.09.09,0,0,0,.07,0l0-.06h.11a.19.19,0,0,1-.07.13.2.2,0,0,1-.14,0H8.17l-.07-.05a.43.43,0,0,1,0-.07.2.2,0,0,1,0-.09.29.29,0,0,1,0-.09.16.16,0,0,1,0-.07.18.18,0,0,1,.07-.05l.1,0h.07l.06,0a.12.12,0,0,1,0,.05.19.19,0,0,1,0,.07H8.35A.08.08,0,0,0,8.26,6556.58Z"/><path d="M8.77,6556.5v.08H8.69v.21s0,0,0,0,0,0,0,0h0v.09H8.61l0,0a.07.07,0,0,1,0-.05v-.26H8.5v-.08h.07v-.13h.12v.13Z"/></g></g></g></svg>