<svg xmlns="http://www.w3.org/2000/svg" 
    xmlns:xlink="http://www.w3.org/1999/xlink" version="1.1" x="0px" y="0px" viewBox="0 0 52 65" enable-background="new 0 0 52 52" xml:space="preserve">
    <g>
        <g>
            <path d="M8.3338823,4.4174175c6.5535173-0.0093703,13.1070356-0.0187407,19.660553-0.0281105    c3.2767582-0.0046854,6.5535183-0.0093703,9.8302746-0.0140553c2.8584518-0.004087,6.332489,4.2882528,8.2392044,6.1599808    c2.9221458,2.8685246,1.9813042,7.6541691,1.9590683,11.349268c-0.0188179,3.1270981-0.0376358,6.2541943-0.0564575,9.3812923    c-0.0188179,3.1270981-0.0376358,6.2541924-0.0564537,9.3812904c-0.0112915,1.8762589-0.022583,3.7525177-0.0338745,5.6287766    c-0.0132828,2.2068405-4.9004517,1.5646591-5.9744339,1.5685806c-6.3511391,0.0231972-12.7022762,0.0463943-19.0534134,0.0695915    c-3.1755676,0.0115967-6.3511353,0.0231972-9.5267048,0.0347939c-1.9053411,0.006958-3.8106823,0.0139198-5.7160234,0.0208778    c-3.1265893,0.0114212-3.4995956-2.0967445-3.5072289-4.7994041c-0.0183711-6.5047874-0.0367427-13.0095768-0.0551143-19.5143681    c-0.0091853-3.2523937-0.0183711-6.5047894-0.0275569-9.757184c-0.0055113-1.951437-0.0110226-3.902874-0.0165341-5.85431    C3.9896843,4.679419,6.14081,4.4963117,9.1664228,4.3177714c1.6019764-0.0945325,1.6111755-2.5950751,0-2.5    C7.0731311,1.9412959,3.8922105,1.8567636,2.2840788,3.4648952C0.4730766,5.2758975,1.5041325,9.7951126,1.510211,11.9473104    c0.0293941,10.4076643,0.0587883,20.8153267,0.0881824,31.2229881c0.0203478,7.2045975,3.2858891,7.3093452,9.8179111,7.2854843    c10.1618185-0.0371132,20.3236389-0.0742302,30.4854584-0.1113434c1.7843018-0.0065193,5.4486542,0.6486893,7.0006485-0.7722397    c2.0552063-1.881649,1.4804459-4.4032707,1.4963684-7.0488586c0.0301094-5.0033569,0.0602188-10.0067101,0.0903282-15.010067    c0.0256004-4.253603,0.6621971-9.0221882-0.0058403-13.2233553c-0.5252342-3.3031168-2.1795311-5.1873779-4.6319427-7.3765893    c-1.600811-1.4290061-4.0230217-4.5880146-6.3695564-4.8518009C29.3297863,0.9202933,18.5547409,1.9028037,8.3338823,1.9174174    C6.721827,1.9197223,6.7216034,4.4197226,8.3338823,4.4174175L8.3338823,4.4174175z"/>
        </g>
        <g>
            <path d="M12.586772,3.3099885c-0.0027418,3.201405-0.0054827,6.4028106-0.0082235,9.6042156    c-0.0013762,1.6060476-0.4733248,4.2616405,0.4184761,5.7840405c0.3799801,0.6486664,1.2708092,1.1588364,2.0084457,1.2350082    c3.5255699,0.3640652,7.1569843,0.1594124,10.7010193,0.1805439c3.167078,0.0188828,6.334156,0.0377655,9.5012321,0.0566483    c0.9316216,0.0055542,2.6748009-0.1899834,3.1352425-1.2076035c1.8594055-4.1094494,0.7355919-10.3706999,0.8080635-14.8201256    c0.0262718-1.6130164-2.4737701-1.6104693-2.5,0c-0.0580826,3.5660319-0.1161652,7.1320643-0.1742477,10.6980972    c-0.0712166,4.3724947-5.6227741,2.8036737-8.8700428,2.7843142c-3.8004932-0.0226593-7.6009865-0.0453186-11.4014797-0.0679779    c-1.88867-0.011261-1.1197414-12.7800207-1.1184855-14.24716C15.0881519,1.6977524,12.5881519,1.6978862,12.586772,3.3099885    L12.586772,3.3099885z"/>
        </g>
        <g>
            <path d="M12.7665281,48.5601273c0.1324844-3.9662056,0.2649689-7.9324112,0.3974533-11.8986168    c0.0807314-2.4169006-0.9327822-3.941185,1.8866138-4.016449c2.5870867-0.0690575,5.1748571-0.1085777,7.7625761-0.1438789    c3.5896416-0.0489655,14.0667267-1.7059822,15.8534775,2.6048889c1.3937492,3.3626823,0.2490616,9.4863968,0.2329712,13.1221886    c0.7764435-0.2103004,1.5528908-0.4205971,2.3293381-0.6308975c-0.1565285-0.3074455-0.3130531-0.6148911-0.4695816-0.9223366    c-0.7316246-1.4370346-2.8884048-0.1715164-2.1586761,1.2617989c0.1565247,0.3074455,0.3130531,0.6148911,0.4695778,0.9223366    c0.5795822,1.1383934,2.3240433,0.5659332,2.3293419-0.6309013c0.0195045-4.4070473,1.3977814-11.2976799-0.9453125-15.2845612    c-2.7631989-4.7017117-8.9748363-2.9949169-13.7593079-2.9764729c-3.8820019,0.0149651-7.763546,0.0869083-11.6444044,0.1778374    c-0.9956274,0.0233269-2.9442863-0.2420979-3.6677284,0.8053722c-1.0881643,1.5755501-0.6585064,3.903492-0.7188854,5.7110748    c-0.1324844,3.9662056-0.2649689,7.9324112-0.3974533,11.8986168    C10.2126493,50.173111,12.7128239,50.1678925,12.7665281,48.5601273L12.7665281,48.5601273z"/>
        </g>
        <g>
            <path d="M17.833231,38.493576c5.4738159-0.0787239,10.9451466-0.0360909,16.4170704,0.1279297    c1.6130676,0.0483513,1.6083832-2.4517899,0-2.5c-5.4719238-0.1640205-10.9432545-0.2066536-16.4170704-0.1279297    C16.2225189,36.0167427,16.2202682,38.516777,17.833231,38.493576L17.833231,38.493576z"/>
        </g>
        <g>
            <path d="M18.1662846,44.5597c5.2777786,0,10.5555553,0,15.833334,0c1.6121712,0,1.6121712-2.5,0-2.5    c-5.2777786,0-10.5555553,0-15.833334,0C16.5541134,42.0597,16.5541134,44.5597,18.1662846,44.5597L18.1662846,44.5597z"/>
        </g>
        <g>
            <path d="M27.6663895,8.3997622c0.8322659-0.0051403,1.6645317-0.0102816,2.4967976-0.0154228    c0.7541943-0.0046587,1.2901859-0.1795826,1.2700653,0.7369461c-0.0187531,0.8541451-0.0366497,1.7043085-0.0235996,2.5588627    c0.0135269,0.8855705,0.3709354,2.1684408,0.0596008,3.0057468c0.1914825-0.2490129,0.3829651-0.4980259,0.5744476-0.7470388    c-0.5844631,0.363575-1.809412,0.2034426-2.4733181,0.2173281c-0.7525978,0.0157404-1.6711063,0.1061182-2.3972454-0.1290207    c0.2910175,0.2910166,0.5820332,0.5820332,0.8730488,0.8730488c-0.2974796-1.1334896-0.0928993-2.5799589-0.1113205-3.7478552    c-0.0119362-0.7566986-0.3912315-2.6989594,0.0625381-3.3051615c-0.249012,0.1914835-0.4980259,0.382967-0.7470379,0.5744495    c0.0844841-0.0239429,0.1689682-0.0478859,0.2534542-0.0718298c1.5485039-0.4388533,0.8896809-2.8511877-0.6646004-2.4106975    c-1.0410194,0.2950301-1.374609,1.1116848-1.4531021,2.1226182c-0.1413631,1.8206196,0.0589294,3.7360954,0.0877457,5.563118    c0.0219078,1.3889341-0.0528259,2.4608507,1.4203796,2.9379053c1.4268703,0.4620514,3.5444145,0.0905361,5.0180111-0.0142517    c1.0431023-0.0741749,2.1753044-0.6959782,2.1496658-1.8996162c-0.0393906-1.8492279-0.1912308-3.6732626-0.1286697-5.527606    c0.1279488-3.7923722-3.5288754-3.2384357-6.266861-3.2215228C26.0547638,5.9097176,26.0537968,8.4097233,27.6663895,8.3997622    L27.6663895,8.3997622z"/>
        </g>
    </g>
</svg>