<svg xmlns="http://www.w3.org/2000/svg" 
    xmlns:xlink="http://www.w3.org/1999/xlink" version="1.1" x="0px" y="0px" viewBox="0 0 96 120" enable-background="new 0 0 96 96" xml:space="preserve">
    <path d="M48,4.75C24.152,4.75,4.75,24.152,4.75,48S24.152,91.25,48,91.25S91.25,71.848,91.25,48S71.848,4.75,48,4.75z   M40.655,72.885c0,1.24-1.009,2.249-2.249,2.249s-2.249-1.009-2.249-2.249s1.009-2.249,2.249-2.249S40.655,71.645,40.655,72.885z   M71.835,60.893c0,0.909-0.739,1.648-1.648,1.648H25.813c-0.909,0-1.648-0.739-1.648-1.648v-0.6c0-0.909,0.739-1.649,1.648-1.649  h44.374c0.909,0,1.648,0.74,1.648,1.649V60.893z M59.843,72.885c0,1.24-1.009,2.249-2.249,2.249s-2.249-1.009-2.249-2.249  s1.009-2.249,2.249-2.249S59.843,71.645,59.843,72.885z M48,70.636c1.24,0,2.249,1.009,2.249,2.249S49.24,75.134,48,75.134  s-2.249-1.009-2.249-2.249S46.76,70.636,48,70.636z M52.367,47.25l8.336-16.527l-1.628-5.604l-5.399,2.208L44.375,47.25H11.891  C12.293,27.675,28.33,11.872,48,11.872S83.707,27.675,84.109,47.25H52.367z"/>
</svg>