<svg xmlns="http://www.w3.org/2000/svg" 
    xmlns:xlink="http://www.w3.org/1999/xlink" version="1.1" x="0px" y="0px" viewBox="0 0 100 125" enable-background="new 0 0 100 100" xml:space="preserve">
    <g>
        <path d="M36.467,73.086c-1.109,0-2.257-0.063-3.41-0.188l-0.507-0.056l-1.042-6.162c-1.965-0.388-3.867-1.003-5.667-1.832   l-4.457,4.365l-0.441-0.254c-1.997-1.145-3.854-2.491-5.521-4.007l-0.377-0.343l2.781-5.601c-1.357-1.469-2.535-3.083-3.506-4.812   l-6.176,0.913l-0.209-0.464c-0.946-2.097-1.658-4.278-2.114-6.486l-0.103-0.498l5.543-2.898c-0.118-1.007-0.179-2.006-0.179-2.976   c0-0.969,0.061-1.969,0.179-2.975l-5.543-2.897l0.103-0.498c0.456-2.208,1.168-4.39,2.114-6.487l0.209-0.463l6.176,0.913   c0.971-1.728,2.147-3.342,3.506-4.812l-2.781-5.602l0.376-0.341c1.665-1.515,3.522-2.863,5.521-4.007l0.441-0.253l4.458,4.366   c1.799-0.83,3.701-1.445,5.666-1.834l1.042-6.161l0.507-0.055c2.308-0.25,4.512-0.25,6.82,0l0.507,0.055l1.042,6.161   c1.965,0.389,3.867,1.004,5.666,1.834l4.458-4.366l0.441,0.253c1.999,1.145,3.856,2.492,5.522,4.007l0.376,0.341l-2.781,5.602   c1.358,1.471,2.535,3.086,3.504,4.812l6.176-0.913l0.21,0.463c0.946,2.097,1.656,4.279,2.114,6.487l0.103,0.498l-5.544,2.897   c0.118,1.007,0.179,2.006,0.179,2.975c0,0.97-0.061,1.969-0.179,2.976l5.544,2.898l-0.103,0.498   c-0.458,2.208-1.168,4.39-2.114,6.486l-0.21,0.463l-6.176-0.913c-0.97,1.728-2.146,3.342-3.506,4.813l2.782,5.601l-0.376,0.343   c-1.667,1.516-3.523,2.862-5.521,4.007l-0.441,0.254l-4.458-4.366c-1.799,0.829-3.701,1.445-5.666,1.833l-1.042,6.162l-0.507,0.056   C38.724,73.022,37.576,73.086,36.467,73.086z M33.707,71.609c1.869,0.174,3.65,0.174,5.52,0l1.028-6.082l0.466-0.083   c2.169-0.387,4.26-1.064,6.214-2.011l0.426-0.208l4.4,4.311c1.599-0.95,3.097-2.038,4.468-3.241l-2.746-5.529l0.328-0.343   c1.523-1.589,2.817-3.365,3.845-5.277l0.224-0.417l6.097,0.901c0.736-1.705,1.311-3.466,1.711-5.246l-5.473-2.861l0.063-0.469   c0.15-1.106,0.227-2.205,0.227-3.265c0-1.059-0.076-2.158-0.227-3.265l-0.063-0.468l5.473-2.861   c-0.4-1.781-0.975-3.541-1.711-5.246l-6.097,0.901l-0.224-0.417c-1.027-1.913-2.321-3.689-3.845-5.278l-0.328-0.341l2.747-5.531   c-1.371-1.203-2.869-2.291-4.469-3.241l-4.4,4.31l-0.426-0.207c-1.954-0.947-4.045-1.625-6.214-2.012l-0.466-0.083l-1.028-6.083   c-1.869-0.172-3.65-0.172-5.52,0l-1.028,6.083l-0.467,0.083c-2.167,0.387-4.258,1.064-6.213,2.011l-0.427,0.207l-4.4-4.309   c-1.598,0.951-3.098,2.039-4.467,3.241l2.746,5.531l-0.328,0.341c-1.523,1.587-2.816,3.363-3.845,5.278l-0.224,0.417L8.958,29.95   c-0.736,1.706-1.311,3.465-1.712,5.246l5.474,2.861l-0.063,0.468c-0.15,1.106-0.227,2.205-0.227,3.265   c0,1.061,0.076,2.159,0.227,3.265l0.063,0.469l-5.474,2.861c0.401,1.78,0.976,3.541,1.712,5.246l6.097-0.9l0.224,0.416   c1.028,1.916,2.322,3.691,3.845,5.277l0.328,0.341l-2.746,5.531c1.371,1.203,2.869,2.291,4.467,3.241l4.4-4.309l0.426,0.206   c1.955,0.946,4.045,1.624,6.214,2.011l0.467,0.083L33.707,71.609z M36.467,55.756c-7.701,0-13.965-6.266-13.965-13.966   c0-7.7,6.264-13.965,13.965-13.965S50.432,34.09,50.432,41.79C50.432,49.49,44.168,55.756,36.467,55.756z M36.467,29.17   c-6.959,0-12.619,5.662-12.619,12.62c0,6.959,5.66,12.62,12.619,12.62s12.619-5.661,12.619-12.62   C49.086,34.832,43.426,29.17,36.467,29.17z"/>
    </g>
    <g>
        <path d="M78.146,89.506l-1.661-3.382c-1.095,0.091-2.192,0.063-3.265-0.078l-1.826,3.289l-0.497-0.116   c-1.361-0.322-2.678-0.787-3.912-1.381l-0.457-0.221l0.644-3.715c-0.935-0.568-1.804-1.232-2.594-1.98l-3.412,1.589l-0.333-0.384   c-0.913-1.059-1.708-2.208-2.357-3.417l-0.24-0.448l2.706-2.626c-0.212-0.51-0.397-1.026-0.551-1.537   c-0.152-0.515-0.278-1.048-0.38-1.59l-3.7-0.723l-0.043-0.505c-0.116-1.366-0.081-2.762,0.107-4.15l0.068-0.504l3.728-0.534   c0.253-1.057,0.617-2.088,1.091-3.075l-2.57-2.76l0.264-0.434c0.709-1.174,1.559-2.281,2.524-3.295l0.352-0.367l3.326,1.756   c0.824-0.705,1.726-1.326,2.692-1.849l-0.457-3.738l0.468-0.196c0.646-0.271,1.305-0.508,1.957-0.702   c0.649-0.193,1.33-0.354,2.021-0.48l0.501-0.092L74,55.24c1.092-0.087,2.188-0.062,3.263,0.08l1.826-3.289l0.496,0.116   c1.362,0.321,2.679,0.785,3.913,1.38l0.459,0.221l-0.645,3.715c0.936,0.569,1.804,1.233,2.593,1.98l3.413-1.589l0.332,0.385   c0.913,1.056,1.706,2.205,2.357,3.415l0.24,0.448l-2.707,2.627c0.214,0.51,0.397,1.025,0.551,1.538   c0.152,0.516,0.28,1.048,0.381,1.59l3.7,0.722l0.043,0.506c0.116,1.367,0.08,2.765-0.108,4.15l-0.067,0.504l-3.728,0.532   c-0.253,1.056-0.618,2.088-1.09,3.077l2.568,2.758l-0.263,0.436c-0.708,1.171-1.557,2.278-2.524,3.293l-0.351,0.369l-3.327-1.757   c-0.819,0.704-1.723,1.324-2.691,1.849l0.457,3.739l-0.47,0.197c-0.648,0.271-1.306,0.506-1.956,0.699   c-0.646,0.192-1.326,0.354-2.021,0.482L78.146,89.506z M77.279,84.688l1.622,3.304c0.474-0.099,0.937-0.218,1.382-0.35   c0.446-0.132,0.898-0.287,1.348-0.462l-0.446-3.653l0.423-0.212c1.164-0.587,2.23-1.319,3.169-2.178l0.349-0.319l3.249,1.717   c0.643-0.713,1.225-1.469,1.734-2.26l-2.51-2.695l0.216-0.421c0.593-1.151,1.023-2.371,1.284-3.624l0.096-0.463l3.641-0.52   c0.102-0.952,0.127-1.906,0.075-2.848l-3.616-0.705l-0.073-0.467c-0.099-0.644-0.24-1.276-0.419-1.882   c-0.179-0.6-0.406-1.206-0.676-1.802l-0.195-0.432l2.645-2.567c-0.471-0.816-1.013-1.603-1.617-2.343l-3.334,1.553l-0.333-0.336   c-0.903-0.908-1.93-1.693-3.055-2.331l-0.411-0.234l0.63-3.631c-0.861-0.384-1.761-0.7-2.687-0.946l-1.783,3.213l-0.469-0.076   c-1.256-0.205-2.559-0.238-3.842-0.093l-0.47,0.053l-1.623-3.305c-0.472,0.101-0.935,0.217-1.383,0.35   c-0.448,0.134-0.9,0.289-1.348,0.462l0.447,3.655l-0.424,0.212c-1.16,0.583-2.227,1.315-3.169,2.176l-0.349,0.319l-3.249-1.716   c-0.643,0.712-1.223,1.469-1.734,2.26l2.51,2.696l-0.216,0.421c-0.593,1.148-1.024,2.367-1.283,3.621l-0.097,0.464l-3.641,0.521   c-0.102,0.953-0.127,1.906-0.075,2.847l3.616,0.706l0.072,0.467c0.1,0.645,0.241,1.277,0.421,1.881   c0.178,0.599,0.405,1.207,0.674,1.803l0.194,0.432l-2.644,2.565c0.471,0.817,1.013,1.603,1.619,2.344l3.334-1.552l0.333,0.335   c0.904,0.909,1.932,1.694,3.054,2.332l0.411,0.233l-0.63,3.632c0.861,0.383,1.762,0.7,2.687,0.945l1.784-3.213l0.467,0.076   c1.254,0.206,2.558,0.237,3.844,0.093L77.279,84.688z M75.237,79.33c-3.794,0-7.2-2.544-8.282-6.184   c-1.359-4.569,1.253-9.392,5.823-10.751c0.805-0.239,1.636-0.359,2.466-0.359c3.796,0,7.201,2.543,8.284,6.184   c1.357,4.568-1.254,9.391-5.823,10.75C76.899,79.208,76.069,79.33,75.237,79.33z M75.244,63.382c-0.701,0-1.402,0.102-2.083,0.305   c-3.857,1.146-6.063,5.218-4.916,9.075c0.914,3.074,3.789,5.222,6.992,5.222c0.702,0,1.403-0.103,2.083-0.306   c3.858-1.146,6.063-5.217,4.917-9.074C81.323,65.529,78.448,63.382,75.244,63.382z"/>
    </g>
</svg>