<svg xmlns="http://www.w3.org/2000/svg" viewBox="0 0 90 53.83"><g id="Layer_2" data-name="Layer 2"><g id="Layer_1-2" data-name="Layer 1"><path d="M44.47,18.42A5.35,5.35,0,0,0,47.18,11c-1.08-2-2.71-2.33-2.92-2.13s.8,1.92.14,2.79a3.39,3.39,0,0,1-2.08,1s-.08-2.88-1.76-3.85c1.59-.58,6.41-1.29,6.25-4C46.72,2.51,42.26-.95,41,.24c-.7.64,1.12,1.19-1.58,2.59-2.26,1.18-7-1.69-15.83-1.25S8.46,4.38,5.92,7.49c-3.68,4.27-1.57,7-1.57,7s-5.06,1-4.26,7.77c.77,6.5,5.07,13.6,9.81,15,5.73,3.13-5,7.57-5,7.57s6.25,4.06,10,3.63c6.28-.24,7.19-1.82,8-5.13.77-5.36-4.23-8.79-5.23-10.51s-1.28-4.35-.36-4.62c1.08.22,5.72,1.75,8.78-1.81s-.53-8-.73-7.94,1.36,3.74-4.3,5.68c-3.08.83-9.63.1-10.75,4.3.06-2.1,2.92-4.26,6.8-4.58s7.77-2.56,7.28-4.85c-.53-2.48-3.55-3.23-3.55-3.23a23.81,23.81,0,0,0,7.52-3.13c3.74-2.7,3.9-4.89,3.9-4.89a21.2,21.2,0,0,1,5,5.92c2.15,4.22.17,7.4,1.13,9.3,1.06,2.74,5.69,3.75,5.93,4,.37,1.51-1.15,2.23-1.73,3.33s0,1.54.09,1.51a2.76,2.76,0,0,1,1.15-2.28c1.07-1,1.19-2.52,1-2.75s-5.41-1.79-5.92-4a14.57,14.57,0,0,1,0-5.07S40.78,20.22,44.47,18.42Z" style="fill-rule:evenodd"/><path d="M32.58,17.65a5.22,5.22,0,0,0-2.38,2.89c.18.11,2.13-2.16,2.48-2.28a7.63,7.63,0,0,1,2.24.68c.46.16,2.34.81,2.47.53S35,16.93,32.58,17.65Z" style="fill-rule:evenodd"/><path d="M39.09,22.18c-.45-.29-2.6.45-2.6.45l-1.34-.93L36,22.93s-2,1.06-2,1.39.34.77,1.49,1.16c.75.25,1.28.07,1.31-.08s-.5-.25-.54-.65,1.21-.9,1.64-1.21S39.36,22.36,39.09,22.18Z" style="fill-rule:evenodd"/><path d="M41.89,39.47c-.16.05.29,1.13-.19,1.64a7.65,7.65,0,0,1-5.39,1.29c-2.8-.27-6.08-1.6-6.13-1.43-.13.44,3.35,1.91,6.15,2s5-.74,5.61-1.51A1.7,1.7,0,0,0,41.89,39.47Z" style="fill-rule:evenodd"/><path d="M30.19,49.91c1.35-.22,8.71-.87,9.67-1.11a19.22,19.22,0,0,0,3.19-1.11l.25-.15h0l5-3a7,7,0,0,0,1.24-.93,1,1,0,0,0,.24-1.11.88.88,0,0,0-1-.48,3.87,3.87,0,0,0-.94.52l-.66.42c-.64.39-1.95,1-2.22,1.12s-.67-.07-.35-.28l5.48-3.61a7.35,7.35,0,0,0,1.27-.95.93.93,0,0,0,.27-1.07.85.85,0,0,0-.94-.44,3.88,3.88,0,0,0-1,.53l-.67.42c-1.59,1-3.43,1.83-3.78,2s-.49-.31-.17-.5l5.43-3.21.62-.38a4.07,4.07,0,0,0,1-.69,1.25,1.25,0,0,0,.23-1.42,1.15,1.15,0,0,0-1.18-.68,4.24,4.24,0,0,0-1.08.6l-.74.48c-1.71,1.07-4.79,2.58-5.42,2.86s-.76-.11-.44-.3l4.2-2.55a7.18,7.18,0,0,0,1.4-1.09l.15-.2,0-.05a1.09,1.09,0,0,0,.08-.15l0,0a.88.88,0,0,0,.05-.15v0a1.37,1.37,0,0,0,0-.16v-.23a.5.5,0,0,1,0-.12v0l0-.06,0,0a.26.26,0,0,0-.07-.1l0-.05-.07-.09,0,0-.1-.09A.79.79,0,0,0,49,32l0,0-.1,0-.05,0-.1,0h-.2l-.14,0-.12,0a1.33,1.33,0,0,0-.56.27l-.47.3-1.2.72c-.33.2-.68.39-1,.59-.62.35-1.31.72-2,1.08l-1.2.62-.16.08a3.3,3.3,0,0,1-.68.31,35.63,35.63,0,0,1-4.45,2l-1.12.25,2.47-3.23a1,1,0,0,0,0-1.24c-.32-.38-1.11-.2-1.17-.18-.31.11-2.08,2.62-2.95,3.24s-3.73,5-4.48,5.83l-1.75,1.6Z"/><circle cx="74.41" cy="26.06" r="0.4" style="fill:none"/><path d="M75,21.27c-2.57.85-3.79,2.84-4,2.58-.54-.22.32-2.81,4-3.57,2-.52,4.06,1.63,3.82,1.76S76.86,20.31,75,21.27Z"/><path d="M73.79,27.61a1.29,1.29,0,0,0,.92-2.28,11.46,11.46,0,0,1,2.3.08,5.71,5.71,0,0,1-1.84,2.36c1.48-.41,3-2.92,2.78-3.27s-2-.73-3.82-.24a4.71,4.71,0,0,0-3.33,2.88,5.9,5.9,0,0,1,2-1.45,1.21,1.21,0,0,0-.16.53A1.29,1.29,0,0,0,73.79,27.61ZM74,26a.39.39,0,0,1,.43-.36.39.39,0,0,1,.36.42.41.41,0,0,1-.43.37A.39.39,0,0,1,74,26Z"/><circle cx="62.37" cy="26.06" r="0.4" style="fill:none"/><path d="M61.79,21.27c2.58.85,3.8,2.84,4,2.58.55-.22-.31-2.81-4-3.57-2-.52-4.06,1.63-3.82,1.76S59.92,20.31,61.79,21.27Z"/><path d="M64.17,26.22a1.38,1.38,0,0,0-.17-.53,5.8,5.8,0,0,1,2,1.45,4.67,4.67,0,0,0-3.32-2.88c-1.87-.49-3.65-.11-3.82.24s1.3,2.86,2.77,3.27a5.88,5.88,0,0,1-1.84-2.36,11.58,11.58,0,0,1,2.31-.08,1.29,1.29,0,1,0,2.1.89Zm-1.75.24a.4.4,0,0,1-.42-.37.38.38,0,0,1,.36-.42.39.39,0,0,1,.43.36A.4.4,0,0,1,62.42,26.46Z"/><circle cx="63.41" cy="26.06" r="0.4" style="fill:none"/><path d="M89.89,47.9c-.63-.34-5.47,1.72-8.23-2.52-1.84-3.35-.75-6.72,1.82-11.53S87,27.33,87,23.25,84.84.41,69,.41,50.65,18,50.65,23.25c0,8.48,7.41,14,5.68,20.55-1.42,5.37-8.45,1.79-12.73,6.26-4.42,4.63,3.25-.39,8.56,1.5s9.11.46,10.21-2.15,1.44-7.92,1.44-7.92a13.49,13.49,0,0,1-4.2-4.38A26.11,26.11,0,0,1,57,31a6.9,6.9,0,0,1-2.79-4.36c-.64-3.33,1.93-3.24,1.93-3.24a9.31,9.31,0,0,1,8-8.21c7.44-1.22,7.73-.87,12-3.54,4.16,2.29,5.21,11.59,5.21,11.59s2.3-.23,2,2.93C82.76,30.77,80.49,31,80.49,31s-.94,5-2.78,6.59S72.83,42,72.83,42s.07,6.2,2,8.14,3.49,3.73,8.58,3.69S90.52,48.23,89.89,47.9Z"/><path d="M63.82,36.36a18.24,18.24,0,0,0,1.48,1.83c.59.55,1.58,1.78,3.06,1.78s2.47-1.23,3.06-1.78a18.24,18.24,0,0,0,1.48-1.83,3.44,3.44,0,0,1-1.51-.6c-.69-.52-1.15-1.08-1.69-1.06a6.23,6.23,0,0,0-1.34.36A6.2,6.2,0,0,0,67,34.7c-.53,0-1,.54-1.68,1.06A3.48,3.48,0,0,1,63.82,36.36Zm1.56.29a12.72,12.72,0,0,1,1.74-.12c.4,0,.95.21,1.24.21s.84-.18,1.24-.21a12.82,12.82,0,0,1,1.74.12c-1.45.82-2,1.59-3,1.59S66.83,37.47,65.38,36.65Z"/><path d="M68.65,44.22c-3.39-.07-5.47-3-5.81-3a3.76,3.76,0,0,1,1,.28c.42.27,2,2.31,4.84,2.31A4.92,4.92,0,0,0,72.83,42a.73.73,0,0,1,.91-.08A7.41,7.41,0,0,1,68.65,44.22Z"/><path d="M42.89,32.24a4,4,0,0,0-2.19,1.31c-.79.81-1.87,1.37-2,1.55a1.5,1.5,0,0,0,.36,1l.84-.34c.61-.24,1.05-.54,1.36-.67v0a3.14,3.14,0,0,0,1.58-1A2.07,2.07,0,0,0,42.89,32.24Z" style="fill-rule:evenodd"/></g></g></svg>