<svg xmlns="http://www.w3.org/2000/svg" viewBox="0 0 95.61 79.5"><g id="Layer_2" data-name="Layer 2"><g id="Layer_1-2" data-name="Layer 1"><path d="M26.91,16.84a7.7,7.7,0,1,0-5.12-9.62A7.72,7.72,0,0,0,26.91,16.84Z"/><path d="M64.39,62,63,51.28A4.85,4.85,0,0,0,60.64,48l-8.16-2.45L66,37.39,82.5,44.7l.3.15A4.79,4.79,0,0,0,86.4,36L67.59,27.59a2.77,2.77,0,0,1-.26-.1,4.87,4.87,0,0,0-3.93.33L51,35.41l-2.92-18L65.9,6.94A3.69,3.69,0,1,0,62.2.56L36.76,15.5a8,8,0,0,0-2.33,1.91L23.7,31.81,8.92,30a3.68,3.68,0,0,0-.26,6.86,3.48,3.48,0,0,0,2.41.19l15,1.7a3.65,3.65,0,0,0,1.44-1l6.1-7.66,2.92,16.55a8.27,8.27,0,0,0,4.31,5.49L54,56.09l.7,5.43q-3.37-.09-6.88-.09c-26.4,0-47.81,4-47.81,9s21.4,9,47.81,9,47.8-4,47.8-9C95.61,66.57,82.62,63.26,64.39,62Z"/></g></g></svg>