<svg xmlns="http://www.w3.org/2000/svg" viewBox="0 0 66.48 87.95"><g id="Layer_2" data-name="Layer 2"><g id="Layer_1-2" data-name="Layer 1"><path d="M63.82,65.91c0-3.72-3.45-5.79-3.64-5.9l-15.71-7.8-3.34-5.74h-.47a18.79,18.79,0,0,0,5.61-4.53l5.31-5.17,1.79-11.64L51.2,15.72H47.82L46.35,9.11l-8-2.62L27.94,7.3,24.17,5.72,21.4,0,19.47,6.74l-6-2.8,1.17,7.28L10.26,8.29l3.53,11.55C12.24,21,7.25,25.16,6.19,31.2c-.66,3.78.35,7.55,3,11.2a11.53,11.53,0,0,0,8.38,5l.3,1h-.33l-3.43,6.17c-1.22.52-6.8,2.9-8.57,3.69a5.18,5.18,0,0,0-2.78,3.82L0,86l1.49.18,2.78-23.8a4,4,0,0,1,.91-1.92c.56.73,1.49,2.44,1.49,5.71V86.06h1.5V66.13a10.78,10.78,0,0,0-1.75-6.54c1.89-.84,6.7-2.89,8.12-3.5l10.15,8.08,1-2,2.07,3.69L22.67,88H35l-5.61-21.7,1.89-4,2.12,2.62L44.09,53.7l15.37,7.63,0,0c-1.25.81-3.19,2.41-3.19,4.57,0,2.62-.66,19.94-.67,20.11l1.5.06c0-.71.67-17.52.67-20.17,0-1.55,1.81-2.92,2.91-3.56a5.15,5.15,0,0,1,1.6,3.56c0,3.36,2.57,19.15,2.68,19.82l1.48-.24C66.46,85.33,63.82,69.15,63.82,65.91Zm-36-10.2-8.26-6.92-.37-1.3a19.2,19.2,0,0,0,8.56-2.56,11.74,11.74,0,0,0,7.5,2.93c.33,0,.67,0,1,0a11.26,11.26,0,0,0,1.84-.34ZM10.42,41.52C8,38.21,7.08,34.83,7.67,31.47c1-5.73,6.11-9.76,7.2-10.56l7.18.8,8.62-2.43L39,20.67l1.76,4,1.66,7.7,3.65,1,1.58-3.14.76.76-2.24,3.9L44.59,35l.1,1.49h.09l.77,4.07-.36.34.52.54L45.12,41c0,.05-3.85,4.85-9,5.35a10.27,10.27,0,0,1-7.81-2.87c-2.43-2.12-3.67-4.5-3.68-7.06,0-5.05,4.7-9.31,4.75-9.35l-1-1.12a17.52,17.52,0,0,0-1.41,1.46A3.51,3.51,0,0,0,24.46,25l-.36,1.45c1.35.34,1.61,1.9,1.66,2.48a13.23,13.23,0,0,0-2.66,7.48,10.42,10.42,0,0,0,3.45,7.48,18.15,18.15,0,0,1-5.29,1.93A10.22,10.22,0,0,1,10.42,41.52ZM24.21,61.87,15.62,55,18.44,50h.17l8.24,6.89Zm9.31.68-4.67-5.76,11-8.83h.42L43,52.67Z"/><path d="M37.84,75.34h.33v9.94l6.71,2.51,6.7-2.51V75.34h.33V71.56H37.84Zm12.24,8.9-5.2,2-5.21-2v-8.9H50.08ZM39.34,73.06H50.41v.78H39.34Z"/></g></g></svg>