<svg xmlns="http://www.w3.org/2000/svg" viewBox="0 0 100 128"><g id="Layer_2" data-name="Layer 2"><g id="Layer_1-2" data-name="Layer 1"><path d="M43.37,80.16c-.42.6-.86,1.2-1.31,1.78a32.53,32.53,0,0,1,3.64,19.5,27,27,0,0,1-10.77,17.72c4.15-5.4,8.28-13.22,7.26-22.21A36.57,36.57,0,0,0,39,85.54c-.49.51-1,1-1.5,1.52a35.14,35.14,0,0,1,2.72,10.11c1.26,11.18-6.15,20.54-10.68,25.13a1,1,0,0,0-.11,1.27,1,1,0,0,0,1.23.35,29.08,29.08,0,0,0,17-22.19,34.62,34.62,0,0,0-4.09-21.2C43.52,80.41,43.44,80.29,43.37,80.16Z"/><path d="M50.14,0h-.29C23,.14,1.06,21.78,0,49.27a2.63,2.63,0,0,0,.92,1.86A10,10,0,0,0,7.3,54a5.31,5.31,0,0,0,3.44-1.19,3.58,3.58,0,0,1,4.57,0,5.56,5.56,0,0,0,6.88,0,3.58,3.58,0,0,1,4.57,0,5.56,5.56,0,0,0,6.88,0,3.58,3.58,0,0,1,4.57,0,5.56,5.56,0,0,0,6.88,0A3.35,3.35,0,0,1,47.37,52h5.26a3.35,3.35,0,0,1,2.28.82,5.54,5.54,0,0,0,6.87,0,3.59,3.59,0,0,1,4.58,0,5.54,5.54,0,0,0,6.87,0,3.59,3.59,0,0,1,4.58,0,5.54,5.54,0,0,0,6.87,0,3.59,3.59,0,0,1,4.58,0A5.31,5.31,0,0,0,92.7,54a10,10,0,0,0,6.38-2.87,2.67,2.67,0,0,0,.92-1.86C98.94,21.78,77,.14,50.14,0Zm-.28,2h.27c24.07.12,44,18.19,47.38,42A4.38,4.38,0,0,0,95,45.23a2.42,2.42,0,0,1-3.41.13l-.12-.13a4.38,4.38,0,0,0-6.09,0,2.4,2.4,0,0,1-3.39.13l-.13-.13a4.37,4.37,0,0,0-6.08,0,2.4,2.4,0,0,1-3.39.13l-.13-.13a4.37,4.37,0,0,0-6.08,0,2.4,2.4,0,0,1-3.39.13.8.8,0,0,1-.13-.13,4.37,4.37,0,0,0-6.08,0,2.4,2.4,0,0,1-3.39.13,1.59,1.59,0,0,1-.13-.13,4.37,4.37,0,0,0-6.08,0,2.39,2.39,0,0,1-3.38.13.8.8,0,0,1-.13-.13,4.37,4.37,0,0,0-6.08,0,2.4,2.4,0,0,1-3.39.13.8.8,0,0,1-.13-.13,4.37,4.37,0,0,0-6.08,0,2.4,2.4,0,0,1-3.39.13,1.59,1.59,0,0,1-.13-.13,4.37,4.37,0,0,0-6.08,0,2.4,2.4,0,0,1-3.39.13l-.13-.13a4.37,4.37,0,0,0-6.08,0,2.39,2.39,0,0,1-3.38.13A.8.8,0,0,1,5,45.23,4.4,4.4,0,0,0,2.49,44C5.91,20.19,25.8,2.12,49.86,2ZM92.7,52a3.41,3.41,0,0,1-2.29-.82,5.56,5.56,0,0,0-6.88,0,3.45,3.45,0,0,1-2.28.82A3.41,3.41,0,0,1,79,51.18a5.56,5.56,0,0,0-6.88,0A3.4,3.4,0,0,1,69.8,52a3.46,3.46,0,0,1-2.29-.82,5.56,5.56,0,0,0-6.88,0,3.58,3.58,0,0,1-4.57,0A5.31,5.31,0,0,0,52.63,50H47.37a5.29,5.29,0,0,0-3.43,1.19,3.59,3.59,0,0,1-4.58,0,5.54,5.54,0,0,0-6.87,0,3.59,3.59,0,0,1-4.58,0,5.54,5.54,0,0,0-6.87,0,3.41,3.41,0,0,1-2.29.82,3.48,3.48,0,0,1-2.29-.82,5.54,5.54,0,0,0-6.87,0A3.41,3.41,0,0,1,7.3,52,7.63,7.63,0,0,1,2,49.28c0-1.1.14-2.18.25-3.25a2.47,2.47,0,0,1,1.51.74,4.36,4.36,0,0,0,6.07,0,2.4,2.4,0,0,1,3.39-.13.8.8,0,0,1,.13.13,4.37,4.37,0,0,0,6.08,0,2.4,2.4,0,0,1,3.39-.13.8.8,0,0,1,.13.13,4.37,4.37,0,0,0,6.08,0,2.4,2.4,0,0,1,3.39-.13,1.59,1.59,0,0,1,.13.13,4.37,4.37,0,0,0,6.08,0A2.4,2.4,0,0,1,42,46.64l.13.13a4.36,4.36,0,0,0,6.07,0,2.4,2.4,0,0,1,3.39-.13,1.59,1.59,0,0,1,.13.13,4.37,4.37,0,0,0,6.08,0,2.4,2.4,0,0,1,3.39-.13l.13.13a4.37,4.37,0,0,0,6.08,0,2.4,2.4,0,0,1,3.39-.13.8.8,0,0,1,.13.13,4.37,4.37,0,0,0,6.08,0,2.4,2.4,0,0,1,3.39-.13l.13.13a4.37,4.37,0,0,0,6.08,0,2.41,2.41,0,0,1,3.4-.13l.13.13a4.37,4.37,0,0,0,6.08,0A2.56,2.56,0,0,1,97.75,46c.11,1.08.2,2.16.25,3.26A7.63,7.63,0,0,1,92.7,52Z"/><path d="M30,16a3,3,0,1,0-3-3h0A3,3,0,0,0,30,16Zm0-4a1,1,0,1,1-1,1A1,1,0,0,1,30,12Z"/><path d="M21,24a3,3,0,1,0-3-3h0A3,3,0,0,0,21,24Zm0-4a1,1,0,1,1-1,1A1,1,0,0,1,21,20Z"/><path d="M28,24a3,3,0,1,0,3-3A3,3,0,0,0,28,24Zm4,0a1,1,0,1,1-1-1A1,1,0,0,1,32,24Z"/><path d="M22,32a3,3,0,1,0,3-3A3,3,0,0,0,22,32Zm3-1a1,1,0,1,1-1,1A1,1,0,0,1,25,31Z"/><path d="M15,34a3,3,0,1,0-3-3A3,3,0,0,0,15,34Zm0-4a1,1,0,1,1-1,1h0A1,1,0,0,1,15,30Z"/><path d="M39,19a3,3,0,1,0-3-3A3,3,0,0,0,39,19Zm0-4a1,1,0,1,1-1,1A1,1,0,0,1,39,15Z"/><path d="M85.1,31.44a1,1,0,0,0,1.34.46,1,1,0,0,0,.46-1.34A37.6,37.6,0,0,0,74.57,16.18a1,1,0,1,0-1.14,1.64h0A35.57,35.57,0,0,1,85.1,31.44Z"/><circle cx="88" cy="35" r="1"/><path d="M70.58,123.57a1,1,0,0,0-.12-1.27c-4.52-4.59-11.93-14-10.67-25.13a34.66,34.66,0,0,1,3.36-11.49c-.51-.49-1-1-1.48-1.47A36.51,36.51,0,0,0,57.8,97c-1,9,3.12,16.81,7.27,22.21A27,27,0,0,1,54.3,101.44a32.55,32.55,0,0,1,3.87-20c.13-.25.29-.48.43-.73-.46-.56-.89-1.12-1.32-1.7-.29.49-.59,1-.87,1.47a34.62,34.62,0,0,0-4.09,21.2,29.08,29.08,0,0,0,17,22.19A1,1,0,0,0,70.58,123.57Z"/><path d="M67.91,63.34a32.28,32.28,0,0,1-2.38,4.21c.31.69.66,1.37,1,2a37.91,37.91,0,0,0,3.16-5.4,31.08,31.08,0,0,0,2.52-8.59,7,7,0,0,1-2.07.38A28.68,28.68,0,0,1,67.91,63.34Z"/><path d="M70.84,75.2A40.09,40.09,0,0,0,77,66.54a31.56,31.56,0,0,0,2.8-10.67,6.77,6.77,0,0,1-2-.66,29.6,29.6,0,0,1-2.64,10.46,37.56,37.56,0,0,1-5.73,8Z"/><path d="M88.55,77.34a53,53,0,0,1-4.16-10.59,30.21,30.21,0,0,1-.51-11.21,7.21,7.21,0,0,1-2,.43c0,.63-.1,1.27-.19,1.89a33,33,0,0,0,.8,9.35,54.39,54.39,0,0,0,4.31,11,65.33,65.33,0,0,1,3.66,8.72,34.78,34.78,0,0,1-.09,21A28.24,28.24,0,0,1,76.25,124c5.13-4.71,10.76-11.91,11.52-21.28a38,38,0,0,0-2.49-17.13,64.82,64.82,0,0,0-3.78-7.43,55.22,55.22,0,0,1-4.06-8.28c-.44.7-.89,1.37-1.37,2a65.69,65.69,0,0,0,3.69,7.24,62.4,62.4,0,0,1,3.66,7.2,35.9,35.9,0,0,1,2.35,16.22c-.85,10.62-8.51,18.33-13.89,22.5-.23.23-1.24.94-1.46,1.1a1,1,0,0,0-.33,1.23,1,1,0,0,0,1.15.55,30,30,0,0,0,21-19.36,36.85,36.85,0,0,0,.1-22.26A65.71,65.71,0,0,0,88.55,77.34Z"/><path d="M75.17,95.7c-1-5.21-4.63-8.77-7.94-11.7C57.81,75.67,52.9,65.31,53,54a1.67,1.67,0,0,0-.38,0H51c-.12,11.89,5,22.78,14.9,31.51,3.06,2.71,6.41,6,7.3,10.58.72,3.76-.41,9.17-3.47,16.54a1,1,0,0,0,.54,1.3,1,1,0,0,0,1-.15c4.89-4,9.46-8.76,9.69-15.86.28-8.6-4.94-14.2-10-19.61-1.08-1.15-2.19-2.34-3.23-3.54a26.75,26.75,0,0,1-6.36-19.4,6.87,6.87,0,0,1-2,.57,28.76,28.76,0,0,0,6.9,20.14c1.06,1.22,2.19,2.43,3.28,3.6,5,5.35,9.7,10.4,9.45,18.18-.16,4.71-2.39,8.25-5.91,11.67C75.15,103.68,75.83,99.13,75.17,95.7Z"/><path d="M47.37,54a1.44,1.44,0,0,0-.46,0c0,.54.07,1.08.08,1.59C47.22,67.07,42.3,77.57,32.77,86c-3.32,2.93-6.93,6.49-7.94,11.7-.67,3.43,0,8,2.09,13.82-3.52-3.42-5.76-7-5.91-11.67-.26-7.78,4.46-12.83,9.45-18.18,1.09-1.17,2.22-2.37,3.28-3.6a28.81,28.81,0,0,0,6.73-22.16,6.82,6.82,0,0,1-2.11-.66,26.88,26.88,0,0,1-6.13,21.51c-1,1.2-2.15,2.39-3.23,3.54-5.05,5.42-10.27,11-10,19.61.23,7.1,4.79,11.82,9.69,15.86a1,1,0,0,0,1.56-1.15c-3.06-7.37-4.2-12.78-3.47-16.54.89-4.59,4.24-7.87,7.3-10.58,10-8.83,15.14-19.86,14.9-31.91,0-.52-.05-1.06-.08-1.6Z"/><path d="M22.12,55.21a6.71,6.71,0,0,1-1.95.66A31.33,31.33,0,0,0,23,66.54c1.73,3.58,4.37,6.59,6.92,9.49l.15.18c.22-.25.46-.51.67-.76s.43-.52.64-.79c-2.45-2.79-5-5.68-6.58-9A29.61,29.61,0,0,1,22.12,55.21Z"/><path d="M35,68.32a34.33,34.33,0,0,1-2.89-5A28.68,28.68,0,0,1,29.82,56a6.89,6.89,0,0,1-2.07-.38,31.08,31.08,0,0,0,2.52,8.59A40.1,40.1,0,0,0,34,70.45,22.34,22.34,0,0,0,35,68.32Z"/><path d="M28.12,125.09c-5.38-4.17-13-11.88-13.89-22.5a35.9,35.9,0,0,1,2.34-16.22,62.47,62.47,0,0,1,3.67-7.2,65.69,65.69,0,0,0,3.69-7.24c-.48-.65-.94-1.32-1.37-2a55.22,55.22,0,0,1-4.06,8.28,63.24,63.24,0,0,0-3.78,7.43,38,38,0,0,0-2.49,17.13c.75,9.37,6.39,16.57,11.52,21.28A28.26,28.26,0,0,1,9.67,108a34.86,34.86,0,0,1-.08-21,64,64,0,0,1,3.66-8.72,55,55,0,0,0,4.31-11,33,33,0,0,0,.8-9.35c-.09-.62-.14-1.26-.2-1.89a7.21,7.21,0,0,1-2-.43,30.42,30.42,0,0,1-.51,11.21,53,53,0,0,1-4.16,10.59,65.71,65.71,0,0,0-3.77,9,36.85,36.85,0,0,0,.1,22.26,30,30,0,0,0,21,19.36,1,1,0,0,0,1.15-.55,1,1,0,0,0-.33-1.23C29.36,126,28.35,125.32,28.12,125.09Z"/></g></g></svg>