<svg xmlns="http://www.w3.org/2000/svg" 
  xmlns:xlink="http://www.w3.org/1999/xlink" xml:space="preserve" version="1.1" style="shape-rendering:geometricPrecision;text-rendering:geometricPrecision;image-rendering:optimizeQuality;" viewBox="0 0 60000 75000" x="0px" y="0px" fill-rule="evenodd" clip-rule="evenodd">
  <defs>
    <style type="text/css">
   
    .fil0 {fill:black;fill-rule:nonzero}
   
    </style>
  </defs>
  <g>
    <path class="fil0" d="M50904 30780c22,-7 45,-12 69,-16 674,-95 1298,-209 1924,-379 624,-168 1248,-390 1925,-702 513,-235 955,-292 1326,-217 405,82 714,312 931,638 196,295 312,669 352,1076 71,728 -105,1584 -502,2272 -572,991 -3556,2335 -5461,3192 -495,223 -917,413 -1165,534 -9,4 -17,8 -26,12 -515,1226 -1159,2238 -2319,2071 -410,1117 -1177,1798 -3233,1923 -358,22 -628,62 -884,140 -260,79 -520,200 -853,381 -973,530 -1915,1195 -2842,1850 -1966,1388 -3864,2729 -6065,2804 -418,14 -723,36 -1021,98 -294,61 -595,164 -1014,343 -1060,453 -2001,981 -2909,1491 -1775,997 -3428,1925 -5668,2167 -3632,2780 -5706,3201 -7777,3621l-159 32 0 0c-251,51 -503,103 -764,162 -259,58 -518,121 -776,192 -976,269 -1615,-174 -2311,-656 -409,-283 -842,-584 -1362,-698 -154,-34 -367,-148 -600,-327 -456,-352 -1078,-1011 -1524,-1841 -457,-849 -738,-1880 -501,-2963 114,-519 347,-1045 736,-1564 70,-196 164,-381 281,-548 642,-919 1350,-1579 2091,-2063 739,-483 1507,-788 2272,-1000 530,-147 933,-204 1288,-254 613,-87 1057,-150 1769,-715 2367,-1880 3894,-2220 5155,-2500 763,-170 1419,-316 2099,-816 3538,-2609 5517,-2862 7767,-2880 287,-14 594,-59 891,-119 524,-106 1014,-259 1329,-385 775,-309 1518,-717 2294,-1143 1306,-717 2702,-1483 4603,-1977 455,-118 934,-260 1415,-403 2057,-609 4156,-1231 6002,-521 1181,-889 2217,-737 3216,-314zm-31707 -10436l-46 -49 -51 -53 -52 -53 -53 -53 -53 -53 -54 -53 -54 -53 -55 -53 -56 -53 -56 -53 -57 -53 -542 588 53 49 53 49 52 49 51 50 51 50 50 50 50 50 49 50 48 50 48 50 46 49 578 -553zm-2634 12633l56 -41 56 -41 56 -41 55 -41 55 -41 55 -42 55 -42 54 -42 54 -42 54 -42 36 -28 -496 -628 -85 67 -52 40 -52 40 -52 40 -52 40 -53 40 -53 39 -53 39 -53 39 -54 39 470 648zm1216 -965l59 -52 50 -44 50 -44 49 -44 49 -44 49 -44 48 -45 48 -45 48 -45 48 -45 47 -45 61 -59 -558 -573 -56 54 -45 43 -45 43 -45 42 -46 42 -46 42 -46 42 -47 42 -47 42 -47 42 -47 42 -57 50 526 603zm1181 -1146l38 -42 42 -47 42 -47 42 -47 42 -47 41 -47 41 -48 41 -48 40 -48 40 -48 40 -48 39 -48 50 -62 -626 -498 -45 56 -37 45 -37 45 -37 45 -38 45 -38 45 -38 44 -39 44 -39 44 -39 44 -40 44 -40 44 -38 42 592 538zm1032 -1292l38 -56 33 -50 33 -50 33 -50 32 -50 32 -50 32 -50 31 -50 31 -51 31 -51 30 -51 30 -51 29 -51 26 -46 -697 -393 -24 42 -27 47 -27 46 -28 46 -28 46 -28 46 -29 46 -29 46 -29 46 -30 46 -30 46 -30 46 -31 46 -36 53 660 451zm820 -1458l14 -31 23 -52 22 -53 22 -53 22 -53 21 -53 21 -53 20 -53 20 -53 19 -53 19 -53 19 -53 18 -53 18 -53 17 -54 5 -17 -764 -237 -19 58 -16 48 -16 48 -17 48 -17 48 -17 48 -18 47 -18 47 -19 47 -19 47 -19 47 -20 47 -20 47 -20 47 -14 31 733 321zm506 -1612l5 -26 10 -55 9 -55 9 -55 8 -55 8 -55 7 -55 7 -55 6 -55 6 -55 5 -55 5 -55 4 -55 4 -55 3 -55 3 -49 -799 -39 -2 42 -3 48 -3 48 -4 48 -4 48 -5 48 -5 48 -6 48 -6 48 -6 48 -7 48 -7 48 -8 48 -8 48 -8 48 -5 26 787 142zm82 -1703l-4 -39 -6 -56 -6 -56 -7 -56 -7 -56 -8 -56 -8 -56 -9 -56 -9 -56 -10 -56 -10 -56 -11 -56 -12 -56 -12 -56 -13 -56 -5 -21 -778 186 3 14 11 49 11 49 10 49 10 49 9 49 9 49 8 49 8 49 7 49 7 49 6 49 6 49 5 49 5 49 4 39 796 -77zm-384 -1657l-23 -60 -22 -56 -22 -56 -23 -56 -24 -56 -24 -56 -25 -56 -25 -56 -26 -56 -26 -55 -27 -55 -27 -55 -28 -55 -24 -47 -709 370 21 41 25 49 24 49 24 49 23 49 23 49 22 49 22 49 21 49 21 49 20 49 20 49 19 49 20 53 749 -282zm-776 -1501l-35 -52 -37 -55 -38 -55 -38 -55 -39 -54 -40 -54 -40 -54 -41 -54 -41 -54 -42 -54 -42 -54 -43 -54 -19 -23 -621 504 15 19 39 50 39 50 38 50 38 50 37 50 37 50 36 50 35 50 35 50 34 50 34 50 35 52 663 -447zm-6503 -12411l46 -34 43 -31 43 -31 44 -31 44 -31 45 -31 45 -31 46 -31 46 -31 46 -31 47 -31 47 -31 48 -31 48 -31 -434 -672 -51 33 -51 33 -50 33 -50 33 -49 33 -49 33 -48 33 -48 33 -48 33 -47 33 -47 33 -46 33 -46 33 -49 36 474 644zm800 6699c-191,-119 -378,-242 -563,-370l-457 656 71 49c43,29 85,58 128,87 87,58 175,115 264,172 45,29 90,57 136,85l423 -679zm-1180 -831l-49 -40 -66 -55 -33 -27 -32 -27 -32 -27 -32 -27 -31 -27 -31 -27 -31 -27 -30 -27 -30 -27 -30 -27 -29 -27 -29 -27 -29 -27 -28 -27 -28 -27 -561 570 31 30 32 31 32 31 32 31 33 30 33 30 33 30 33 30 34 30 34 30 34 30 35 30 35 30 35 30 36 30 36 30 36 30 52 42 505 -621zm-1065 -1060l-16 -21 -21 -27 -20 -27 -20 -27 -20 -27 -19 -27 -19 -27 -19 -27 -18 -27 -18 -27 -18 -27 -17 -27 -17 -27 -17 -27 -16 -27 -16 -27 -16 -27 -15 -27 -15 -27 -15 -27 -14 -27 -14 -27 -11 -22 -714 360 15 29 17 33 18 33 18 33 19 33 19 33 19 33 20 33 20 33 20 33 21 33 21 33 21 33 22 33 22 32 22 32 23 32 23 32 23 32 24 32 24 32 24 32 16 21 635 -486zm-626 -1262l-3 -13 -5 -26 -5 -26 -5 -26 -4 -26 -4 -26 -4 -26 -3 -26 -3 -26 -3 -26 -2 -26 -2 -26 -2 -26 -2 -26 -1 -26 -1 -26 -1 -26 0 -26 0 -26 0 -26 1 -26 1 -26 1 -26 2 -26 2 -26 3 -33 -796 -84 -2 17 -3 36 -3 36 -2 36 -2 36 -1 36 -1 36 -1 36 0 36 0 36 1 36 1 36 2 36 2 36 2 36 3 36 3 35 4 35 4 35 5 35 5 35 5 35 6 35 6 35 7 35 7 35 3 13 783 -162zm125 -1336l11 -27 11 -28 12 -28 12 -28 13 -28 13 -28 13 -28 14 -28 14 -28 14 -28 15 -28 15 -28 16 -28 16 -28 16 -28 17 -28 17 -29 18 -29 18 -29 18 -29 19 -29 26 -39 -660 -452 -11 16 -23 35 -23 35 -22 35 -22 35 -21 35 -21 35 -21 35 -20 35 -20 35 -19 35 -19 35 -18 35 -18 35 -18 35 -17 35 -17 35 -16 35 -16 35 -16 35 -15 35 -15 35 -11 27 740 304zm800 -1205l29 -31 28 -30 29 -30 29 -30 30 -30 30 -30 30 -30 31 -30 31 -30 32 -30 32 -30 33 -30 33 -30 33 -30 34 -30 34 -31 47 -41 -523 -606 -54 47 -38 34 -37 34 -37 34 -37 34 -36 34 -36 34 -35 34 -35 34 -35 34 -34 34 -34 34 -33 34 -33 34 -32 34 -32 34 -29 31 583 547zm1794 -4748c199,-94 437,-9 531,191 94,199 9,437 -191,531 -2154,1020 -3944,2288 -5088,3649 -765,910 -1236,1855 -1323,2784 -85,907 201,1814 945,2674 725,839 1879,1636 3539,2351 1605,691 3198,1979 4227,3570 557,861 949,1811 1093,2804 145,1005 37,2052 -412,3095 -570,1325 -1691,2637 -3545,3835 -412,266 -798,484 -1176,696 -2009,1132 -3743,2109 -1668,6393 96,198 13,437 -186,533 -198,96 -437,13 -533,-186 -2402,-4959 -364,-6107 1997,-7436 388,-219 786,-443 1135,-668 1706,-1103 2730,-2292 3242,-3482 387,-899 481,-1801 356,-2667 -127,-877 -476,-1719 -971,-2486 -940,-1454 -2400,-2633 -3874,-3267 -1775,-764 -3024,-1634 -3827,-2563 -896,-1038 -1240,-2148 -1135,-3268 102,-1099 639,-2192 1507,-3224 1220,-1450 3105,-2792 5357,-3858zm-8377 10243c-21,-257 -30,-515 -34,-773l-800 13c5,275 14,551 36,825l797 -65zm3521 21796c-154,-140 -303,-285 -443,-438l-592 538c157,172 325,335 497,492l538 -593zm-890 -1015c-128,-201 -232,-411 -312,-636l-754 266c100,281 230,546 390,798l676 -428zm-481 -1337c-36,-249 -53,-499 -60,-750l-800 21c8,283 27,564 68,844l792 -115zm-16 -1471l6 -36 6 -31 6 -31 6 -31 6 -30 7 -30 7 -30 7 -30 7 -30 8 -29 8 -29 8 -29 8 -29 9 -29 9 -29 9 -29 9 -28 10 -28 10 -28 10 -28 10 -28 11 -28 13 -32 -740 -305 -18 46 -13 35 -13 35 -13 35 -12 35 -12 35 -12 36 -12 36 -11 36 -11 36 -11 36 -10 36 -10 37 -10 37 -9 37 -9 37 -9 37 -8 38 -8 38 -8 38 -7 38 -7 38 -7 44 789 131zm528 -1317l26 -39 17 -25 17 -25 18 -25 18 -25 18 -25 18 -25 18 -24 37 -49c86,-110 175,-216 270,-320l-590 -540c-36,40 -71,80 -107,120l-24 27 -46 55 -23 28 -23 28 -23 28 -22 28 -22 28 -22 28 -22 29 -22 29 -22 29 -21 29 -21 29 -21 29 -21 29 -21 30 -20 30 -29 44 665 445zm999 -1114c193,-174 392,-340 594,-503l-502 -623c-213,172 -423,347 -627,531l535 595zm1217 -993c212,-164 424,-329 634,-495l-498 -626c-208,165 -417,327 -627,490l490 632zm1264 -1014c209,-179 413,-365 610,-558l-562 -570c-184,180 -375,354 -571,522l522 606zm1180 -1168l27 -32 26 -32 26 -32 26 -32 26 -32 26 -32 26 -32 26 -33 25 -33 25 -33 25 -33 25 -33 25 -34 25 -34 43 -59 42 -59 41 -59 24 -34 -659 -454 -21 30 -39 55 -39 55 -40 56 -22 30 -44 60 -22 30 -23 29 -46 58c-23,29 -46,58 -69,87 -31,38 -63,77 -95,115l610 518zm956 -1371l39 -69 31 -56 31 -56 30 -56 29 -56 29 -55 28 -55 28 -55 27 -55 26 -55 26 -54 25 -54 24 -54 10 -23 -734 -318 -7 16 -21 48 -22 48 -23 48 -23 49 -24 49 -25 49 -25 50 -26 50 -27 50 -27 50 -28 51 -28 51 -36 64 694 398zm673 -1558l4 -14 14 -51 13 -51 13 -51 12 -51 11 -50 11 -50 10 -50 9 -50 9 -50 8 -50 8 -50 7 -49 6 -49 6 -49 5 -49 5 -49 4 -47 -798 -63 -3 38 -4 39 -4 40 -5 40 -5 40 -6 40 -6 41 -7 41 -7 41 -8 41 -8 42 -9 42 -9 42 -10 42 -10 43 -11 43 -12 43 -4 14 772 211zm122 -1756l-6 -37 -8 -45 -8 -44 -9 -44 -10 -44 -10 -44 -11 -43 -11 -43 -12 -43 -12 -43 -13 -43 -13 -42 -14 -42 -14 -42 -15 -42 -15 -41 -16 -41 -16 -41 -17 -41 -17 -40 -7 -16 -731 325 16 38 13 32 13 32 12 32 12 32 11 32 11 32 11 33 10 33 10 33 9 33 9 33 9 34 8 34 8 34 7 34 7 34 7 34 6 35 6 37 789 -135zm-699 -1628l-10 -14 -27 -35 -27 -35 -27 -35 -28 -35 -28 -34 -29 -34 -29 -34 -29 -34 -30 -33 -30 -33 -30 -33 -31 -33 -31 -33 -31 -32 -32 -32 -32 -32 -32 -32 -33 -31 -38 -36 -543 588 28 27 28 27 27 27 27 27 27 27 26 27 26 27 26 28 25 28 25 28 25 28 24 28 24 28 24 28 23 28 23 28 22 29 22 29 22 29 10 14 641 -479zm-1244 -1186l-55 -39 -39 -27 -39 -27 -39 -27 -40 -26 -40 -26 -40 -26 -40 -26 -41 -26 -41 -25 -41 -25 -41 -25 -42 -25 -42 -25 -42 -25 -42 -24 -47 -27 -391 698 39 22 39 22 38 22 38 22 38 23 38 23 37 23 37 23 37 23 36 23 36 23 36 24 36 24 35 24 35 24 35 24 51 36 461 -654zm-1449 -829l-57 -26 -92 -42 -46 -21 -47 -21 -94 -41c-63,-27 -126,-54 -189,-80 -78,-32 -155,-63 -233,-94l-292 745c193,76 383,156 573,241l86 39 54 25 337 -725zm-1529 -604c-258,-87 -518,-167 -779,-243l-223 768c251,73 500,150 748,233l254 -759zm-1563 -455c-242,-62 -480,-135 -712,-228l-298 742c264,105 535,190 811,260l199 -775zm-1356 -554c-193,-123 -375,-274 -528,-445l-598 531c201,224 438,423 691,585l435 -672zm-904 -1014c-102,-215 -173,-441 -224,-673l-782 171c64,290 154,572 281,842l724 -339zm-2184 -6121c110,-192 354,-258 545,-148 192,110 258,354 148,545 -831,1450 -1288,2837 -1438,4096 -162,1355 33,2558 498,3523l4 10c692,1331 2142,1605 3619,1884 932,176 1873,354 2708,784 880,454 1390,1099 1592,1876 211,810 73,1745 -337,2740 -474,1150 -1472,2103 -2510,3094 -2515,2401 -5281,5041 205,11109 148,163 135,415 -28,563 -163,148 -415,135 -563,-28 -6006,-6645 -2947,-9565 -164,-12222 975,-931 1914,-1827 2322,-2819 345,-838 467,-1604 303,-2237 -145,-556 -524,-1025 -1186,-1367 -732,-378 -1615,-544 -2489,-709 -1668,-315 -3306,-624 -4177,-2297 -7,-11 -13,-22 -18,-34 -530,-1099 -753,-2453 -573,-3963 162,-1360 651,-2851 1538,-4399zm15191 41094c-333,25 -615,17 -719,3 -1125,-152 -1224,-887 -1331,-1676 -68,-505 -140,-1035 -536,-1392 -496,-446 -1061,-873 -1655,-1213 -519,-298 -1058,-530 -1589,-652 -548,-126 -953,-526 -1202,-1043 -269,-558 -355,-1258 -242,-1893 7,-40 18,-81 34,-124 -256,260 -432,552 -459,705 -99,558 -25,1168 208,1652 199,413 513,729 931,826 573,132 1149,379 1698,695 619,356 1208,799 1724,1263 505,454 586,1059 664,1635 86,633 165,1222 989,1333 135,18 586,30 1036,-29 158,-21 313,-50 449,-90zm-6406 -8439c-43,22 -83,45 -121,69 -283,178 -423,393 -451,556 -103,577 -25,1210 216,1712 211,439 548,776 999,880 562,130 1129,373 1671,684 613,352 1196,791 1707,1251 477,430 557,1016 632,1575 91,672 175,1298 1074,1419 139,19 639,26 1131,-64 191,-35 379,-85 540,-154 527,-299 1092,-657 1708,-1090 -1097,-26 -2334,-207 -3771,-595 -213,-57 -340,-276 -283,-489 57,-213 276,-340 489,-283 5063,1369 7509,-5 10266,-1554 923,-518 1879,-1056 2987,-1528 466,-199 813,-316 1167,-389 350,-72 692,-97 1155,-113 1958,-67 3762,-1341 5630,-2660 940,-664 1896,-1339 2920,-1897 379,-207 683,-347 1003,-444 324,-98 650,-149 1068,-174 2379,-146 2589,-1275 2924,-3079 63,-340 130,-700 203,-1035 47,-216 259,-353 475,-306 216,47 353,259 306,475 -83,384 -143,706 -200,1010 -67,363 -131,703 -203,1019 798,-45 1289,-1364 1755,-2616 216,-581 428,-1150 668,-1603 104,-195 346,-269 541,-166 195,104 269,346 166,541 -223,420 -421,949 -622,1491 141,-64 290,-131 447,-202 1813,-817 4655,-2096 5098,-2864 316,-546 455,-1224 399,-1797 -27,-278 -101,-526 -224,-710 -102,-154 -242,-261 -421,-297 -212,-43 -489,0 -838,161 -726,334 -1391,571 -2050,749 -325,88 -651,162 -982,226 544,284 1087,549 1620,624 218,30 371,232 341,450 -30,218 -232,371 -450,341 -730,-103 -1395,-453 -2060,-802 -992,-521 -1985,-1042 -3058,-481 473,308 925,726 1349,1280 134,175 100,426 -75,559 -175,134 -426,100 -559,-75 -1913,-2500 -4654,-1688 -7318,-900 -478,142 -954,282 -1440,409 -1799,468 -3152,1210 -4418,1905 -566,311 -1115,612 -1688,880 827,-65 1749,-193 2815,-439 215,-49 429,85 478,300 49,215 -85,429 -300,478 -2322,536 -3980,529 -5447,524 -252,-1 -498,-2 -741,0 -100,5 -198,6 -294,4 -1994,42 -3836,376 -7018,2722 -811,598 -1545,761 -2399,951 -1177,262 -2604,579 -4830,2347 -882,700 -1418,776 -2157,881 -331,47 -709,100 -1185,232 -117,32 -233,67 -350,104zm4508 8981c-876,-255 -970,-950 -1070,-1690 -66,-487 -135,-998 -504,-1331 -491,-442 -1050,-864 -1638,-1201 -511,-293 -1041,-522 -1561,-642 -581,-134 -1008,-554 -1269,-1097 -268,-558 -361,-1250 -262,-1887 -108,59 -213,139 -306,227 -182,173 -308,353 -330,455 -115,536 -56,1135 161,1611 179,392 466,693 847,781 589,136 1178,388 1739,710 629,361 1227,811 1750,1282 545,491 631,1124 712,1727 60,445 117,868 402,1054 98,64 380,101 736,84 190,-9 394,-36 594,-84zm-1835 622c-527,-387 -605,-964 -687,-1570 -62,-460 -128,-944 -456,-1239 -483,-435 -1034,-850 -1612,-1182 -500,-287 -1016,-510 -1520,-626 -647,-149 -1116,-622 -1394,-1228 -206,-450 -305,-980 -290,-1499 -97,123 -193,251 -287,386 -115,164 -196,363 -246,578 -86,372 -73,783 31,1150 98,346 275,644 522,817 90,63 191,109 303,135 528,122 1056,348 1558,636 562,322 1096,725 1562,1145 497,447 574,1018 647,1562 81,598 155,1146 1386,1034 82,-17 164,-34 246,-50l0 0 162 -33 76 -15zm3339 -10380c-107,87 -264,71 -351,-36 -87,-107 -71,-264 36,-351 1125,-918 2233,-1146 3355,-1377 853,-176 1714,-353 2577,-854 119,-69 272,-28 341,91 69,119 28,272 -91,341 -932,541 -1834,727 -2728,911 -1061,219 -2109,434 -3140,1276z"/>
  </g>
</svg>