<svg xmlns="http://www.w3.org/2000/svg" viewBox="0 0 61.92 91.28"><g id="Layer_2" data-name="Layer 2"><g id="Layer_1-2" data-name="Layer 1"><path d="M8.9,47.17c-5,0-8.9-10.36-8.9-23.59S3.91,0,8.9,0s8.9,10.36,8.9,23.58S13.89,47.17,8.9,47.17Zm0-45.9c-3.69,0-7.63,9-7.63,22.31S5.21,45.91,8.9,45.91s7.64-9,7.64-22.33S12.59,1.27,8.9,1.27Z"/><ellipse cx="8.9" cy="23.58" rx="2.14" ry="5.93"/><path d="M53.13,47.28H8.53a.5.5,0,0,1,0-1h44.6c4.22,0,7.79-10.39,7.79-22.68,0-12.1-3.55-22.32-7.75-22.32H8.53A.5.5,0,0,1,8,.78a.5.5,0,0,1,.5-.5H53.17c4.91,0,8.75,10.24,8.75,23.32S58,47.28,53.13,47.28Z"/><path d="M56,91.28H11a.5.5,0,0,1-.5-.5V68.19c0-1.78-1.31-14.74-3.46-17.19C4.7,48.31,1.71,37.16,1.58,36.69a.51.51,0,0,1,.36-.62.5.5,0,0,1,.61.36c0,.11,3.06,11.39,5.27,13.91,2.52,2.87,3.71,16.27,3.71,17.85V90.28h44V68.19c0-2.1-1.21-14.74-3.35-17.17a14.5,14.5,0,0,1-2-4.05.5.5,0,1,1,.93-.37,14.16,14.16,0,0,0,1.85,3.76c2.49,2.82,3.6,16.17,3.6,17.83V90.78A.5.5,0,0,1,56,91.28Z"/><path d="M18.53,56.28h-7a.5.5,0,0,1,0-1h7a.5.5,0,0,1,0,1Z"/><path d="M30.53,56.28h-8a.5.5,0,0,1,0-1h8a.5.5,0,0,1,0,1Z"/><path d="M41.53,56.28h-7a.5.5,0,0,1,0-1h7a.5.5,0,0,1,0,1Z"/><path d="M52.53,56.28h-7a.5.5,0,0,1,0-1h7a.5.5,0,0,1,0,1Z"/></g></g></svg>