<svg xmlns="http://www.w3.org/2000/svg" viewBox="0 0 364.51 459.49"><g id="Layer_2" data-name="Layer 2"><g id="Layer_1-2" data-name="Layer 1"><path d="M364.49,179.77c0-.23,0-.47,0-.71,0-1.14-.06-2.28-.1-3.42l0-.7c-.05-1.14-.11-2.28-.17-3.42,0-.23,0-.46-.05-.69-.07-1.15-.16-2.29-.25-3.43l-.06-.68c-.1-1.15-.21-2.29-.33-3.43,0-.22-.05-.44-.07-.67-.13-1.14-.26-2.28-.41-3.42l-.09-.67c-.15-1.14-.31-2.27-.48-3.41,0-.22-.07-.44-.1-.66-.18-1.14-.37-2.28-.56-3.41l-.12-.64c-.2-1.14-.41-2.28-.64-3.41l-.12-.63c-.23-1.14-.47-2.28-.72-3.41-.05-.2-.09-.41-.14-.61-.26-1.14-.52-2.27-.8-3.4l-.15-.6c-.28-1.14-.57-2.27-.87-3.4-.05-.19-.11-.39-.16-.59-.31-1.13-.63-2.25-1-3.38-.05-.19-.11-.38-.16-.57-.34-1.13-.68-2.25-1-3.38l-.18-.55q-.54-1.68-1.11-3.36l-.19-.54c-.39-1.12-.78-2.24-1.19-3.36-.07-.17-.13-.34-.19-.51-.42-1.12-.85-2.24-1.28-3.35-.07-.16-.13-.33-.2-.49-.44-1.12-.89-2.23-1.36-3.34-.06-.16-.13-.32-.2-.47-.47-1.12-.95-2.22-1.44-3.33l-.21-.45c-.5-1.11-1-2.21-1.52-3.31l-.21-.43c-.53-1.1-1.06-2.2-1.61-3.3l-.21-.4c-.56-1.1-1.12-2.2-1.7-3.28-.06-.13-.13-.26-.2-.38-.59-1.1-1.18-2.19-1.79-3.28l-.2-.35c-.61-1.09-1.24-2.17-1.88-3.25l-.19-.32c-.65-1.09-1.3-2.17-2-3.25l-.18-.28q-1-1.62-2.07-3.24l-.17-.25c-.71-1.08-1.43-2.16-2.16-3.22l-.14-.2c-.75-1.09-1.51-2.16-2.28-3.23l-.11-.15c-.79-1.08-1.58-2.16-2.4-3.23l-.08-.1c-.82-1.08-1.65-2.16-2.5-3.22l0,0A182.44,182.44,0,0,0,182.42,0h0c-1.74,0-3.47,0-5.2.07l-1.33.06c-1.28,0-2.57.09-3.84.16l-1.65.12c-1.17.07-2.34.15-3.51.25l-1.74.17c-1.13.1-2.26.21-3.38.34-.59.06-1.18.15-1.77.22-1.11.13-2.22.27-3.33.43-.59.08-1.18.18-1.77.27-1.1.17-2.2.33-3.3.52l-1.75.32c-1.09.19-2.19.39-3.27.61l-1.74.36c-1.09.23-2.18.46-3.26.71l-1.69.4c-1.09.26-2.18.52-3.26.8L135,6.25c-1.09.3-2.18.59-3.27.9l-1.59.48-3.27,1-1.54.51c-1.1.36-2.19.72-3.28,1.1l-1.49.54c-1.1.39-2.19.79-3.28,1.21l-1.43.56c-1.1.43-2.2.86-3.29,1.31l-1.37.58c-1.1.47-2.2.94-3.3,1.43l-1.3.6c-1.11.5-2.21,1-3.31,1.54l-1.23.6c-1.11.55-2.21,1.1-3.31,1.67l-1.17.61c-1.11.58-2.22,1.17-3.32,1.78l-1.1.61c-1.11.62-2.21,1.26-3.31,1.9l-1,.62c-1.11.66-2.22,1.34-3.32,2l-1,.61c-1.11.7-2.22,1.43-3.32,2.16l-.89.59c-1.11.76-2.22,1.52-3.32,2.3l-.81.58c-1.12.8-2.22,1.61-3.32,2.44l-.74.56c-1.12.84-2.22,1.7-3.32,2.57l-.67.54q-1.66,1.34-3.3,2.72l-.59.5q-1.66,1.41-3.31,2.88l-.51.46q-1.66,1.5-3.3,3l-.43.41q-1.66,1.58-3.28,3.2l-.36.36q-1.67,1.66-3.28,3.39a3.45,3.45,0,0,0-.26.28c-1.11,1.17-2.2,2.37-3.28,3.58l-.18.19Q44.37,63.07,42.76,65l-.09.1-.91,1.07h0c-.8,1-1.6,1.93-2.38,2.92L56.08,80.25c2.87-3.54,5.87-7,9-10.22a.8.8,0,0,1,.13-.13q1.49-1.56,3-3.06c.09-.1.19-.19.28-.28,1-1,1.94-1.89,2.93-2.81l.43-.4c.94-.88,1.9-1.75,2.87-2.6l.55-.48c.93-.82,1.87-1.63,2.82-2.42l.66-.55c.92-.76,1.84-1.51,2.78-2.25l.76-.6c.91-.71,1.83-1.42,2.75-2.11l.85-.63c.91-.67,1.82-1.33,2.73-2l.94-.66c.9-.62,1.8-1.24,2.71-1.85l1-.67c.89-.58,1.79-1.16,2.7-1.73l1.09-.68c.89-.55,1.78-1.09,2.68-1.62l1.16-.68c.89-.51,1.78-1,2.68-1.51l1.22-.67c.89-.48,1.78-1,2.67-1.42l1.29-.66c.88-.45,1.77-.89,2.66-1.32l1.35-.65c.88-.42,1.77-.82,2.66-1.23l1.39-.62q1.34-.59,2.67-1.14L121,32c.88-.36,1.77-.71,2.67-1.06l1.48-.57,2.67-1,1.53-.54c.89-.31,1.78-.6,2.68-.9l1.56-.5,2.69-.82,1.59-.46c.89-.26,1.8-.5,2.7-.74l1.62-.43c.9-.23,1.8-.44,2.71-.66L146.5,24c.91-.21,1.83-.4,2.74-.59l1.65-.34c.92-.18,1.84-.35,2.77-.51.55-.1,1.1-.21,1.65-.3.93-.16,1.87-.3,2.8-.44l1.66-.25c.94-.13,1.89-.24,2.84-.36l1.64-.2c1-.11,1.94-.2,2.91-.29.53,0,1.06-.11,1.6-.15,1-.09,2-.15,3-.21l1.51-.11c1.12-.06,2.24-.1,3.37-.14l1.18-.05c1.52,0,3-.06,4.58-.06,1.8,0,3.59,0,5.38.1.73,0,1.45.06,2.17.09l3.05.17c.93.07,1.86.13,2.79.21.75.06,1.49.14,2.23.21,1.08.1,2.15.2,3.22.33h0c-39,4.36-78.79,31.22-116.29,78.52l5.83,3.91c29.66-37.25,72.4-76.08,121.71-76.08a100.42,100.42,0,0,1,43,10l.25.12c1.15.59,2.29,1.19,3.43,1.81.51.27,1,.55,1.54.84.94.51,1.87,1,2.79,1.57s1.81,1.06,2.71,1.61L268,44.5c1.58,1,3.15,2,4.7,3a161.94,161.94,0,0,1,36.2,33.22l0,0c.75.94,1.49,1.89,2.23,2.85l.06.09c.72.94,1.42,1.88,2.12,2.83l.11.15c.68.93,1.35,1.88,2,2.83l.13.19c.65.94,1.29,1.88,1.92,2.83,0,.08.1.16.16.24.61.93,1.22,1.88,1.82,2.82l.17.28c.59.94,1.17,1.89,1.74,2.83l.19.32c.56.94,1.11,1.88,1.65,2.83l.19.35c.54.94,1.06,1.89,1.57,2.84l.21.39c.5.94,1,1.88,1.48,2.83.07.14.14.28.22.42.47.94.94,1.89,1.4,2.84l.22.45c.45,1,.89,1.89,1.32,2.85.08.16.15.32.22.48.43.94.85,1.89,1.25,2.84.08.17.15.34.22.51.4.94.79,1.89,1.18,2.84.07.19.14.36.22.55.37.94.74,1.89,1.1,2.84l.21.57c.35.94.7,1.89,1,2.84l.21.6c.33.94.65,1.89.95,2.83l.21.63c.3.94.6,1.89.88,2.84.07.21.14.43.2.65.28.94.55,1.88.82,2.83l.18.68q.39,1.41.75,2.82l.18.72c.23.93.46,1.87.68,2.8.05.25.11.5.17.75.21.93.41,1.86.6,2.8.06.26.11.51.16.77q.28,1.39.54,2.79l.15.8c.17.92.33,1.85.48,2.77,0,.28.08.55.13.83.14.92.28,1.84.41,2.76,0,.29.08.57.11.86.13.91.24,1.83.35,2.75,0,.29.07.58.1.87.1.92.2,1.83.28,2.74l.09.9c.08.91.15,1.82.22,2.73l.06.92c.06.9.11,1.81.16,2.71,0,.31,0,.63,0,1,0,.89.07,1.79.1,2.69,0,.32,0,.65,0,1,0,.89,0,1.78,0,2.67v1c0,.88,0,1.77,0,2.65l0,1c0,.88,0,1.75-.08,2.63,0,.35,0,.7,0,1.05,0,.87-.09,1.73-.14,2.6,0,.36-.05.71-.08,1.07-.06.86-.12,1.72-.19,2.59,0,.36-.07.72-.1,1.08-.08.86-.16,1.71-.25,2.57,0,.37-.09.73-.13,1.1-.1.85-.2,1.7-.31,2.54l-.15,1.13c-.12.84-.24,1.68-.37,2.52l-.18,1.14c-.14.83-.27,1.66-.42,2.49l-.21,1.16c-.16.83-.31,1.65-.48,2.47l-.24,1.18c-.17.81-.34,1.63-.53,2.44l-.27,1.19c-.19.81-.38,1.62-.58,2.43-.1.39-.21.78-.31,1.18-.21.8-.41,1.61-.64,2.41-.1.4-.22.8-.34,1.2-.22.8-.45,1.59-.68,2.39-.12.4-.25.8-.37,1.2-.25.79-.49,1.58-.75,2.37l-.4,1.2c-.26.78-.52,1.57-.8,2.35-.13.4-.28.79-.43,1.19-.28.78-.56,1.56-.85,2.35l-.45,1.15c-.31.79-.61,1.58-.93,2.36-.15.38-.31.76-.47,1.14-.32.78-.65,1.57-1,2.35-.15.37-.32.74-.49,1.11-.35.79-.69,1.58-1.05,2.37l-.48,1c-.38.82-.76,1.64-1.16,2.45l-.42.84c-.43.86-.86,1.72-1.31,2.58-.57,1.12-1.17,2.23-1.77,3.33l16.68,11.19c.62-1.1,1.21-2.2,1.8-3.3h0l0-.06c.61-1.12,1.19-2.26,1.77-3.39.07-.16.15-.31.23-.46.57-1.12,1.11-2.25,1.65-3.37l.25-.51c.53-1.12,1-2.24,1.55-3.36.08-.19.17-.37.25-.55.49-1.11,1-2.23,1.45-3.35.08-.2.17-.39.25-.59.46-1.11.91-2.23,1.35-3.35.08-.2.17-.4.24-.6.44-1.12.86-2.24,1.27-3.36l.24-.63c.4-1.11.79-2.23,1.17-3.34.07-.23.15-.45.23-.67.37-1.11.73-2.23,1.08-3.34.08-.23.15-.46.22-.69.35-1.11.68-2.23,1-3.35.06-.23.13-.46.2-.69.32-1.12.62-2.24.92-3.36l.19-.7q.44-1.68.84-3.36c.05-.24.11-.48.17-.71.26-1.12.51-2.25.76-3.37l.15-.73c.24-1.12.47-2.24.68-3.36.05-.25.1-.49.14-.73q.32-1.69.6-3.39c0-.24.09-.48.12-.72.19-1.13.36-2.26.53-3.39,0-.24.07-.49.1-.73.16-1.13.31-2.26.44-3.39l.09-.74c.14-1.13.26-2.26.37-3.39,0-.25.05-.49.07-.73.1-1.14.2-2.27.28-3.4l.06-.74c.08-1.13.15-2.27.21-3.4,0-.25,0-.49,0-.73.05-1.14.1-2.28.13-3.42,0-.23,0-.47,0-.71q0-1.71.06-3.42v-.72C364.52,182.05,364.51,180.91,364.49,179.77Z"/><path d="M308.42,284.45c-.89,1.09-1.79,2.17-2.7,3.25l-1.2,1.36c-.58.68-1.17,1.35-1.77,2-.42.46-.84.92-1.27,1.37-.59.64-1.18,1.28-1.78,1.91-.44.47-.89.92-1.34,1.38s-1.18,1.22-1.78,1.82l-1.41,1.37-1.8,1.73L291.9,302l-1.82,1.64L288.55,305l-1.83,1.57-1.59,1.32-1.84,1.49-1.65,1.29c-.62.48-1.23.95-1.86,1.42s-1.13.85-1.71,1.27-1.23.9-1.86,1.34-1.17.83-1.76,1.23l-1.88,1.29-1.81,1.19-1.89,1.21L267,320.78c-.63.39-1.27.77-1.91,1.15L263.2,323l-1.92,1.09c-.65.36-1.3.72-2,1.07s-1.28.69-1.93,1l-2,1-2,1c-.68.34-1.35.66-2,1s-1.3.61-1.95.91l-2.08.93-2,.84-2.11.88-2,.78-2.15.83-2,.73-2.19.77-2,.67-2.22.72-2,.61-2.24.66-2,.55c-.76.2-1.51.41-2.27.6l-2.05.5c-.76.18-1.52.37-2.29.54l-2.07.44c-.77.16-1.53.33-2.3.48l-2.09.38c-.77.15-1.54.29-2.32.42s-1.42.22-2.13.33l-2.3.35-2.17.28-2.3.28-2.24.22c-.75.07-1.49.16-2.24.22l-2.4.17-2.12.14c-.89.05-1.8.08-2.7.12-.61,0-1.22.06-1.83.07-1.41,0-2.81.06-4.22.06h-.38c-1.78,0-3.55,0-5.32-.1l-2.19-.1c-1-.05-2-.1-3-.17l-2.79-.2-2.23-.21c-1-.1-2.1-.2-3.15-.32,20.7-2.4,41.56-11.21,62.18-26.32,17.82-13.07,35.52-30.87,52.75-53l-5.84-3.91c-39.35,50.4-80.84,76.94-120.62,76.95h0a99.63,99.63,0,0,1-42-9.69q-4.56-2.28-9-4.85l-.69-.41c-1.27-.74-2.54-1.5-3.79-2.28-.7-.43-1.39-.89-2.08-1.34s-1.61-1-2.41-1.56a161.42,161.42,0,0,1-41.22-39.81v0c-.73-1-1.44-2-2.14-3l0,0c-.7-1-1.38-2-2-3.05l-.05-.07c-.66-1-1.31-2-1.95-3.07a.41.41,0,0,1-.05-.09c-.64-1-1.26-2.06-1.88-3.1l-.05-.1c-.61-1-1.21-2.07-1.79-3.12l-.06-.11q-.89-1.57-1.71-3.15l-.06-.12c-.56-1.05-1.1-2.11-1.64-3.18l-.06-.12c-.53-1.07-1-2.14-1.55-3.22l-.06-.11c-.5-1.08-1-2.16-1.48-3.25a.61.61,0,0,1-.05-.12c-.49-1.09-1-2.18-1.41-3.28a1.17,1.17,0,0,1,0-.11c-.46-1.1-.9-2.21-1.34-3.32l0-.09c-.44-1.12-.86-2.24-1.27-3.36l0-.09c-.41-1.13-.81-2.26-1.2-3.4l0-.08c-.39-1.14-.76-2.28-1.12-3.43l0-.06q-.54-1.74-1-3.48s0,0,0,0c-.34-1.17-.66-2.34-1-3.52v0A162.14,162.14,0,0,1,39.88,104.4L23.21,93.22c-.62,1.09-1.22,2.2-1.81,3.3h0A181.07,181.07,0,0,0,.15,174.61v0q-.09,2.07-.12,4.14v.05c0,1.38,0,2.75,0,4.12V183c0,1.37,0,2.73.07,4.1v.08c0,1.36.09,2.72.16,4.08v.1c.07,1.35.15,2.7.25,4.05a.49.49,0,0,0,0,.12c.1,1.35.21,2.69.34,4,0,0,0,.09,0,.13.13,1.33.27,2.67.43,4,0,0,0,.1,0,.15.16,1.32.33,2.64.52,4a1.1,1.1,0,0,1,0,.18c.19,1.31.39,2.62.61,3.94l0,.17c.21,1.31.45,2.61.69,3.92a1.62,1.62,0,0,0,0,.19c.24,1.29.5,2.59.77,3.88,0,.07,0,.13.05.2.27,1.29.56,2.57.86,3.85,0,.07,0,.15.05.22.3,1.27.62,2.55.95,3.82l.06.22c.33,1.27.67,2.53,1,3.79l.06.23c.36,1.26.73,2.51,1.12,3.76a2,2,0,0,0,.07.23c.38,1.25.78,2.5,1.2,3.74,0,.07.05.15.07.23.42,1.24.85,2.48,1.29,3.71,0,.07.05.15.08.22.44,1.23.9,2.46,1.37,3.68l.09.23c.47,1.22,1,2.44,1.45,3.65a2.29,2.29,0,0,1,.1.23c.5,1.21,1,2.41,1.53,3.61l.11.23c.52,1.2,1.06,2.4,1.62,3.59l.1.22c.56,1.19,1.13,2.38,1.71,3.56l.1.2c.59,1.19,1.19,2.37,1.81,3.55l.09.18q.93,1.77,1.89,3.51a1.74,1.74,0,0,1,.1.19q1,1.74,2,3.48a1.4,1.4,0,0,1,.1.16c.68,1.16,1.37,2.32,2.08,3.47l.08.14c.71,1.15,1.44,2.3,2.18,3.44l.07.12c.75,1.14,1.5,2.28,2.27,3.41a.61.61,0,0,1,.07.1c.78,1.14,1.57,2.28,2.38,3.4l0,.06c.82,1.14,1.65,2.27,2.49,3.4h0a182.38,182.38,0,0,0,145.4,72.54h.38c1.61,0,3.21,0,4.8-.07.7,0,1.39-.06,2.08-.09,1,0,2.06-.07,3.08-.13.81,0,1.61-.11,2.41-.17s1.82-.11,2.73-.19,1.69-.16,2.53-.25l2.57-.25c.87-.1,1.73-.22,2.59-.33s1.66-.2,2.49-.32,1.74-.26,2.61-.4,1.62-.24,2.42-.38,1.75-.32,2.63-.48l2.38-.44,2.62-.55c.78-.17,1.57-.33,2.35-.51s1.73-.42,2.6-.63,1.55-.37,2.33-.57,1.72-.46,2.57-.69l2.31-.64c.86-.24,1.7-.5,2.55-.76l2.29-.7,2.52-.83,2.27-.76,2.49-.9c.75-.27,1.5-.54,2.25-.83l2.45-.95c.75-.3,1.5-.59,2.24-.9s1.61-.68,2.41-1l2.22-1,2.37-1.08,2.2-1,2.34-1.14,2.17-1.09c.77-.39,1.53-.8,2.29-1.2s1.45-.77,2.16-1.16l2.25-1.25c.71-.41,1.43-.81,2.13-1.23s1.47-.86,2.2-1.31,1.42-.85,2.12-1.29,1.44-.9,2.15-1.36,1.4-.9,2.09-1.36l2.1-1.41c.7-.47,1.38-.95,2.07-1.43s1.37-1,2-1.46,1.37-1,2-1.5l2-1.5,2-1.57q1-.76,2-1.56l2-1.62,1.9-1.61,1.95-1.7,1.84-1.64c.65-.58,1.28-1.17,1.91-1.77s1.21-1.12,1.8-1.69,1.26-1.22,1.88-1.83l1.74-1.73c.62-.63,1.23-1.27,1.84-1.9s1.13-1.18,1.68-1.78,1.21-1.3,1.8-2,1.1-1.21,1.64-1.82,1.17-1.35,1.75-2,1.06-1.23,1.58-1.86c.15-.18.32-.37.47-.56h0c.8-1,1.6-1.93,2.38-2.92Z"/><circle cx="182.26" cy="182.34" r="18.03"/><path d="M240.6,208.48a63.93,63.93,0,0,0-104.68-70.19L53.74,83.19l-12.09-8.1L37.1,72h0c-2.16,2.85-4.26,5.77-6.27,8.77S26.89,86.87,25.07,90l16.65,11.16,82.19,55.11a63.93,63.93,0,0,0,104.67,70.18l98.81,66.25h0q3.25-4.28,6.28-8.78c2-3,3.92-6.06,5.74-9.15l-16.65-11.16Zm-28.07-5.84A36.44,36.44,0,1,1,218,175.29,36.43,36.43,0,0,1,212.53,202.64Z"/><ellipse cx="182.27" cy="431.49" rx="135.44" ry="28"/></g></g></svg>