<svg xmlns="http://www.w3.org/2000/svg" viewBox="0 0 77.24 87.85"><g id="Layer_2" data-name="Layer 2"><g id="Layer_1-2" data-name="Layer 1"><path d="M33,52s-4.7,2-7.73-.59c0,0-1.78,0-.5,1.6s5.86,1.94,7.77.37S33,52,33,52Z"/><path d="M46.76,74.26l-3.69-.61a5.46,5.46,0,0,0-2.82.44c-1.16.64-3.76-.85-5.7-.48s-4.17.63-4.17.63l4.16-1.76s2.42-.72,3.76,0c.88.47,2-.65,4.38-.1A11.08,11.08,0,0,1,46.76,74.26Z"/><circle cx="50.48" cy="49.55" r="0.71"/><circle cx="29.05" cy="49.4" r="0.71"/><path d="M62,50.11a9.55,9.55,0,0,0,7.35,5.71s-3.92-11.43-1.76-14.17c0,0,7.27-1.88,8.67,1.47,0,0-.58-4-5.75-4.64,0,0,4.2,1.26,6.78-1.42,0,0-7.64-6.22-6.78-10.34,0,0,3.19,2.51,5.27.89,0,0-9.5-4.56-8.25-7.8a10,10,0,0,1,7.59,3.92S68.85,5.26,47.35,6.21c0,0-18-10.93-29.22-3.8,0,0,4.73-.84,6.77,1.64,0,0-10.56,2.31-10.94,5.53,0,0,3.33-2.23,5-1.45,0,0-5.47,7.11-12.61,9.51A10.61,10.61,0,0,0,13,18s-3.3,7.82-8.49,10.54c0,0,2.92,1.15,4.2.39A16.43,16.43,0,0,1,0,39.65s5.41,1,6.9,0c0,0,1.31,5.8-1.85,6.09,0,0,4.84-.48,5.4-1.87,0,0-1.32,6.83-6.94,8,0,0,7,4.14,12.46-.92l1-14.19s5.06-1.28,6.56-5.29c0,0-1.22,3.57,4.6,9.81,0,0-3.74-12.94-2.56-17a3.16,3.16,0,0,1,3.65,2.56,3.11,3.11,0,0,1,0,1s.69,10.46,8,13.83c0,0-5.62-8.5,3.31-14.7,0,0-2,11.64,1.77,15.07,0,0-.73-8,4.16-14.39,0,0,4.36.58,3.07,4.3,0,0,2-3.76,3.78-3.63,0,0,.54,9.28,4,12.33,0,0-3-7.41-1.63-11.1C55.74,29.47,64.41,30.07,62,50.11Z"/><path d="M34.84,47.92a2.5,2.5,0,0,0-1.45-2.65c-1.73-.69-4.13-.9-6.45-2.75s-6.76.79-7.35,4.25C19.59,46.77,23.61,41.8,34.84,47.92Z"/><path d="M46.21,51.65s4.35,2.71,7.73.57c0,0,1.76.28.26,1.66s-6.08,1-7.73-.8S46.21,51.65,46.21,51.65Z"/><path d="M30.38,74.22s2.56,3.37,8.42,3.43H39a11.85,11.85,0,0,0,7.81-3.43s-4.42,2.65-8,2.87h-.32c-3.5,0-8.06-2.92-8.06-2.92Z"/><path d="M43.73,48.1a2.51,2.51,0,0,1,1.55-2.59c1.76-.62,4.17-.73,6.55-2.5s6.73,1.06,7.18,4.55C59,47.56,55.19,42.43,43.73,48.1Z"/><path d="M64.78,52.89s-.48,8-4.91,9.55C59.87,62.44,65.24,63.65,64.78,52.89Z"/><path d="M24.36,50.79s4.13-5.44,8.86,0C33.22,50.79,29.24,46.26,24.36,50.79Z"/><path d="M30.61,49s.75,2.48-1.65,2.65a2.15,2.15,0,0,1-2.14-2.19,2.4,2.4,0,0,1,.05-.46s-1,3.1,2.09,3.12C31.73,52.12,30.61,49,30.61,49Z"/><path d="M54.32,51.17s-3.88-5.63-8.85-.41C45.47,50.76,49.66,46.42,54.32,51.17Z"/><path d="M48.54,49.1s-.86,2.44,1.53,2.73a2.15,2.15,0,0,0,2.23-2.1,1.81,1.81,0,0,0,0-.46s.85,3.15-2.22,3C47.26,52.18,48.54,49.1,48.54,49.1Z"/><path d="M39.54,67.14a2.46,2.46,0,0,1-1.65-1.43s-.74-1.32-1.54-1.59-1.75,0,.44,2.28c0,0-1-1.6-.9-1.92a3.08,3.08,0,0,1,1,1C37.54,66.25,38.42,67.25,39.54,67.14Z"/><path d="M39.54,67.14a2.46,2.46,0,0,0,1.65-1.43s.74-1.32,1.54-1.59,1.75,0-.43,2.28c0,0,1-1.6.89-1.92a3.08,3.08,0,0,0-1,1C41.54,66.27,40.67,67.25,39.54,67.14Z"/><path d="M16.21,47.51s.33,10,1.88,15.79,2.3,9.28,4.35,11.66S31.91,87.65,39.54,87c0,0,3.06.36,7.56-3.57s8.82-7.2,10.55-12.63S62.12,52,62.28,46.65l.46,2.91s-2,12.77-3.2,17.59-3.09,9.07-6.69,12.11-8,8.52-13.31,8.58-7.4-2-11.53-5.45c0,0-4.94-5.07-6.22-7a19.36,19.36,0,0,1-3.1-6.8A77,77,0,0,1,15.46,49.4Z"/><path d="M24.36,50.79a4.79,4.79,0,0,1,6.23-2.63,4.84,4.84,0,0,1,2.63,2.63C30.12,47.72,27.17,47.87,24.36,50.79Z"/><path d="M45.46,50.79a4.76,4.76,0,0,1,8.86.38C51.33,48,48.38,48,45.46,50.79Z"/><path d="M12.54,52.11s.49,8,4.92,9.55C17.42,61.65,12.05,62.89,12.54,52.11Z"/><path d="M36.8,50.44a10.87,10.87,0,0,1-.47,8.62S37.14,53.22,36.8,50.44Z"/></g></g></svg>