<svg xmlns="http://www.w3.org/2000/svg" 
    xmlns:xlink="http://www.w3.org/1999/xlink" version="1.1" x="0px" y="0px" viewBox="0 0 90 112.5" enable-background="new 0 0 90 90" xml:space="preserve">
    <g>
        <path fill="#000000" d="M76.822,54.979l-3.465-13.958c-0.429-1.73-1.972-2.938-3.752-2.938c-0.314,0-0.629,0.039-0.936,0.115   l-0.492,0.122c-2.07,0.514-3.336,2.616-2.823,4.686l0.037,0.147H63.27c-0.757-4.503-4.553-7.977-9.204-8.238v-0.547h3.86   c3.283,0,5.954-2.671,5.954-5.955V27.25c0-3.283-2.671-5.955-5.954-5.955h-3.934c-0.347-1.847-1.965-3.25-3.912-3.25h-0.491   l2.491-2.804l-2.224-1.326l4.95-2.056l-5.13-5.297c-0.231-2.376-2.216-4.246-4.652-4.246c-2.592,0-4.7,2.107-4.7,4.698   c0,2.591,2.108,4.699,4.7,4.699c1.875,0,3.484-1.112,4.237-2.705l2.063,2.13l-5.911,2.456l3.564,2.125l-2.065,2.324h-6.946   c-1.946,0-3.564,1.404-3.911,3.25h-3.934c-3.284,0-5.956,2.671-5.956,5.955v1.163c0,3.284,2.672,5.955,5.956,5.955h3.859v0.547   c-4.815,0.271-8.721,3.985-9.277,8.72H24.61l0.037-0.146c0.249-1.003,0.091-2.043-0.441-2.928c-0.533-0.885-1.379-1.51-2.38-1.757   l-0.496-0.124c-0.306-0.076-0.62-0.114-0.934-0.114c-1.781,0-3.325,1.208-3.753,2.938l-3.465,13.96   c-0.459,1.853,0.513,3.721,2.203,4.463l1.558,7.243c-1.475,0.906-2.47,2.521-2.47,4.375c0,2.837,2.308,5.146,5.145,5.146v-2   c-1.734,0-3.145-1.411-3.145-3.146c0-1.735,1.411-3.147,3.145-3.147c1.735,0,3.147,1.412,3.147,3.147h2   c0-2.838-2.309-5.147-5.147-5.147c-0.267,0-0.523,0.04-0.779,0.079l-1.312-6.098c1.74-0.043,3.237-1.231,3.659-2.93l1.325-5.339   h4.124v9.655c0,4.284,2.737,7.931,6.55,9.312v1.209c0,3.875,2.435,7.371,6.005,8.749v0.811c0,3.22,2.619,5.84,5.839,5.84   s5.839-2.62,5.839-5.84v-0.812c3.57-1.379,6.004-4.873,6.004-8.748v-1.209c3.813-1.381,6.549-5.028,6.549-9.312V51.627h4.076   l1.324,5.337c0.421,1.698,1.918,2.888,3.659,2.931l-1.311,6.098c-0.257-0.04-0.514-0.079-0.781-0.079   c-2.836,0-5.144,2.309-5.144,5.146h2c0-1.735,1.411-3.146,3.144-3.146c1.735,0,3.147,1.412,3.147,3.146s-1.412,3.146-3.147,3.146v2   c2.838,0,5.147-2.309,5.147-5.146c0-1.854-0.995-3.468-2.47-4.374l1.557-7.243C76.31,58.702,77.281,56.833,76.822,54.979z    M45.025,9.713c-1.489,0-2.7-1.211-2.7-2.699c0-1.488,1.211-2.698,2.7-2.698c1.487,0,2.698,1.21,2.698,2.698   C47.723,8.502,46.512,9.713,45.025,9.713z M39.967,20.044H50.08c0.835,0,1.548,0.519,1.841,1.25H38.127   C38.42,20.563,39.133,20.044,39.967,20.044z M28.167,28.413V27.25c0-2.181,1.774-3.955,3.956-3.955h25.803   c2.18,0,3.954,1.774,3.954,3.955v1.163c0,2.181-1.774,3.955-3.954,3.955H32.123C29.942,32.368,28.167,30.593,28.167,28.413z    M52.066,34.368v2.53c0,1.095-0.891,1.986-1.986,1.986H39.967c-1.094,0-1.985-0.891-1.985-1.986v-2.53H52.066z M19.241,56.966   c-0.244,0.982-1.283,1.604-2.261,1.365l-0.496-0.124c-1-0.248-1.612-1.263-1.364-2.263l3.465-13.96   c0.207-0.835,0.952-1.419,1.812-1.419c0.151,0,0.303,0.019,0.45,0.055l0.496,0.124c0.484,0.12,0.892,0.421,1.149,0.848   c0.258,0.428,0.333,0.93,0.213,1.415L19.241,56.966z M23.004,50.109l1.11-4.474h2.517v4.474H23.004z M35.181,72.285V71.57   c0.446,0.062,0.898,0.104,1.361,0.104h2.645v7.156C36.778,77.583,35.181,75.063,35.181,72.285z M48.864,81.844   c0,2.117-1.722,3.84-3.839,3.84s-3.839-1.723-3.839-3.84V58.717c0-2.117,1.722-3.84,3.839-3.84s3.839,1.723,3.839,3.84V81.844z    M54.868,72.285c0,2.778-1.597,5.296-4.004,6.544v-7.154h2.644c0.463,0,0.915-0.043,1.36-0.104V72.285z M61.417,61.764   c0,4.362-3.548,7.911-7.91,7.911h-2.644V58.717c0-3.22-2.619-5.84-5.839-5.84s-5.839,2.62-5.839,5.84v10.957h-2.645   c-4.362,0-7.911-3.549-7.911-7.911V44.797c0-4.174,3.251-7.594,7.354-7.882c0.009,2.189,1.792,3.969,3.983,3.969H50.08   c2.192,0,3.975-1.779,3.985-3.969c4.102,0.288,7.353,3.708,7.353,7.882V61.764z M63.417,49.627v-4.475h2.47l1.11,4.475H63.417z    M70.759,56.483l-3.463-13.959c-0.248-1,0.363-2.015,1.363-2.264l0.493-0.122c0.149-0.037,0.301-0.056,0.453-0.056   c0.859,0,1.604,0.583,1.811,1.419l3.465,13.958c0.248,1.001-0.364,2.017-1.366,2.265l-0.491,0.122   C72.031,58.096,71.003,57.467,70.759,56.483z"/>
        <path fill="#000000" d="M37.455,29.637h6.123v-4.673h-6.123V29.637z M39.455,26.964h2.123v0.673h-2.123V26.964z"/>
        <path fill="#000000" d="M46.471,29.637h6.121v-4.673h-6.121V29.637z M48.471,26.964h2.121v0.673h-2.121V26.964z"/>
    </g>
</svg>