<svg xmlns="http://www.w3.org/2000/svg" viewBox="0 0 54 53.9"><g id="Layer_2" data-name="Layer 2"><g id="Layer_1-2" data-name="Layer 1"><path d="M12.47,7.8a3.83,3.83,0,0,1-4-3.9,3.83,3.83,0,0,1,4-3.9,3.83,3.83,0,0,1,4,3.9A3.83,3.83,0,0,1,12.47,7.8Zm0-5.8a1.84,1.84,0,0,0-2,1.9,1.84,1.84,0,0,0,2,1.9,1.84,1.84,0,0,0,2-1.9A1.84,1.84,0,0,0,12.47,2Z"/><path d="M50,45.33a3.9,3.9,0,1,1,4-3.9A3.83,3.83,0,0,1,50,45.33Zm0-5.8a1.9,1.9,0,1,0,2,1.9A1.84,1.84,0,0,0,50,39.53Z"/><path d="M33,21.94a1,1,0,0,1-1-1l-.12-3.58a9,9,0,0,0-7.6-8.59l-1.89-.29c-1.25-.19-2.5-.38-3.74-.6a1,1,0,0,1-.81-1.15A1,1,0,0,1,19,6c1.23.22,2.46.4,3.7.59l1.9.29a11,11,0,0,1,9.29,10.5L34,20.91a1,1,0,0,1-1,1Z"/><path d="M47,36.12a1,1,0,0,1-1-.83c-.21-1.25-.4-2.5-.59-3.75l-.3-1.88a9,9,0,0,0-8.59-7.6l-3.57-.12a1,1,0,0,1-1-1,1,1,0,0,1,1-1l3.58.12a11,11,0,0,1,10.5,9.29l.29,1.89c.19,1.24.38,2.48.59,3.72a1,1,0,0,1-.82,1.15Z"/><path d="M29.09,25.81a1,1,0,0,1-1-1l-.25-7.32a5,5,0,0,0-4.22-4.77l-5.53-.87a10.81,10.81,0,0,1-7.18-4.51,1,1,0,0,1,1.65-1.14A8.77,8.77,0,0,0,18.4,9.92l5.53.86a7,7,0,0,1,5.91,6.69l.25,7.31a1,1,0,0,1-1,1Z"/><path d="M47.09,43.17a1,1,0,0,1-.56-.18A10.77,10.77,0,0,1,42,35.81l-.87-5.53a5,5,0,0,0-4.77-4.22l-7.31-.25a1,1,0,0,1,0-2h0l7.32.24A7,7,0,0,1,43.12,30L44,35.5a8.79,8.79,0,0,0,3.67,5.84,1,1,0,0,1,.26,1.39A1,1,0,0,1,47.09,43.17Z"/><path d="M7.89,41.36h0l-2.07-.08a1,1,0,0,1,0-2h0l2.06.08a1,1,0,0,1,0,2Z"/><path d="M1,46.1a1,1,0,0,1-.71-.29,1,1,0,0,1,0-1.42l4.82-4.82A1,1,0,0,1,6.53,41L1.71,45.81A1,1,0,0,1,1,46.1Z"/><path d="M8.52,46.39h0L1,46.1a1,1,0,1,1,.08-2l7.51.29a1,1,0,0,1,1,1A1,1,0,0,1,8.52,46.39Z"/><path d="M13.62,49.08a1,1,0,0,1-1-1l-.08-2.07a1,1,0,0,1,1-1,1,1,0,0,1,1,1L14.62,48a1,1,0,0,1-1,1Z"/><path d="M8.8,53.9a1,1,0,0,1-.71-.29,1,1,0,0,1,0-1.42l4.82-4.82a1,1,0,1,1,1.42,1.42L9.51,53.61A1,1,0,0,1,8.8,53.9Z"/><path d="M8.8,53.9a1,1,0,0,1-1-1l-.28-7.52a1,1,0,0,1,2-.07l.29,7.51a1,1,0,0,1-1,1Z"/><path d="M41,6.08a1,1,0,0,1-.17-2l9.5-1.7a1,1,0,0,1,1.17.81,1,1,0,0,1-.81,1.16L41.2,6.06Z"/><path d="M48.82,13.88l-.17,0a1,1,0,0,1-.81-1.16l1.71-9.51a1,1,0,1,1,2,.36l-1.7,9.5A1,1,0,0,1,48.82,13.88Z"/><path d="M8.52,46.39a1,1,0,0,1-.71-.3,1,1,0,0,1,0-1.41L44.22,8.27a1,1,0,0,1,1.41,1.41L9.22,46.09A1,1,0,0,1,8.52,46.39Z"/><path d="M48.82,13.88a1,1,0,0,1-.7-.29l-7.8-7.81a1,1,0,0,1,0-1.41,1,1,0,0,1,1.41,0l7.8,7.8a1,1,0,0,1-.71,1.71Z"/><path d="M44.9,43.21a58.44,58.44,0,0,1-13.3-1.54,57.16,57.16,0,0,1-7.48-2.29,16.19,16.19,0,0,1-6.22-3.62,17,17,0,0,1-3.51-6.33A58.36,58.36,0,0,1,10.74,6.77a1,1,0,0,1,1-1,1,1,0,0,1,1,1A56.78,56.78,0,0,0,14.1,21.49a55.71,55.71,0,0,0,2.16,7.24,15.49,15.49,0,0,0,3.08,5.64,14.6,14.6,0,0,0,5.49,3.14,55.65,55.65,0,0,0,7.22,2.21,56.14,56.14,0,0,0,15,1.44,1,1,0,0,1,1,1,1,1,0,0,1-1,1C46.39,43.19,45.65,43.21,44.9,43.21Z"/></g></g></svg>