<svg xmlns="http://www.w3.org/2000/svg" viewBox="0 0 492.9 508"><g id="Layer_2" data-name="Layer 2"><g id="Layer_1-2" data-name="Layer 1"><path d="M391.2,304.6a101.93,101.93,0,0,0-41.3,8.8l-43.3-43.3L460.2,116.5a81,81,0,0,0,24-55.5A74.54,74.54,0,0,0,462.5,6l-6-6-210,210L36.5,0l-6,6A74.61,74.61,0,0,0,8.8,61.1,81.43,81.43,0,0,0,33,116.8L186.3,270.1,143,313.4a101.59,101.59,0,1,0,56.3,64l47.2-47.2,47.2,47.2a101.7,101.7,0,1,0,97.5-72.8ZM101.8,491a84.7,84.7,0,1,1,40.1-159.3l1.1.6c.8.4,1.5.9,2.3,1.4a84.13,84.13,0,0,1,13.6,10.1c.6.6,1.3,1.1,1.9,1.7,1,1,2,2,2.9,3a28.48,28.48,0,0,1,2.3,2.6c.8.9,1.6,1.9,2.3,2.8.9,1.1,1.7,2.3,2.6,3.4a22,22,0,0,1,1.7,2.5c1,1.6,2,3.2,3,4.9l.9,1.5A84.69,84.69,0,0,1,101.8,491ZM300.6,360.2l-54.1-54-54,54c-.2-.4-.4-.7-.6-1.1a99.35,99.35,0,0,0-5.9-9.9,4.35,4.35,0,0,0-.6-.7c-2.1-3-4.4-5.9-6.8-8.7-.6-.7-1.2-1.4-1.9-2.1q-3.3-3.6-6.9-6.9c-.6-.5-1.1-1-1.7-1.5a98,98,0,0,0-9.6-7.4l51.8-51.8L45.1,104.7A64.36,64.36,0,0,1,25.9,60.6,57.16,57.16,0,0,1,37,24.5L246.5,234,456,24.5a58,58,0,0,1,11.2,36.1,64.11,64.11,0,0,1-19,43.9L282.6,270.1l51.8,51.8c-.1,0-.1.1-.2.2-3.1,2.1-6.1,4.5-9,6.9-.9.8-1.8,1.6-2.7,2.5q-3.15,2.85-6,6a26.22,26.22,0,0,0-2.2,2.5,100.33,100.33,0,0,0-13.5,20A.22.22,0,0,0,300.6,360.2ZM391.2,491a84.8,84.8,0,0,1-84.7-84.7,83.82,83.82,0,0,1,5.6-30.1c.8-2.1,1.7-4.1,2.6-6.1l.6-1.2c.9-1.8,1.9-3.6,2.9-5.4.3-.6.7-1.2,1-1.7,1-1.5,2-3.1,3-4.5.6-.8,1.1-1.5,1.7-2.3.9-1.2,1.9-2.5,2.9-3.6.8-.9,1.7-1.8,2.5-2.8s1.8-1.9,2.7-2.8l3.3-3,2.5-2.2c1.3-1,2.6-2,3.9-2.9l2.4-1.8c1.4-.9,2.9-1.8,4.3-2.6.8-.5,1.7-1,2.5-1.5A84.64,84.64,0,1,1,391.2,491Z"/><path d="M391.2,346.8a59.5,59.5,0,1,0,59.5,59.5A59.58,59.58,0,0,0,391.2,346.8Zm0,102a42.5,42.5,0,1,1,42.5-42.5A42.59,42.59,0,0,1,391.2,448.8Z"/><path d="M101.8,346.8a59.5,59.5,0,1,0,59.5,59.5A59.58,59.58,0,0,0,101.8,346.8Zm0,102a42.5,42.5,0,1,1,42.5-42.5A42.59,42.59,0,0,1,101.8,448.8Z"/><path d="M246.3,244.7a25.5,25.5,0,1,0,25.5,25.5A25.48,25.48,0,0,0,246.3,244.7Zm0,34a8.5,8.5,0,1,1,8.5-8.5A8.49,8.49,0,0,1,246.3,278.7Z"/></g></g></svg>