<svg xmlns="http://www.w3.org/2000/svg" data-name="Layer 1" viewBox="0 0 128 160" x="0px" y="0px">
    <title>expand-black-line-Athletics</title>
    <path d="M101.62,88.64H76.17A28.09,28.09,0,0,1,50.8,72.46L24.31,15.52a6.09,6.09,0,1,0-11,5.14L44.88,88.6a86.81,86.81,0,0,1,4.28,11.74,22.1,22.1,0,0,0,15.17,14.84,21.29,21.29,0,0,0,5.87.82h31.42a13.68,13.68,0,0,0,0-27.36Zm-4.31,4V112h-5V92.63Zm-24-.13V112H70.2a16.61,16.61,0,0,1-1.87-.1V91.64A30.8,30.8,0,0,0,73.32,92.5ZM53,99.19A90.86,90.86,0,0,0,48.5,86.91L16.89,19a2.1,2.1,0,0,1,1-2.78,2.15,2.15,0,0,1,.88-.19,2.09,2.09,0,0,1,1.9,1.21L47.17,74.14a32.07,32.07,0,0,0,17.16,16.2V111A18.09,18.09,0,0,1,53,99.19ZM77.32,112V92.63h11V112Zm24.3,0h-.31V92.63h.31a9.69,9.69,0,0,1,0,19.37Z"/>
    <path d="M80.59,81c3.65,0,21.86-.32,21.86-6.67V63.76c0-6.35-18.21-6.67-21.86-6.67s-21.86.32-21.86,6.67V74.28C58.73,80.63,76.94,81,80.59,81Zm0-19.86c9.74,0,15.74,1.59,17.5,2.67-1.76,1.08-7.76,2.68-17.5,2.68s-15.74-1.6-17.5-2.68C64.85,62.68,70.85,61.09,80.59,61.09ZM62.73,68c5.57,2.29,15.3,2.45,17.86,2.45S92.88,70.27,98.45,68v6c-1.09,1-7.26,2.94-17.86,2.94S63.82,75.06,62.73,74Z"/>
</svg>