<svg xmlns="http://www.w3.org/2000/svg" viewBox="0 0 71.91 90"><g id="Layer_2" data-name="Layer 2"><g id="Layer_1-2" data-name="Layer 1"><path d="M71.9,20.81a3.17,3.17,0,0,0-1.85-2.91,4.4,4.4,0,0,0-3.22-.55,2,2,0,0,0-1.43,1.1,3.42,3.42,0,0,0-.2,2.79,2.86,2.86,0,0,1,.39,2.43,11.73,11.73,0,0,1-1.28,2.19c-.24.37-.5.75-.76,1.16a13.43,13.43,0,0,1-1.23,1.51l-.16.17c-.09-.49-.22-1.13-.36-1.86a5.65,5.65,0,0,0-1.16-2.64c0-.18,0-.35.08-.54a8.9,8.9,0,0,0-1.67-5.59,3.71,3.71,0,0,0-1.63-1.37,2.89,2.89,0,0,1-.35-.19,4.34,4.34,0,0,1,1.73-.92c1-.16,1.1,0,2.33-.17s1.25-1.18,1.22-1.84a3.74,3.74,0,0,1,0-.75,6.89,6.89,0,0,0,0-1.65l0-.34a1.36,1.36,0,0,0,1.25-1.11,2.38,2.38,0,0,0-.79-1.68,4,4,0,0,1-.44-.59,5.57,5.57,0,0,1-.17-1.26A15.66,15.66,0,0,0,61.88,4c-.43-2-1.65-3.16-4-3.64-2.52-.52-3-.52-4.86.56S50.73,3.06,50.22,6a6.87,6.87,0,0,0,.33,3.93,19.5,19.5,0,0,0-4.19-.47l-.8,0A66.28,66.28,0,0,0,36,9.93a16.16,16.16,0,0,0-4.56,1.38,1.46,1.46,0,0,0-.7,1,2.63,2.63,0,0,1-.47.93,29.69,29.69,0,0,0-3,6.08c-.17.51-.41,1.28-.69,2.13-.59,1.84-1.26,3.92-1.49,4.72-.14.5-.35,1.08-.55,1.66a21.22,21.22,0,0,0-.71,2.2,2.24,2.24,0,0,0,.4,2,2.26,2.26,0,0,1,.22.37c.19.44.79,1.06,3.77,1.22,1.65.08,2.47.09,3.13-.57.83-.83-.17-3.65-.69-4.39a4.76,4.76,0,0,0-1.12-1.1,2.63,2.63,0,0,1-.29-.25,24.92,24.92,0,0,1,1-2.85l.1-.25a14.92,14.92,0,0,1,2.57-3.77,14.09,14.09,0,0,0,1.31-1.85,8.8,8.8,0,0,1,1.44-1.91c.37-.26,1.76.07,2.78.32a21.72,21.72,0,0,0,2.13.43c.56.07,1.33.13,2.14.18v3.91A67,67,0,0,1,41.05,32a21,21,0,0,1-1.33,4.17v0h0a2.8,2.8,0,0,1-.28.48,10.51,10.51,0,0,0-2.93,3c-.78,1.47-1.58,3-1.3,4.81,0,.08,0,.16,0,.24h-.1c-.07,1.25-1.86,4.41-3.07,5.69a21.93,21.93,0,0,0-2.53,4.52,26.79,26.79,0,0,1-1.44,2.81A9.7,9.7,0,0,1,25.83,60c-.79.15-5.36,1.07-7.07,2.7-.64.61-1.41,1.39-2.19,2.19A43.89,43.89,0,0,1,13,68.32c-.48.37-1.09.89-1.74,1.44a23.77,23.77,0,0,1-3.28,2.53,7.2,7.2,0,0,1-4.54.61c-.43-.06-.77-.12-1-.17-1.19-.21-1.67-.16-2,1.21A25.67,25.67,0,0,0,0,79.15a1.47,1.47,0,0,0,.47,1,1.25,1.25,0,0,1,.37,1.18c0,.31-.08.6-.12.89a7.51,7.51,0,0,0,.05,3.4,7.7,7.7,0,0,0,2,3.39l.38.37a1.49,1.49,0,0,0,1,.6,1.8,1.8,0,0,0,.93-.34c1-.65,1-1.67,1-3v-.63c0-.23,0-.44,0-.63a3.36,3.36,0,0,1,.66-2.57,9.4,9.4,0,0,1,1.61-1.65A4.69,4.69,0,0,0,9,80.63a2.29,2.29,0,0,0,.4-1.06,2.71,2.71,0,0,1,.23-.76,9.78,9.78,0,0,1,2-2.3,21.49,21.49,0,0,1,4.49-3.26c1.12-.63,2.83-1.52,4.34-2.3,1.32-.68,2.45-1.27,2.93-1.55a9,9,0,0,0,1.23-.93,4.84,4.84,0,0,1,1.55-1c.32-.07.73-.14,1.18-.2a9.34,9.34,0,0,0,2.94-.76A15.66,15.66,0,0,0,33,64.08c.69-.68,1.41-1.4,2-1.9.83-.69,2-1.71,3-2.63.84-.74,1.61-1.42,2.06-1.79s.87-.69,1.44-1.13c1.08-.84,2.31-1.78,2.93-2.4a14.07,14.07,0,0,0,1.44-1.76l.89.38a35.6,35.6,0,0,0,4.37,1.68c.75.18,2.11.39,3.43.61s2.46.4,3.17.56a19.23,19.23,0,0,1,1.9.57h0a19.72,19.72,0,0,1-1.33,3.37,12.27,12.27,0,0,0-1.19,3.94c-.06.35-.13.7-.2,1a13.81,13.81,0,0,0-.17,3.25c0,.52,0,1,0,1.4a17.31,17.31,0,0,1-1.62,4l-.42.86a29.51,29.51,0,0,0-1.21,3.36c-.11.34-.21.66-.31.95A24.31,24.31,0,0,1,52,81.27c-.24.46-.46.89-.63,1.25a1.8,1.8,0,0,0-.06,1.4A3,3,0,0,0,53,85.37a12,12,0,0,0,4.51.86,11.76,11.76,0,0,1,4.3.57,6.15,6.15,0,0,0,1.55.19,16.52,16.52,0,0,0,3.62-.55l1-.21a2.17,2.17,0,0,0,1.53-1.09A2.91,2.91,0,0,0,69.61,83c-.23-.57-1-.92-3.28-1.38a11,11,0,0,1-4.1-2.39,5.79,5.79,0,0,1-1.15-2.33l-.14-.4a2.83,2.83,0,0,1-.23-1.68c.1-.19.24-.52.44-1,.39-.89,1-2.23,1.77-3.8.88-1.77,1.8-4,2.53-5.74.25-.58.47-1.11.65-1.55A65.82,65.82,0,0,0,69,54.82a4.17,4.17,0,0,0-1.69-4.13,3.71,3.71,0,0,1-.28-.26A63.82,63.82,0,0,0,61.08,45a7.42,7.42,0,0,1-1.32-1.07A10.16,10.16,0,0,0,58,42.52c-.55-.35-1.29-.75-2.07-1.17-1-.53-2-1.11-2.9-1.69a.58.58,0,0,0,0-.14,9.92,9.92,0,0,1,1.19-2.73c.22-.42.46-.86.67-1.3.38-.74,1.05-1.83,1.77-3a14.35,14.35,0,0,0,1,2.39c.14.24.25.46.35.66.52,1,.87,1.7,2.45,1.7h.06c1.91,0,4-2.37,4.76-3.5a34.91,34.91,0,0,0,1.59-3.11c.4-.82.76-1.59,1-2s.66-1.17,1.09-2c.53-1,1.12-2.08,1.58-2.86a10.51,10.51,0,0,1,.64-1A2.65,2.65,0,0,0,71.9,20.81ZM62,8.69c.24.28.6.71.57.92s-.17.2-.58.27L61.7,10c-.48.17-.43.68-.36,1.33a6,6,0,0,1,0,1.4,6,6,0,0,0,0,.94c0,.75,0,.76-.35.81-1.13.16-1.22,0-2.36.17a5.25,5.25,0,0,0-2.19,1.13c-.17-.42-.35-1-.52-1.53a9.46,9.46,0,0,0-1.07-2.59,2.37,2.37,0,0,0-.75-.6,2.4,2.4,0,0,0,.59-1.76c-.06-1.5-.31-2.92.69-3.58s2.25.41,2.33,1.58.92,1.16.92,1.16A3.07,3.07,0,0,1,59,5.83c.51-.6,1.27-1.5,1.81-2.12a3.59,3.59,0,0,1,.12.47,15.65,15.65,0,0,1,.26,2.09,5,5,0,0,0,.26,1.61A3.89,3.89,0,0,0,62,8.69ZM38.67,15.93c-1.54-.36-2.86-.68-3.59-.17A8.79,8.79,0,0,0,33.37,18a13.74,13.74,0,0,1-1.21,1.71,16,16,0,0,0-2.76,4.08l-.1.24c-1,2.42-1.19,3.1-1.09,3.48s.34.52.67.78a4.44,4.44,0,0,1,.91.89,5.75,5.75,0,0,1,.8,3.11c-.33.33-.8.35-2.37.27-2.18-.11-2.83-.48-2.9-.61a2.94,2.94,0,0,0-.3-.52,1.24,1.24,0,0,1-.26-1.17,21.46,21.46,0,0,1,.67-2.1c.21-.6.43-1.2.58-1.72.22-.78.92-2.95,1.48-4.69l.68-2.13A30.61,30.61,0,0,1,31,13.82a3.82,3.82,0,0,0,.64-1.23c.09-.27.13-.36.2-.39a15.52,15.52,0,0,1,4.27-1.29,66,66,0,0,1,9.41-.49l.8,0a18.83,18.83,0,0,1,4,.45l.25.07c.26.32,1,1.24,1.47,1.91.32.46-.17,2.48-.47,3.69-.11.45-.21.88-.29,1.26-.36,1.75-1.07,3-1.54,3.23s-.95.15-3.07-.91A7.22,7.22,0,0,1,44,17.58c1.54.07,2.92.09,3,.09a.5.5,0,0,0,.51-.49.5.5,0,0,0-.49-.51s-4.5-.08-6.36-.33C40.06,16.26,39.35,16.09,38.67,15.93ZM8.74,78.32a3.21,3.21,0,0,0-.34,1.05,1.66,1.66,0,0,1-.2.64,4.76,4.76,0,0,1-.48.44,13,13,0,0,1-1.13-3.64,12.92,12.92,0,0,1,.12-3,7.15,7.15,0,0,0,1.7-.64l.45-.27a3.2,3.2,0,0,0,.88,1.52,10.94,10.94,0,0,1,1.17,1.37A10.3,10.3,0,0,0,8.74,78.32ZM39.47,57c-.46.38-1.23,1.06-2.08,1.81-1,.92-2.19,1.93-3,2.62-.64.52-1.37,1.25-2.08,2a16.81,16.81,0,0,1-2.51,2.23,8.74,8.74,0,0,1-2.62.65c-.48.07-.93.14-1.27.22A5.39,5.39,0,0,0,24,67.71a8.14,8.14,0,0,1-1.1.83c-.45.26-1.57.85-2.88,1.52-1.52.79-3.24,1.68-4.36,2.31a22.26,22.26,0,0,0-3.95,2.74,12.32,12.32,0,0,0-1.21-1.4,2.11,2.11,0,0,1-.68-1.45c.68-.53,1.42-1.15,2.1-1.74s1.23-1,1.69-1.4a42,42,0,0,0,3.72-3.54c.78-.79,1.54-1.57,2.17-2.17C21.07,61.87,26.06,61,26.11,61l.19-.08a10.35,10.35,0,0,0,2.64-2.64,27.17,27.17,0,0,0,1.52-2.94c.26-.56.54-1.15.82-1.71l4.37.45,3-1.75s1.31-.42,1.53.75a30.68,30.68,0,0,1,.27,3.2C40,56.53,39.71,56.79,39.47,57Zm16,18.12a4.24,4.24,0,0,0,1.84.45h2.38A5.36,5.36,0,0,0,60,76.83s0,.13.07.22c-1-.08-1.41.45-3.61.77a3.84,3.84,0,0,1-1.94-.07C54.81,76.87,55.12,75.92,55.46,75.11Zm10.83-24,.31.3c.74.68,1.76,1.62,1.39,3.15a63.66,63.66,0,0,1-2.81,7.76c-.19.44-.41,1-.65,1.56-.73,1.76-1.64,3.94-2.5,5.67s-1.4,3-1.8,3.85c-.19.41-.32.72-.42.91a1.87,1.87,0,0,0-.07.22H57.3a3.36,3.36,0,0,1-1.43-.36c.06-.14.13-.28.21-.44a16.07,16.07,0,0,0,1.72-4.42c0-.43,0-1,0-1.49a13.4,13.4,0,0,1,.15-3c.07-.34.14-.7.2-1.06a11.91,11.91,0,0,1,1.08-3.63,19.73,19.73,0,0,0,1.41-3.56,6.06,6.06,0,0,0,1.59.34,1.11,1.11,0,0,0,.43-.07.51.51,0,0,0,.27-.66.48.48,0,0,0-.64-.27A9.4,9.4,0,0,1,60,55.32c-.69-.23-1.41-.47-2-.6-.74-.16-1.94-.36-3.22-.57-1-.16-2-.33-2.78-.47a31.41,31.41,0,0,0,3-1.81c1.67-1.16,3.08-2.25,3.08-2.25V47.87h2l.59-1.93A61.27,61.27,0,0,1,66.29,51.14ZM54,35.05c-.21.43-.44.86-.67,1.28A14.07,14.07,0,0,0,52.14,39a4,4,0,0,1-.46-.45c-1.31-1.57-2.6-2.39-6.81-3.09a10.11,10.11,0,0,0-3.75-.08,29.67,29.67,0,0,0,.9-3.15A68,68,0,0,0,43.7,21.43V18.89A7.54,7.54,0,0,0,46.24,21a7.72,7.72,0,0,0,3,1.13,2.16,2.16,0,0,0,.88-.2c1-.47,1.79-2.41,2.11-3.94.07-.36.18-.78.28-1.22.53-2.15.86-3.73.32-4.51-.21-.29-.46-.63-.71-.94a3.87,3.87,0,0,1,1.9.87,9.46,9.46,0,0,1,.9,2.28,9.28,9.28,0,0,0,.93,2.31A2.75,2.75,0,0,0,57,17.6a2.67,2.67,0,0,1,1.25,1c.42.63,1.77,2.85,1.5,4.91a10.4,10.4,0,0,1-1.51,4.81c-.35.57-.83,1.3-1.34,2.08C55.8,32.05,54.59,33.9,54,35.05ZM70.41,22.3a12.45,12.45,0,0,0-.69,1c-.47.8-1.07,1.9-1.61,2.9-.42.79-.81,1.5-1.06,1.94s-.64,1.24-1,2.07a32.13,32.13,0,0,1-1.54,3c-.79,1.24-2.64,3-3.92,3-1,0-1.1-.16-1.61-1.15q-.15-.31-.36-.69a15.19,15.19,0,0,1-1.19-3l.32-.48c.52-.79,1-1.53,1.35-2.1a10,10,0,0,0,1.33-3.2A7.08,7.08,0,0,1,60.82,27c.24,1.24.44,2.23.52,2.65a3.78,3.78,0,0,0-.86,1.69.49.49,0,0,0,.43.56.5.5,0,0,0,.56-.43,6.22,6.22,0,0,1,1.6-2.31,13.49,13.49,0,0,0,1.33-1.64c.25-.4.5-.77.75-1.13A12.85,12.85,0,0,0,66.53,24a3.86,3.86,0,0,0-.44-3.24,2.51,2.51,0,0,1,.2-1.87,1,1,0,0,1,.67-.58,3.47,3.47,0,0,1,2.62.44,2.16,2.16,0,0,1,1.32,2.1A1.69,1.69,0,0,1,70.41,22.3Z"/></g></g></svg>