<svg xmlns="http://www.w3.org/2000/svg" viewBox="0 0 69.77 95.73"><g id="Layer_2" data-name="Layer 2"><g id="Layer_1-2" data-name="Layer 1"><path d="M35.27,49h0s0,0,0,0l-.87.56a0,0,0,0,1,0,0l0,0-.75.62,0,0,0,0L32.9,51l0,0,0,0-.48.68s0,0,0,.05l0,0-.3.73a.09.09,0,0,0,0,.05s0,0,0,0l-.07.35-.09.36v0s0,0,0,0l-.06.56v.18a0,0,0,0,0,0,0v0l.09,1.21,0,0s0,0,0,0l.33,1.29s0,0,0,0,0,0,0,.07l.6,1.24s0,0,0,0,0,0,0,0l.63.89h0l.21.29s0,0,0,0,0,0,0,0l1.07,1.13,0,0,0,0,1.28,1h0l0,0,1.48.94h0l0,0,1.67.82h0l2.33,1h0l0,0,2.63.77h.06l2.87.48h.05l3,.19h0l.85,0h.9l.84,0h0l.87-.06h0l.85-.12h0l.85-.12h0l.84-.16h0l.81-.18h0l.79-.23h0l.76-.26h0l.75-.29h0l.71-.32a.18.18,0,0,0,.07,0h0l.53-.4h0l.17-.15h0l.32-.27,0,0a0,0,0,0,0,0,0l.46-.45v0h0l.38-.46v0h0l.34-.46,0,0s0,0,0,0l.27-.47v0h0l.23-.5s0,0,0,0a0,0,0,0,0,0,0l.16-.49s0,0,0,0v0l.11-.49v0a0,0,0,0,1,0,0l.06-.49s0,0,0,0,0,0,0,0v-.49s0,0,0,0a0,0,0,0,0,0,0L63.69,58h0l-.12-.69h0v0h0l-.12-.64-.06-.39s0,0,0-.08,0,0,0-.07l-.83-1.65,0-.05,0-.06L61.1,52.84l0,0,0,0-1.78-1.35h0l-1.43-1h0l0,0-1.63-.86h0l0,0-1.79-.73h0l-1.94-.61s0,0,0,0h0l-2.07-.47h0L48,47.32h0l-2.25-.2s0,0,0,0h0l-2.26-.06h0l-1,0h0l-1.25.09h0l-1.24.18h0l-1.22.26h0L37.4,48h0l-1.07.45h0ZM58.6,63.83l-.76.26-.76.23-.78.18-.82.15-.84.12h0l-.83.11-.83.06-.83,0h-.83l-.85,0h0l-3-.18-2.81-.47-2.58-.75-2.29-1h0l-1.63-.8-1.44-.92-1.23-1-1-1.09-.19-.26h0l-.6-.86-.57-1.16-.31-1.2-.07-.87.92-.62,1.15-.58,1.24-.5,1.33-.43,1.4-.31,1.46-.23,1.47-.12,1.12-.06,2.65,0,2.62.19,2.51.38,2.38.54,2.24.68,2,.84,1.84,1,1.63,1.1,1.84,1.39.08.49.06.46V59l0,.44-.1.44-.15.44-.21.45-.24.42-.32.42-.37.44-.41.42-.31.26h0l-.17.14-.47.36-.65.3-.71.26Zm2.77-8.36h0l-1.67-1.13h0s0,0,0,0l-1.89-1s0,0,0,0h0l-2.09-.86h0l-2.28-.69h0l-2.41-.55h0l-2.56-.38h0l-2.63-.19h0l-2.68,0h0l-1.16.06h0l-1.5.12h0l-1.49.23h0l-1.43.32h0l-1.37.44h0l-1.29.51h0l-1.2.6,0,0,0,0-.07,0,.16-.24.59-.64.72-.58.85-.56,1-.51L37.44,50l1.16-.36,1.19-.26L41,49.19l1.28-.08h0l1,0,2.32.06,2.26.19,2.22.35,2.07.5,2,.62,1.81.74,1.62.87,1.45,1,1.78,1.34.92,1.06ZM42.44,48.1h0Z"/><path d="M69.69,59.51,69.32,57a1.49,1.49,0,0,0-.09-.3l-.5-1a2.09,2.09,0,0,0-.08-.23l-.52-1,0-.07a.08.08,0,0,1,0,0l-.61-1.18a.86.86,0,0,0-.13-.2l-1.85-2.12a1,1,0,0,0-.15-.14l-2.49-1.88,0,0-2-1.34-.09-.06-2.28-1.19-.08,0-2.51-1-.08,0-2.71-.87-.07,0-2.88-.66H50L47,43h-.08l-3.11-.28h-.06l-3.19-.09H40.5l-1.14.05-.78-.34-1.69-.81.43-.31L39,39.94l1.52-1.26a1.14,1.14,0,0,0,.26-.32l0,0,0-.07,0-.08a.74.74,0,0,0,0-.14l0-.1a.52.52,0,0,0,0-.11v-.08a.77.77,0,0,0,0-.15l2.5-25,.22-.18A1.06,1.06,0,0,0,44,12l.06-.12a1,1,0,0,0,.06-.16l0-.12,0-.13,0-.12a1.29,1.29,0,0,0,0-.19v-.13a.28.28,0,0,0,0-.09V9.23a.22.22,0,0,0,0-.08V9a.65.65,0,0,0,0-.2l0-.12,0-.13,0-.12A1,1,0,0,0,44,8.28L44,8.16l0-.06-.4-.69,0,0L43,6.68l0-.06L42.45,6l0,0-.58-.64-.06,0-.65-.62-.32-.31,0,0-.68-.59,0,0-.73-.57-.06,0-.81-.54-.87-.54,0,0-.9-.49-1-.49,0,0-1-.42-.2-.1-.11,0-.27-.1L33.76.14l-.1,0L33.35.06l-.08,0L33,0h-.85L31.8,0l-.08,0-.3.06-.09,0-.28.09L31,.25l-.25.1-.06,0-.24.11-.18.1L28.14,2.11,26,3.6,23.76,5.07,21.5,6.51,19.2,7.93,16.84,9.3l-2.41,1.38L12,12,9.47,13.31,6.93,14.59,4.35,15.84,1.73,17.06l-.09.06-.23.13-.16.12-.16.15L1,17.61l-.13.16-.49.62,0,.07-.11.17a1,1,0,0,0-.12.29l0,.19,0,.12,0,.18a.66.66,0,0,0,0,.14V21a.66.66,0,0,0,0,.14l0,.18,0,.13.05.18A1,1,0,0,0,.23,22l.11.17.08.1.14.16.08.09.15.14,2.93,23.8a.67.67,0,0,0,0,.19l0,.11.06.13.06.13a1.14,1.14,0,0,0,.18.25l.1.1.11.11.16.13.14.09.63.48.06,0,.69.46.76.46.77.43.07,0,.81.38.86.38.91.36,1,.33.14,0,7.09,9,2,6.53.36,2.89L14.47,73l-.06,0-.18.12-.1.07-.17.15a1.07,1.07,0,0,0-.2.23l-.1.16a.8.8,0,0,0-.08.16l-.07.18,0,.1-.05.17a.84.84,0,0,0,0,.27v3l0,.17.05.2a1.34,1.34,0,0,0,.07.18l.08.19.07.13.13.18a.64.64,0,0,0,.1.13l.17.18a.87.87,0,0,0,.15.13l.22.16.25.17.06,0L41.67,95.08l0,0,.28.14.06,0,.3.12.1,0,.29.08.37.1.13,0,.32,0,.32,0H44l.33,0h.12l.32,0h.07l.31,0h.06l.28-.06.09,0,.26-.09.17-.07.22-.12L62.43,85.9l.09-.06.17-.12.09-.08.18-.16a.79.79,0,0,0,.14-.17l.11-.16a.35.35,0,0,0,.07-.12l.09-.17a1.14,1.14,0,0,0,.09-.26l0-.2a.55.55,0,0,0,0-.18v-3l0-.19,0-.19a.78.78,0,0,0-.09-.21l-.1-.19a.22.22,0,0,0,0-.08l-.12-.19-.08-.1-.16-.18a.93.93,0,0,0-.14-.14l-.22-.17-.11-.08-.24-.13-4.5-2.61.75-.58,6.36-4.32.83-.62.06,0,.72-.62,0,0,.67-.65,0,0,.59-.65.07-.09.5-.7a.1.1,0,0,0,0,0l.43-.69a.56.56,0,0,0,.05-.08l.35-.7a.37.37,0,0,0,0-.11l.26-.71,0-.09.18-.72,0-.13.08-.71a.28.28,0,0,0,0-.09l0-.71V60.22Zm-5,10.56-.75.55-1,.44-1,.42-1.12.36h0l-1.13.33h0l-1.18.29h0l-1.16.24-1.19.19h0l-1.23.16-1.23.11-1.19.06h-1.2l-1.22,0h0L45.75,73l-4.06-.65-3.71-1-3.27-1.45-2.33-1.15L30.33,67.4,28.58,66l-1.43-1.54L26,62.76l-.11-.23h0l-.66-1.46-.42-1.77v0l.3.67,0,0s0,0,0,0l1.15,1.71,0,0,0,0,1.49,1.6,0,0,0,0,1.79,1.47h0l0,0,2.09,1.34s0,0,0,0l0,0,2.37,1.17h0l3.32,1.44h0l0,0L41.44,70h.06l4.11.64h0L50,70.9h0l1.22,0h1.26l1.23,0h0L55,70.78h0l1.23-.16h0l1.22-.19h0l1.2-.24h0l1.18-.29h0l1.15-.33h0l1.14-.38h0l1.07-.42h0l1-.47.06,0h0l.8-.6a0,0,0,0,1,0,0h0L66,67a0,0,0,0,0,0,0h0l.66-.67h0l.59-.66s0,0,0,0,0,0,0,0l.51-.67s0,0,0,0,0,0,0,0l.4-.63v.08l-.07.65L68,65.6l-.23.65-.34.66-.41.65-.47.66-.57.63-.64.63ZM61.36,80.69h0l.2.12.16.12.11.12.09.14.06.11,0,.08v2.79l0,.08,0,.08-.06.09-.12.1-.11.08L45.46,94h0l-.17.09-.2.07-.21,0-.29,0-.26,0H44l-.3,0-.29,0-.28-.08L42.9,94l-.25-.11-.26-.13L15.54,78.25l-.2-.13h0L15.16,78l-.11-.12L15,77.74l-.05-.1,0-.11V74.94s0,0,0-.08v-.11l0-.07.05-.12,0,0,.09-.08.15-.1,6.11-3.54.25,2.12,0,.07a.17.17,0,0,0,0,.07v0l0,.05s0,0,0,.06a.06.06,0,0,1,0,0l0,0,0,.07.08.1,0,0s0,0,0,0l.08.07,0,0,0,0,.09.06h0l0,0,.12.06h0l.56.22,1.54.7,1.44.76,1.35.81,1.26.87.13.1v.25l.09,1s0,0,0,0v0l.26,1,0,0a.13.13,0,0,0,0,.06l.43.93s0,0,0,0,0,0,0,0l.62.88,0,0,0,0,.78.83,0,0s0,0,0,0l1,.77,0,0,0,0,1.09.69s0,0,0,0h0l1.23.62h0l1.72.75h.06l1.93.58h.06l2.13.36h0l2.22.13h0l.61,0h.66l.64,0h0l.62-.05h0l.63-.06h0l.62-.11h0l.6-.11h0l.6-.15h0l.57-.17h0l.56-.19h0l.57-.2h0l.52-.24s0,0,0,0l.06,0,.39-.31h0l.36-.32h0l.33-.32,0,0,0,0,.28-.35h0l.25-.33a0,0,0,0,1,0,0,0,0,0,0,0,0,0l.86-1.42h0l2.16-3.53,1-.81ZM5,17.19H5L7.6,15.93h0l2.55-1.29h0l2.54-1.32h0L15.17,12h0l2.41-1.38h0L20,9.21h0L22.3,7.78h0l2.28-1.45h0l2.23-1.48h0L29,3.33h0l2.07-1.5.19-.09.22-.08.25-.08L32,1.53l.26,0h.55l.27,0,.25.05.24.08.23.08.2.1h0l1,.43.91.46.88.48.81.5.8.53.71.55.67.57.32.31h0l.64.61.56.61.5.64.44.65.38.65,0,.08,0,.08,0,.12,0,.07v.32l0,.07,0,.13,0,.07-1.73,1.43h0l-1.87,1.45h0l-2,1.42-2,1.38L32.93,16.8h0l-2.19,1.32-2.26,1.26h0L26.16,20.6h0l-2.42,1.18h0l-2.45,1.13L18.76,24l-2.54,1-.16,0-.19,0h0l-.21,0H14.45l-.19,0-.21,0-.19,0-1.19-.23-1.15-.26-1.11-.3h0l-1.1-.33-1.06-.37-1-.4-1-.42-1-.46-.89-.49-.84-.51-.8-.54L2,20.14H2l0,0L1.79,20l-.1-.1-.1-.13-.06-.08v-.06l0-.09,0-.09,0-.08.05-.08L2,18.73l.11-.13.1-.09.15-.1Zm35.93-4.5-1.88,1.45h0l-2,1.43-2,1.38-2.12,1.34h0l-2.19,1.32-2.26,1.26h0l-2.32,1.22h0l-2.42,1.19L21.29,24.4l-2.53,1.09-2.54,1-.16,0-.19,0h0l-.21,0h-1.2l-.2,0h0l-.21,0-.19,0-1.18-.23h0L11.51,26l-1.11-.29-1.09-.34L8.25,25l-1-.4-1-.42-1-.46-.9-.5h0l-.82-.49-.81-.55L2,21.65l0,0,0,0-.18-.12-.12-.1-.1-.12,0-.07,0-.08,0-.09v0l.66.51h0a0,0,0,0,1,0,0l.82.56H3l.86.52h0l.91.5h0l1,.47h0l1,.44h0l1.05.41h0L9,24.86H9l1.1.34h0l1.13.31h0l1.17.26h0l1.21.24h0l.21,0h0l.22,0,.21,0h.47l.21,0h.06l.19,0h.47l.22,0h0l.21,0h0l.22,0,0,0h.06l2.59-1.05h0l2.54-1.1h0l2.48-1.15h0l2.43-1.18h0L29,20.26h0L31.25,19h0l2.19-1.32h0l2.13-1.36h0l2.06-1.39h0l2-1.43h0L41.55,12h0l1.18-1,0,.06,0,.12,0,.08-.45.37h0ZM22.4,26.87l0,.05h0l0,.07,0,0-.05,0,0,0h0a.31.31,0,0,0-.13,0H22l-.09.06-.07.05h0l-.26.27-.26.23h0l-.27.22-.28.19-.27.17-.25.14-.27.11-.27.1-.22.06-.19,0h-.13l-.58-.34.09,0h0l.29-.1h0l.31-.13h0l.3-.16s0,0,0,0h0l.29-.19h0l.3-.22h0l.3-.22,0,0,0,0L21,27l.12-.12,0,0,.06-.1,0-.07s0,0,0,0l0-.08,0-.13h0v-.05l0,0,0,0ZM3,23.57H3l.86.52h0l.91.5h0l1,.47h0l1,.43h0L7.9,26h0L9,26.34H9l1.11.34h0l1.13.3h0l1.17.26h0l1.2.23h0l.21,0h0l.22,0h0l.21,0h1.4l.22,0h0l.21,0h0l.22,0,0,0h.06l2.59-1h0l1.33-.58,0,.05a.43.43,0,0,0,0,.07l-.05.14h0l-.05.14h0l0,0-.24.24-.27.21h0l-.29.2-.26.17-.26.15-.27.11-.24.08-.26.06-.26.05h-.07l-.11.05,0,0-.06,0,0,0,0,0h0a.53.53,0,0,0-.12.14l0,0s0,.05,0,.08l0,0a.3.3,0,0,0,0,.1l0,0a.3.3,0,0,0,0,.1l0,0a.75.75,0,0,0,0,.15s0,0,0,0a.35.35,0,0,0,0,.14v.06h0l0,0a.48.48,0,0,0,.14.2l0,0,0,0,1.29.75h0a.36.36,0,0,0,.2.06l.3,0h.1l.29,0h.06l.27-.08h0l.29-.11h0l.31-.12,0,0h0l.28-.16h0l.3-.18h0l.3-.21h0l0,0,.3-.24h0l.28-.24v0l0,0,.14-.14h0l.11,0h.06l.09-.05s0,0,0,0h0l.11-.07s0,0,0,0l0,0,.11-.11,0,0,0,0,.1-.13a1,1,0,0,0,0-.1s0,0,0,0l0-.13h0l.05-.15s0,0,0,0,0,0,0,0l0-.13a.41.41,0,0,0,0-.11.22.22,0,0,0,0-.08h0l0-.11s0,0,0-.07a.13.13,0,0,0,0-.06l-.05-.1a.39.39,0,0,0-.08-.1s0,0,0,0h0a.27.27,0,0,0-.08-.07l-.06-.05h0l-1.29-.74-.06,0h0l2.48-1.14h0L26.61,23h0L29,21.75h0l2.28-1.26h0l2.19-1.32h0l2.12-1.35h0l2-1.39h0l2-1.43h0l1.89-1.46h0l.34-.28L39.5,37.4l0,.06v.07h0l0,.05L38,38.75,36.43,40l-1.66,1.21-.89.6h0l-.85.58-1.81,1.16-1.88,1.11h0l-1.92,1.08h0l-2,1-2.06,1h0l-2.1,1-1.95.82-.19.07h0l-2.1.86-.15,0h0l-.13,0h-.85l-.16,0h-.15l-.11,0h0L15,50.43h0l-.57-.1-1-.23-.95-.24L12,49.71h0l-.42-.14-.9-.3-.85-.34L9,48.57l-.78-.36-.74-.43h0l-.71-.42-.65-.43-.66-.5h0l0,0-.13-.08-.05-.06,0,0v0l0,0-2.84-23ZM38,43.69h0l1,.43h0a.41.41,0,0,0,.19,0h0l1.35-.06,3.16.09,3.07.27,3,.48,2.84.66,2.67.85,2.47,1L60,48.64,62,50l2.42,1.83,1.78,2L66.74,55l0,.09h0l.48,1h0v0l.42,2.31.09.65v.62l-.07.63-.14.65-.2.63-.32.64-.36.63-.46.63-.49.59-.62.6h0l-.64.57-.7.52-.93.42-1,.37h0l-1.06.36-1.09.32-1.11.26-1.15.23-1.15.16h0L55.14,68,54,68.08l-1.19,0H51.62l-1.2-.05h0l-4.15-.25-4-.66L38.68,66.1l-3.19-1.42-2.31-1.13-2-1.3-1.75-1.41L28,59.34l-1.14-1.61-.78-1.65-.47-1.72-.12-1.75.08-.74s0,0,0,0a.34.34,0,0,0,0-.1l0-.09a.2.2,0,0,0,0-.08l-.06-.08s0,0,0,0l-.74-.59h0l-1.76-1.21,1.9-1.09h.4l1.54.88h0l.24.15a.54.54,0,0,0,.27.07.48.48,0,0,0,.42-.24.44.44,0,0,0,.07-.27L34,45.49h0l.68-.39.15,0,.12,0a.5.5,0,0,0,.28-.1l.06-.06s.07-.05.09-.09l0-.1s0,0,0,0v-.23a.36.36,0,0,0,0-.09.59.59,0,0,0,0-.08l-.06-.07-.08-.07,0,0-1.48-.85,1-.56h0l.65-.38ZM38,68l-3.26-1.42-2.34-1.15L30.33,64.1l-1.74-1.42-1.44-1.55L26,59.48l-.77-1.7,0-.1L26,59.2l0,0s0,0,0,.05l1.19,1.66,0,0s0,0,0,0l1.48,1.57,0,0,0,0,1.79,1.44h0l0,0,2,1.32h0l0,0,2.34,1.16h0L38.32,68h0l0,0,3.59,1-.28,0ZM31.4,72.41s0,0,0,0l0,0,1.3,1.06s0,0,0,0l0,0,1.52,1h0s0,0,0,0l1.7.85h0l2.39,1h0l0,0,2.71.77h.06l3,.47h.05l3.1.15h0l.87,0h1l.88,0h0l.9-.07h0l.87-.11h0l.87-.14h0l.87-.19h0l.85-.23h0l.23-.07-.68.52h0v0h0s0,0,0,0h0l-.08.09,0,.05h0L51.84,81.3v0h0L51,82.73l-.23.31-.26.32-.29.28h0l-.35.31-.32.26-.45.2-.54.18-.55.19-.57.16-.57.14-.58.11h0l-.6.11-.62.06h0l-.6,0h0l-.63,0h-.6l-.61,0-2.18-.13-2.07-.35-1.88-.56-1.67-.73L33.6,83l-1.05-.66-.9-.73-.74-.78-.57-.81L30,79.21l-.24-.87-.08-.88.05-.36h0l0-.37a.44.44,0,0,0-.07-.28V72.6h0l-.07-2.46.72,1.08s0,0,0,0l0,0ZM21.5,54h0a0,0,0,0,0,0,0l-2.65-1.58h0l-1.57-.84.05,0h.06l2.11-.87,1.49.9,2.43,1.69.49.38-.08.53v0a.08.08,0,0,0,0,0v1.37Zm6.38-7.33h0l1.94-1.1h0l1.89-1.12h0l.31-.2v.21a.14.14,0,0,0,0,.06.3.3,0,0,0,0,.1.36.36,0,0,0,0,.09l.05.07a.27.27,0,0,0,.08.07l0,0,.37.22-5.76,3.33-1.15-.66.09,0h0ZM56.32,68.85h-.11ZM21.42,49.79v.79s0,0,0,0v0l-.83-.5ZM13.2,51.07h0l1,.23h0l.53.09.76.33,2.8,1.49,2.62,1.56,2.42,1.69.42.33v.67h0l.07,1.88s0,0,0,0,0,0,0,0l.44,1.87s0,0,0,0a.08.08,0,0,0,0,0l.05.12L23,60.82h0a0,0,0,0,1,0,0l-2.17-1h0L20,59.52h0l-.14-.06-.07-.05-.07-.07-.08-.09h0L13.2,51.07Zm7.2,9.69,2.14,1,2,1.07h0l.53.31.07.14s0,0,0,0l0,0h0l3.31,5.19.12,4.12V76l-.83-.57h0l-1.38-.82h0l-1.46-.78h0l-1.58-.72h0l-.55-.21-.08,0,0,0h0v0L22.25,70h0a0,0,0,0,1,0,0v0h0l-.44-3.63a.08.08,0,0,1,0,0v0L20.1,60.64ZM57.51,75h0l-.12.07-.7.32-.76.3-.78.25-.81.24h0l-.85.22-.84.18-.86.13-.85.11-.88.07-.86,0h-.87l-.87,0h0l-3.07-.15-2.92-.47-2.65-.76-2.34-1-1.66-.83-1.47-1-1.24-1-1-1.1-.79-1.18h0l-.86-1.36-.17-.26.46.38,0,0,0,0,2.09,1.31h0l0,0,2.38,1.17h0l3.31,1.46h.06l3.77,1.06h.06l4.11.65h.05l4.33.21h0l1.21,0H52.5l1.23-.06h0L55,74.05h0l1.23-.16h0l1.22-.19h0l1.19-.24h0l1.18-.29h0l.53-.15Z"/></g></g></svg>