<svg xmlns="http://www.w3.org/2000/svg" viewBox="0 0 80.13 70.39"><g id="Layer_2" data-name="Layer 2"><g id="Layer_1-2" data-name="Layer 1"><path d="M28.2,50.49H25.8v.8h2.4Zm36.7,10.9a2.8,2.8,0,1,0,2.8,2.8A2.73,2.73,0,0,0,64.9,61.39Zm0,4.4a1.6,1.6,0,1,1,1.6-1.6A1.58,1.58,0,0,1,64.9,65.79Zm-53.1-4.4a2.8,2.8,0,1,0,2.8,2.8A2.68,2.68,0,0,0,11.8,61.39Zm0,4.4a1.6,1.6,0,1,1,1.6-1.6A1.52,1.52,0,0,1,11.8,65.79Zm62.1-29H32.4a.35.35,0,0,0-.4.4v9.3a.35.35,0,0,0,.4.4H73.9a.35.35,0,0,0,.4-.4v-9.3a.35.35,0,0,0-.4-.4Zm-31.5,9.3H32.8v-8.5h9.6Zm10.3,0H43.1v-8.5h9.6Zm10.4,0H53.5v-8.5h9.6Zm10.4,0H63.9v-8.5h9.6ZM21.7,60.69H55.1v-.8H21.7Zm56.5-30.3a2.35,2.35,0,0,0-2.4-2.3H29.5c-1.3,0-2.9,1.3-4.9,3.1-3,2.7-6.8,6.7-9.9,10.1-1.6,1.7-3,3.3-4,4.4-.5.6-1,1-1.3,1.4l-.4.4a.1.1,0,0,0-.1.1h0c-1,.5-4.7,1.8-7.1,4.2a10.73,10.73,0,0,0-1.2,2.4c-.3.9-.6,1.7-.6,1.7v8.2a.52.52,0,0,0,.2.4.76.76,0,0,0,.4.2H5.7a6.11,6.11,0,0,0,12.2,0H58.8a6.11,6.11,0,0,0,12.2,0h5.2c.7-.1.9-.5,1.3-1a15.24,15.24,0,0,0,1.7-6.9C79.2,51.09,78.2,30.39,78.2,30.39ZM12.1,45.89c2-2.2,4.8-5.4,7.7-8.4h7.9v7.7c0,.4-.1.6-.2.6a1.29,1.29,0,0,1-.8.2H22.1c-.9,0-1.8.8-2.9,1.4a7.87,7.87,0,0,1-3.7,1.3H12.7c-.2,0-.6-.1-.6-1.3ZM1.7,54.59a10.52,10.52,0,0,1,.8-1.8h.4a6.17,6.17,0,0,1,2.2.4c.2.1.4.1.6.2a4.85,4.85,0,0,1-4.3,2.4Zm10.1,14.5a4.9,4.9,0,1,1,4.9-4.9A4.78,4.78,0,0,1,11.8,69.09Zm53.1,0a4.9,4.9,0,1,1,4.9-4.9A4.91,4.91,0,0,1,64.9,69.09Zm12.2-7.8a9.76,9.76,0,0,1-.7,1.7,1.38,1.38,0,0,1-.3.4H71a6.16,6.16,0,0,0-12.2,0h-41a6.16,6.16,0,0,0-12.2,0H1.1v-2.7H5.8v-.8H1.1v-3.5h.1a5.73,5.73,0,0,0,5.3-3.2c0-.1.1-.2,0-.3a.22.22,0,0,0-.2-.2,8.9,8.9,0,0,0-3.1-.8,29.23,29.23,0,0,1,6-3.3c.4-.2.6-.5,1.2-1.1a4.62,4.62,0,0,1,.7-.7v.8a3.41,3.41,0,0,0,.4,1.6,1.59,1.59,0,0,0,1,.5h3.1a8.38,8.38,0,0,0,4.1-1.4c1.2-.7,2.2-1.4,2.5-1.3h4.6a1.94,1.94,0,0,0,1.3-.3,1.43,1.43,0,0,0,.5-1.3v-8.2a.35.35,0,0,0-.4-.4H20.6c2-2,3.9-3.9,5.5-5.3a9.44,9.44,0,0,1,3.4-2.2H75.8a1.2,1.2,0,0,1,1.2,1.1c0,.1,1,20.8,1,26.3A13.94,13.94,0,0,1,77.1,61.29Zm-44.7-9.2H73.9v-.8H32.4Z"/><path d="M76.79,23.86c0-2.08,4.15-3.63,3.2-5.62a3.8,3.8,0,0,1-3,2c-2.07.08.26-1.73,1.21-2.68s-.08-3.54-1-3.8c0,0,.61,1.64-.17,2.42s-2.76,2.07-2.76,2.76-1.47-.95-.61-1.72a2.17,2.17,0,0,0-.17-3.37c-1.3-1.21-1.21-1.9-.52-3,0,0-2.68,1.13-2.51,2.59S73,17.29,72,20.14s-3.46,4.41-3.8,2.94,2.5-2.68,2.07-4.67-2.64-2.56-2.76-4.92a3.81,3.81,0,0,1,1.12-2.76s-3.11,1-2.51,3.28,2.42,4.32,1.47,5.7-3.28,2.07-2.85,3.89-4.32-1.21-2.85-3.54,2.85-3.81,2.25-5.36c0,0-.35,2.25-2.16,2.76s-2-1.55-.26-3.37S61.15,9,61.15,9a2,2,0,0,1-.77,2.42c-1.39.86-4.32,2.67-3.89,5.35s3.28,5.79,1.47,7-4.58-1.38-3.46-3.72,1-3.19,1-3.19-1.64,3-2.94,3.37-.86-1.73.52-3.54,1.12-4.93-.86-6.14a2.55,2.55,0,0,1-1.13-3.19S49,9.78,49.41,10.81s1.46,4.58.34,5.36-1.73-.61-1.21-1.9a2.41,2.41,0,0,0-.34-2.33s0,2.07-1,2.24-1.82,2-.87,2.68,3.54,3.46,2,4.32-4.06,2.59-3,4.32-1.3,2.85-1.73,1.29-.69-2.5.69-4.32.78-2.93.78-2.93a3.41,3.41,0,0,1-1.64,2.33c-1.3.52-.87,2.85-2,2.68s-.52-2.85.95-4.32a2.9,2.9,0,0,0-.26-4.41c-1.21-.86-.78-3.45-.78-3.45s-1.72,3-1.29,3.8.08,4.14-.95,4.23-3.8-4.66-1.21-7.86-.69-4.92-.69-4.92,1,2.33-.61,3.45-4.75,2.85-4.92,5.7,4.32,5.7,3.11,7.17-4.24,0-3.72-1.9S29,18.76,29,18.76s1.64,1.9.43,3.28-2.16,6.39.78,8,5.1,1.72,11.23,1.72H74.28s4.41-.6,4.93-3.54S76.79,25.93,76.79,23.86Z"/><path d="M40.91,10.31s2.26-1.08,1.57-2.75S40.22,5.5,40.91,4.32c0,0-1.67.19-.69,1.67S41.6,9.62,40.91,10.31Z"/><path d="M65.16,6.38c-.29-1.76-2.4-1.87-2.4-1.87a2.1,2.1,0,0,1,.92,2.16,4.54,4.54,0,0,1-1.42,2.1S65.44,8.14,65.16,6.38Z"/><path d="M58.67,3.83c1.87,1.37,2.16,3,1.67,3.73A2.28,2.28,0,0,0,61.42,5.2C61,3.73,58.77,2,60,0,60,0,56.81,2.45,58.67,3.83Z"/><path d="M73.89,10.31c1.08.88,2.25,1.86,1.57,2.74,0,0,2.06-.59,1.57-2.16s-2.65-.39-2.26-3C74.77,7.85,72.81,9.42,73.89,10.31Z"/><path d="M54,9.91s1.57-.29.89-1.47-2.26-1.57-2-3.53c0,0-1.18,1.67-.29,2.75S54.06,9,54,9.91Z"/></g></g></svg>