<svg xmlns="http://www.w3.org/2000/svg" viewBox="0 0 64 80" x="0px" y="0px">
    <g>
        <path d="M12,41a4,4,0,1,0,4,4A4,4,0,0,0,12,41Zm0,6a2,2,0,1,1,2-2A2,2,0,0,1,12,47Z"/>
        <rect x="18" y="34" width="2" height="22"/>
        <path d="M26,41a4,4,0,1,0,4,4A4,4,0,0,0,26,41Zm0,6a2,2,0,1,1,2-2A2,2,0,0,1,26,47Z"/>
        <path d="M50,11a1,1,0,0,1,1,1h2a3,3,0,0,0-2-2.816V8H49V9.184A2.993,2.993,0,0,0,50,15a1,1,0,1,1-1,1H47a3,3,0,0,0,2,2.816V20h2V18.816A2.993,2.993,0,0,0,50,13a1,1,0,0,1,0-2Z"/>
        <path d="M50,2A11.976,11.976,0,0,0,39.273,19.349a19.878,19.878,0,0,0-4.085,4.134L27.071,22.4A7.066,7.066,0,0,0,21.2,24.39L4.121,41.465a5.005,5.005,0,0,0,0,7.07L15.465,59.879a5,5,0,0,0,7.07,0L39.61,42.8a7.041,7.041,0,0,0,1.99-5.875l-1.082-8.111a20.817,20.817,0,0,0,2.31-1.99,21.03,21.03,0,0,0,1.835-2.1A11.994,11.994,0,1,0,50,2ZM39.617,37.192a5.034,5.034,0,0,1-1.421,4.2L21.121,58.465a3,3,0,0,1-4.242,0L5.535,47.121a3,3,0,0,1,0-4.242L22.61,25.8a5.036,5.036,0,0,1,3.546-1.464,4.924,4.924,0,0,1,.652.043l9.028,1.2a3,3,0,0,1,2.517,2.3,9.469,9.469,0,0,1-1.982.974A3.985,3.985,0,1,0,37,31c0-.083-.019-.16-.024-.242a9.858,9.858,0,0,0,1.684-.741ZM33,29h0a2.374,2.374,0,0,0,.636,1.364A2.3,2.3,0,0,0,35,31.007,2,2,0,1,1,33,29Zm8.414-3.586c-.469.469-.925.879-1.368,1.246a4.992,4.992,0,0,0-2.7-2.7c.384-.463.794-.921,1.243-1.37a18.9,18.9,0,0,1,1.735-1.522,12.064,12.064,0,0,0,2.63,2.626A19.381,19.381,0,0,1,41.414,25.414ZM50,24a9.914,9.914,0,0,1-4.2-.938c1.281-2.173,1.732-4.258.564-5.426L44.95,19.05c.254.253.069,1.4-.867,2.993A9.981,9.981,0,1,1,50,24Z"/>
    </g>
</svg>