<svg xmlns="http://www.w3.org/2000/svg" viewBox="0 0 95.09 100"><g id="Layer_2" data-name="Layer 2"><g id="Layer_1-2" data-name="Layer 1"><path d="M94.48,18.24c-2.91.27-15.12-2-19.55-3.25s-8.37-9-16.29-6.52S44.48,5.21,39.09,5.21a13.26,13.26,0,0,1-7.43-1.95A3.32,3.32,0,0,0,30.14.55a4.05,4.05,0,0,0-2-.55,6.05,6.05,0,0,0-3.22,1.14L3.26,5.23v0H0V100H3.26V10.74l10.94,14a3.56,3.56,0,0,0,.41.53l.4.5,0,0c.17.14.25.35.45.46a3.24,3.24,0,0,0,1.64.43h0a4.52,4.52,0,0,0,2-.6c3.24,1.11,8,2.23,10.16,2,3-.32,7.25,1.2,9.77,3.25s13.76-.63,16.29,0,10,5.1,13,6.52,14.7.48,16.29,0,7.5-11.52,8.29-13S96.22,18.09,94.48,18.24ZM18.11,9.33a45.31,45.31,0,0,0-4,10L5.37,8.15,20.76,5.23A35.06,35.06,0,0,0,18.11,9.33ZM21,10.86A21.74,21.74,0,0,1,26.22,4.2l2.18-.41c.12,1.44-1,5.49-3.76,10.41-3.62,6.5-6.4,9-7.4,9.13L17,23C16.64,21.56,17.87,16.72,21,10.86Z"/></g></g></svg>